M48
;DRILL file {KiCad 5.0.1-33cea8e~68~ubuntu18.04.1} date Mon 29 Oct 2018 05:12:28 PM CET
;FORMAT={-:-/ absolute / metric / decimal}
FMAT,2
METRIC,TZ
T1C0.600
T2C0.800
T3C1.000
T4C1.100
T5C1.300
%
G90
G05
M71
T1
X26.924Y14.541
X19.304Y29.21
X19.304Y27.21
X19.304Y17.081
X19.304Y15.082
X54.8Y19.621
X56.8Y19.621
X28.924Y14.541
X45.91Y31.21
X45.91Y29.21
T2
X49.149Y8.128
X56.769Y8.128
X33.21Y29.21
X40.831Y29.21
X49.149Y19.621
X49.149Y12.002
X63.691Y33.084
X63.691Y25.463
X33.21Y19.621
X33.21Y17.081
X33.21Y14.541
X33.21Y12.002
X40.831Y19.621
X40.831Y17.081
X40.831Y14.541
X40.831Y12.002
X19.304Y8.128
X26.924Y8.128
T3
X13.271Y29.21
X13.271Y26.71
X13.271Y24.21
X69.406Y30.543
X69.342Y25.463
T4
X56.832Y30.543
X56.832Y28.003
X56.832Y25.463
T5
X60.264Y12.136
X63.464Y2.837
X64.664Y5.536
X67.564Y12.636
X71.464Y8.037
X2.196Y7.902
X6.096Y3.302
X8.996Y10.402
X10.196Y13.102
X13.396Y3.802
T0
M30
