G04 #@! TF.FileFunction,Copper,L2,Bot,Signal*
%FSLAX46Y46*%
G04 Gerber Fmt 4.6, Leading zero omitted, Abs format (unit mm)*
G04 Created by KiCad (PCBNEW 4.0.7) date 06/18/18 13:17:35*
%MOMM*%
%LPD*%
%MI*%
G01*
G04 APERTURE LIST*
%ADD10C,0.100000*%
%ADD11R,1.800000X1.800000*%
%ADD12C,1.800000*%
%ADD13R,1.700000X1.700000*%
%ADD14O,1.700000X1.700000*%
%ADD15R,2.400000X1.600000*%
%ADD16O,2.400000X1.600000*%
%ADD17C,0.250000*%
%ADD18C,0.254000*%
G04 APERTURE END LIST*
D10*
D11*
X12065000Y15240000D03*
D12*
X9525000Y15240000D03*
D13*
X18415000Y3175000D03*
D14*
X18415000Y5715000D03*
X18415000Y8255000D03*
X18415000Y10795000D03*
D13*
X3175000Y10795000D03*
D14*
X3175000Y8255000D03*
X3175000Y5715000D03*
X3175000Y3175000D03*
D15*
X6985000Y10795000D03*
D16*
X14605000Y3175000D03*
X6985000Y8255000D03*
X14605000Y5715000D03*
X6985000Y5715000D03*
X14605000Y8255000D03*
X6985000Y3175000D03*
X14605000Y10795000D03*
D17*
X6985000Y3175000D02*
X3175000Y3175000D01*
X6985000Y3175000D02*
X11430000Y3175000D01*
X12065000Y3810000D02*
X12065000Y15240000D01*
X11430000Y3175000D02*
X12065000Y3810000D01*
X6985000Y8255000D02*
X3175000Y8255000D01*
X6985000Y8255000D02*
X8890000Y8255000D01*
X9525000Y8890000D02*
X9525000Y15240000D01*
X8890000Y8255000D02*
X9525000Y8890000D01*
X14605000Y3175000D02*
X18415000Y3175000D01*
X14605000Y5715000D02*
X18415000Y5715000D01*
X14605000Y8255000D02*
X18415000Y8255000D01*
X14605000Y10795000D02*
X18415000Y10795000D01*
X3175000Y10795000D02*
X6985000Y10795000D01*
X3175000Y5715000D02*
X6985000Y5715000D01*
D18*
G36*
X8527770Y15907588D02*
X8348205Y15475147D01*
X8347796Y15006907D01*
X8526606Y14574154D01*
X8857412Y14242770D01*
X9123000Y14132488D01*
X9123000Y9056514D01*
X8723486Y8657000D01*
X8410973Y8657000D01*
X8408954Y8667150D01*
X8175490Y9016554D01*
X7826086Y9250018D01*
X7413936Y9332000D01*
X6556064Y9332000D01*
X6143914Y9250018D01*
X5794510Y9016554D01*
X5561046Y8667150D01*
X5559027Y8657000D01*
X4244116Y8657000D01*
X4238291Y8686284D01*
X3993988Y9051909D01*
X3628363Y9296212D01*
X3197079Y9382000D01*
X3152921Y9382000D01*
X2721637Y9296212D01*
X2356012Y9051909D01*
X2111709Y8686284D01*
X2025921Y8255000D01*
X2111709Y7823716D01*
X2356012Y7458091D01*
X2721637Y7213788D01*
X3152921Y7128000D01*
X3197079Y7128000D01*
X3628363Y7213788D01*
X3993988Y7458091D01*
X4238291Y7823716D01*
X4244116Y7853000D01*
X5559027Y7853000D01*
X5561046Y7842850D01*
X5794510Y7493446D01*
X6143914Y7259982D01*
X6556064Y7178000D01*
X7413936Y7178000D01*
X7826086Y7259982D01*
X8175490Y7493446D01*
X8408954Y7842850D01*
X8410973Y7853000D01*
X8890000Y7853000D01*
X9043839Y7883600D01*
X9174257Y7970743D01*
X9809257Y8605743D01*
X9896400Y8736161D01*
X9927000Y8890000D01*
X9927000Y14132587D01*
X10190846Y14241606D01*
X10522230Y14572412D01*
X10701795Y15004853D01*
X10702204Y15473093D01*
X10523394Y15905846D01*
X10271680Y16158000D01*
X10886219Y16158000D01*
X10882574Y16140000D01*
X10882574Y14340000D01*
X10901889Y14237350D01*
X10962555Y14143073D01*
X11055120Y14079825D01*
X11165000Y14057574D01*
X11663000Y14057574D01*
X11663000Y3976514D01*
X11263486Y3577000D01*
X8410973Y3577000D01*
X8408954Y3587150D01*
X8175490Y3936554D01*
X7826086Y4170018D01*
X7413936Y4252000D01*
X6556064Y4252000D01*
X6143914Y4170018D01*
X5794510Y3936554D01*
X5561046Y3587150D01*
X5559027Y3577000D01*
X4244116Y3577000D01*
X4238291Y3606284D01*
X3993988Y3971909D01*
X3628363Y4216212D01*
X3197079Y4302000D01*
X3152921Y4302000D01*
X2721637Y4216212D01*
X2356012Y3971909D01*
X2111709Y3606284D01*
X2025921Y3175000D01*
X2111709Y2743716D01*
X2356012Y2378091D01*
X2721637Y2133788D01*
X3152921Y2048000D01*
X3197079Y2048000D01*
X3628363Y2133788D01*
X3993988Y2378091D01*
X4238291Y2743716D01*
X4244116Y2773000D01*
X5559027Y2773000D01*
X5561046Y2762850D01*
X5794510Y2413446D01*
X6143914Y2179982D01*
X6556064Y2098000D01*
X7413936Y2098000D01*
X7826086Y2179982D01*
X8175490Y2413446D01*
X8408954Y2762850D01*
X8410973Y2773000D01*
X11430000Y2773000D01*
X11583839Y2803600D01*
X11714257Y2890743D01*
X11998514Y3175000D01*
X13099064Y3175000D01*
X13181046Y2762850D01*
X13414510Y2413446D01*
X13763914Y2179982D01*
X14176064Y2098000D01*
X15033936Y2098000D01*
X15446086Y2179982D01*
X15795490Y2413446D01*
X16028954Y2762850D01*
X16030973Y2773000D01*
X17282574Y2773000D01*
X17282574Y2325000D01*
X17301889Y2222350D01*
X17362555Y2128073D01*
X17455120Y2064825D01*
X17565000Y2042574D01*
X19265000Y2042574D01*
X19367650Y2061889D01*
X19461927Y2122555D01*
X19525175Y2215120D01*
X19547426Y2325000D01*
X19547426Y4025000D01*
X19528111Y4127650D01*
X19467445Y4221927D01*
X19374880Y4285175D01*
X19265000Y4307426D01*
X17565000Y4307426D01*
X17462350Y4288111D01*
X17368073Y4227445D01*
X17304825Y4134880D01*
X17282574Y4025000D01*
X17282574Y3577000D01*
X16030973Y3577000D01*
X16028954Y3587150D01*
X15795490Y3936554D01*
X15446086Y4170018D01*
X15033936Y4252000D01*
X14176064Y4252000D01*
X13763914Y4170018D01*
X13414510Y3936554D01*
X13181046Y3587150D01*
X13099064Y3175000D01*
X11998514Y3175000D01*
X12349257Y3525743D01*
X12436400Y3656161D01*
X12467000Y3810000D01*
X12467000Y5715000D01*
X13099064Y5715000D01*
X13181046Y5302850D01*
X13414510Y4953446D01*
X13763914Y4719982D01*
X14176064Y4638000D01*
X15033936Y4638000D01*
X15446086Y4719982D01*
X15795490Y4953446D01*
X16028954Y5302850D01*
X16030973Y5313000D01*
X17345884Y5313000D01*
X17351709Y5283716D01*
X17596012Y4918091D01*
X17961637Y4673788D01*
X18392921Y4588000D01*
X18437079Y4588000D01*
X18868363Y4673788D01*
X19233988Y4918091D01*
X19478291Y5283716D01*
X19564079Y5715000D01*
X19478291Y6146284D01*
X19233988Y6511909D01*
X18868363Y6756212D01*
X18437079Y6842000D01*
X18392921Y6842000D01*
X17961637Y6756212D01*
X17596012Y6511909D01*
X17351709Y6146284D01*
X17345884Y6117000D01*
X16030973Y6117000D01*
X16028954Y6127150D01*
X15795490Y6476554D01*
X15446086Y6710018D01*
X15033936Y6792000D01*
X14176064Y6792000D01*
X13763914Y6710018D01*
X13414510Y6476554D01*
X13181046Y6127150D01*
X13099064Y5715000D01*
X12467000Y5715000D01*
X12467000Y8255000D01*
X13099064Y8255000D01*
X13181046Y7842850D01*
X13414510Y7493446D01*
X13763914Y7259982D01*
X14176064Y7178000D01*
X15033936Y7178000D01*
X15446086Y7259982D01*
X15795490Y7493446D01*
X16028954Y7842850D01*
X16030973Y7853000D01*
X17345884Y7853000D01*
X17351709Y7823716D01*
X17596012Y7458091D01*
X17961637Y7213788D01*
X18392921Y7128000D01*
X18437079Y7128000D01*
X18868363Y7213788D01*
X19233988Y7458091D01*
X19478291Y7823716D01*
X19564079Y8255000D01*
X19478291Y8686284D01*
X19233988Y9051909D01*
X18868363Y9296212D01*
X18437079Y9382000D01*
X18392921Y9382000D01*
X17961637Y9296212D01*
X17596012Y9051909D01*
X17351709Y8686284D01*
X17345884Y8657000D01*
X16030973Y8657000D01*
X16028954Y8667150D01*
X15795490Y9016554D01*
X15446086Y9250018D01*
X15033936Y9332000D01*
X14176064Y9332000D01*
X13763914Y9250018D01*
X13414510Y9016554D01*
X13181046Y8667150D01*
X13099064Y8255000D01*
X12467000Y8255000D01*
X12467000Y10795000D01*
X13099064Y10795000D01*
X13181046Y10382850D01*
X13414510Y10033446D01*
X13763914Y9799982D01*
X14176064Y9718000D01*
X15033936Y9718000D01*
X15446086Y9799982D01*
X15795490Y10033446D01*
X16028954Y10382850D01*
X16030973Y10393000D01*
X17345884Y10393000D01*
X17351709Y10363716D01*
X17596012Y9998091D01*
X17961637Y9753788D01*
X18392921Y9668000D01*
X18437079Y9668000D01*
X18868363Y9753788D01*
X19233988Y9998091D01*
X19478291Y10363716D01*
X19564079Y10795000D01*
X19478291Y11226284D01*
X19233988Y11591909D01*
X18868363Y11836212D01*
X18437079Y11922000D01*
X18392921Y11922000D01*
X17961637Y11836212D01*
X17596012Y11591909D01*
X17351709Y11226284D01*
X17345884Y11197000D01*
X16030973Y11197000D01*
X16028954Y11207150D01*
X15795490Y11556554D01*
X15446086Y11790018D01*
X15033936Y11872000D01*
X14176064Y11872000D01*
X13763914Y11790018D01*
X13414510Y11556554D01*
X13181046Y11207150D01*
X13099064Y10795000D01*
X12467000Y10795000D01*
X12467000Y14057574D01*
X12965000Y14057574D01*
X13067650Y14076889D01*
X13161927Y14137555D01*
X13225175Y14230120D01*
X13247426Y14340000D01*
X13247426Y16140000D01*
X13244039Y16158000D01*
X20603000Y16158000D01*
X20603000Y762000D01*
X987000Y762000D01*
X987000Y5715000D01*
X2025921Y5715000D01*
X2111709Y5283716D01*
X2356012Y4918091D01*
X2721637Y4673788D01*
X3152921Y4588000D01*
X3197079Y4588000D01*
X3628363Y4673788D01*
X3993988Y4918091D01*
X4238291Y5283716D01*
X4244116Y5313000D01*
X5559027Y5313000D01*
X5561046Y5302850D01*
X5794510Y4953446D01*
X6143914Y4719982D01*
X6556064Y4638000D01*
X7413936Y4638000D01*
X7826086Y4719982D01*
X8175490Y4953446D01*
X8408954Y5302850D01*
X8490936Y5715000D01*
X8408954Y6127150D01*
X8175490Y6476554D01*
X7826086Y6710018D01*
X7413936Y6792000D01*
X6556064Y6792000D01*
X6143914Y6710018D01*
X5794510Y6476554D01*
X5561046Y6127150D01*
X5559027Y6117000D01*
X4244116Y6117000D01*
X4238291Y6146284D01*
X3993988Y6511909D01*
X3628363Y6756212D01*
X3197079Y6842000D01*
X3152921Y6842000D01*
X2721637Y6756212D01*
X2356012Y6511909D01*
X2111709Y6146284D01*
X2025921Y5715000D01*
X987000Y5715000D01*
X987000Y11645000D01*
X2042574Y11645000D01*
X2042574Y9945000D01*
X2061889Y9842350D01*
X2122555Y9748073D01*
X2215120Y9684825D01*
X2325000Y9662574D01*
X4025000Y9662574D01*
X4127650Y9681889D01*
X4221927Y9742555D01*
X4285175Y9835120D01*
X4307426Y9945000D01*
X4307426Y10393000D01*
X5502574Y10393000D01*
X5502574Y9995000D01*
X5521889Y9892350D01*
X5582555Y9798073D01*
X5675120Y9734825D01*
X5785000Y9712574D01*
X8185000Y9712574D01*
X8287650Y9731889D01*
X8381927Y9792555D01*
X8445175Y9885120D01*
X8467426Y9995000D01*
X8467426Y11595000D01*
X8448111Y11697650D01*
X8387445Y11791927D01*
X8294880Y11855175D01*
X8185000Y11877426D01*
X5785000Y11877426D01*
X5682350Y11858111D01*
X5588073Y11797445D01*
X5524825Y11704880D01*
X5502574Y11595000D01*
X5502574Y11197000D01*
X4307426Y11197000D01*
X4307426Y11645000D01*
X4288111Y11747650D01*
X4227445Y11841927D01*
X4134880Y11905175D01*
X4025000Y11927426D01*
X2325000Y11927426D01*
X2222350Y11908111D01*
X2128073Y11847445D01*
X2064825Y11754880D01*
X2042574Y11645000D01*
X987000Y11645000D01*
X987000Y16158000D01*
X8778620Y16158000D01*
X8527770Y15907588D01*
X8527770Y15907588D01*
G37*
X8527770Y15907588D02*
X8348205Y15475147D01*
X8347796Y15006907D01*
X8526606Y14574154D01*
X8857412Y14242770D01*
X9123000Y14132488D01*
X9123000Y9056514D01*
X8723486Y8657000D01*
X8410973Y8657000D01*
X8408954Y8667150D01*
X8175490Y9016554D01*
X7826086Y9250018D01*
X7413936Y9332000D01*
X6556064Y9332000D01*
X6143914Y9250018D01*
X5794510Y9016554D01*
X5561046Y8667150D01*
X5559027Y8657000D01*
X4244116Y8657000D01*
X4238291Y8686284D01*
X3993988Y9051909D01*
X3628363Y9296212D01*
X3197079Y9382000D01*
X3152921Y9382000D01*
X2721637Y9296212D01*
X2356012Y9051909D01*
X2111709Y8686284D01*
X2025921Y8255000D01*
X2111709Y7823716D01*
X2356012Y7458091D01*
X2721637Y7213788D01*
X3152921Y7128000D01*
X3197079Y7128000D01*
X3628363Y7213788D01*
X3993988Y7458091D01*
X4238291Y7823716D01*
X4244116Y7853000D01*
X5559027Y7853000D01*
X5561046Y7842850D01*
X5794510Y7493446D01*
X6143914Y7259982D01*
X6556064Y7178000D01*
X7413936Y7178000D01*
X7826086Y7259982D01*
X8175490Y7493446D01*
X8408954Y7842850D01*
X8410973Y7853000D01*
X8890000Y7853000D01*
X9043839Y7883600D01*
X9174257Y7970743D01*
X9809257Y8605743D01*
X9896400Y8736161D01*
X9927000Y8890000D01*
X9927000Y14132587D01*
X10190846Y14241606D01*
X10522230Y14572412D01*
X10701795Y15004853D01*
X10702204Y15473093D01*
X10523394Y15905846D01*
X10271680Y16158000D01*
X10886219Y16158000D01*
X10882574Y16140000D01*
X10882574Y14340000D01*
X10901889Y14237350D01*
X10962555Y14143073D01*
X11055120Y14079825D01*
X11165000Y14057574D01*
X11663000Y14057574D01*
X11663000Y3976514D01*
X11263486Y3577000D01*
X8410973Y3577000D01*
X8408954Y3587150D01*
X8175490Y3936554D01*
X7826086Y4170018D01*
X7413936Y4252000D01*
X6556064Y4252000D01*
X6143914Y4170018D01*
X5794510Y3936554D01*
X5561046Y3587150D01*
X5559027Y3577000D01*
X4244116Y3577000D01*
X4238291Y3606284D01*
X3993988Y3971909D01*
X3628363Y4216212D01*
X3197079Y4302000D01*
X3152921Y4302000D01*
X2721637Y4216212D01*
X2356012Y3971909D01*
X2111709Y3606284D01*
X2025921Y3175000D01*
X2111709Y2743716D01*
X2356012Y2378091D01*
X2721637Y2133788D01*
X3152921Y2048000D01*
X3197079Y2048000D01*
X3628363Y2133788D01*
X3993988Y2378091D01*
X4238291Y2743716D01*
X4244116Y2773000D01*
X5559027Y2773000D01*
X5561046Y2762850D01*
X5794510Y2413446D01*
X6143914Y2179982D01*
X6556064Y2098000D01*
X7413936Y2098000D01*
X7826086Y2179982D01*
X8175490Y2413446D01*
X8408954Y2762850D01*
X8410973Y2773000D01*
X11430000Y2773000D01*
X11583839Y2803600D01*
X11714257Y2890743D01*
X11998514Y3175000D01*
X13099064Y3175000D01*
X13181046Y2762850D01*
X13414510Y2413446D01*
X13763914Y2179982D01*
X14176064Y2098000D01*
X15033936Y2098000D01*
X15446086Y2179982D01*
X15795490Y2413446D01*
X16028954Y2762850D01*
X16030973Y2773000D01*
X17282574Y2773000D01*
X17282574Y2325000D01*
X17301889Y2222350D01*
X17362555Y2128073D01*
X17455120Y2064825D01*
X17565000Y2042574D01*
X19265000Y2042574D01*
X19367650Y2061889D01*
X19461927Y2122555D01*
X19525175Y2215120D01*
X19547426Y2325000D01*
X19547426Y4025000D01*
X19528111Y4127650D01*
X19467445Y4221927D01*
X19374880Y4285175D01*
X19265000Y4307426D01*
X17565000Y4307426D01*
X17462350Y4288111D01*
X17368073Y4227445D01*
X17304825Y4134880D01*
X17282574Y4025000D01*
X17282574Y3577000D01*
X16030973Y3577000D01*
X16028954Y3587150D01*
X15795490Y3936554D01*
X15446086Y4170018D01*
X15033936Y4252000D01*
X14176064Y4252000D01*
X13763914Y4170018D01*
X13414510Y3936554D01*
X13181046Y3587150D01*
X13099064Y3175000D01*
X11998514Y3175000D01*
X12349257Y3525743D01*
X12436400Y3656161D01*
X12467000Y3810000D01*
X12467000Y5715000D01*
X13099064Y5715000D01*
X13181046Y5302850D01*
X13414510Y4953446D01*
X13763914Y4719982D01*
X14176064Y4638000D01*
X15033936Y4638000D01*
X15446086Y4719982D01*
X15795490Y4953446D01*
X16028954Y5302850D01*
X16030973Y5313000D01*
X17345884Y5313000D01*
X17351709Y5283716D01*
X17596012Y4918091D01*
X17961637Y4673788D01*
X18392921Y4588000D01*
X18437079Y4588000D01*
X18868363Y4673788D01*
X19233988Y4918091D01*
X19478291Y5283716D01*
X19564079Y5715000D01*
X19478291Y6146284D01*
X19233988Y6511909D01*
X18868363Y6756212D01*
X18437079Y6842000D01*
X18392921Y6842000D01*
X17961637Y6756212D01*
X17596012Y6511909D01*
X17351709Y6146284D01*
X17345884Y6117000D01*
X16030973Y6117000D01*
X16028954Y6127150D01*
X15795490Y6476554D01*
X15446086Y6710018D01*
X15033936Y6792000D01*
X14176064Y6792000D01*
X13763914Y6710018D01*
X13414510Y6476554D01*
X13181046Y6127150D01*
X13099064Y5715000D01*
X12467000Y5715000D01*
X12467000Y8255000D01*
X13099064Y8255000D01*
X13181046Y7842850D01*
X13414510Y7493446D01*
X13763914Y7259982D01*
X14176064Y7178000D01*
X15033936Y7178000D01*
X15446086Y7259982D01*
X15795490Y7493446D01*
X16028954Y7842850D01*
X16030973Y7853000D01*
X17345884Y7853000D01*
X17351709Y7823716D01*
X17596012Y7458091D01*
X17961637Y7213788D01*
X18392921Y7128000D01*
X18437079Y7128000D01*
X18868363Y7213788D01*
X19233988Y7458091D01*
X19478291Y7823716D01*
X19564079Y8255000D01*
X19478291Y8686284D01*
X19233988Y9051909D01*
X18868363Y9296212D01*
X18437079Y9382000D01*
X18392921Y9382000D01*
X17961637Y9296212D01*
X17596012Y9051909D01*
X17351709Y8686284D01*
X17345884Y8657000D01*
X16030973Y8657000D01*
X16028954Y8667150D01*
X15795490Y9016554D01*
X15446086Y9250018D01*
X15033936Y9332000D01*
X14176064Y9332000D01*
X13763914Y9250018D01*
X13414510Y9016554D01*
X13181046Y8667150D01*
X13099064Y8255000D01*
X12467000Y8255000D01*
X12467000Y10795000D01*
X13099064Y10795000D01*
X13181046Y10382850D01*
X13414510Y10033446D01*
X13763914Y9799982D01*
X14176064Y9718000D01*
X15033936Y9718000D01*
X15446086Y9799982D01*
X15795490Y10033446D01*
X16028954Y10382850D01*
X16030973Y10393000D01*
X17345884Y10393000D01*
X17351709Y10363716D01*
X17596012Y9998091D01*
X17961637Y9753788D01*
X18392921Y9668000D01*
X18437079Y9668000D01*
X18868363Y9753788D01*
X19233988Y9998091D01*
X19478291Y10363716D01*
X19564079Y10795000D01*
X19478291Y11226284D01*
X19233988Y11591909D01*
X18868363Y11836212D01*
X18437079Y11922000D01*
X18392921Y11922000D01*
X17961637Y11836212D01*
X17596012Y11591909D01*
X17351709Y11226284D01*
X17345884Y11197000D01*
X16030973Y11197000D01*
X16028954Y11207150D01*
X15795490Y11556554D01*
X15446086Y11790018D01*
X15033936Y11872000D01*
X14176064Y11872000D01*
X13763914Y11790018D01*
X13414510Y11556554D01*
X13181046Y11207150D01*
X13099064Y10795000D01*
X12467000Y10795000D01*
X12467000Y14057574D01*
X12965000Y14057574D01*
X13067650Y14076889D01*
X13161927Y14137555D01*
X13225175Y14230120D01*
X13247426Y14340000D01*
X13247426Y16140000D01*
X13244039Y16158000D01*
X20603000Y16158000D01*
X20603000Y762000D01*
X987000Y762000D01*
X987000Y5715000D01*
X2025921Y5715000D01*
X2111709Y5283716D01*
X2356012Y4918091D01*
X2721637Y4673788D01*
X3152921Y4588000D01*
X3197079Y4588000D01*
X3628363Y4673788D01*
X3993988Y4918091D01*
X4238291Y5283716D01*
X4244116Y5313000D01*
X5559027Y5313000D01*
X5561046Y5302850D01*
X5794510Y4953446D01*
X6143914Y4719982D01*
X6556064Y4638000D01*
X7413936Y4638000D01*
X7826086Y4719982D01*
X8175490Y4953446D01*
X8408954Y5302850D01*
X8490936Y5715000D01*
X8408954Y6127150D01*
X8175490Y6476554D01*
X7826086Y6710018D01*
X7413936Y6792000D01*
X6556064Y6792000D01*
X6143914Y6710018D01*
X5794510Y6476554D01*
X5561046Y6127150D01*
X5559027Y6117000D01*
X4244116Y6117000D01*
X4238291Y6146284D01*
X3993988Y6511909D01*
X3628363Y6756212D01*
X3197079Y6842000D01*
X3152921Y6842000D01*
X2721637Y6756212D01*
X2356012Y6511909D01*
X2111709Y6146284D01*
X2025921Y5715000D01*
X987000Y5715000D01*
X987000Y11645000D01*
X2042574Y11645000D01*
X2042574Y9945000D01*
X2061889Y9842350D01*
X2122555Y9748073D01*
X2215120Y9684825D01*
X2325000Y9662574D01*
X4025000Y9662574D01*
X4127650Y9681889D01*
X4221927Y9742555D01*
X4285175Y9835120D01*
X4307426Y9945000D01*
X4307426Y10393000D01*
X5502574Y10393000D01*
X5502574Y9995000D01*
X5521889Y9892350D01*
X5582555Y9798073D01*
X5675120Y9734825D01*
X5785000Y9712574D01*
X8185000Y9712574D01*
X8287650Y9731889D01*
X8381927Y9792555D01*
X8445175Y9885120D01*
X8467426Y9995000D01*
X8467426Y11595000D01*
X8448111Y11697650D01*
X8387445Y11791927D01*
X8294880Y11855175D01*
X8185000Y11877426D01*
X5785000Y11877426D01*
X5682350Y11858111D01*
X5588073Y11797445D01*
X5524825Y11704880D01*
X5502574Y11595000D01*
X5502574Y11197000D01*
X4307426Y11197000D01*
X4307426Y11645000D01*
X4288111Y11747650D01*
X4227445Y11841927D01*
X4134880Y11905175D01*
X4025000Y11927426D01*
X2325000Y11927426D01*
X2222350Y11908111D01*
X2128073Y11847445D01*
X2064825Y11754880D01*
X2042574Y11645000D01*
X987000Y11645000D01*
X987000Y16158000D01*
X8778620Y16158000D01*
X8527770Y15907588D01*
M02*
