%TF.GenerationSoftware,KiCad,Pcbnew,(5.1.6)-1*%
%TF.CreationDate,2020-11-23T20:23:35+01:00*%
%TF.ProjectId,h-bridge-2,682d6272-6964-4676-952d-322e6b696361,rev?*%
%TF.SameCoordinates,PX670dd60PY59b16d0*%
%TF.FileFunction,Copper,L2,Bot*%
%TF.FilePolarity,Positive*%
%FSLAX46Y46*%
G04 Gerber Fmt 4.6, Leading zero omitted, Abs format (unit mm)*
G04 Created by KiCad (PCBNEW (5.1.6)-1) date 2020-11-23 20:23:35*
%MOMM*%
%LPD*%
G01*
G04 APERTURE LIST*
%TA.AperFunction,ComponentPad*%
%ADD10O,1.800000X1.800000*%
%TD*%
%TA.AperFunction,ComponentPad*%
%ADD11R,1.800000X1.800000*%
%TD*%
%TA.AperFunction,ComponentPad*%
%ADD12C,1.600000*%
%TD*%
%TA.AperFunction,ComponentPad*%
%ADD13O,1.600000X1.600000*%
%TD*%
%TA.AperFunction,ComponentPad*%
%ADD14R,2.200000X2.200000*%
%TD*%
%TA.AperFunction,ComponentPad*%
%ADD15O,2.200000X2.200000*%
%TD*%
%TA.AperFunction,ComponentPad*%
%ADD16O,1.050000X1.500000*%
%TD*%
%TA.AperFunction,ComponentPad*%
%ADD17R,1.050000X1.500000*%
%TD*%
%TA.AperFunction,ComponentPad*%
%ADD18R,2.600000X2.600000*%
%TD*%
%TA.AperFunction,ComponentPad*%
%ADD19C,2.600000*%
%TD*%
%TA.AperFunction,Conductor*%
%ADD20C,0.800000*%
%TD*%
G04 APERTURE END LIST*
D10*
%TO.P,Q3,3*%
%TO.N,Net-(Q3-Pad3)*%
X11580000Y12160000D03*
%TO.P,Q3,2*%
%TO.N,Mot1*%
X11580000Y14700000D03*
D11*
%TO.P,Q3,1*%
%TO.N,GND*%
X11580000Y17240000D03*
%TD*%
D12*
%TO.P,R4,1*%
%TO.N,Net-(J1-Pad1)*%
X39120000Y10890000D03*
D13*
%TO.P,R4,2*%
%TO.N,Net-(Q6-Pad2)*%
X39120000Y18510000D03*
%TD*%
D11*
%TO.P,Q5,1*%
%TO.N,GND*%
X32710000Y12160000D03*
D10*
%TO.P,Q5,2*%
%TO.N,Mot2*%
X32710000Y14700000D03*
%TO.P,Q5,3*%
%TO.N,Net-(Q1-Pad3)*%
X32710000Y17240000D03*
%TD*%
D14*
%TO.P,D1,1*%
%TO.N,Net-(D1-Pad1)*%
X18840000Y33760000D03*
D15*
%TO.P,D1,2*%
%TO.N,Mot1*%
X18840000Y23600000D03*
%TD*%
D14*
%TO.P,D2,1*%
%TO.N,Mot1*%
X18840000Y9620000D03*
D15*
%TO.P,D2,2*%
%TO.N,GND*%
X18840000Y19780000D03*
%TD*%
%TO.P,D3,2*%
%TO.N,Mot2*%
X25450000Y33760000D03*
D14*
%TO.P,D3,1*%
%TO.N,Net-(D1-Pad1)*%
X25450000Y23600000D03*
%TD*%
D15*
%TO.P,D4,2*%
%TO.N,GND*%
X25450000Y9620000D03*
D14*
%TO.P,D4,1*%
%TO.N,Mot2*%
X25450000Y19780000D03*
%TD*%
D16*
%TO.P,Q1,2*%
%TO.N,Net-(Q1-Pad2)*%
X13750000Y4370000D03*
%TO.P,Q1,3*%
%TO.N,Net-(Q1-Pad3)*%
X12480000Y4370000D03*
D17*
%TO.P,Q1,1*%
%TO.N,Net-(Q1-Pad1)*%
X15020000Y4370000D03*
%TD*%
D10*
%TO.P,Q2,3*%
%TO.N,Net-(Q2-Pad3)*%
X11580000Y26140000D03*
%TO.P,Q2,2*%
%TO.N,Mot1*%
X11580000Y28680000D03*
D11*
%TO.P,Q2,1*%
%TO.N,Net-(D1-Pad1)*%
X11580000Y31220000D03*
%TD*%
%TO.P,Q4,1*%
%TO.N,Net-(D1-Pad1)*%
X32710000Y26140000D03*
D10*
%TO.P,Q4,2*%
%TO.N,Mot2*%
X32710000Y28680000D03*
%TO.P,Q4,3*%
%TO.N,Net-(Q4-Pad3)*%
X32710000Y31220000D03*
%TD*%
D17*
%TO.P,Q6,1*%
%TO.N,Net-(Q6-Pad1)*%
X32500000Y3950000D03*
D16*
%TO.P,Q6,3*%
%TO.N,Net-(Q3-Pad3)*%
X29960000Y3950000D03*
%TO.P,Q6,2*%
%TO.N,Net-(Q6-Pad2)*%
X31230000Y3950000D03*
%TD*%
D12*
%TO.P,R1,1*%
%TO.N,Net-(Q1-Pad2)*%
X5170000Y24870000D03*
D13*
%TO.P,R1,2*%
%TO.N,Net-(J1-Pad2)*%
X5170000Y32490000D03*
%TD*%
%TO.P,R2,2*%
%TO.N,Net-(Q1-Pad1)*%
X5170000Y10890000D03*
D12*
%TO.P,R2,1*%
%TO.N,Net-(Q2-Pad3)*%
X5170000Y18510000D03*
%TD*%
D13*
%TO.P,R3,2*%
%TO.N,Net-(Q4-Pad3)*%
X39120000Y32490000D03*
D12*
%TO.P,R3,1*%
%TO.N,Net-(Q6-Pad1)*%
X39120000Y24870000D03*
%TD*%
D18*
%TO.P,J1,1*%
%TO.N,Net-(J1-Pad1)*%
X11800000Y43180000D03*
D19*
%TO.P,J1,2*%
%TO.N,Net-(J1-Pad2)*%
X6720000Y43180000D03*
%TD*%
D18*
%TO.P,J2,1*%
%TO.N,Net-(D1-Pad1)*%
X24690000Y43260000D03*
D19*
%TO.P,J2,2*%
%TO.N,GND*%
X19610000Y43260000D03*
%TD*%
%TO.P,J3,2*%
%TO.N,Mot2*%
X32500000Y43050000D03*
D18*
%TO.P,J3,1*%
%TO.N,Mot1*%
X37580000Y43050000D03*
%TD*%
D20*
%TO.N,Net-(D1-Pad1)*%
X25450000Y23600000D02*
X23550000Y23600000D01*
X23550000Y23600000D02*
X21721200Y21771200D01*
X21721200Y21771200D02*
X18066800Y21771200D01*
X18066800Y21771200D02*
X15369200Y24468800D01*
X15369200Y24468800D02*
X15369200Y27430800D01*
X15369200Y27430800D02*
X11580000Y31220000D01*
X25450000Y23600000D02*
X28470000Y23600000D01*
X28470000Y23600000D02*
X31010000Y26140000D01*
X18840000Y33760000D02*
X18840000Y35660000D01*
X24690000Y43260000D02*
X24690000Y41160000D01*
X24690000Y41160000D02*
X19190000Y35660000D01*
X19190000Y35660000D02*
X18840000Y35660000D01*
X32710000Y26140000D02*
X31010000Y26140000D01*
%TO.N,GND*%
X11580000Y17240000D02*
X13280000Y17240000D01*
X18840000Y17880000D02*
X13920000Y17880000D01*
X13920000Y17880000D02*
X13280000Y17240000D01*
X25450000Y11520000D02*
X19090000Y17880000D01*
X19090000Y17880000D02*
X18840000Y17880000D01*
X25450000Y11520000D02*
X30370000Y11520000D01*
X30370000Y11520000D02*
X31010000Y12160000D01*
X25450000Y9620000D02*
X25450000Y11520000D01*
X18840000Y19780000D02*
X18840000Y17880000D01*
X32710000Y12160000D02*
X31010000Y12160000D01*
%TO.N,Net-(Q1-Pad2)*%
X13750000Y4370000D02*
X13750000Y5080900D01*
X13750000Y5080900D02*
X12518700Y6312200D01*
X12518700Y6312200D02*
X7618800Y6312200D01*
X7618800Y6312200D02*
X3643400Y10287600D01*
X3643400Y10287600D02*
X3643400Y23343400D01*
X3643400Y23343400D02*
X5170000Y24870000D01*
%TO.N,Net-(Q1-Pad1)*%
X15020000Y4370000D02*
X15020000Y5920000D01*
X5170000Y10890000D02*
X10050000Y10890000D01*
X10050000Y10890000D02*
X15020000Y5920000D01*
%TO.N,Net-(Q2-Pad3)*%
X11580000Y26140000D02*
X11580000Y24440000D01*
X5170000Y18510000D02*
X11100000Y24440000D01*
X11100000Y24440000D02*
X11580000Y24440000D01*
%TO.N,Net-(Q3-Pad3)*%
X11580000Y12160000D02*
X13280000Y12160000D01*
X29960000Y3950000D02*
X21313900Y3950000D01*
X21313900Y3950000D02*
X13280000Y11983900D01*
X13280000Y11983900D02*
X13280000Y12160000D01*
%TO.N,Net-(Q4-Pad3)*%
X32710000Y31220000D02*
X34410000Y31220000D01*
X39120000Y32490000D02*
X35680000Y32490000D01*
X35680000Y32490000D02*
X34410000Y31220000D01*
%TO.N,Net-(Q6-Pad1)*%
X32500000Y3950000D02*
X33825000Y3950000D01*
X39120000Y24870000D02*
X40626800Y23363200D01*
X40626800Y23363200D02*
X40626800Y14896800D01*
X40626800Y14896800D02*
X36361200Y10631200D01*
X36361200Y10631200D02*
X36361200Y6486200D01*
X36361200Y6486200D02*
X33825000Y3950000D01*
%TO.N,Net-(Q6-Pad2)*%
X39120000Y18510000D02*
X39120000Y16910000D01*
X39120000Y16910000D02*
X34871800Y12661800D01*
X34871800Y12661800D02*
X34871800Y9141800D01*
X34871800Y9141800D02*
X31230000Y5500000D01*
X31230000Y3950000D02*
X31230000Y5500000D01*
%TO.N,Mot1*%
X18840000Y23600000D02*
X20740000Y23600000D01*
X37580000Y43050000D02*
X37580000Y40950000D01*
X37580000Y40950000D02*
X20740000Y24110000D01*
X20740000Y24110000D02*
X20740000Y23600000D01*
%TO.N,Mot2*%
X32710000Y28680000D02*
X34410000Y28680000D01*
X34410000Y28680000D02*
X34410000Y24995600D01*
X34410000Y24995600D02*
X29194400Y19780000D01*
X29194400Y19780000D02*
X27350000Y19780000D01*
X32710000Y14700000D02*
X31010000Y14700000D01*
X25450000Y19780000D02*
X27350000Y19780000D01*
X27350000Y19780000D02*
X31010000Y16120000D01*
X31010000Y16120000D02*
X31010000Y14700000D01*
%TD*%
M02*
