M48
; DRILL file {KiCad (5.1.6)-1} date 11/23/20 20:23:38
; FORMAT={-:-/ absolute / metric / decimal}
; #@! TF.CreationDate,2020-11-23T20:23:38+01:00
; #@! TF.GenerationSoftware,Kicad,Pcbnew,(5.1.6)-1
; #@! TF.FileFunction,Plated,1,2,PTH
FMAT,2
METRIC
T1C0.750
T2C0.800
T3C1.000
T4C1.100
T5C1.300
%
G90
G05
T1
X29.96Y3.95
X31.23Y3.95
X32.5Y3.95
X12.48Y4.37
X13.75Y4.37
X15.02Y4.37
T2
X39.12Y18.51
X39.12Y10.89
X5.17Y18.51
X5.17Y10.89
X39.12Y32.49
X39.12Y24.87
X5.17Y32.49
X5.17Y24.87
T3
X11.58Y31.22
X11.58Y28.68
X11.58Y26.14
X32.71Y31.22
X32.71Y28.68
X32.71Y26.14
X11.58Y17.24
X11.58Y14.7
X11.58Y12.16
X32.71Y17.24
X32.71Y14.7
X32.71Y12.16
T4
X18.84Y19.78
X18.84Y9.62
X25.45Y33.76
X25.45Y23.6
X25.45Y19.78
X25.45Y9.62
X18.84Y33.76
X18.84Y23.6
T5
X19.61Y43.26
X24.69Y43.26
X6.72Y43.18
X11.8Y43.18
X32.5Y43.05
X37.58Y43.05
T0
M30
