<?xml version="1.0" standalone="no"?>
 <!DOCTYPE svg PUBLIC "-//W3C//DTD SVG 1.1//EN" 
 "http://www.w3.org/Graphics/SVG/1.1/DTD/svg11.dtd"> 
<svg xmlns="http://www.w3.org/2000/svg" version="1.1" 
    width="29.7002cm" height="21.0007cm" viewBox="0 0 116930 82680 ">
<title>SVG Picture created as brewer-F.SilkS.svg date 2017/11/06 20:44:29 </title>
  <desc>Picture generated by PCBNEW </desc>
<g style="fill:#000000; fill-opacity:1;stroke:#000000; stroke-opacity:1;
stroke-linecap:round; stroke-linejoin:round; "
 transform="translate(0 0) scale(1 1)">
</g>
<g style="fill:#000000; fill-opacity:0.0; 
stroke:#000000; stroke-width:-0.000393701; stroke-opacity:1; 
stroke-linecap:round; stroke-linejoin:round;">
</g>
<g style="fill:#000000; fill-opacity:0.0; 
stroke:#000000; stroke-width:39.3701; stroke-opacity:1; 
stroke-linecap:round; stroke-linejoin:round;">
</g>
<g style="fill:#000000; fill-opacity:0.0; 
stroke:#000000; stroke-width:59.0551; stroke-opacity:1; 
stroke-linecap:round; stroke-linejoin:round;">
<rect x="69685.9" y="65357.2" width="42519.7" height="12598.4" rx="0" />
</g>
<g style="fill:#000000; fill-opacity:0.0; 
stroke:#000000; stroke-width:39.3701; stroke-opacity:1; 
stroke-linecap:round; stroke-linejoin:round;">
</g>
<g style="fill:#000000; fill-opacity:0.0; 
stroke:#000000; stroke-width:59.0551; stroke-opacity:1; 
stroke-linecap:round; stroke-linejoin:round;">
<rect x="3937.01" y="3937.01" width="109056" height="74806" rx="0" />
</g>
<g style="fill:#000000; fill-opacity:0.0; 
stroke:#000000; stroke-width:39.3701; stroke-opacity:1; 
stroke-linecap:round; stroke-linejoin:round;">
</g>
<g style="fill:#000000; fill-opacity:0.0; 
stroke:#000000; stroke-width:59.0551; stroke-opacity:1; 
stroke-linecap:round; stroke-linejoin:round;">
<rect x="4724.41" y="4724.41" width="107481" height="73231.2" rx="0" />
</g>
<g style="fill:#000000; fill-opacity:0.0; 
stroke:#000000; stroke-width:39.3701; stroke-opacity:1; 
stroke-linecap:round; stroke-linejoin:round;">
</g>
<g style="fill:#000000; fill-opacity:0.0; 
stroke:#000000; stroke-width:59.0551; stroke-opacity:1; 
stroke-linecap:round; stroke-linejoin:round;">
<path d="M23622 4724
L23622 3937
" />
</g>
<g style="fill:#000000; fill-opacity:0.0; 
stroke:#000000; stroke-width:39.3701; stroke-opacity:1; 
stroke-linecap:round; stroke-linejoin:round;">
</g>
<g style="fill:#000000; fill-opacity:0.0; 
stroke:#000000; stroke-width:59.0551; stroke-opacity:1; 
stroke-linecap:round; stroke-linejoin:round;">
<path d="M43307 4724
L43307 3937
" />
</g>
<g style="fill:#000000; fill-opacity:0.0; 
stroke:#000000; stroke-width:39.3701; stroke-opacity:1; 
stroke-linecap:round; stroke-linejoin:round;">
</g>
<g style="fill:#000000; fill-opacity:0.0; 
stroke:#000000; stroke-width:59.0551; stroke-opacity:1; 
stroke-linecap:round; stroke-linejoin:round;">
<path d="M62992 4724
L62992 3937
" />
</g>
<g style="fill:#000000; fill-opacity:0.0; 
stroke:#000000; stroke-width:39.3701; stroke-opacity:1; 
stroke-linecap:round; stroke-linejoin:round;">
</g>
<g style="fill:#000000; fill-opacity:0.0; 
stroke:#000000; stroke-width:59.0551; stroke-opacity:1; 
stroke-linecap:round; stroke-linejoin:round;">
<path d="M82677 4724
L82677 3937
" />
</g>
<g style="fill:#000000; fill-opacity:0.0; 
stroke:#000000; stroke-width:39.3701; stroke-opacity:1; 
stroke-linecap:round; stroke-linejoin:round;">
</g>
<g style="fill:#000000; fill-opacity:0.0; 
stroke:#000000; stroke-width:59.0551; stroke-opacity:1; 
stroke-linecap:round; stroke-linejoin:round;">
<path d="M102362 4724
L102362 3937
" />
</g>
<g style="fill:#000000; fill-opacity:0.0; 
stroke:#000000; stroke-width:39.3701; stroke-opacity:1; 
stroke-linecap:round; stroke-linejoin:round;">
</g>
<g style="fill:#000000; fill-opacity:0.0; 
stroke:#000000; stroke-width:59.0551; stroke-opacity:1; 
stroke-linecap:round; stroke-linejoin:round;">
<path d="M14169 4562
L13877 4562
" />
<path d="M14023 4562
L14023 4050
L13974 4123
L13925 4172
L13877 4196
" />
</g>
<g style="fill:#000000; fill-opacity:0.0; 
stroke:#000000; stroke-width:39.3701; stroke-opacity:1; 
stroke-linecap:round; stroke-linejoin:round;">
</g>
<g style="fill:#000000; fill-opacity:0.0; 
stroke:#000000; stroke-width:59.0551; stroke-opacity:1; 
stroke-linecap:round; stroke-linejoin:round;">
<path d="M33562 4099
L33586 4074
L33635 4050
L33757 4050
L33805 4074
L33830 4099
L33854 4147
L33854 4196
L33830 4269
L33537 4562
L33854 4562
" />
</g>
<g style="fill:#000000; fill-opacity:0.0; 
stroke:#000000; stroke-width:39.3701; stroke-opacity:1; 
stroke-linecap:round; stroke-linejoin:round;">
</g>
<g style="fill:#000000; fill-opacity:0.0; 
stroke:#000000; stroke-width:59.0551; stroke-opacity:1; 
stroke-linecap:round; stroke-linejoin:round;">
<path d="M53222 4050
L53539 4050
L53368 4245
L53442 4245
L53490 4269
L53515 4294
L53539 4342
L53539 4464
L53515 4513
L53490 4537
L53442 4562
L53295 4562
L53247 4537
L53222 4513
" />
</g>
<g style="fill:#000000; fill-opacity:0.0; 
stroke:#000000; stroke-width:39.3701; stroke-opacity:1; 
stroke-linecap:round; stroke-linejoin:round;">
</g>
<g style="fill:#000000; fill-opacity:0.0; 
stroke:#000000; stroke-width:59.0551; stroke-opacity:1; 
stroke-linecap:round; stroke-linejoin:round;">
<path d="M73175 4221
L73175 4562
" />
<path d="M73053 4026
L72932 4391
L73248 4391
" />
</g>
<g style="fill:#000000; fill-opacity:0.0; 
stroke:#000000; stroke-width:39.3701; stroke-opacity:1; 
stroke-linecap:round; stroke-linejoin:round;">
</g>
<g style="fill:#000000; fill-opacity:0.0; 
stroke:#000000; stroke-width:59.0551; stroke-opacity:1; 
stroke-linecap:round; stroke-linejoin:round;">
<path d="M92885 4050
L92641 4050
L92617 4294
L92641 4269
L92690 4245
L92812 4245
L92860 4269
L92885 4294
L92909 4342
L92909 4464
L92885 4513
L92860 4537
L92812 4562
L92690 4562
L92641 4537
L92617 4513
" />
</g>
<g style="fill:#000000; fill-opacity:0.0; 
stroke:#000000; stroke-width:39.3701; stroke-opacity:1; 
stroke-linecap:round; stroke-linejoin:round;">
</g>
<g style="fill:#000000; fill-opacity:0.0; 
stroke:#000000; stroke-width:59.0551; stroke-opacity:1; 
stroke-linecap:round; stroke-linejoin:round;">
<path d="M112545 4050
L112448 4050
L112399 4074
L112375 4099
L112326 4172
L112302 4269
L112302 4464
L112326 4513
L112350 4537
L112399 4562
L112497 4562
L112545 4537
L112570 4513
L112594 4464
L112594 4342
L112570 4294
L112545 4269
L112497 4245
L112399 4245
L112350 4269
L112326 4294
L112302 4342
" />
</g>
<g style="fill:#000000; fill-opacity:0.0; 
stroke:#000000; stroke-width:39.3701; stroke-opacity:1; 
stroke-linecap:round; stroke-linejoin:round;">
</g>
<g style="fill:#000000; fill-opacity:0.0; 
stroke:#000000; stroke-width:59.0551; stroke-opacity:1; 
stroke-linecap:round; stroke-linejoin:round;">
<path d="M23622 77955
L23622 78742
" />
</g>
<g style="fill:#000000; fill-opacity:0.0; 
stroke:#000000; stroke-width:39.3701; stroke-opacity:1; 
stroke-linecap:round; stroke-linejoin:round;">
</g>
<g style="fill:#000000; fill-opacity:0.0; 
stroke:#000000; stroke-width:59.0551; stroke-opacity:1; 
stroke-linecap:round; stroke-linejoin:round;">
<path d="M43307 77955
L43307 78742
" />
</g>
<g style="fill:#000000; fill-opacity:0.0; 
stroke:#000000; stroke-width:39.3701; stroke-opacity:1; 
stroke-linecap:round; stroke-linejoin:round;">
</g>
<g style="fill:#000000; fill-opacity:0.0; 
stroke:#000000; stroke-width:59.0551; stroke-opacity:1; 
stroke-linecap:round; stroke-linejoin:round;">
<path d="M62992 77955
L62992 78742
" />
</g>
<g style="fill:#000000; fill-opacity:0.0; 
stroke:#000000; stroke-width:39.3701; stroke-opacity:1; 
stroke-linecap:round; stroke-linejoin:round;">
</g>
<g style="fill:#000000; fill-opacity:0.0; 
stroke:#000000; stroke-width:59.0551; stroke-opacity:1; 
stroke-linecap:round; stroke-linejoin:round;">
<path d="M82677 77955
L82677 78742
" />
</g>
<g style="fill:#000000; fill-opacity:0.0; 
stroke:#000000; stroke-width:39.3701; stroke-opacity:1; 
stroke-linecap:round; stroke-linejoin:round;">
</g>
<g style="fill:#000000; fill-opacity:0.0; 
stroke:#000000; stroke-width:59.0551; stroke-opacity:1; 
stroke-linecap:round; stroke-linejoin:round;">
<path d="M102362 77955
L102362 78742
" />
</g>
<g style="fill:#000000; fill-opacity:0.0; 
stroke:#000000; stroke-width:39.3701; stroke-opacity:1; 
stroke-linecap:round; stroke-linejoin:round;">
</g>
<g style="fill:#000000; fill-opacity:0.0; 
stroke:#000000; stroke-width:59.0551; stroke-opacity:1; 
stroke-linecap:round; stroke-linejoin:round;">
<path d="M14169 78580
L13877 78580
" />
<path d="M14023 78580
L14023 78069
L13974 78142
L13925 78190
L13877 78215
" />
</g>
<g style="fill:#000000; fill-opacity:0.0; 
stroke:#000000; stroke-width:39.3701; stroke-opacity:1; 
stroke-linecap:round; stroke-linejoin:round;">
</g>
<g style="fill:#000000; fill-opacity:0.0; 
stroke:#000000; stroke-width:59.0551; stroke-opacity:1; 
stroke-linecap:round; stroke-linejoin:round;">
<path d="M33562 78117
L33586 78093
L33635 78069
L33757 78069
L33805 78093
L33830 78117
L33854 78166
L33854 78215
L33830 78288
L33537 78580
L33854 78580
" />
</g>
<g style="fill:#000000; fill-opacity:0.0; 
stroke:#000000; stroke-width:39.3701; stroke-opacity:1; 
stroke-linecap:round; stroke-linejoin:round;">
</g>
<g style="fill:#000000; fill-opacity:0.0; 
stroke:#000000; stroke-width:59.0551; stroke-opacity:1; 
stroke-linecap:round; stroke-linejoin:round;">
<path d="M53222 78069
L53539 78069
L53368 78263
L53442 78263
L53490 78288
L53515 78312
L53539 78361
L53539 78483
L53515 78532
L53490 78556
L53442 78580
L53295 78580
L53247 78556
L53222 78532
" />
</g>
<g style="fill:#000000; fill-opacity:0.0; 
stroke:#000000; stroke-width:39.3701; stroke-opacity:1; 
stroke-linecap:round; stroke-linejoin:round;">
</g>
<g style="fill:#000000; fill-opacity:0.0; 
stroke:#000000; stroke-width:59.0551; stroke-opacity:1; 
stroke-linecap:round; stroke-linejoin:round;">
<path d="M73175 78239
L73175 78580
" />
<path d="M73053 78044
L72932 78410
L73248 78410
" />
</g>
<g style="fill:#000000; fill-opacity:0.0; 
stroke:#000000; stroke-width:39.3701; stroke-opacity:1; 
stroke-linecap:round; stroke-linejoin:round;">
</g>
<g style="fill:#000000; fill-opacity:0.0; 
stroke:#000000; stroke-width:59.0551; stroke-opacity:1; 
stroke-linecap:round; stroke-linejoin:round;">
<path d="M92885 78069
L92641 78069
L92617 78312
L92641 78288
L92690 78263
L92812 78263
L92860 78288
L92885 78312
L92909 78361
L92909 78483
L92885 78532
L92860 78556
L92812 78580
L92690 78580
L92641 78556
L92617 78532
" />
</g>
<g style="fill:#000000; fill-opacity:0.0; 
stroke:#000000; stroke-width:39.3701; stroke-opacity:1; 
stroke-linecap:round; stroke-linejoin:round;">
</g>
<g style="fill:#000000; fill-opacity:0.0; 
stroke:#000000; stroke-width:59.0551; stroke-opacity:1; 
stroke-linecap:round; stroke-linejoin:round;">
<path d="M112545 78069
L112448 78069
L112399 78093
L112375 78117
L112326 78190
L112302 78288
L112302 78483
L112326 78532
L112350 78556
L112399 78580
L112497 78580
L112545 78556
L112570 78532
L112594 78483
L112594 78361
L112570 78312
L112545 78288
L112497 78263
L112399 78263
L112350 78288
L112326 78312
L112302 78361
" />
</g>
<g style="fill:#000000; fill-opacity:0.0; 
stroke:#000000; stroke-width:39.3701; stroke-opacity:1; 
stroke-linecap:round; stroke-linejoin:round;">
</g>
<g style="fill:#000000; fill-opacity:0.0; 
stroke:#000000; stroke-width:59.0551; stroke-opacity:1; 
stroke-linecap:round; stroke-linejoin:round;">
<path d="M3937 23622
L4724 23622
" />
</g>
<g style="fill:#000000; fill-opacity:0.0; 
stroke:#000000; stroke-width:39.3701; stroke-opacity:1; 
stroke-linecap:round; stroke-linejoin:round;">
</g>
<g style="fill:#000000; fill-opacity:0.0; 
stroke:#000000; stroke-width:59.0551; stroke-opacity:1; 
stroke-linecap:round; stroke-linejoin:round;">
<path d="M3937 43307
L4724 43307
" />
</g>
<g style="fill:#000000; fill-opacity:0.0; 
stroke:#000000; stroke-width:39.3701; stroke-opacity:1; 
stroke-linecap:round; stroke-linejoin:round;">
</g>
<g style="fill:#000000; fill-opacity:0.0; 
stroke:#000000; stroke-width:59.0551; stroke-opacity:1; 
stroke-linecap:round; stroke-linejoin:round;">
<path d="M3937 62992
L4724 62992
" />
</g>
<g style="fill:#000000; fill-opacity:0.0; 
stroke:#000000; stroke-width:39.3701; stroke-opacity:1; 
stroke-linecap:round; stroke-linejoin:round;">
</g>
<g style="fill:#000000; fill-opacity:0.0; 
stroke:#000000; stroke-width:59.0551; stroke-opacity:1; 
stroke-linecap:round; stroke-linejoin:round;">
<path d="M4208 13864
L4452 13864
" />
<path d="M4160 14011
L4330 13499
L4501 14011
" />
</g>
<g style="fill:#000000; fill-opacity:0.0; 
stroke:#000000; stroke-width:39.3701; stroke-opacity:1; 
stroke-linecap:round; stroke-linejoin:round;">
</g>
<g style="fill:#000000; fill-opacity:0.0; 
stroke:#000000; stroke-width:59.0551; stroke-opacity:1; 
stroke-linecap:round; stroke-linejoin:round;">
<path d="M4367 33428
L4440 33452
L4464 33476
L4489 33525
L4489 33598
L4464 33647
L4440 33671
L4391 33696
L4196 33696
L4196 33184
L4367 33184
L4416 33208
L4440 33233
L4464 33281
L4464 33330
L4440 33379
L4416 33403
L4367 33428
L4196 33428
" />
</g>
<g style="fill:#000000; fill-opacity:0.0; 
stroke:#000000; stroke-width:39.3701; stroke-opacity:1; 
stroke-linecap:round; stroke-linejoin:round;">
</g>
<g style="fill:#000000; fill-opacity:0.0; 
stroke:#000000; stroke-width:59.0551; stroke-opacity:1; 
stroke-linecap:round; stroke-linejoin:round;">
<path d="M4489 53332
L4464 53356
L4391 53381
L4342 53381
L4269 53356
L4221 53308
L4196 53259
L4172 53161
L4172 53088
L4196 52991
L4221 52942
L4269 52893
L4342 52869
L4391 52869
L4464 52893
L4489 52918
" />
</g>
<g style="fill:#000000; fill-opacity:0.0; 
stroke:#000000; stroke-width:39.3701; stroke-opacity:1; 
stroke-linecap:round; stroke-linejoin:round;">
</g>
<g style="fill:#000000; fill-opacity:0.0; 
stroke:#000000; stroke-width:59.0551; stroke-opacity:1; 
stroke-linecap:round; stroke-linejoin:round;">
<path d="M4196 73066
L4196 72554
L4318 72554
L4391 72578
L4440 72627
L4464 72676
L4489 72773
L4489 72846
L4464 72944
L4440 72993
L4391 73041
L4318 73066
L4196 73066
" />
</g>
<g style="fill:#000000; fill-opacity:0.0; 
stroke:#000000; stroke-width:39.3701; stroke-opacity:1; 
stroke-linecap:round; stroke-linejoin:round;">
</g>
<g style="fill:#000000; fill-opacity:0.0; 
stroke:#000000; stroke-width:59.0551; stroke-opacity:1; 
stroke-linecap:round; stroke-linejoin:round;">
<path d="M112992 23622
L112205 23622
" />
</g>
<g style="fill:#000000; fill-opacity:0.0; 
stroke:#000000; stroke-width:39.3701; stroke-opacity:1; 
stroke-linecap:round; stroke-linejoin:round;">
</g>
<g style="fill:#000000; fill-opacity:0.0; 
stroke:#000000; stroke-width:59.0551; stroke-opacity:1; 
stroke-linecap:round; stroke-linejoin:round;">
<path d="M112992 43307
L112205 43307
" />
</g>
<g style="fill:#000000; fill-opacity:0.0; 
stroke:#000000; stroke-width:39.3701; stroke-opacity:1; 
stroke-linecap:round; stroke-linejoin:round;">
</g>
<g style="fill:#000000; fill-opacity:0.0; 
stroke:#000000; stroke-width:59.0551; stroke-opacity:1; 
stroke-linecap:round; stroke-linejoin:round;">
<path d="M112992 62992
L112205 62992
" />
</g>
<g style="fill:#000000; fill-opacity:0.0; 
stroke:#000000; stroke-width:39.3701; stroke-opacity:1; 
stroke-linecap:round; stroke-linejoin:round;">
</g>
<g style="fill:#000000; fill-opacity:0.0; 
stroke:#000000; stroke-width:59.0551; stroke-opacity:1; 
stroke-linecap:round; stroke-linejoin:round;">
<path d="M112477 13864
L112721 13864
" />
<path d="M112428 14011
L112599 13499
L112769 14011
" />
</g>
<g style="fill:#000000; fill-opacity:0.0; 
stroke:#000000; stroke-width:39.3701; stroke-opacity:1; 
stroke-linecap:round; stroke-linejoin:round;">
</g>
<g style="fill:#000000; fill-opacity:0.0; 
stroke:#000000; stroke-width:59.0551; stroke-opacity:1; 
stroke-linecap:round; stroke-linejoin:round;">
<path d="M112635 33428
L112708 33452
L112733 33476
L112757 33525
L112757 33598
L112733 33647
L112708 33671
L112660 33696
L112465 33696
L112465 33184
L112635 33184
L112684 33208
L112708 33233
L112733 33281
L112733 33330
L112708 33379
L112684 33403
L112635 33428
L112465 33428
" />
</g>
<g style="fill:#000000; fill-opacity:0.0; 
stroke:#000000; stroke-width:39.3701; stroke-opacity:1; 
stroke-linecap:round; stroke-linejoin:round;">
</g>
<g style="fill:#000000; fill-opacity:0.0; 
stroke:#000000; stroke-width:59.0551; stroke-opacity:1; 
stroke-linecap:round; stroke-linejoin:round;">
<path d="M112757 53332
L112733 53356
L112660 53381
L112611 53381
L112538 53356
L112489 53308
L112465 53259
L112440 53161
L112440 53088
L112465 52991
L112489 52942
L112538 52893
L112611 52869
L112660 52869
L112733 52893
L112757 52918
" />
</g>
<g style="fill:#000000; fill-opacity:0.0; 
stroke:#000000; stroke-width:39.3701; stroke-opacity:1; 
stroke-linecap:round; stroke-linejoin:round;">
</g>
<g style="fill:#000000; fill-opacity:0.0; 
stroke:#000000; stroke-width:59.0551; stroke-opacity:1; 
stroke-linecap:round; stroke-linejoin:round;">
<path d="M112465 73066
L112465 72554
L112587 72554
L112660 72578
L112708 72627
L112733 72676
L112757 72773
L112757 72846
L112733 72944
L112708 72993
L112660 73041
L112587 73066
L112465 73066
" />
</g>
<g style="fill:#000000; fill-opacity:0.0; 
stroke:#000000; stroke-width:39.3701; stroke-opacity:1; 
stroke-linecap:round; stroke-linejoin:round;">
</g>
<g style="fill:#000000; fill-opacity:0.0; 
stroke:#000000; stroke-width:59.0551; stroke-opacity:1; 
stroke-linecap:round; stroke-linejoin:round;">
<path d="M78881 76293
L78881 75703
L79022 75703
L79106 75731
L79162 75787
L79190 75843
L79219 75956
L79219 76040
L79190 76153
L79162 76209
L79106 76265
L79022 76293
L78881 76293
" />
<path d="M79725 76293
L79725 75984
L79697 75928
L79640 75899
L79528 75899
L79472 75928
" />
<path d="M79725 76265
L79669 76293
L79528 76293
L79472 76265
L79444 76209
L79444 76153
L79472 76096
L79528 76068
L79669 76068
L79725 76040
" />
<path d="M79922 75899
L80147 75899
" />
<path d="M80006 75703
L80006 76209
L80034 76265
L80090 76293
L80147 76293
" />
<path d="M80568 76265
L80512 76293
L80400 76293
L80343 76265
L80315 76209
L80315 75984
L80343 75928
L80400 75899
L80512 75899
L80568 75928
L80597 75984
L80597 76040
L80315 76096
" />
<path d="M80850 76237
L80878 76265
L80850 76293
L80822 76265
L80850 76237
L80850 76293
" />
<path d="M80850 75928
L80878 75956
L80850 75984
L80822 75956
L80850 75928
L80850 75984
" />
</g>
<g style="fill:#000000; fill-opacity:0.0; 
stroke:#000000; stroke-width:39.3701; stroke-opacity:1; 
stroke-linecap:round; stroke-linejoin:round;">
</g>
<g style="fill:#000000; fill-opacity:0.0; 
stroke:#000000; stroke-width:59.0551; stroke-opacity:1; 
stroke-linecap:round; stroke-linejoin:round;">
<path d="M69685 76577
L112205 76577
" />
</g>
<g style="fill:#000000; fill-opacity:0.0; 
stroke:#000000; stroke-width:39.3701; stroke-opacity:1; 
stroke-linecap:round; stroke-linejoin:round;">
</g>
<g style="fill:#000000; fill-opacity:0.0; 
stroke:#000000; stroke-width:59.0551; stroke-opacity:1; 
stroke-linecap:round; stroke-linejoin:round;">
<path d="M70220 77395
L70220 76805
" />
<path d="M70557 77395
L70304 77058
" />
<path d="M70557 76805
L70220 77142
" />
<path d="M70810 77395
L70810 77002
" />
<path d="M70810 76805
L70782 76833
L70810 76861
L70838 76833
L70810 76805
L70810 76861
" />
<path d="M71429 77339
L71401 77367
L71316 77395
L71260 77395
L71176 77367
L71120 77311
L71091 77255
L71063 77142
L71063 77058
L71091 76946
L71120 76889
L71176 76833
L71260 76805
L71316 76805
L71401 76833
L71429 76861
" />
<path d="M71935 77395
L71935 77086
L71907 77030
L71851 77002
L71738 77002
L71682 77030
" />
<path d="M71935 77367
L71879 77395
L71738 77395
L71682 77367
L71654 77311
L71654 77255
L71682 77199
L71738 77171
L71879 77171
L71935 77142
" />
<path d="M72469 77395
L72469 76805
" />
<path d="M72469 77367
L72413 77395
L72301 77395
L72244 77367
L72216 77339
L72188 77283
L72188 77114
L72216 77058
L72244 77030
L72301 77002
L72413 77002
L72469 77030
" />
<path d="M73201 77086
L73397 77086
" />
<path d="M73482 77395
L73201 77395
L73201 76805
L73482 76805
" />
<path d="M73735 77339
L73763 77367
L73735 77395
L73707 77367
L73735 77339
L73735 77395
" />
<path d="M74016 77395
L74016 76805
L74157 76805
L74241 76833
L74297 76889
L74325 76946
L74354 77058
L74354 77142
L74325 77255
L74297 77311
L74241 77367
L74157 77395
L74016 77395
" />
<path d="M74607 77339
L74635 77367
L74607 77395
L74579 77367
L74607 77339
L74607 77395
" />
<path d="M74860 77227
L75141 77227
" />
<path d="M74804 77395
L75000 76805
L75197 77395
" />
<path d="M75394 77339
L75422 77367
L75394 77395
L75366 77367
L75394 77339
L75394 77395
" />
<path d="M76575 77395
L76575 76805
" />
<path d="M76631 77171
L76800 77395
" />
<path d="M76800 77002
L76575 77227
" />
<path d="M77053 77395
L77053 77002
" />
<path d="M77053 76805
L77025 76833
L77053 76861
L77081 76833
L77053 76805
L77053 76861
" />
<path d="M77588 77367
L77531 77395
L77419 77395
L77363 77367
L77334 77339
L77306 77283
L77306 77114
L77334 77058
L77363 77030
L77419 77002
L77531 77002
L77588 77030
" />
<path d="M78094 77395
L78094 77086
L78066 77030
L78009 77002
L77897 77002
L77841 77030
" />
<path d="M78094 77367
L78037 77395
L77897 77395
L77841 77367
L77813 77311
L77813 77255
L77841 77199
L77897 77171
L78037 77171
L78094 77142
" />
<path d="M78628 77395
L78628 76805
" />
<path d="M78628 77367
L78572 77395
L78459 77395
L78403 77367
L78375 77339
L78347 77283
L78347 77114
L78375 77058
L78403 77030
L78459 77002
L78572 77002
L78628 77030
" />
<path d="M79612 77002
L79612 77395
" />
<path d="M79472 76777
L79331 77199
L79697 77199
" />
<path d="M79922 77339
L79950 77367
L79922 77395
L79894 77367
L79922 77339
L79922 77395
" />
<path d="M80315 76805
L80372 76805
L80428 76833
L80456 76861
L80484 76917
L80512 77030
L80512 77171
L80484 77283
L80456 77339
L80428 77367
L80372 77395
L80315 77395
L80259 77367
L80231 77339
L80203 77283
L80175 77171
L80175 77030
L80203 76917
L80231 76861
L80259 76833
L80315 76805
" />
<path d="M80765 77339
L80793 77367
L80765 77395
L80737 77367
L80765 77339
L80765 77395
" />
<path d="M81018 76861
L81046 76833
L81103 76805
L81243 76805
L81300 76833
L81328 76861
L81356 76917
L81356 76974
L81328 77058
L80990 77395
L81356 77395
" />
<path d="M81609 77171
L82059 77171
" />
<path d="M81834 77395
L81834 76946
" />
<path d="M82593 77395
L82593 76805
" />
<path d="M82593 77367
L82537 77395
L82424 77395
L82368 77367
L82340 77339
L82312 77283
L82312 77114
L82340 77058
L82368 77030
L82424 77002
L82537 77002
L82593 77030
" />
<path d="M82790 77002
L83015 77002
" />
<path d="M82874 77395
L82874 76889
L82903 76833
L82959 76805
L83015 76805
" />
<path d="M83184 77367
L83240 77395
L83352 77395
L83409 77367
L83437 77311
L83437 77283
L83409 77227
L83352 77199
L83268 77199
L83212 77171
L83184 77114
L83184 77086
L83212 77030
L83268 77002
L83352 77002
L83409 77030
" />
<path d="M83943 77002
L83943 77480
L83915 77536
L83887 77564
L83831 77592
L83746 77592
L83690 77564
" />
<path d="M83943 77367
L83887 77395
L83774 77395
L83718 77367
L83690 77339
L83662 77283
L83662 77114
L83690 77058
L83718 77030
L83774 77002
L83887 77002
L83943 77030
" />
<path d="M84534 77395
L84196 77395
" />
<path d="M84365 77395
L84365 76805
L84309 76889
L84252 76946
L84196 76974
" />
<path d="M84787 77171
L85237 77171
" />
<path d="M85490 77367
L85546 77395
L85658 77395
L85715 77367
L85743 77311
L85743 77283
L85715 77227
L85658 77199
L85574 77199
L85518 77171
L85490 77114
L85490 77086
L85518 77030
L85574 77002
L85658 77002
L85715 77030
" />
<path d="M85912 77002
L86136 77002
" />
<path d="M85996 76805
L85996 77311
L86024 77367
L86080 77395
L86136 77395
" />
<path d="M86586 77395
L86586 77086
L86558 77030
L86502 77002
L86390 77002
L86333 77030
" />
<path d="M86586 77367
L86530 77395
L86390 77395
L86333 77367
L86305 77311
L86305 77255
L86333 77199
L86390 77171
L86530 77171
L86586 77142
" />
<path d="M86868 77395
L86868 76805
" />
<path d="M86868 77030
L86924 77002
L87036 77002
L87093 77030
L87121 77058
L87149 77114
L87149 77283
L87121 77339
L87093 77367
L87036 77395
L86924 77395
L86868 77367
" />
<path d="M87486 77395
L87430 77367
L87402 77311
L87402 76805
" />
<path d="M87936 77367
L87880 77395
L87768 77395
L87711 77367
L87683 77311
L87683 77086
L87711 77030
L87768 77002
L87880 77002
L87936 77030
L87964 77086
L87964 77142
L87683 77199
" />
</g>
<g style="fill:#000000; fill-opacity:0.0; 
stroke:#000000; stroke-width:39.3701; stroke-opacity:1; 
stroke-linecap:round; stroke-linejoin:round;">
</g>
<g style="fill:#000000; fill-opacity:0.0; 
stroke:#000000; stroke-width:59.0551; stroke-opacity:1; 
stroke-linecap:round; stroke-linejoin:round;">
<path d="M69685 75396
L112205 75396
" />
</g>
<g style="fill:#000000; fill-opacity:0.0; 
stroke:#000000; stroke-width:39.3701; stroke-opacity:1; 
stroke-linecap:round; stroke-linejoin:round;">
</g>
<g style="fill:#000000; fill-opacity:0.0; 
stroke:#000000; stroke-width:118.11; stroke-opacity:1; 
stroke-linecap:round; stroke-linejoin:round;">
<path d="M104022 76293
L103825 76012
" />
<path d="M103684 76293
L103684 75703
L103909 75703
L103965 75731
L103994 75759
L104022 75815
L104022 75899
L103994 75956
L103965 75984
L103909 76012
L103684 76012
" />
<path d="M104500 76265
L104444 76293
L104331 76293
L104275 76265
L104247 76209
L104247 75984
L104275 75928
L104331 75899
L104444 75899
L104500 75928
L104528 75984
L104528 76040
L104247 76096
" />
<path d="M104725 75899
L104865 76293
L105006 75899
" />
<path d="M105231 76237
L105259 76265
L105231 76293
L105203 76265
L105231 76237
L105231 76293
" />
<path d="M105231 75928
L105259 75956
L105231 75984
L105203 75956
L105231 75928
L105231 75984
" />
</g>
<g style="fill:#000000; fill-opacity:0.0; 
stroke:#000000; stroke-width:39.3701; stroke-opacity:1; 
stroke-linecap:round; stroke-linejoin:round;">
</g>
<g style="fill:#000000; fill-opacity:0.0; 
stroke:#000000; stroke-width:59.0551; stroke-opacity:1; 
stroke-linecap:round; stroke-linejoin:round;">
<path d="M70192 76265
L70276 76293
L70417 76293
L70473 76265
L70501 76237
L70529 76181
L70529 76124
L70501 76068
L70473 76040
L70417 76012
L70304 75984
L70248 75956
L70220 75928
L70192 75871
L70192 75815
L70220 75759
L70248 75731
L70304 75703
L70445 75703
L70529 75731
" />
<path d="M70782 76293
L70782 75899
" />
<path d="M70782 75703
L70754 75731
L70782 75759
L70810 75731
L70782 75703
L70782 75759
" />
<path d="M71007 75899
L71316 75899
L71007 76293
L71316 76293
" />
<path d="M71766 76265
L71710 76293
L71598 76293
L71541 76265
L71513 76209
L71513 75984
L71541 75928
L71598 75899
L71710 75899
L71766 75928
L71795 75984
L71795 76040
L71513 76096
" />
<path d="M72048 76237
L72076 76265
L72048 76293
L72019 76265
L72048 76237
L72048 76293
" />
<path d="M72048 75928
L72076 75956
L72048 75984
L72019 75956
L72048 75928
L72048 75984
" />
<path d="M72751 76124
L73032 76124
" />
<path d="M72694 76293
L72891 75703
L73088 76293
" />
<path d="M73538 75899
L73538 76293
" />
<path d="M73397 75674
L73257 76096
L73622 76096
" />
</g>
<g style="fill:#000000; fill-opacity:0.0; 
stroke:#000000; stroke-width:39.3701; stroke-opacity:1; 
stroke-linecap:round; stroke-linejoin:round;">
</g>
<g style="fill:#000000; fill-opacity:0.0; 
stroke:#000000; stroke-width:59.0551; stroke-opacity:1; 
stroke-linecap:round; stroke-linejoin:round;">
<path d="M103684 77395
L103684 76805
" />
<path d="M104219 77395
L104219 76805
" />
<path d="M104219 77367
L104162 77395
L104050 77395
L103994 77367
L103965 77339
L103937 77283
L103937 77114
L103965 77058
L103994 77030
L104050 77002
L104162 77002
L104219 77030
" />
<path d="M104500 77339
L104528 77367
L104500 77395
L104472 77367
L104500 77339
L104500 77395
" />
<path d="M104500 77030
L104528 77058
L104500 77086
L104472 77058
L104500 77030
L104500 77086
" />
<path d="M105540 77395
L105203 77395
" />
<path d="M105372 77395
L105372 76805
L105315 76889
L105259 76946
L105203 76974
" />
<path d="M106215 76777
L105709 77536
" />
<path d="M106721 77395
L106384 77395
" />
<path d="M106553 77395
L106553 76805
L106496 76889
L106440 76946
L106384 76974
" />
</g>
<g style="fill:#000000; fill-opacity:0.0; 
stroke:#000000; stroke-width:39.3701; stroke-opacity:1; 
stroke-linecap:round; stroke-linejoin:round;">
</g>
<g style="fill:#000000; fill-opacity:0.0; 
stroke:#000000; stroke-width:59.0551; stroke-opacity:1; 
stroke-linecap:round; stroke-linejoin:round;">
<path d="M69685 73821
L112205 73821
" />
</g>
<g style="fill:#000000; fill-opacity:0.0; 
stroke:#000000; stroke-width:39.3701; stroke-opacity:1; 
stroke-linecap:round; stroke-linejoin:round;">
</g>
<g style="fill:#000000; fill-opacity:0.0; 
stroke:#000000; stroke-width:157.48; stroke-opacity:1; 
stroke-linecap:round; stroke-linejoin:round;">
<path d="M70257 74099
L70707 74099
" />
<path d="M70384 74886
L70482 74099
" />
<path d="M70871 74886
L70937 74361
" />
<path d="M70970 74099
L70927 74136
L70960 74174
L71002 74136
L70970 74099
L70960 74174
" />
<path d="M71199 74361
L71499 74361
" />
<path d="M71345 74099
L71260 74774
L71288 74849
L71359 74886
L71434 74886
" />
<path d="M71809 74886
L71738 74849
L71710 74774
L71795 74099
" />
<path d="M72413 74849
L72334 74886
L72184 74886
L72113 74849
L72085 74774
L72123 74474
L72169 74399
L72249 74361
L72399 74361
L72469 74399
L72498 74474
L72488 74549
L72104 74624
" />
<path d="M72793 74811
L72826 74849
L72783 74886
L72751 74849
L72793 74811
L72783 74886
" />
<path d="M72844 74399
L72877 74436
L72835 74474
L72802 74436
L72844 74399
L72835 74474
" />
</g>
<g style="fill:#000000; fill-opacity:0.0; 
stroke:#000000; stroke-width:39.3701; stroke-opacity:1; 
stroke-linecap:round; stroke-linejoin:round;">
</g>
<g style="fill:#000000; fill-opacity:0.0; 
stroke:#000000; stroke-width:59.0551; stroke-opacity:1; 
stroke-linecap:round; stroke-linejoin:round;">
<path d="M70417 73070
L70220 73070
" />
<path d="M70220 73380
L70220 72789
L70501 72789
" />
<path d="M70726 73380
L70726 72986
" />
<path d="M70726 72789
L70698 72817
L70726 72845
L70754 72817
L70726 72789
L70726 72845
" />
<path d="M71091 73380
L71035 73352
L71007 73295
L71007 72789
" />
<path d="M71541 73352
L71485 73380
L71373 73380
L71316 73352
L71288 73295
L71288 73070
L71316 73014
L71373 72986
L71485 72986
L71541 73014
L71570 73070
L71570 73127
L71288 73183
" />
<path d="M71823 73323
L71851 73352
L71823 73380
L71795 73352
L71823 73323
L71823 73380
" />
<path d="M71823 73014
L71851 73042
L71823 73070
L71795 73042
L71823 73014
L71823 73070
" />
<path d="M72554 73380
L72554 72789
" />
<path d="M72554 73014
L72610 72986
L72723 72986
L72779 73014
L72807 73042
L72835 73099
L72835 73267
L72807 73323
L72779 73352
L72723 73380
L72610 73380
L72554 73352
" />
<path d="M73088 73380
L73088 72986
" />
<path d="M73088 73099
L73116 73042
L73144 73014
L73201 72986
L73257 72986
" />
<path d="M73679 73352
L73622 73380
L73510 73380
L73454 73352
L73426 73295
L73426 73070
L73454 73014
L73510 72986
L73622 72986
L73679 73014
L73707 73070
L73707 73127
L73426 73183
" />
<path d="M73904 72986
L74016 73380
L74129 73099
L74241 73380
L74354 72986
" />
<path d="M74804 73352
L74747 73380
L74635 73380
L74579 73352
L74550 73295
L74550 73070
L74579 73014
L74635 72986
L74747 72986
L74804 73014
L74832 73070
L74832 73127
L74550 73183
" />
<path d="M75085 73380
L75085 72986
" />
<path d="M75085 73099
L75113 73042
L75141 73014
L75197 72986
L75253 72986
" />
<path d="M75450 73323
L75478 73352
L75450 73380
L75422 73352
L75450 73323
L75450 73380
" />
<path d="M75732 73380
L75732 72789
" />
<path d="M75788 73155
L75956 73380
" />
<path d="M75956 72986
L75732 73211
" />
<path d="M76210 73380
L76210 72986
" />
<path d="M76210 72789
L76181 72817
L76210 72845
L76238 72817
L76210 72789
L76210 72845
" />
<path d="M76744 73352
L76688 73380
L76575 73380
L76519 73352
L76491 73323
L76463 73267
L76463 73099
L76491 73042
L76519 73014
L76575 72986
L76688 72986
L76744 73014
" />
<path d="M77250 73380
L77250 73070
L77222 73014
L77166 72986
L77053 72986
L76997 73014
" />
<path d="M77250 73352
L77194 73380
L77053 73380
L76997 73352
L76969 73295
L76969 73239
L76997 73183
L77053 73155
L77194 73155
L77250 73127
" />
<path d="M77784 73380
L77784 72789
" />
<path d="M77784 73352
L77728 73380
L77616 73380
L77559 73352
L77531 73323
L77503 73267
L77503 73099
L77531 73042
L77559 73014
L77616 72986
L77728 72986
L77784 73014
" />
<path d="M77925 73436
L78375 73436
" />
<path d="M78516 72986
L78516 73577
" />
<path d="M78516 73014
L78572 72986
L78684 72986
L78741 73014
L78769 73042
L78797 73099
L78797 73267
L78769 73323
L78741 73352
L78684 73380
L78572 73380
L78516 73352
" />
<path d="M79303 73352
L79247 73380
L79134 73380
L79078 73352
L79050 73323
L79022 73267
L79022 73099
L79050 73042
L79078 73014
L79134 72986
L79247 72986
L79303 73014
" />
<path d="M79556 73380
L79556 72789
" />
<path d="M79556 73014
L79612 72986
L79725 72986
L79781 73014
L79809 73042
L79837 73099
L79837 73267
L79809 73323
L79781 73352
L79725 73380
L79612 73380
L79556 73352
" />
</g>
<g style="fill:#000000; fill-opacity:0.0; 
stroke:#000000; stroke-width:39.3701; stroke-opacity:1; 
stroke-linecap:round; stroke-linejoin:round;">
</g>
<g style="fill:#000000; fill-opacity:0.0; 
stroke:#000000; stroke-width:59.0551; stroke-opacity:1; 
stroke-linecap:round; stroke-linejoin:round;">
<path d="M69685 71459
L112205 71459
" />
</g>
<g style="fill:#000000; fill-opacity:0.0; 
stroke:#000000; stroke-width:39.3701; stroke-opacity:1; 
stroke-linecap:round; stroke-linejoin:round;">
</g>
<g style="fill:#000000; fill-opacity:0.0; 
stroke:#000000; stroke-width:59.0551; stroke-opacity:1; 
stroke-linecap:round; stroke-linejoin:round;">
<path d="M70192 72289
L70276 72317
L70417 72317
L70473 72289
L70501 72260
L70529 72204
L70529 72148
L70501 72092
L70473 72064
L70417 72036
L70304 72007
L70248 71979
L70220 71951
L70192 71895
L70192 71839
L70220 71782
L70248 71754
L70304 71726
L70445 71726
L70529 71754
" />
<path d="M70782 72317
L70782 71726
" />
<path d="M71035 72317
L71035 72007
L71007 71951
L70951 71923
L70867 71923
L70810 71951
L70782 71979
" />
<path d="M71541 72289
L71485 72317
L71373 72317
L71316 72289
L71288 72232
L71288 72007
L71316 71951
L71373 71923
L71485 71923
L71541 71951
L71570 72007
L71570 72064
L71288 72120
" />
<path d="M72048 72289
L71991 72317
L71879 72317
L71823 72289
L71795 72232
L71795 72007
L71823 71951
L71879 71923
L71991 71923
L72048 71951
L72076 72007
L72076 72064
L71795 72120
" />
<path d="M72244 71923
L72469 71923
" />
<path d="M72329 71726
L72329 72232
L72357 72289
L72413 72317
L72469 72317
" />
<path d="M72666 72260
L72694 72289
L72666 72317
L72638 72289
L72666 72260
L72666 72317
" />
<path d="M72666 71951
L72694 71979
L72666 72007
L72638 71979
L72666 71951
L72666 72007
" />
</g>
<g style="fill:#000000; fill-opacity:0.0; 
stroke:#000000; stroke-width:39.3701; stroke-opacity:1; 
stroke-linecap:round; stroke-linejoin:round;">
</g>
<g style="fill:#000000; fill-opacity:0.0; 
stroke:#000000; stroke-width:59.0551; stroke-opacity:1; 
stroke-linecap:round; stroke-linejoin:round;">
<path d="M77559 75396
L77559 76577
" />
</g>
<g style="fill:#000000; fill-opacity:0.0; 
stroke:#000000; stroke-width:39.3701; stroke-opacity:1; 
stroke-linecap:round; stroke-linejoin:round;">
</g>
<g style="fill:#000000; fill-opacity:0.0; 
stroke:#000000; stroke-width:59.0551; stroke-opacity:1; 
stroke-linecap:round; stroke-linejoin:round;">
<path d="M102756 75396
L102756 77955
" />
</g>
<g style="fill:#C2C200; fill-opacity:0.0; 
stroke:#C2C200; stroke-width:59.0551; stroke-opacity:1; 
stroke-linecap:round; stroke-linejoin:round;">
<path d="M61115 38122
L61115 37729
" />
<path d="M61528 38085
L61509 38104
L61453 38122
L61415 38122
L61359 38104
L61321 38066
L61303 38029
L61284 37954
L61284 37898
L61303 37823
L61321 37785
L61359 37748
L61415 37729
L61453 37729
L61509 37748
L61528 37766
" />
<path d="M61903 38122
L61678 38122
" />
<path d="M61790 38122
L61790 37729
L61753 37785
L61715 37823
L61678 37841
" />
<path d="M58442 49124
L58423 49143
L58367 49162
L58329 49162
L58273 49143
L58236 49106
L58217 49068
L58198 48993
L58198 48937
L58217 48862
L58236 48824
L58273 48787
L58329 48768
L58367 48768
L58423 48787
L58442 48806
" />
<path d="M58817 49162
L58592 49162
" />
<path d="M58704 49162
L58704 48768
L58667 48824
L58629 48862
L58592 48881
" />
<path d="M58442 56624
L58423 56643
L58367 56662
L58329 56662
L58273 56643
L58236 56606
L58217 56568
L58198 56493
L58198 56437
L58217 56362
L58236 56324
L58273 56287
L58329 56268
L58367 56268
L58423 56287
L58442 56306
" />
<path d="M58592 56306
L58610 56287
L58648 56268
L58742 56268
L58779 56287
L58798 56306
L58817 56343
L58817 56381
L58798 56437
L58573 56662
L58817 56662
" />
<path d="M66156 61573
L66175 61592
L66193 61648
L66193 61685
L66175 61742
L66137 61779
L66100 61798
L66025 61817
L65968 61817
L65893 61798
L65856 61779
L65818 61742
L65800 61685
L65800 61648
L65818 61592
L65837 61573
" />
<path d="M65800 61442
L65800 61198
L65950 61329
L65950 61273
L65968 61236
L65987 61217
L66025 61198
L66118 61198
L66156 61217
L66175 61236
L66193 61273
L66193 61386
L66175 61423
L66156 61442
" />
<path d="M61156 61573
L61175 61592
L61193 61648
L61193 61685
L61175 61742
L61137 61779
L61100 61798
L61025 61817
L60968 61817
L60893 61798
L60856 61779
L60818 61742
L60800 61685
L60800 61648
L60818 61592
L60837 61573
" />
<path d="M60931 61236
L61193 61236
" />
<path d="M60781 61329
L61062 61423
L61062 61179
" />
<path d="M50670 48290
L50276 48290
L50276 48140
L50295 48103
L50314 48084
L50351 48065
L50407 48065
L50445 48084
L50464 48103
L50482 48140
L50482 48290
" />
<path d="M50670 47690
L50670 47915
" />
<path d="M50670 47803
L50276 47803
L50332 47840
L50370 47878
L50389 47915
" />
<path d="M60685 58790
L60292 58790
L60292 58640
L60311 58603
L60329 58584
L60367 58565
L60423 58565
L60461 58584
L60479 58603
L60498 58640
L60498 58790
" />
<path d="M60329 58415
L60311 58396
L60292 58359
L60292 58265
L60311 58228
L60329 58209
L60367 58190
L60404 58190
L60461 58209
L60685 58434
L60685 58190
" />
<path d="M70709 38170
L70709 37776
L70859 37776
L70896 37795
L70915 37814
L70934 37851
L70934 37907
L70915 37945
L70896 37964
L70859 37982
L70709 37982
" />
<path d="M71065 37776
L71309 37776
L71178 37926
L71234 37926
L71271 37945
L71290 37964
L71309 38001
L71309 38095
L71290 38132
L71271 38151
L71234 38170
L71121 38170
L71084 38151
L71065 38132
" />
<path d="M66032 36300
L65901 36112
" />
<path d="M65807 36300
L65807 35906
L65957 35906
L65994 35925
L66013 35943
L66032 35981
L66032 36037
L66013 36075
L65994 36093
L65957 36112
L65807 36112
" />
<path d="M66407 36300
L66182 36300
" />
<path d="M66294 36300
L66294 35906
L66257 35962
L66219 36000
L66182 36018
" />
<path d="M60490 51687
L60678 51687
" />
<path d="M60284 51818
L60490 51687
L60284 51556
" />
<path d="M60678 51218
L60678 51443
" />
<path d="M60678 51331
L60284 51331
L60340 51368
L60378 51406
L60396 51443
" />
<path d="M64391 63797
L64391 63985
" />
<path d="M64260 63591
L64391 63797
L64522 63591
" />
<path d="M64635 63628
L64653 63610
L64691 63591
L64785 63591
L64822 63610
L64841 63628
L64860 63666
L64860 63703
L64841 63760
L64616 63985
L64860 63985
" />
<path d="M57709 39450
L57709 39056
L57859 39056
L57896 39075
L57915 39093
L57934 39131
L57934 39187
L57915 39225
L57896 39243
L57859 39262
L57709 39262
" />
<path d="M58271 39187
L58271 39450
" />
<path d="M58178 39037
L58084 39318
L58328 39318
" />
<path d="M56475 44178
L56343 43990
" />
<path d="M56250 44178
L56250 43784
L56400 43784
L56437 43803
L56456 43821
L56475 43859
L56475 43915
L56456 43953
L56437 43971
L56400 43990
L56250 43990
" />
<path d="M56643 43971
L56775 43971
" />
<path d="M56831 44178
L56643 44178
L56643 43784
L56831 43784
" />
<path d="M57131 43971
L57000 43971
" />
<path d="M57000 44178
L57000 43784
L57187 43784
" />
<path d="M57393 43784
L57393 43878
" />
<path d="M57299 43840
L57393 43878
L57487 43840
" />
<path d="M57337 43953
L57393 43878
L57449 43953
" />
<path d="M57693 43784
L57693 43878
" />
<path d="M57599 43840
L57693 43878
L57787 43840
" />
<path d="M57637 43953
L57693 43878
L57749 43953
" />
<path d="M53975 44178
L53843 43990
" />
<path d="M53750 44178
L53750 43784
L53900 43784
L53937 43803
L53956 43821
L53975 43859
L53975 43915
L53956 43953
L53937 43971
L53900 43990
L53750 43990
" />
<path d="M54143 43971
L54275 43971
" />
<path d="M54331 44178
L54143 44178
L54143 43784
L54331 43784
" />
<path d="M54631 43971
L54500 43971
" />
<path d="M54500 44178
L54500 43784
L54687 43784
" />
<path d="M54893 43784
L54893 43878
" />
<path d="M54799 43840
L54893 43878
L54987 43840
" />
<path d="M54837 43953
L54893 43878
L54949 43953
" />
<path d="M55193 43784
L55193 43878
" />
<path d="M55099 43840
L55193 43878
L55287 43840
" />
<path d="M55137 43953
L55193 43878
L55249 43953
" />
<path d="M59475 47178
L59343 46990
" />
<path d="M59250 47178
L59250 46784
L59400 46784
L59437 46803
L59456 46821
L59475 46859
L59475 46915
L59456 46953
L59437 46971
L59400 46990
L59250 46990
" />
<path d="M59643 46971
L59775 46971
" />
<path d="M59831 47178
L59643 47178
L59643 46784
L59831 46784
" />
<path d="M60131 46971
L60000 46971
" />
<path d="M60000 47178
L60000 46784
L60187 46784
" />
<path d="M60393 46784
L60393 46878
" />
<path d="M60299 46840
L60393 46878
L60487 46840
" />
<path d="M60337 46953
L60393 46878
L60449 46953
" />
<path d="M60693 46784
L60693 46878
" />
<path d="M60599 46840
L60693 46878
L60787 46840
" />
<path d="M60637 46953
L60693 46878
L60749 46953
" />
<path d="M59475 42678
L59343 42490
" />
<path d="M59250 42678
L59250 42284
L59400 42284
L59437 42303
L59456 42321
L59475 42359
L59475 42415
L59456 42453
L59437 42471
L59400 42490
L59250 42490
" />
<path d="M59643 42471
L59775 42471
" />
<path d="M59831 42678
L59643 42678
L59643 42284
L59831 42284
" />
<path d="M60131 42471
L60000 42471
" />
<path d="M60000 42678
L60000 42284
L60187 42284
" />
<path d="M60393 42284
L60393 42378
" />
<path d="M60299 42340
L60393 42378
L60487 42340
" />
<path d="M60337 42453
L60393 42378
L60449 42453
" />
<path d="M60693 42284
L60693 42378
" />
<path d="M60599 42340
L60693 42378
L60787 42340
" />
<path d="M60637 42453
L60693 42378
L60749 42453
" />
<path d="M55975 49178
L55843 48990
" />
<path d="M55750 49178
L55750 48784
L55900 48784
L55937 48803
L55956 48821
L55975 48859
L55975 48915
L55956 48953
L55937 48971
L55900 48990
L55750 48990
" />
<path d="M56143 48971
L56275 48971
" />
<path d="M56331 49178
L56143 49178
L56143 48784
L56331 48784
" />
<path d="M56631 48971
L56500 48971
" />
<path d="M56500 49178
L56500 48784
L56687 48784
" />
<path d="M56893 48784
L56893 48878
" />
<path d="M56799 48840
L56893 48878
L56987 48840
" />
<path d="M56837 48953
L56893 48878
L56949 48953
" />
<path d="M57193 48784
L57193 48878
" />
<path d="M57099 48840
L57193 48878
L57287 48840
" />
<path d="M57137 48953
L57193 48878
L57249 48953
" />
<path d="M55975 45178
L55843 44990
" />
<path d="M55750 45178
L55750 44784
L55900 44784
L55937 44803
L55956 44821
L55975 44859
L55975 44915
L55956 44953
L55937 44971
L55900 44990
L55750 44990
" />
<path d="M56143 44971
L56275 44971
" />
<path d="M56331 45178
L56143 45178
L56143 44784
L56331 44784
" />
<path d="M56631 44971
L56500 44971
" />
<path d="M56500 45178
L56500 44784
L56687 44784
" />
<path d="M56893 44784
L56893 44878
" />
<path d="M56799 44840
L56893 44878
L56987 44840
" />
<path d="M56837 44953
L56893 44878
L56949 44953
" />
<path d="M57193 44784
L57193 44878
" />
<path d="M57099 44840
L57193 44878
L57287 44840
" />
<path d="M57137 44953
L57193 44878
L57249 44953
" />
<path d="M53475 56678
L53343 56490
" />
<path d="M53250 56678
L53250 56284
L53400 56284
L53437 56303
L53456 56321
L53475 56359
L53475 56415
L53456 56453
L53437 56471
L53400 56490
L53250 56490
" />
<path d="M53643 56471
L53775 56471
" />
<path d="M53831 56678
L53643 56678
L53643 56284
L53831 56284
" />
<path d="M54131 56471
L54000 56471
" />
<path d="M54000 56678
L54000 56284
L54187 56284
" />
<path d="M54393 56284
L54393 56378
" />
<path d="M54299 56340
L54393 56378
L54487 56340
" />
<path d="M54337 56453
L54393 56378
L54449 56453
" />
<path d="M54693 56284
L54693 56378
" />
<path d="M54599 56340
L54693 56378
L54787 56340
" />
<path d="M54637 56453
L54693 56378
L54749 56453
" />
<path d="M57975 56678
L57843 56490
" />
<path d="M57750 56678
L57750 56284
L57900 56284
L57937 56303
L57956 56321
L57975 56359
L57975 56415
L57956 56453
L57937 56471
L57900 56490
L57750 56490
" />
<path d="M58143 56471
L58275 56471
" />
<path d="M58331 56678
L58143 56678
L58143 56284
L58331 56284
" />
<path d="M58631 56471
L58500 56471
" />
<path d="M58500 56678
L58500 56284
L58687 56284
" />
<path d="M58893 56284
L58893 56378
" />
<path d="M58799 56340
L58893 56378
L58987 56340
" />
<path d="M58837 56453
L58893 56378
L58949 56453
" />
<path d="M59193 56284
L59193 56378
" />
<path d="M59099 56340
L59193 56378
L59287 56340
" />
<path d="M59137 56453
L59193 56378
L59249 56453
" />
</g>
<g style="fill:#008484; fill-opacity:0.0; 
stroke:#008484; stroke-width:59.0551; stroke-opacity:1; 
stroke-linecap:round; stroke-linejoin:round;">
<path d="M61553 39096
L61553 39596
" />
<path d="M67446 39096
L67446 39596
" />
<path d="M67446 59903
L67446 59403
" />
<path d="M61553 59903
L61553 59403
" />
<path d="M61553 39096
L67446 39096
" />
<path d="M61553 59903
L67446 59903
" />
<path d="M61553 39596
L61047 39596
" />
<path d="M59098 48492
L57917 48492
" />
<path d="M57917 47507
L59098 47507
" />
<path d="M59098 55992
L57917 55992
" />
<path d="M57917 55007
L59098 55007
" />
<path d="M66507 62098
L66507 60917
" />
<path d="M67492 60917
L67492 62098
" />
<path d="M61507 62098
L61507 60917
" />
<path d="M62492 60917
L62492 62098
" />
<path d="M53000 48500
L55000 48500
" />
<path d="M51889 48610
L51889 48000
" />
<path d="M52000 47500
L53000 47500
" />
<path d="M53000 47500
L53000 48500
" />
<path d="M55000 48500
L55000 46500
" />
<path d="M55000 46500
L53000 46500
" />
<path d="M51889 48610
L52500 48610
" />
<path d="M52000 46500
L52000 47500
" />
<path d="M53000 46500
L52000 46500
" />
<path d="M58500 57889
L59110 57889
" />
<path d="M59110 58500
L59110 57889
" />
<path d="M58000 58000
L58000 59000
" />
<path d="M58000 59000
L59000 59000
" />
<path d="M59000 59000
L59000 60000
" />
<path d="M59000 60000
L57000 60000
" />
<path d="M57000 60000
L57000 58000
" />
<path d="M57000 58000
L58000 58000
" />
<path d="M71500 40500
L71500 47500
" />
<path d="M71500 47500
L70500 47500
" />
<path d="M70500 47500
L70500 40500
" />
<path d="M71610 39389
L71610 40000
" />
<path d="M71500 40500
L70500 40500
" />
<path d="M70389 40000
L70389 39389
" />
<path d="M70389 39389
L71610 39389
" />
<path d="M65000 37000
L67000 37000
" />
<path d="M67000 37000
L67000 38000
" />
<path d="M67000 38000
L65000 38000
" />
<path d="M65000 38000
L65000 37000
" />
<path d="M59394 53350
L59236 53429
" />
<path d="M59236 53429
L59000 53469
" />
<path d="M59000 53469
L58803 53429
" />
<path d="M58803 53429
L58528 53272
" />
<path d="M58528 53272
L58370 53035
" />
<path d="M58370 53035
L58291 52799
" />
<path d="M58291 52799
L58291 50201
" />
<path d="M58291 50201
L58370 49925
" />
<path d="M58370 49925
L58488 49768
" />
<path d="M58488 49768
L58685 49610
" />
<path d="M58685 49610
L58921 49531
" />
<path d="M58921 49531
L59118 49531
" />
<path d="M59118 49531
L59315 49610
" />
<path d="M59315 49610
L59551 49807
" />
<path d="M59551 49807
L59669 50004
" />
<path d="M59669 50004
L59709 50201
" />
<path d="M59709 50240
L59709 52839
" />
<path d="M59709 52839
L59669 52996
" />
<path d="M59669 52996
L59551 53193
" />
<path d="M59551 53193
L59354 53390
" />
<path d="M59917 50244
L59898 50063
" />
<path d="M59898 50063
L59854 49906
" />
<path d="M59854 49906
L59768 49736
" />
<path d="M59768 49736
L59677 49622
" />
<path d="M59677 49622
L59539 49492
" />
<path d="M59539 49492
L59327 49378
" />
<path d="M59327 49378
L59091 49327
" />
<path d="M59091 49327
L58890 49327
" />
<path d="M58890 49327
L58614 49394
" />
<path d="M58614 49394
L58382 49551
" />
<path d="M58382 49551
L58236 49732
" />
<path d="M58236 49732
L58154 49898
" />
<path d="M58154 49898
L58091 50075
" />
<path d="M58091 50075
L58079 50248
" />
<path d="M58165 53138
L58252 53287
" />
<path d="M58252 53287
L58362 53413
" />
<path d="M58362 53413
L58492 53512
" />
<path d="M58492 53512
L58709 53630
" />
<path d="M58709 53630
L58894 53673
" />
<path d="M58894 53673
L59075 53681
" />
<path d="M59075 53681
L59256 53646
" />
<path d="M59256 53646
L59433 53571
" />
<path d="M59433 53571
L59618 53429
" />
<path d="M59618 53429
L59744 53291
" />
<path d="M59744 53291
L59835 53138
" />
<path d="M59835 53138
L59890 52969
" />
<path d="M59890 52969
L59917 52795
" />
<path d="M58083 50240
L58083 52780
" />
<path d="M58083 52780
L58098 52945
" />
<path d="M58098 52945
L58165 53138
" />
<path d="M59917 50240
L59917 52780
" />
<path d="M64618 60992
L64657 60874
" />
<path d="M64382 60992
L64343 60874
" />
<path d="M64146 60992
L64146 62980
" />
<path d="M64146 62980
L64854 62980
" />
<path d="M64854 62980
L64854 60992
" />
<path d="M64146 60992
L64854 60992
" />
<path d="M56898 36476
L59102 36476
" />
<path d="M59024 36280
L59024 36476
" />
<path d="M56976 36476
L56976 36280
" />
<path d="M58000 36280
L58000 36476
" />
<path d="M59102 38563
L56898 38563
" />
<path d="M59102 36280
L56898 36280
" />
<path d="M56898 36280
L56898 38720
" />
<path d="M56898 38720
L59102 38720
" />
<path d="M59102 38720
L59102 36280
" />
</g>
<g style="fill:#840000; fill-opacity:0.0; 
stroke:#840000; stroke-width:59.0551; stroke-opacity:1; 
stroke-linecap:round; stroke-linejoin:round;">
</g>
<g style="fill:#840000; fill-opacity:0.0; 
stroke:#840000; stroke-width:629.921; stroke-opacity:1; 
stroke-linecap:round; stroke-linejoin:round;">
<path d="M61362 40000
L61637 40000
" />
<path d="M61362 41000
L61637 41000
" />
<path d="M61362 42000
L61637 42000
" />
<path d="M61362 43000
L61637 43000
" />
<path d="M61362 44000
L61637 44000
" />
<path d="M61362 45000
L61637 45000
" />
<path d="M61362 46000
L61637 46000
" />
<path d="M61362 47000
L61637 47000
" />
<path d="M61362 48000
L61637 48000
" />
<path d="M61362 49000
L61637 49000
" />
<path d="M61362 50000
L61637 50000
" />
<path d="M61362 51000
L61637 51000
" />
<path d="M61362 52000
L61637 52000
" />
<path d="M61362 53000
L61637 53000
" />
<path d="M61362 54000
L61637 54000
" />
<path d="M61362 55000
L61637 55000
" />
<path d="M61362 56000
L61637 56000
" />
<path d="M61362 57000
L61637 57000
" />
<path d="M61362 58000
L61637 58000
" />
<path d="M61362 59000
L61637 59000
" />
<path d="M67362 59000
L67637 59000
" />
<path d="M67362 58000
L67637 58000
" />
<path d="M67362 57000
L67637 57000
" />
<path d="M67362 56000
L67637 56000
" />
<path d="M67362 55000
L67637 55000
" />
<path d="M67362 54000
L67637 54000
" />
<path d="M67362 53000
L67637 53000
" />
<path d="M67362 52000
L67637 52000
" />
<path d="M67362 51000
L67637 51000
" />
<path d="M67362 50000
L67637 50000
" />
<path d="M67362 49000
L67637 49000
" />
<path d="M67362 48000
L67637 48000
" />
<path d="M67362 47000
L67637 47000
" />
<path d="M67362 46000
L67637 46000
" />
<path d="M67362 45000
L67637 45000
" />
<path d="M67362 44000
L67637 44000
" />
<path d="M67362 43000
L67637 43000
" />
<path d="M67362 42000
L67637 42000
" />
<path d="M67362 41000
L67637 41000
" />
<path d="M67362 40000
L67637 40000
" />
</g>
<g style="fill:#840000; fill-opacity:0.0; 
stroke:#840000; stroke-width:0; stroke-opacity:1; 
stroke-linecap:round; stroke-linejoin:round;">
</g>
<g style="fill:#840000; fill-opacity:1.0; 
stroke:#840000; stroke-width:0; stroke-opacity:1; 
stroke-linecap:round; stroke-linejoin:round;">
<polyline style="fill-rule:evenodd;"
points="59255,47744
59255,48255
58744,48255
58744,47744
59255,47744
" /> 
<circle cx="58015.7" cy="48000" r="255.906" /> 
</g>
<g style="fill:#840000; fill-opacity:1.0; 
stroke:#840000; stroke-width:39.3701; stroke-opacity:1; 
stroke-linecap:round; stroke-linejoin:round;">
</g>
<g style="fill:#840000; fill-opacity:1.0; 
stroke:#840000; stroke-width:0; stroke-opacity:1; 
stroke-linecap:round; stroke-linejoin:round;">
<polyline style="fill-rule:evenodd;"
points="59255,55244
59255,55755
58744,55755
58744,55244
59255,55244
" /> 
<circle cx="58015.7" cy="55500" r="255.906" /> 
</g>
<g style="fill:#840000; fill-opacity:1.0; 
stroke:#840000; stroke-width:39.3701; stroke-opacity:1; 
stroke-linecap:round; stroke-linejoin:round;">
</g>
<g style="fill:#840000; fill-opacity:1.0; 
stroke:#840000; stroke-width:0; stroke-opacity:1; 
stroke-linecap:round; stroke-linejoin:round;">
<polyline style="fill-rule:evenodd;"
points="67255,62255
66744,62255
66744,61744
67255,61744
67255,62255
" /> 
<circle cx="67000" cy="61015.7" r="255.906" /> 
</g>
<g style="fill:#840000; fill-opacity:1.0; 
stroke:#840000; stroke-width:39.3701; stroke-opacity:1; 
stroke-linecap:round; stroke-linejoin:round;">
</g>
<g style="fill:#840000; fill-opacity:1.0; 
stroke:#840000; stroke-width:0; stroke-opacity:1; 
stroke-linecap:round; stroke-linejoin:round;">
<polyline style="fill-rule:evenodd;"
points="62255,62255
61744,62255
61744,61744
62255,61744
62255,62255
" /> 
<circle cx="62000" cy="61015.7" r="255.906" /> 
</g>
<g style="fill:#840000; fill-opacity:1.0; 
stroke:#840000; stroke-width:39.3701; stroke-opacity:1; 
stroke-linecap:round; stroke-linejoin:round;">
</g>
<g style="fill:#840000; fill-opacity:1.0; 
stroke:#840000; stroke-width:0; stroke-opacity:1; 
stroke-linecap:round; stroke-linejoin:round;">
<polyline style="fill-rule:evenodd;"
points="52840,48340
52160,48340
52160,47660
52840,47660
52840,48340
" /> 
</g>
<g style="fill:#840000; fill-opacity:1.0; 
stroke:#840000; stroke-width:680; stroke-opacity:1; 
stroke-linecap:round; stroke-linejoin:round;">
</g>
<g style="fill:#840000; fill-opacity:0.0; 
stroke:#840000; stroke-width:680; stroke-opacity:1; 
stroke-linecap:round; stroke-linejoin:round;">
<path d="M52500 47000
L52500 47000
" />
<path d="M53500 48000
L53500 48000
" />
<path d="M53500 47000
L53500 47000
" />
<path d="M54500 48000
L54500 48000
" />
<path d="M54500 47000
L54500 47000
" />
</g>
<g style="fill:#840000; fill-opacity:0.0; 
stroke:#840000; stroke-width:0; stroke-opacity:1; 
stroke-linecap:round; stroke-linejoin:round;">
</g>
<g style="fill:#840000; fill-opacity:1.0; 
stroke:#840000; stroke-width:0; stroke-opacity:1; 
stroke-linecap:round; stroke-linejoin:round;">
<polyline style="fill-rule:evenodd;"
points="58160,58160
58840,58160
58840,58840
58160,58840
58160,58160
" /> 
</g>
<g style="fill:#840000; fill-opacity:1.0; 
stroke:#840000; stroke-width:680; stroke-opacity:1; 
stroke-linecap:round; stroke-linejoin:round;">
</g>
<g style="fill:#840000; fill-opacity:0.0; 
stroke:#840000; stroke-width:680; stroke-opacity:1; 
stroke-linecap:round; stroke-linejoin:round;">
<path d="M58500 59500
L58500 59500
" />
<path d="M57500 58500
L57500 58500
" />
<path d="M57500 59500
L57500 59500
" />
</g>
<g style="fill:#840000; fill-opacity:0.0; 
stroke:#840000; stroke-width:0; stroke-opacity:1; 
stroke-linecap:round; stroke-linejoin:round;">
</g>
<g style="fill:#840000; fill-opacity:1.0; 
stroke:#840000; stroke-width:0; stroke-opacity:1; 
stroke-linecap:round; stroke-linejoin:round;">
<polyline style="fill-rule:evenodd;"
points="70600,40340
70600,39660
71400,39660
71400,40340
70600,40340
" /> 
</g>
<g style="fill:#840000; fill-opacity:1.0; 
stroke:#840000; stroke-width:680; stroke-opacity:1; 
stroke-linecap:round; stroke-linejoin:round;">
</g>
<g style="fill:#840000; fill-opacity:0.0; 
stroke:#840000; stroke-width:680; stroke-opacity:1; 
stroke-linecap:round; stroke-linejoin:round;">
<path d="M70940 41000
L71060 41000
" />
<path d="M70940 42000
L71060 42000
" />
<path d="M70940 43000
L71060 43000
" />
<path d="M70940 44000
L71060 44000
" />
<path d="M70940 45000
L71060 45000
" />
<path d="M70940 46000
L71060 46000
" />
<path d="M70940 47000
L71060 47000
" />
</g>
<g style="fill:#840000; fill-opacity:1.0; 
stroke:#840000; stroke-width:0; stroke-opacity:1; 
stroke-linecap:round; stroke-linejoin:round;">
<circle cx="64500" cy="37500" r="393.5" /> 
</g>
<g style="fill:#840000; fill-opacity:1.0; 
stroke:#840000; stroke-width:39.3701; stroke-opacity:1; 
stroke-linecap:round; stroke-linejoin:round;">
</g>
<g style="fill:#840000; fill-opacity:1.0; 
stroke:#840000; stroke-width:0; stroke-opacity:1; 
stroke-linecap:round; stroke-linejoin:round;">
<circle cx="67500" cy="37500" r="393.5" /> 
</g>
<g style="fill:#840000; fill-opacity:1.0; 
stroke:#840000; stroke-width:39.3701; stroke-opacity:1; 
stroke-linecap:round; stroke-linejoin:round;">
</g>
<g style="fill:#840000; fill-opacity:1.0; 
stroke:#840000; stroke-width:0; stroke-opacity:1; 
stroke-linecap:round; stroke-linejoin:round;">
<circle cx="59000" cy="50539" r="295.5" /> 
</g>
<g style="fill:#840000; fill-opacity:1.0; 
stroke:#840000; stroke-width:39.3701; stroke-opacity:1; 
stroke-linecap:round; stroke-linejoin:round;">
</g>
<g style="fill:#840000; fill-opacity:1.0; 
stroke:#840000; stroke-width:0; stroke-opacity:1; 
stroke-linecap:round; stroke-linejoin:round;">
<circle cx="59000" cy="52461" r="295.5" /> 
</g>
<g style="fill:#840000; fill-opacity:1.0; 
stroke:#840000; stroke-width:39.3701; stroke-opacity:1; 
stroke-linecap:round; stroke-linejoin:round;">
</g>
<g style="fill:#840000; fill-opacity:1.0; 
stroke:#840000; stroke-width:0; stroke-opacity:1; 
stroke-linecap:round; stroke-linejoin:round;">
<circle cx="64795" cy="60500" r="197" /> 
</g>
<g style="fill:#840000; fill-opacity:1.0; 
stroke:#840000; stroke-width:39.3701; stroke-opacity:1; 
stroke-linecap:round; stroke-linejoin:round;">
</g>
<g style="fill:#840000; fill-opacity:1.0; 
stroke:#840000; stroke-width:0; stroke-opacity:1; 
stroke-linecap:round; stroke-linejoin:round;">
<circle cx="64205" cy="60500" r="197" /> 
</g>
<g style="fill:#840000; fill-opacity:1.0; 
stroke:#840000; stroke-width:39.3701; stroke-opacity:1; 
stroke-linecap:round; stroke-linejoin:round;">
</g>
<g style="fill:#840000; fill-opacity:1.0; 
stroke:#840000; stroke-width:787; stroke-opacity:1; 
stroke-linecap:round; stroke-linejoin:round;">
</g>
<g style="fill:#840000; fill-opacity:0.0; 
stroke:#840000; stroke-width:787; stroke-opacity:1; 
stroke-linecap:round; stroke-linejoin:round;">
<path d="M57500 37500
L57500 37500
" />
</g>
<g style="fill:#840000; fill-opacity:0.0; 
stroke:#840000; stroke-width:0; stroke-opacity:1; 
stroke-linecap:round; stroke-linejoin:round;">
</g>
<g style="fill:#840000; fill-opacity:1.0; 
stroke:#840000; stroke-width:0; stroke-opacity:1; 
stroke-linecap:round; stroke-linejoin:round;">
<polyline style="fill-rule:evenodd;"
points="58893,37106
58893,37893
58106,37893
58106,37106
58893,37106
" /> 
<circle cx="57000" cy="45000" r="393.5" /> 
</g>
<g style="fill:#840000; fill-opacity:1.0; 
stroke:#840000; stroke-width:39.3701; stroke-opacity:1; 
stroke-linecap:round; stroke-linejoin:round;">
</g>
<g style="fill:#840000; fill-opacity:1.0; 
stroke:#840000; stroke-width:0; stroke-opacity:1; 
stroke-linecap:round; stroke-linejoin:round;">
<circle cx="54500" cy="45000" r="393.5" /> 
</g>
<g style="fill:#840000; fill-opacity:1.0; 
stroke:#840000; stroke-width:39.3701; stroke-opacity:1; 
stroke-linecap:round; stroke-linejoin:round;">
</g>
<g style="fill:#840000; fill-opacity:1.0; 
stroke:#840000; stroke-width:0; stroke-opacity:1; 
stroke-linecap:round; stroke-linejoin:round;">
<circle cx="60000" cy="48000" r="393.5" /> 
</g>
<g style="fill:#840000; fill-opacity:1.0; 
stroke:#840000; stroke-width:39.3701; stroke-opacity:1; 
stroke-linecap:round; stroke-linejoin:round;">
</g>
<g style="fill:#840000; fill-opacity:1.0; 
stroke:#840000; stroke-width:0; stroke-opacity:1; 
stroke-linecap:round; stroke-linejoin:round;">
<circle cx="60000" cy="43500" r="393.5" /> 
</g>
<g style="fill:#840000; fill-opacity:1.0; 
stroke:#840000; stroke-width:39.3701; stroke-opacity:1; 
stroke-linecap:round; stroke-linejoin:round;">
</g>
<g style="fill:#840000; fill-opacity:1.0; 
stroke:#840000; stroke-width:0; stroke-opacity:1; 
stroke-linecap:round; stroke-linejoin:round;">
<circle cx="56500" cy="50000" r="393.5" /> 
</g>
<g style="fill:#840000; fill-opacity:1.0; 
stroke:#840000; stroke-width:39.3701; stroke-opacity:1; 
stroke-linecap:round; stroke-linejoin:round;">
</g>
<g style="fill:#840000; fill-opacity:1.0; 
stroke:#840000; stroke-width:0; stroke-opacity:1; 
stroke-linecap:round; stroke-linejoin:round;">
<circle cx="56500" cy="46000" r="393.5" /> 
</g>
<g style="fill:#840000; fill-opacity:1.0; 
stroke:#840000; stroke-width:39.3701; stroke-opacity:1; 
stroke-linecap:round; stroke-linejoin:round;">
</g>
<g style="fill:#840000; fill-opacity:1.0; 
stroke:#840000; stroke-width:0; stroke-opacity:1; 
stroke-linecap:round; stroke-linejoin:round;">
<circle cx="54000" cy="57500" r="393.5" /> 
</g>
<g style="fill:#840000; fill-opacity:1.0; 
stroke:#840000; stroke-width:39.3701; stroke-opacity:1; 
stroke-linecap:round; stroke-linejoin:round;">
</g>
<g style="fill:#840000; fill-opacity:1.0; 
stroke:#840000; stroke-width:0; stroke-opacity:1; 
stroke-linecap:round; stroke-linejoin:round;">
<circle cx="58500" cy="57500" r="393.5" /> 
</g>
<g style="fill:#840000; fill-opacity:1.0; 
stroke:#840000; stroke-width:39.3701; stroke-opacity:1; 
stroke-linecap:round; stroke-linejoin:round;">
</g> 
</svg>
