M48
; DRILL file {KiCad (5.1.6)-1} date 10/20/20 19:44:42
; FORMAT={-:-/ absolute / metric / decimal}
; #@! TF.CreationDate,2020-10-20T19:44:42+02:00
; #@! TF.GenerationSoftware,Kicad,Pcbnew,(5.1.6)-1
; #@! TF.FileFunction,Plated,1,2,PTH
FMAT,2
METRIC
T1C0.500
T2C1.000
%
G90
G05
T1
X52.705Y21.59
X52.705Y11.43
X46.99Y21.59
X46.99Y11.43
X63.5Y12.7
X46.99Y35.56
X46.99Y25.4
X52.705Y35.56
X52.705Y25.4
X58.42Y35.56
X58.42Y25.4
X63.5Y20.32
X66.04Y20.32
X66.04Y12.7
X68.58Y20.32
X68.58Y12.7
X71.12Y20.32
X71.12Y12.7
T2
X67.945Y33.655
X67.945Y26.155
X7.62Y24.13
X15.12Y24.13
X29.21Y6.985
X30.91Y10.685
X32.61Y6.985
X34.31Y10.685
X36.01Y6.985
X41.275Y5.715
X66.675Y5.715
X80.01Y10.16
X80.01Y5.08
X7.62Y45.085
X12.7Y45.085
X80.01Y44.45
X80.01Y39.45
X83.81Y41.95
X67.945Y45.085
X67.945Y40.085
X71.745Y42.585
X51.435Y43.18
X56.515Y43.18
X5.08Y6.985
X10.16Y6.985
X15.24Y6.985
X41.275Y34.925
X41.275Y22.225
X20.79Y31.75
X34.29Y31.75
T0
M30
