%TF.GenerationSoftware,KiCad,Pcbnew,(5.1.6)-1*%
%TF.CreationDate,2020-10-20T19:44:27+02:00*%
%TF.ProjectId,smps,736d7073-2e6b-4696-9361-645f70636258,rev?*%
%TF.SameCoordinates,PX5734380PY525bfc0*%
%TF.FileFunction,Soldermask,Bot*%
%TF.FilePolarity,Negative*%
%FSLAX46Y46*%
G04 Gerber Fmt 4.6, Leading zero omitted, Abs format (unit mm)*
G04 Created by KiCad (PCBNEW (5.1.6)-1) date 2020-10-20 19:44:27*
%MOMM*%
%LPD*%
G01*
G04 APERTURE LIST*
%ADD10C,0.100000*%
G04 APERTURE END LIST*
D10*
G36*
X81361000Y3729000D02*
G01*
X78659000Y3729000D01*
X78659000Y6431000D01*
X81361000Y6431000D01*
X81361000Y3729000D01*
G37*
G36*
X67039903Y6917925D02*
G01*
X67199213Y6851937D01*
X67267571Y6823622D01*
X67472466Y6686715D01*
X67646715Y6512466D01*
X67783622Y6307571D01*
X67877925Y6079903D01*
X67926000Y5838213D01*
X67926000Y5591787D01*
X67877925Y5350097D01*
X67783622Y5122429D01*
X67646715Y4917534D01*
X67472466Y4743285D01*
X67267571Y4606378D01*
X67267570Y4606377D01*
X67267569Y4606377D01*
X67039903Y4512075D01*
X66798214Y4464000D01*
X66551786Y4464000D01*
X66310097Y4512075D01*
X66082431Y4606377D01*
X66082430Y4606377D01*
X66082429Y4606378D01*
X65877534Y4743285D01*
X65703285Y4917534D01*
X65566378Y5122429D01*
X65472075Y5350097D01*
X65424000Y5591787D01*
X65424000Y5838213D01*
X65472075Y6079903D01*
X65566378Y6307571D01*
X65703285Y6512466D01*
X65877534Y6686715D01*
X66082429Y6823622D01*
X66150788Y6851937D01*
X66310097Y6917925D01*
X66551786Y6966000D01*
X66798214Y6966000D01*
X67039903Y6917925D01*
G37*
G36*
X41639903Y6917925D02*
G01*
X41799213Y6851937D01*
X41867571Y6823622D01*
X42072466Y6686715D01*
X42246715Y6512466D01*
X42383622Y6307571D01*
X42477925Y6079903D01*
X42526000Y5838213D01*
X42526000Y5591787D01*
X42477925Y5350097D01*
X42383622Y5122429D01*
X42246715Y4917534D01*
X42072466Y4743285D01*
X41867571Y4606378D01*
X41867570Y4606377D01*
X41867569Y4606377D01*
X41639903Y4512075D01*
X41398214Y4464000D01*
X41151786Y4464000D01*
X40910097Y4512075D01*
X40682431Y4606377D01*
X40682430Y4606377D01*
X40682429Y4606378D01*
X40477534Y4743285D01*
X40303285Y4917534D01*
X40166378Y5122429D01*
X40072075Y5350097D01*
X40024000Y5591787D01*
X40024000Y5838213D01*
X40072075Y6079903D01*
X40166378Y6307571D01*
X40303285Y6512466D01*
X40477534Y6686715D01*
X40682429Y6823622D01*
X40750788Y6851937D01*
X40910097Y6917925D01*
X41151786Y6966000D01*
X41398214Y6966000D01*
X41639903Y6917925D01*
G37*
G36*
X5474072Y8284082D02*
G01*
X5719939Y8182241D01*
X5831328Y8107813D01*
X5941211Y8034391D01*
X6129391Y7846211D01*
X6141716Y7827765D01*
X6211257Y7723691D01*
X6277242Y7624937D01*
X6379082Y7379072D01*
X6431000Y7118063D01*
X6431000Y6851937D01*
X6402290Y6707604D01*
X6379082Y6590928D01*
X6277241Y6345061D01*
X6202813Y6233672D01*
X6141716Y6142234D01*
X6129390Y6123788D01*
X5941212Y5935610D01*
X5719939Y5787759D01*
X5719938Y5787758D01*
X5719937Y5787758D01*
X5474072Y5685918D01*
X5213063Y5634000D01*
X4946937Y5634000D01*
X4685928Y5685918D01*
X4440063Y5787758D01*
X4440062Y5787758D01*
X4440061Y5787759D01*
X4218788Y5935610D01*
X4030610Y6123788D01*
X4018285Y6142234D01*
X3957187Y6233672D01*
X3882759Y6345061D01*
X3780918Y6590928D01*
X3757710Y6707604D01*
X3729000Y6851937D01*
X3729000Y7118063D01*
X3780918Y7379072D01*
X3882758Y7624937D01*
X3948744Y7723691D01*
X4018284Y7827765D01*
X4030609Y7846211D01*
X4218789Y8034391D01*
X4328672Y8107813D01*
X4440061Y8182241D01*
X4685928Y8284082D01*
X4946937Y8336000D01*
X5213063Y8336000D01*
X5474072Y8284082D01*
G37*
G36*
X16591000Y5634000D02*
G01*
X13889000Y5634000D01*
X13889000Y8336000D01*
X16591000Y8336000D01*
X16591000Y5634000D01*
G37*
G36*
X10554072Y8284082D02*
G01*
X10799939Y8182241D01*
X10911328Y8107813D01*
X11021211Y8034391D01*
X11209391Y7846211D01*
X11221716Y7827765D01*
X11291257Y7723691D01*
X11357242Y7624937D01*
X11459082Y7379072D01*
X11511000Y7118063D01*
X11511000Y6851937D01*
X11482290Y6707604D01*
X11459082Y6590928D01*
X11357241Y6345061D01*
X11282813Y6233672D01*
X11221716Y6142234D01*
X11209390Y6123788D01*
X11021212Y5935610D01*
X10799939Y5787759D01*
X10799938Y5787758D01*
X10799937Y5787758D01*
X10554072Y5685918D01*
X10293063Y5634000D01*
X10026937Y5634000D01*
X9765928Y5685918D01*
X9520063Y5787758D01*
X9520062Y5787758D01*
X9520061Y5787759D01*
X9298788Y5935610D01*
X9110610Y6123788D01*
X9098285Y6142234D01*
X9037187Y6233672D01*
X8962759Y6345061D01*
X8860918Y6590928D01*
X8837710Y6707604D01*
X8809000Y6851937D01*
X8809000Y7118063D01*
X8860918Y7379072D01*
X8962758Y7624937D01*
X9028744Y7723691D01*
X9098284Y7827765D01*
X9110609Y7846211D01*
X9298789Y8034391D01*
X9408672Y8107813D01*
X9520061Y8182241D01*
X9765928Y8284082D01*
X10026937Y8336000D01*
X10293063Y8336000D01*
X10554072Y8284082D01*
G37*
G36*
X30161000Y6034000D02*
G01*
X28259000Y6034000D01*
X28259000Y7936000D01*
X30161000Y7936000D01*
X30161000Y6034000D01*
G37*
G36*
X32887395Y7899454D02*
G01*
X33060466Y7827766D01*
X33060467Y7827765D01*
X33216227Y7723690D01*
X33348690Y7591227D01*
X33348691Y7591225D01*
X33452766Y7435466D01*
X33524454Y7262395D01*
X33561000Y7078667D01*
X33561000Y6891333D01*
X33524454Y6707605D01*
X33452766Y6534534D01*
X33438019Y6512464D01*
X33348690Y6378773D01*
X33216227Y6246310D01*
X33137818Y6193919D01*
X33060466Y6142234D01*
X32887395Y6070546D01*
X32703667Y6034000D01*
X32516333Y6034000D01*
X32332605Y6070546D01*
X32159534Y6142234D01*
X32082182Y6193919D01*
X32003773Y6246310D01*
X31871310Y6378773D01*
X31781981Y6512464D01*
X31767234Y6534534D01*
X31695546Y6707605D01*
X31659000Y6891333D01*
X31659000Y7078667D01*
X31695546Y7262395D01*
X31767234Y7435466D01*
X31871309Y7591225D01*
X31871310Y7591227D01*
X32003773Y7723690D01*
X32159533Y7827765D01*
X32159534Y7827766D01*
X32332605Y7899454D01*
X32516333Y7936000D01*
X32703667Y7936000D01*
X32887395Y7899454D01*
G37*
G36*
X36287395Y7899454D02*
G01*
X36460466Y7827766D01*
X36460467Y7827765D01*
X36616227Y7723690D01*
X36748690Y7591227D01*
X36748691Y7591225D01*
X36852766Y7435466D01*
X36924454Y7262395D01*
X36961000Y7078667D01*
X36961000Y6891333D01*
X36924454Y6707605D01*
X36852766Y6534534D01*
X36838019Y6512464D01*
X36748690Y6378773D01*
X36616227Y6246310D01*
X36537818Y6193919D01*
X36460466Y6142234D01*
X36287395Y6070546D01*
X36103667Y6034000D01*
X35916333Y6034000D01*
X35732605Y6070546D01*
X35559534Y6142234D01*
X35482182Y6193919D01*
X35403773Y6246310D01*
X35271310Y6378773D01*
X35181981Y6512464D01*
X35167234Y6534534D01*
X35095546Y6707605D01*
X35059000Y6891333D01*
X35059000Y7078667D01*
X35095546Y7262395D01*
X35167234Y7435466D01*
X35271309Y7591225D01*
X35271310Y7591227D01*
X35403773Y7723690D01*
X35559533Y7827765D01*
X35559534Y7827766D01*
X35732605Y7899454D01*
X35916333Y7936000D01*
X36103667Y7936000D01*
X36287395Y7899454D01*
G37*
G36*
X80404072Y11459082D02*
G01*
X80649939Y11357241D01*
X80871212Y11209390D01*
X81059390Y11021212D01*
X81207241Y10799939D01*
X81309082Y10554072D01*
X81361000Y10293062D01*
X81361000Y10026938D01*
X81309082Y9765928D01*
X81207241Y9520061D01*
X81059390Y9298788D01*
X80871212Y9110610D01*
X80649939Y8962759D01*
X80649938Y8962758D01*
X80649937Y8962758D01*
X80404072Y8860918D01*
X80143063Y8809000D01*
X79876937Y8809000D01*
X79615928Y8860918D01*
X79370063Y8962758D01*
X79370062Y8962758D01*
X79370061Y8962759D01*
X79148788Y9110610D01*
X78960610Y9298788D01*
X78812759Y9520061D01*
X78710918Y9765928D01*
X78659000Y10026938D01*
X78659000Y10293062D01*
X78710918Y10554072D01*
X78812759Y10799939D01*
X78960610Y11021212D01*
X79148788Y11209390D01*
X79370061Y11357241D01*
X79615928Y11459082D01*
X79876937Y11511000D01*
X80143063Y11511000D01*
X80404072Y11459082D01*
G37*
G36*
X31187395Y11599454D02*
G01*
X31360466Y11527766D01*
X31381345Y11513815D01*
X31516227Y11423690D01*
X31648690Y11291227D01*
X31648691Y11291225D01*
X31752766Y11135466D01*
X31824454Y10962395D01*
X31861000Y10778667D01*
X31861000Y10591333D01*
X31824454Y10407605D01*
X31752766Y10234534D01*
X31752765Y10234533D01*
X31648690Y10078773D01*
X31516227Y9946310D01*
X31437818Y9893919D01*
X31360466Y9842234D01*
X31187395Y9770546D01*
X31003667Y9734000D01*
X30816333Y9734000D01*
X30632605Y9770546D01*
X30459534Y9842234D01*
X30382182Y9893919D01*
X30303773Y9946310D01*
X30171310Y10078773D01*
X30067235Y10234533D01*
X30067234Y10234534D01*
X29995546Y10407605D01*
X29959000Y10591333D01*
X29959000Y10778667D01*
X29995546Y10962395D01*
X30067234Y11135466D01*
X30171309Y11291225D01*
X30171310Y11291227D01*
X30303773Y11423690D01*
X30438655Y11513815D01*
X30459534Y11527766D01*
X30632605Y11599454D01*
X30816333Y11636000D01*
X31003667Y11636000D01*
X31187395Y11599454D01*
G37*
G36*
X34587395Y11599454D02*
G01*
X34760466Y11527766D01*
X34781345Y11513815D01*
X34916227Y11423690D01*
X35048690Y11291227D01*
X35048691Y11291225D01*
X35152766Y11135466D01*
X35224454Y10962395D01*
X35261000Y10778667D01*
X35261000Y10591333D01*
X35224454Y10407605D01*
X35152766Y10234534D01*
X35152765Y10234533D01*
X35048690Y10078773D01*
X34916227Y9946310D01*
X34837818Y9893919D01*
X34760466Y9842234D01*
X34587395Y9770546D01*
X34403667Y9734000D01*
X34216333Y9734000D01*
X34032605Y9770546D01*
X33859534Y9842234D01*
X33782182Y9893919D01*
X33703773Y9946310D01*
X33571310Y10078773D01*
X33467235Y10234533D01*
X33467234Y10234534D01*
X33395546Y10407605D01*
X33359000Y10591333D01*
X33359000Y10778667D01*
X33395546Y10962395D01*
X33467234Y11135466D01*
X33571309Y11291225D01*
X33571310Y11291227D01*
X33703773Y11423690D01*
X33838655Y11513815D01*
X33859534Y11527766D01*
X34032605Y11599454D01*
X34216333Y11636000D01*
X34403667Y11636000D01*
X34587395Y11599454D01*
G37*
G36*
X52953228Y12248297D02*
G01*
X53108100Y12184147D01*
X53247481Y12091015D01*
X53366015Y11972481D01*
X53459147Y11833100D01*
X53523297Y11678228D01*
X53556000Y11513816D01*
X53556000Y11346184D01*
X53523297Y11181772D01*
X53459147Y11026900D01*
X53366015Y10887519D01*
X53247481Y10768985D01*
X53108100Y10675853D01*
X52953228Y10611703D01*
X52788816Y10579000D01*
X52621184Y10579000D01*
X52456772Y10611703D01*
X52301900Y10675853D01*
X52162519Y10768985D01*
X52043985Y10887519D01*
X51950853Y11026900D01*
X51886703Y11181772D01*
X51854000Y11346184D01*
X51854000Y11513816D01*
X51886703Y11678228D01*
X51950853Y11833100D01*
X52043985Y11972481D01*
X52162519Y12091015D01*
X52301900Y12184147D01*
X52456772Y12248297D01*
X52621184Y12281000D01*
X52788816Y12281000D01*
X52953228Y12248297D01*
G37*
G36*
X47238228Y12248297D02*
G01*
X47393100Y12184147D01*
X47532481Y12091015D01*
X47651015Y11972481D01*
X47744147Y11833100D01*
X47808297Y11678228D01*
X47841000Y11513816D01*
X47841000Y11346184D01*
X47808297Y11181772D01*
X47744147Y11026900D01*
X47651015Y10887519D01*
X47532481Y10768985D01*
X47393100Y10675853D01*
X47238228Y10611703D01*
X47073816Y10579000D01*
X46906184Y10579000D01*
X46741772Y10611703D01*
X46586900Y10675853D01*
X46447519Y10768985D01*
X46328985Y10887519D01*
X46235853Y11026900D01*
X46171703Y11181772D01*
X46139000Y11346184D01*
X46139000Y11513816D01*
X46171703Y11678228D01*
X46235853Y11833100D01*
X46328985Y11972481D01*
X46447519Y12091015D01*
X46586900Y12184147D01*
X46741772Y12248297D01*
X46906184Y12281000D01*
X47073816Y12281000D01*
X47238228Y12248297D01*
G37*
G36*
X66288228Y13518297D02*
G01*
X66443100Y13454147D01*
X66582481Y13361015D01*
X66701015Y13242481D01*
X66794147Y13103100D01*
X66858297Y12948228D01*
X66891000Y12783816D01*
X66891000Y12616184D01*
X66858297Y12451772D01*
X66794147Y12296900D01*
X66701015Y12157519D01*
X66582481Y12038985D01*
X66443100Y11945853D01*
X66288228Y11881703D01*
X66123816Y11849000D01*
X65956184Y11849000D01*
X65791772Y11881703D01*
X65636900Y11945853D01*
X65497519Y12038985D01*
X65378985Y12157519D01*
X65285853Y12296900D01*
X65221703Y12451772D01*
X65189000Y12616184D01*
X65189000Y12783816D01*
X65221703Y12948228D01*
X65285853Y13103100D01*
X65378985Y13242481D01*
X65497519Y13361015D01*
X65636900Y13454147D01*
X65791772Y13518297D01*
X65956184Y13551000D01*
X66123816Y13551000D01*
X66288228Y13518297D01*
G37*
G36*
X71368228Y13518297D02*
G01*
X71523100Y13454147D01*
X71662481Y13361015D01*
X71781015Y13242481D01*
X71874147Y13103100D01*
X71938297Y12948228D01*
X71971000Y12783816D01*
X71971000Y12616184D01*
X71938297Y12451772D01*
X71874147Y12296900D01*
X71781015Y12157519D01*
X71662481Y12038985D01*
X71523100Y11945853D01*
X71368228Y11881703D01*
X71203816Y11849000D01*
X71036184Y11849000D01*
X70871772Y11881703D01*
X70716900Y11945853D01*
X70577519Y12038985D01*
X70458985Y12157519D01*
X70365853Y12296900D01*
X70301703Y12451772D01*
X70269000Y12616184D01*
X70269000Y12783816D01*
X70301703Y12948228D01*
X70365853Y13103100D01*
X70458985Y13242481D01*
X70577519Y13361015D01*
X70716900Y13454147D01*
X70871772Y13518297D01*
X71036184Y13551000D01*
X71203816Y13551000D01*
X71368228Y13518297D01*
G37*
G36*
X68828228Y13518297D02*
G01*
X68983100Y13454147D01*
X69122481Y13361015D01*
X69241015Y13242481D01*
X69334147Y13103100D01*
X69398297Y12948228D01*
X69431000Y12783816D01*
X69431000Y12616184D01*
X69398297Y12451772D01*
X69334147Y12296900D01*
X69241015Y12157519D01*
X69122481Y12038985D01*
X68983100Y11945853D01*
X68828228Y11881703D01*
X68663816Y11849000D01*
X68496184Y11849000D01*
X68331772Y11881703D01*
X68176900Y11945853D01*
X68037519Y12038985D01*
X67918985Y12157519D01*
X67825853Y12296900D01*
X67761703Y12451772D01*
X67729000Y12616184D01*
X67729000Y12783816D01*
X67761703Y12948228D01*
X67825853Y13103100D01*
X67918985Y13242481D01*
X68037519Y13361015D01*
X68176900Y13454147D01*
X68331772Y13518297D01*
X68496184Y13551000D01*
X68663816Y13551000D01*
X68828228Y13518297D01*
G37*
G36*
X63748228Y13518297D02*
G01*
X63903100Y13454147D01*
X64042481Y13361015D01*
X64161015Y13242481D01*
X64254147Y13103100D01*
X64318297Y12948228D01*
X64351000Y12783816D01*
X64351000Y12616184D01*
X64318297Y12451772D01*
X64254147Y12296900D01*
X64161015Y12157519D01*
X64042481Y12038985D01*
X63903100Y11945853D01*
X63748228Y11881703D01*
X63583816Y11849000D01*
X63416184Y11849000D01*
X63251772Y11881703D01*
X63096900Y11945853D01*
X62957519Y12038985D01*
X62838985Y12157519D01*
X62745853Y12296900D01*
X62681703Y12451772D01*
X62649000Y12616184D01*
X62649000Y12783816D01*
X62681703Y12948228D01*
X62745853Y13103100D01*
X62838985Y13242481D01*
X62957519Y13361015D01*
X63096900Y13454147D01*
X63251772Y13518297D01*
X63416184Y13551000D01*
X63583816Y13551000D01*
X63748228Y13518297D01*
G37*
G36*
X63748228Y21138297D02*
G01*
X63903100Y21074147D01*
X64042481Y20981015D01*
X64161015Y20862481D01*
X64254147Y20723100D01*
X64318297Y20568228D01*
X64351000Y20403816D01*
X64351000Y20236184D01*
X64318297Y20071772D01*
X64254147Y19916900D01*
X64161015Y19777519D01*
X64042481Y19658985D01*
X63903100Y19565853D01*
X63748228Y19501703D01*
X63583816Y19469000D01*
X63416184Y19469000D01*
X63251772Y19501703D01*
X63096900Y19565853D01*
X62957519Y19658985D01*
X62838985Y19777519D01*
X62745853Y19916900D01*
X62681703Y20071772D01*
X62649000Y20236184D01*
X62649000Y20403816D01*
X62681703Y20568228D01*
X62745853Y20723100D01*
X62838985Y20862481D01*
X62957519Y20981015D01*
X63096900Y21074147D01*
X63251772Y21138297D01*
X63416184Y21171000D01*
X63583816Y21171000D01*
X63748228Y21138297D01*
G37*
G36*
X66288228Y21138297D02*
G01*
X66443100Y21074147D01*
X66582481Y20981015D01*
X66701015Y20862481D01*
X66794147Y20723100D01*
X66858297Y20568228D01*
X66891000Y20403816D01*
X66891000Y20236184D01*
X66858297Y20071772D01*
X66794147Y19916900D01*
X66701015Y19777519D01*
X66582481Y19658985D01*
X66443100Y19565853D01*
X66288228Y19501703D01*
X66123816Y19469000D01*
X65956184Y19469000D01*
X65791772Y19501703D01*
X65636900Y19565853D01*
X65497519Y19658985D01*
X65378985Y19777519D01*
X65285853Y19916900D01*
X65221703Y20071772D01*
X65189000Y20236184D01*
X65189000Y20403816D01*
X65221703Y20568228D01*
X65285853Y20723100D01*
X65378985Y20862481D01*
X65497519Y20981015D01*
X65636900Y21074147D01*
X65791772Y21138297D01*
X65956184Y21171000D01*
X66123816Y21171000D01*
X66288228Y21138297D01*
G37*
G36*
X68828228Y21138297D02*
G01*
X68983100Y21074147D01*
X69122481Y20981015D01*
X69241015Y20862481D01*
X69334147Y20723100D01*
X69398297Y20568228D01*
X69431000Y20403816D01*
X69431000Y20236184D01*
X69398297Y20071772D01*
X69334147Y19916900D01*
X69241015Y19777519D01*
X69122481Y19658985D01*
X68983100Y19565853D01*
X68828228Y19501703D01*
X68663816Y19469000D01*
X68496184Y19469000D01*
X68331772Y19501703D01*
X68176900Y19565853D01*
X68037519Y19658985D01*
X67918985Y19777519D01*
X67825853Y19916900D01*
X67761703Y20071772D01*
X67729000Y20236184D01*
X67729000Y20403816D01*
X67761703Y20568228D01*
X67825853Y20723100D01*
X67918985Y20862481D01*
X68037519Y20981015D01*
X68176900Y21074147D01*
X68331772Y21138297D01*
X68496184Y21171000D01*
X68663816Y21171000D01*
X68828228Y21138297D01*
G37*
G36*
X71971000Y19469000D02*
G01*
X70269000Y19469000D01*
X70269000Y21171000D01*
X71971000Y21171000D01*
X71971000Y19469000D01*
G37*
G36*
X41650256Y23833702D02*
G01*
X41756579Y23812553D01*
X42057042Y23688097D01*
X42327451Y23507415D01*
X42557415Y23277451D01*
X42663028Y23119390D01*
X42738098Y23007040D01*
X42862553Y22706578D01*
X42921886Y22408295D01*
X42926000Y22387609D01*
X42926000Y22062391D01*
X42862553Y21743421D01*
X42738097Y21442958D01*
X42557415Y21172549D01*
X42327451Y20942585D01*
X42057042Y20761903D01*
X41756579Y20637447D01*
X41650256Y20616298D01*
X41437611Y20574000D01*
X41112389Y20574000D01*
X40899744Y20616298D01*
X40793421Y20637447D01*
X40492958Y20761903D01*
X40222549Y20942585D01*
X39992585Y21172549D01*
X39811903Y21442958D01*
X39687447Y21743421D01*
X39624000Y22062391D01*
X39624000Y22387609D01*
X39628115Y22408295D01*
X39687447Y22706578D01*
X39811902Y23007040D01*
X39886972Y23119390D01*
X39992585Y23277451D01*
X40222549Y23507415D01*
X40492958Y23688097D01*
X40793421Y23812553D01*
X40899744Y23833702D01*
X41112389Y23876000D01*
X41437611Y23876000D01*
X41650256Y23833702D01*
G37*
G36*
X47238228Y22408297D02*
G01*
X47393100Y22344147D01*
X47532481Y22251015D01*
X47651015Y22132481D01*
X47744147Y21993100D01*
X47808297Y21838228D01*
X47841000Y21673816D01*
X47841000Y21506184D01*
X47808297Y21341772D01*
X47744147Y21186900D01*
X47651015Y21047519D01*
X47532481Y20928985D01*
X47393100Y20835853D01*
X47238228Y20771703D01*
X47073816Y20739000D01*
X46906184Y20739000D01*
X46741772Y20771703D01*
X46586900Y20835853D01*
X46447519Y20928985D01*
X46328985Y21047519D01*
X46235853Y21186900D01*
X46171703Y21341772D01*
X46139000Y21506184D01*
X46139000Y21673816D01*
X46171703Y21838228D01*
X46235853Y21993100D01*
X46328985Y22132481D01*
X46447519Y22251015D01*
X46586900Y22344147D01*
X46741772Y22408297D01*
X46906184Y22441000D01*
X47073816Y22441000D01*
X47238228Y22408297D01*
G37*
G36*
X52953228Y22408297D02*
G01*
X53108100Y22344147D01*
X53247481Y22251015D01*
X53366015Y22132481D01*
X53459147Y21993100D01*
X53523297Y21838228D01*
X53556000Y21673816D01*
X53556000Y21506184D01*
X53523297Y21341772D01*
X53459147Y21186900D01*
X53366015Y21047519D01*
X53247481Y20928985D01*
X53108100Y20835853D01*
X52953228Y20771703D01*
X52788816Y20739000D01*
X52621184Y20739000D01*
X52456772Y20771703D01*
X52301900Y20835853D01*
X52162519Y20928985D01*
X52043985Y21047519D01*
X51950853Y21186900D01*
X51886703Y21341772D01*
X51854000Y21506184D01*
X51854000Y21673816D01*
X51886703Y21838228D01*
X51950853Y21993100D01*
X52043985Y22132481D01*
X52162519Y22251015D01*
X52301900Y22344147D01*
X52456772Y22408297D01*
X52621184Y22441000D01*
X52788816Y22441000D01*
X52953228Y22408297D01*
G37*
G36*
X8671000Y23079000D02*
G01*
X6569000Y23079000D01*
X6569000Y25181000D01*
X8671000Y25181000D01*
X8671000Y23079000D01*
G37*
G36*
X15426564Y25140611D02*
G01*
X15617833Y25061385D01*
X15617835Y25061384D01*
X15789973Y24946365D01*
X15936365Y24799973D01*
X16039345Y24645853D01*
X16051385Y24627833D01*
X16130611Y24436564D01*
X16171000Y24233516D01*
X16171000Y24026484D01*
X16130611Y23823436D01*
X16126103Y23812553D01*
X16051384Y23632165D01*
X15936365Y23460027D01*
X15789973Y23313635D01*
X15617835Y23198616D01*
X15617834Y23198615D01*
X15617833Y23198615D01*
X15426564Y23119389D01*
X15223516Y23079000D01*
X15016484Y23079000D01*
X14813436Y23119389D01*
X14622167Y23198615D01*
X14622166Y23198615D01*
X14622165Y23198616D01*
X14450027Y23313635D01*
X14303635Y23460027D01*
X14188616Y23632165D01*
X14113897Y23812553D01*
X14109389Y23823436D01*
X14069000Y24026484D01*
X14069000Y24233516D01*
X14109389Y24436564D01*
X14188615Y24627833D01*
X14200656Y24645853D01*
X14303635Y24799973D01*
X14450027Y24946365D01*
X14622165Y25061384D01*
X14622167Y25061385D01*
X14813436Y25140611D01*
X15016484Y25181000D01*
X15223516Y25181000D01*
X15426564Y25140611D01*
G37*
G36*
X52953228Y26218297D02*
G01*
X53108100Y26154147D01*
X53247481Y26061015D01*
X53366015Y25942481D01*
X53459147Y25803100D01*
X53523297Y25648228D01*
X53556000Y25483816D01*
X53556000Y25316184D01*
X53523297Y25151772D01*
X53459147Y24996900D01*
X53366015Y24857519D01*
X53247481Y24738985D01*
X53108100Y24645853D01*
X52953228Y24581703D01*
X52788816Y24549000D01*
X52621184Y24549000D01*
X52456772Y24581703D01*
X52301900Y24645853D01*
X52162519Y24738985D01*
X52043985Y24857519D01*
X51950853Y24996900D01*
X51886703Y25151772D01*
X51854000Y25316184D01*
X51854000Y25483816D01*
X51886703Y25648228D01*
X51950853Y25803100D01*
X52043985Y25942481D01*
X52162519Y26061015D01*
X52301900Y26154147D01*
X52456772Y26218297D01*
X52621184Y26251000D01*
X52788816Y26251000D01*
X52953228Y26218297D01*
G37*
G36*
X58668228Y26218297D02*
G01*
X58823100Y26154147D01*
X58962481Y26061015D01*
X59081015Y25942481D01*
X59174147Y25803100D01*
X59238297Y25648228D01*
X59271000Y25483816D01*
X59271000Y25316184D01*
X59238297Y25151772D01*
X59174147Y24996900D01*
X59081015Y24857519D01*
X58962481Y24738985D01*
X58823100Y24645853D01*
X58668228Y24581703D01*
X58503816Y24549000D01*
X58336184Y24549000D01*
X58171772Y24581703D01*
X58016900Y24645853D01*
X57877519Y24738985D01*
X57758985Y24857519D01*
X57665853Y24996900D01*
X57601703Y25151772D01*
X57569000Y25316184D01*
X57569000Y25483816D01*
X57601703Y25648228D01*
X57665853Y25803100D01*
X57758985Y25942481D01*
X57877519Y26061015D01*
X58016900Y26154147D01*
X58171772Y26218297D01*
X58336184Y26251000D01*
X58503816Y26251000D01*
X58668228Y26218297D01*
G37*
G36*
X47238228Y26218297D02*
G01*
X47393100Y26154147D01*
X47532481Y26061015D01*
X47651015Y25942481D01*
X47744147Y25803100D01*
X47808297Y25648228D01*
X47841000Y25483816D01*
X47841000Y25316184D01*
X47808297Y25151772D01*
X47744147Y24996900D01*
X47651015Y24857519D01*
X47532481Y24738985D01*
X47393100Y24645853D01*
X47238228Y24581703D01*
X47073816Y24549000D01*
X46906184Y24549000D01*
X46741772Y24581703D01*
X46586900Y24645853D01*
X46447519Y24738985D01*
X46328985Y24857519D01*
X46235853Y24996900D01*
X46171703Y25151772D01*
X46139000Y25316184D01*
X46139000Y25483816D01*
X46171703Y25648228D01*
X46235853Y25803100D01*
X46328985Y25942481D01*
X46447519Y26061015D01*
X46586900Y26154147D01*
X46741772Y26218297D01*
X46906184Y26251000D01*
X47073816Y26251000D01*
X47238228Y26218297D01*
G37*
G36*
X68251564Y27165611D02*
G01*
X68442833Y27086385D01*
X68442835Y27086384D01*
X68614973Y26971365D01*
X68761365Y26824973D01*
X68876385Y26652833D01*
X68955611Y26461564D01*
X68996000Y26258516D01*
X68996000Y26051484D01*
X68955611Y25848436D01*
X68936832Y25803100D01*
X68876384Y25657165D01*
X68761365Y25485027D01*
X68614973Y25338635D01*
X68442835Y25223616D01*
X68442834Y25223615D01*
X68442833Y25223615D01*
X68251564Y25144389D01*
X68048516Y25104000D01*
X67841484Y25104000D01*
X67638436Y25144389D01*
X67447167Y25223615D01*
X67447166Y25223615D01*
X67447165Y25223616D01*
X67275027Y25338635D01*
X67128635Y25485027D01*
X67013616Y25657165D01*
X66953168Y25803100D01*
X66934389Y25848436D01*
X66894000Y26051484D01*
X66894000Y26258516D01*
X66934389Y26461564D01*
X67013615Y26652833D01*
X67128635Y26824973D01*
X67275027Y26971365D01*
X67447165Y27086384D01*
X67447167Y27086385D01*
X67638436Y27165611D01*
X67841484Y27206000D01*
X68048516Y27206000D01*
X68251564Y27165611D01*
G37*
G36*
X34651112Y33565434D02*
G01*
X34829917Y33529867D01*
X34969448Y33472071D01*
X35166776Y33390336D01*
X35469943Y33187766D01*
X35727766Y32929943D01*
X35930336Y32626776D01*
X36069867Y32289916D01*
X36141000Y31932309D01*
X36141000Y31567691D01*
X36069867Y31210084D01*
X35930336Y30873224D01*
X35727766Y30570057D01*
X35469943Y30312234D01*
X35166776Y30109664D01*
X34969448Y30027929D01*
X34829917Y29970133D01*
X34651113Y29934567D01*
X34472309Y29899000D01*
X34107691Y29899000D01*
X33928887Y29934567D01*
X33750083Y29970133D01*
X33610552Y30027929D01*
X33413224Y30109664D01*
X33110057Y30312234D01*
X32852234Y30570057D01*
X32649664Y30873224D01*
X32510133Y31210084D01*
X32439000Y31567691D01*
X32439000Y31932309D01*
X32510133Y32289916D01*
X32649664Y32626776D01*
X32852234Y32929943D01*
X33110057Y33187766D01*
X33413224Y33390336D01*
X33610552Y33472071D01*
X33750083Y33529867D01*
X33928888Y33565434D01*
X34107691Y33601000D01*
X34472309Y33601000D01*
X34651112Y33565434D01*
G37*
G36*
X21151112Y33565434D02*
G01*
X21329917Y33529867D01*
X21469448Y33472071D01*
X21666776Y33390336D01*
X21969943Y33187766D01*
X22227766Y32929943D01*
X22430336Y32626776D01*
X22569867Y32289916D01*
X22641000Y31932309D01*
X22641000Y31567691D01*
X22569867Y31210084D01*
X22430336Y30873224D01*
X22227766Y30570057D01*
X21969943Y30312234D01*
X21666776Y30109664D01*
X21469448Y30027929D01*
X21329917Y29970133D01*
X21151113Y29934567D01*
X20972309Y29899000D01*
X20607691Y29899000D01*
X20428887Y29934567D01*
X20250083Y29970133D01*
X20110552Y30027929D01*
X19913224Y30109664D01*
X19610057Y30312234D01*
X19352234Y30570057D01*
X19149664Y30873224D01*
X19010133Y31210084D01*
X18939000Y31567691D01*
X18939000Y31932309D01*
X19010133Y32289916D01*
X19149664Y32626776D01*
X19352234Y32929943D01*
X19610057Y33187766D01*
X19913224Y33390336D01*
X20110552Y33472071D01*
X20250083Y33529867D01*
X20428888Y33565434D01*
X20607691Y33601000D01*
X20972309Y33601000D01*
X21151112Y33565434D01*
G37*
G36*
X68996000Y32604000D02*
G01*
X66894000Y32604000D01*
X66894000Y34706000D01*
X68996000Y34706000D01*
X68996000Y32604000D01*
G37*
G36*
X42926000Y33274000D02*
G01*
X39624000Y33274000D01*
X39624000Y36576000D01*
X42926000Y36576000D01*
X42926000Y33274000D01*
G37*
G36*
X47238228Y36378297D02*
G01*
X47393100Y36314147D01*
X47532481Y36221015D01*
X47651015Y36102481D01*
X47744147Y35963100D01*
X47808297Y35808228D01*
X47841000Y35643816D01*
X47841000Y35476184D01*
X47808297Y35311772D01*
X47744147Y35156900D01*
X47651015Y35017519D01*
X47532481Y34898985D01*
X47393100Y34805853D01*
X47238228Y34741703D01*
X47073816Y34709000D01*
X46906184Y34709000D01*
X46741772Y34741703D01*
X46586900Y34805853D01*
X46447519Y34898985D01*
X46328985Y35017519D01*
X46235853Y35156900D01*
X46171703Y35311772D01*
X46139000Y35476184D01*
X46139000Y35643816D01*
X46171703Y35808228D01*
X46235853Y35963100D01*
X46328985Y36102481D01*
X46447519Y36221015D01*
X46586900Y36314147D01*
X46741772Y36378297D01*
X46906184Y36411000D01*
X47073816Y36411000D01*
X47238228Y36378297D01*
G37*
G36*
X52953228Y36378297D02*
G01*
X53108100Y36314147D01*
X53247481Y36221015D01*
X53366015Y36102481D01*
X53459147Y35963100D01*
X53523297Y35808228D01*
X53556000Y35643816D01*
X53556000Y35476184D01*
X53523297Y35311772D01*
X53459147Y35156900D01*
X53366015Y35017519D01*
X53247481Y34898985D01*
X53108100Y34805853D01*
X52953228Y34741703D01*
X52788816Y34709000D01*
X52621184Y34709000D01*
X52456772Y34741703D01*
X52301900Y34805853D01*
X52162519Y34898985D01*
X52043985Y35017519D01*
X51950853Y35156900D01*
X51886703Y35311772D01*
X51854000Y35476184D01*
X51854000Y35643816D01*
X51886703Y35808228D01*
X51950853Y35963100D01*
X52043985Y36102481D01*
X52162519Y36221015D01*
X52301900Y36314147D01*
X52456772Y36378297D01*
X52621184Y36411000D01*
X52788816Y36411000D01*
X52953228Y36378297D01*
G37*
G36*
X58668228Y36378297D02*
G01*
X58823100Y36314147D01*
X58962481Y36221015D01*
X59081015Y36102481D01*
X59174147Y35963100D01*
X59238297Y35808228D01*
X59271000Y35643816D01*
X59271000Y35476184D01*
X59238297Y35311772D01*
X59174147Y35156900D01*
X59081015Y35017519D01*
X58962481Y34898985D01*
X58823100Y34805853D01*
X58668228Y34741703D01*
X58503816Y34709000D01*
X58336184Y34709000D01*
X58171772Y34741703D01*
X58016900Y34805853D01*
X57877519Y34898985D01*
X57758985Y35017519D01*
X57665853Y35156900D01*
X57601703Y35311772D01*
X57569000Y35476184D01*
X57569000Y35643816D01*
X57601703Y35808228D01*
X57665853Y35963100D01*
X57758985Y36102481D01*
X57877519Y36221015D01*
X58016900Y36314147D01*
X58171772Y36378297D01*
X58336184Y36411000D01*
X58503816Y36411000D01*
X58668228Y36378297D01*
G37*
G36*
X80248205Y40647539D02*
G01*
X80366153Y40624078D01*
X80458194Y40585953D01*
X80588359Y40532037D01*
X80788342Y40398413D01*
X80958413Y40228342D01*
X81092037Y40028359D01*
X81184078Y39806152D01*
X81231000Y39570259D01*
X81231000Y39329741D01*
X81184078Y39093848D01*
X81092037Y38871641D01*
X80958413Y38671658D01*
X80788342Y38501587D01*
X80588359Y38367963D01*
X80458194Y38314047D01*
X80366153Y38275922D01*
X80248205Y38252461D01*
X80130259Y38229000D01*
X79889741Y38229000D01*
X79771795Y38252461D01*
X79653847Y38275922D01*
X79561806Y38314047D01*
X79431641Y38367963D01*
X79231658Y38501587D01*
X79061587Y38671658D01*
X78927963Y38871641D01*
X78835922Y39093848D01*
X78789000Y39329741D01*
X78789000Y39570259D01*
X78835922Y39806152D01*
X78927963Y40028359D01*
X79061587Y40228342D01*
X79231658Y40398413D01*
X79431641Y40532037D01*
X79561806Y40585953D01*
X79653847Y40624078D01*
X79771795Y40647539D01*
X79889741Y40671000D01*
X80130259Y40671000D01*
X80248205Y40647539D01*
G37*
G36*
X68301153Y41259078D02*
G01*
X68393194Y41220953D01*
X68523359Y41167037D01*
X68723342Y41033413D01*
X68893413Y40863342D01*
X69027037Y40663359D01*
X69119078Y40441152D01*
X69166000Y40205259D01*
X69166000Y39964741D01*
X69119078Y39728848D01*
X69027037Y39506641D01*
X68893413Y39306658D01*
X68723342Y39136587D01*
X68523359Y39002963D01*
X68393194Y38949047D01*
X68301153Y38910922D01*
X68065259Y38864000D01*
X67824741Y38864000D01*
X67588847Y38910922D01*
X67496806Y38949047D01*
X67366641Y39002963D01*
X67166658Y39136587D01*
X66996587Y39306658D01*
X66862963Y39506641D01*
X66770922Y39728848D01*
X66724000Y39964741D01*
X66724000Y40205259D01*
X66770922Y40441152D01*
X66862963Y40663359D01*
X66996587Y40863342D01*
X67166658Y41033413D01*
X67366641Y41167037D01*
X67496806Y41220953D01*
X67588847Y41259078D01*
X67706795Y41282539D01*
X67824741Y41306000D01*
X68065259Y41306000D01*
X68301153Y41259078D01*
G37*
G36*
X84166153Y43124078D02*
G01*
X84258194Y43085953D01*
X84388359Y43032037D01*
X84588342Y42898413D01*
X84758413Y42728342D01*
X84892037Y42528359D01*
X84984078Y42306152D01*
X85031000Y42070259D01*
X85031000Y41829741D01*
X84984078Y41593848D01*
X84892037Y41371641D01*
X84758413Y41171658D01*
X84588342Y41001587D01*
X84388359Y40867963D01*
X84258194Y40814047D01*
X84166153Y40775922D01*
X84048205Y40752461D01*
X83930259Y40729000D01*
X83689741Y40729000D01*
X83571795Y40752461D01*
X83453847Y40775922D01*
X83361806Y40814047D01*
X83231641Y40867963D01*
X83031658Y41001587D01*
X82861587Y41171658D01*
X82727963Y41371641D01*
X82635922Y41593848D01*
X82589000Y41829741D01*
X82589000Y42070259D01*
X82635922Y42306152D01*
X82727963Y42528359D01*
X82861587Y42728342D01*
X83031658Y42898413D01*
X83231641Y43032037D01*
X83361806Y43085953D01*
X83453847Y43124078D01*
X83689741Y43171000D01*
X83930259Y43171000D01*
X84166153Y43124078D01*
G37*
G36*
X71966218Y43785918D02*
G01*
X72101153Y43759078D01*
X72161696Y43734000D01*
X72323359Y43667037D01*
X72523342Y43533413D01*
X72693413Y43363342D01*
X72827037Y43163359D01*
X72919078Y42941152D01*
X72966000Y42705259D01*
X72966000Y42464741D01*
X72919078Y42228848D01*
X72827037Y42006641D01*
X72693413Y41806658D01*
X72523342Y41636587D01*
X72323359Y41502963D01*
X72193194Y41449047D01*
X72101153Y41410922D01*
X71865259Y41364000D01*
X71624741Y41364000D01*
X71388847Y41410922D01*
X71296806Y41449047D01*
X71166641Y41502963D01*
X70966658Y41636587D01*
X70796587Y41806658D01*
X70662963Y42006641D01*
X70570922Y42228848D01*
X70524000Y42464741D01*
X70524000Y42705259D01*
X70570922Y42941152D01*
X70662963Y43163359D01*
X70796587Y43363342D01*
X70966658Y43533413D01*
X71166641Y43667037D01*
X71328304Y43734000D01*
X71388847Y43759078D01*
X71523782Y43785918D01*
X71624741Y43806000D01*
X71865259Y43806000D01*
X71966218Y43785918D01*
G37*
G36*
X51829072Y44479082D02*
G01*
X51911202Y44445063D01*
X52074939Y44377241D01*
X52146026Y44329742D01*
X52296211Y44229391D01*
X52484391Y44041211D01*
X52557813Y43931328D01*
X52632241Y43819939D01*
X52734082Y43574072D01*
X52786000Y43313062D01*
X52786000Y43046938D01*
X52734082Y42785928D01*
X52632241Y42540061D01*
X52484390Y42318788D01*
X52296212Y42130610D01*
X52074939Y41982759D01*
X52074938Y41982758D01*
X52074937Y41982758D01*
X51829072Y41880918D01*
X51568063Y41829000D01*
X51301937Y41829000D01*
X51040928Y41880918D01*
X50795063Y41982758D01*
X50795062Y41982758D01*
X50795061Y41982759D01*
X50573788Y42130610D01*
X50385610Y42318788D01*
X50237759Y42540061D01*
X50135918Y42785928D01*
X50084000Y43046938D01*
X50084000Y43313062D01*
X50135918Y43574072D01*
X50237759Y43819939D01*
X50312187Y43931328D01*
X50385609Y44041211D01*
X50573789Y44229391D01*
X50723974Y44329742D01*
X50795061Y44377241D01*
X50958799Y44445063D01*
X51040928Y44479082D01*
X51301937Y44531000D01*
X51568063Y44531000D01*
X51829072Y44479082D01*
G37*
G36*
X57866000Y41829000D02*
G01*
X55164000Y41829000D01*
X55164000Y44531000D01*
X57866000Y44531000D01*
X57866000Y41829000D01*
G37*
G36*
X80248205Y45647539D02*
G01*
X80366153Y45624078D01*
X80458194Y45585953D01*
X80588359Y45532037D01*
X80788342Y45398413D01*
X80958413Y45228342D01*
X81092037Y45028359D01*
X81184078Y44806152D01*
X81231000Y44570259D01*
X81231000Y44329741D01*
X81211039Y44229391D01*
X81184078Y44093847D01*
X81162275Y44041211D01*
X81092037Y43871641D01*
X80958413Y43671658D01*
X80788342Y43501587D01*
X80588359Y43367963D01*
X80458194Y43314047D01*
X80366153Y43275922D01*
X80248205Y43252461D01*
X80130259Y43229000D01*
X79889741Y43229000D01*
X79771795Y43252461D01*
X79653847Y43275922D01*
X79561806Y43314047D01*
X79431641Y43367963D01*
X79231658Y43501587D01*
X79061587Y43671658D01*
X78927963Y43871641D01*
X78857725Y44041211D01*
X78835922Y44093847D01*
X78808961Y44229391D01*
X78789000Y44329741D01*
X78789000Y44570259D01*
X78835922Y44806152D01*
X78927963Y45028359D01*
X79061587Y45228342D01*
X79231658Y45398413D01*
X79431641Y45532037D01*
X79561806Y45585953D01*
X79653847Y45624078D01*
X79889741Y45671000D01*
X80130259Y45671000D01*
X80248205Y45647539D01*
G37*
G36*
X8014072Y46384082D02*
G01*
X8202580Y46306000D01*
X8259939Y46282241D01*
X8371328Y46207813D01*
X8481211Y46134391D01*
X8669391Y45946211D01*
X8817242Y45724937D01*
X8919082Y45479072D01*
X8971000Y45218063D01*
X8971000Y44951937D01*
X8919082Y44690928D01*
X8869100Y44570259D01*
X8817241Y44445061D01*
X8669390Y44223788D01*
X8481212Y44035610D01*
X8259939Y43887759D01*
X8259938Y43887758D01*
X8259937Y43887758D01*
X8014072Y43785918D01*
X7753063Y43734000D01*
X7486937Y43734000D01*
X7225928Y43785918D01*
X6980063Y43887758D01*
X6980062Y43887758D01*
X6980061Y43887759D01*
X6758788Y44035610D01*
X6570610Y44223788D01*
X6422759Y44445061D01*
X6370901Y44570259D01*
X6320918Y44690928D01*
X6269000Y44951937D01*
X6269000Y45218063D01*
X6320918Y45479072D01*
X6422758Y45724937D01*
X6570609Y45946211D01*
X6758789Y46134391D01*
X6868672Y46207813D01*
X6980061Y46282241D01*
X7037421Y46306000D01*
X7225928Y46384082D01*
X7486937Y46436000D01*
X7753063Y46436000D01*
X8014072Y46384082D01*
G37*
G36*
X14051000Y43734000D02*
G01*
X11349000Y43734000D01*
X11349000Y46436000D01*
X14051000Y46436000D01*
X14051000Y43734000D01*
G37*
G36*
X68183205Y46282539D02*
G01*
X68301153Y46259078D01*
X68393194Y46220953D01*
X68523359Y46167037D01*
X68723342Y46033413D01*
X68893413Y45863342D01*
X69027037Y45663359D01*
X69119078Y45441152D01*
X69166000Y45205259D01*
X69166000Y44964741D01*
X69119078Y44728848D01*
X69027037Y44506641D01*
X68893413Y44306658D01*
X68723342Y44136587D01*
X68523359Y44002963D01*
X68393194Y43949047D01*
X68301153Y43910922D01*
X68184704Y43887759D01*
X68065259Y43864000D01*
X67824741Y43864000D01*
X67705296Y43887759D01*
X67588847Y43910922D01*
X67496806Y43949047D01*
X67366641Y44002963D01*
X67166658Y44136587D01*
X66996587Y44306658D01*
X66862963Y44506641D01*
X66770922Y44728848D01*
X66724000Y44964741D01*
X66724000Y45205259D01*
X66770922Y45441152D01*
X66862963Y45663359D01*
X66996587Y45863342D01*
X67166658Y46033413D01*
X67366641Y46167037D01*
X67496806Y46220953D01*
X67588847Y46259078D01*
X67824741Y46306000D01*
X68065259Y46306000D01*
X68183205Y46282539D01*
G37*
M02*
