M48
; DRILL file {KiCad 6.0.4-6f826c9f35~116~ubuntu20.04.1} date Tue 12 Apr 2022 09:58:47 AM CEST
; FORMAT={-:-/ absolute / metric / decimal}
; #@! TF.CreationDate,2022-04-12T09:58:47+02:00
; #@! TF.GenerationSoftware,Kicad,Pcbnew,6.0.4-6f826c9f35~116~ubuntu20.04.1
; #@! TF.FileFunction,MixedPlating,1,2
FMAT,2
METRIC
; #@! TA.AperFunction,Plated,PTH,ViaDrill
T1C0.300
; #@! TA.AperFunction,Plated,PTH,ViaDrill
T2C0.400
; #@! TA.AperFunction,Plated,PTH,ComponentDrill
T3C0.500
; #@! TA.AperFunction,Plated,PTH,ComponentDrill
T4C0.762
; #@! TA.AperFunction,Plated,PTH,ComponentDrill
T5C0.800
; #@! TA.AperFunction,Plated,PTH,ComponentDrill
T6C0.900
; #@! TA.AperFunction,Plated,PTH,ComponentDrill
T7C1.000
; #@! TA.AperFunction,Plated,PTH,ComponentDrill
T8C1.300
%
G90
G05
T1
X112.865Y-104.306
X118.6Y-114.8
X120.7Y-114.8
X151.9Y-109.5
X151.9Y-110.7
X208.1Y-111.1
X209.7Y-109.5
X212.2Y-124.12
T2
X151.401Y-105.856
X152.243Y-103.947
X154.056Y-104.554
X154.096Y-108.623
X154.708Y-103.701
X154.93Y-110.019
X157.171Y-111.222
X157.517Y-108.023
X158.332Y-106.424
X158.484Y-110.182
X159.561Y-104.194
X162.01Y-100.52
X195.265Y-112.34
T3
X167.945Y-103.965
X167.945Y-105.665
T4
X111.47Y-104.22
X111.47Y-106.38
X112.74Y-102.47
X114.8Y-101.8
X114.8Y-108.8
X116.86Y-108.14
X116.88Y-102.44
X118.11Y-104.25
X118.13Y-106.39
X134.75Y-104.22
X134.75Y-106.38
X136.02Y-102.47
X138.08Y-101.8
X138.08Y-108.8
X140.14Y-108.14
X140.16Y-102.44
X141.39Y-104.25
X141.41Y-106.39
X177.93Y-104.255
X177.93Y-106.415
X179.2Y-102.505
X181.26Y-101.835
X181.26Y-108.835
X183.32Y-108.175
X183.34Y-102.475
X184.57Y-104.285
X184.59Y-106.425
X201.23Y-104.255
X201.23Y-106.415
X202.5Y-102.505
X204.56Y-101.835
X204.56Y-108.835
X206.62Y-108.175
X206.64Y-102.475
X207.87Y-104.285
X207.89Y-106.425
T5
X103.175Y-119.905
X103.175Y-127.525
X105.715Y-119.905
X105.715Y-127.525
X108.255Y-119.905
X108.255Y-127.525
X110.795Y-119.905
X110.795Y-127.525
X113.335Y-119.905
X113.335Y-127.525
X115.875Y-119.905
X115.875Y-127.525
X118.415Y-119.905
X118.415Y-127.525
X120.955Y-119.905
X120.955Y-127.525
X123.495Y-119.905
X123.495Y-127.525
X126.035Y-119.905
X126.035Y-127.525
X133.175Y-119.905
X133.175Y-127.525
X135.715Y-119.905
X135.715Y-127.525
X138.255Y-119.905
X138.255Y-127.525
X140.795Y-119.905
X140.795Y-127.525
X143.335Y-119.905
X143.335Y-127.525
X145.875Y-119.905
X145.875Y-127.525
X148.415Y-119.905
X148.415Y-127.525
X149.18Y-84.29
X149.18Y-91.91
X150.955Y-119.905
X150.955Y-127.525
X152.705Y-84.29
X152.705Y-91.91
X153.495Y-119.905
X153.495Y-127.525
X156.035Y-119.905
X156.035Y-127.525
X156.3Y-84.29
X156.3Y-91.91
X163.175Y-119.905
X163.175Y-127.525
X165.715Y-119.905
X165.715Y-127.525
X166.695Y-101.425
X166.695Y-108.41
X168.255Y-119.905
X168.255Y-127.525
X169.195Y-101.425
X169.195Y-108.41
X170.795Y-119.905
X170.795Y-127.525
X173.335Y-119.905
X173.335Y-127.525
X175.875Y-119.905
X175.875Y-127.525
X178.415Y-119.905
X178.415Y-127.525
X180.955Y-119.905
X180.955Y-127.525
X183.495Y-119.905
X183.495Y-127.525
X186.035Y-119.905
X186.035Y-127.525
X193.175Y-119.905
X193.175Y-127.525
X195.715Y-119.905
X195.715Y-127.525
X198.255Y-119.905
X198.255Y-127.525
X200.795Y-119.905
X200.795Y-127.525
X203.335Y-119.905
X203.335Y-127.525
X205.875Y-119.905
X205.875Y-127.525
X208.415Y-119.905
X208.415Y-127.525
X210.955Y-119.905
X210.955Y-127.525
X213.495Y-119.905
X213.495Y-127.525
X216.035Y-119.905
X216.035Y-127.525
T6
X163.3Y-86.835
X163.3Y-89.375
X173.2Y-86.835
X173.2Y-89.375
T7
X102.9Y-104.025
X102.9Y-106.565
X102.9Y-109.105
X102.9Y-111.645
X128.755Y-86.312
X128.755Y-88.852
X131.295Y-86.312
X131.295Y-88.852
X133.835Y-86.312
X133.835Y-88.852
X216.8Y-84.615
X216.8Y-87.155
X216.8Y-89.695
X216.8Y-92.235
X216.8Y-94.775
T8
X112.665Y-87.795
X117.745Y-87.795
T0
M30
