G04 #@! TF.GenerationSoftware,KiCad,Pcbnew,5.0.0-fee4fd1~66~ubuntu18.04.1*
G04 #@! TF.CreationDate,2018-09-19T14:49:28+02:00*
G04 #@! TF.ProjectId,pwrsupply,707772737570706C792E6B696361645F,rev?*
G04 #@! TF.SameCoordinates,Original*
G04 #@! TF.FileFunction,Copper,L2,Bot,Signal*
G04 #@! TF.FilePolarity,Positive*
%FSLAX46Y46*%
G04 Gerber Fmt 4.6, Leading zero omitted, Abs format (unit mm)*
G04 Created by KiCad (PCBNEW 5.0.0-fee4fd1~66~ubuntu18.04.1) date Wed Sep 19 14:49:28 2018*
%MOMM*%
%LPD*%
G01*
G04 APERTURE LIST*
G04 #@! TA.AperFunction,ComponentPad*
%ADD10R,1.600000X1.600000*%
G04 #@! TD*
G04 #@! TA.AperFunction,ComponentPad*
%ADD11C,1.600000*%
G04 #@! TD*
G04 #@! TA.AperFunction,ComponentPad*
%ADD12O,1.600000X1.600000*%
G04 #@! TD*
G04 #@! TA.AperFunction,ComponentPad*
%ADD13R,2.000000X1.905000*%
G04 #@! TD*
G04 #@! TA.AperFunction,ComponentPad*
%ADD14O,2.000000X1.905000*%
G04 #@! TD*
G04 #@! TA.AperFunction,ComponentPad*
%ADD15R,1.700000X1.700000*%
G04 #@! TD*
G04 #@! TA.AperFunction,ComponentPad*
%ADD16O,1.700000X1.700000*%
G04 #@! TD*
G04 #@! TA.AperFunction,Conductor*
%ADD17C,0.500000*%
G04 #@! TD*
G04 APERTURE END LIST*
D10*
G04 #@! TO.P,C1,1*
G04 #@! TO.N,Net-(C1-Pad1)*
X102870000Y-64770000D03*
D11*
G04 #@! TO.P,C1,2*
G04 #@! TO.N,Net-(C1-Pad2)*
X102870000Y-67270000D03*
G04 #@! TD*
G04 #@! TO.P,C2,2*
G04 #@! TO.N,Net-(C2-Pad2)*
X102870000Y-85050000D03*
D10*
G04 #@! TO.P,C2,1*
G04 #@! TO.N,Net-(C1-Pad2)*
X102870000Y-82550000D03*
G04 #@! TD*
D11*
G04 #@! TO.P,R1,1*
G04 #@! TO.N,Net-(C1-Pad1)*
X95250000Y-64770000D03*
D12*
G04 #@! TO.P,R1,2*
G04 #@! TO.N,Net-(R1-Pad2)*
X95250000Y-72390000D03*
G04 #@! TD*
G04 #@! TO.P,R2,2*
G04 #@! TO.N,Net-(C2-Pad2)*
X95250000Y-85090000D03*
D11*
G04 #@! TO.P,R2,1*
G04 #@! TO.N,Net-(R1-Pad2)*
X95250000Y-77470000D03*
G04 #@! TD*
D10*
G04 #@! TO.P,U1,1*
G04 #@! TO.N,Net-(C1-Pad2)*
X99060000Y-71120000D03*
D12*
G04 #@! TO.P,U1,5*
G04 #@! TO.N,N/C*
X106680000Y-78740000D03*
G04 #@! TO.P,U1,2*
G04 #@! TO.N,Net-(C1-Pad2)*
X99060000Y-73660000D03*
G04 #@! TO.P,U1,6*
G04 #@! TO.N,N/C*
X106680000Y-76200000D03*
G04 #@! TO.P,U1,3*
G04 #@! TO.N,Net-(R1-Pad2)*
X99060000Y-76200000D03*
G04 #@! TO.P,U1,7*
G04 #@! TO.N,N/C*
X106680000Y-73660000D03*
G04 #@! TO.P,U1,4*
G04 #@! TO.N,Net-(C2-Pad2)*
X99060000Y-78740000D03*
G04 #@! TO.P,U1,8*
G04 #@! TO.N,Net-(C1-Pad1)*
X106680000Y-71120000D03*
G04 #@! TD*
D13*
G04 #@! TO.P,U2,1*
G04 #@! TO.N,Net-(C1-Pad1)*
X111760000Y-66040000D03*
D14*
G04 #@! TO.P,U2,2*
G04 #@! TO.N,Net-(C1-Pad2)*
X111760000Y-68580000D03*
G04 #@! TO.P,U2,3*
G04 #@! TO.N,Net-(J2-Pad1)*
X111760000Y-71120000D03*
G04 #@! TD*
G04 #@! TO.P,U3,3*
G04 #@! TO.N,Net-(J2-Pad4)*
X111760000Y-83820000D03*
G04 #@! TO.P,U3,2*
G04 #@! TO.N,Net-(C2-Pad2)*
X111760000Y-81280000D03*
D13*
G04 #@! TO.P,U3,1*
G04 #@! TO.N,Net-(C1-Pad2)*
X111760000Y-78740000D03*
G04 #@! TD*
D15*
G04 #@! TO.P,J1,1*
G04 #@! TO.N,Net-(C2-Pad2)*
X90170000Y-76200000D03*
D16*
G04 #@! TO.P,J1,2*
G04 #@! TO.N,Net-(C1-Pad1)*
X90170000Y-73660000D03*
G04 #@! TD*
D15*
G04 #@! TO.P,J2,1*
G04 #@! TO.N,Net-(J2-Pad1)*
X118110000Y-69850000D03*
D16*
G04 #@! TO.P,J2,2*
G04 #@! TO.N,Net-(C1-Pad2)*
X118110000Y-72390000D03*
G04 #@! TO.P,J2,3*
X118110000Y-74930000D03*
G04 #@! TO.P,J2,4*
G04 #@! TO.N,Net-(J2-Pad4)*
X118110000Y-77470000D03*
G04 #@! TD*
D17*
G04 #@! TO.N,Net-(C1-Pad1)*
X90170000Y-73660000D02*
X90170000Y-67310000D01*
X90170000Y-67310000D02*
X92710000Y-64770000D01*
X92710000Y-64770000D02*
X95250000Y-64770000D01*
X95250000Y-64770000D02*
X102870000Y-64770000D01*
X106680000Y-71120000D02*
X106680000Y-64770000D01*
X102870000Y-64770000D02*
X106680000Y-64770000D01*
X111760000Y-66040000D02*
X110490000Y-64770000D01*
X110490000Y-64770000D02*
X109220000Y-64770000D01*
X106680000Y-64770000D02*
X109220000Y-64770000D01*
X109220000Y-64770000D02*
X109855000Y-64770000D01*
G04 #@! TO.N,Net-(C1-Pad2)*
X99060000Y-73660000D02*
X99060000Y-71120000D01*
X101610000Y-67270000D02*
X102870000Y-67270000D01*
X99060000Y-71120000D02*
X99060000Y-69820000D01*
X99060000Y-69820000D02*
X101610000Y-67270000D01*
X99060000Y-73660000D02*
X102870000Y-73660000D01*
X102870000Y-67270000D02*
X102870000Y-73660000D01*
X118110000Y-74930000D02*
X111760000Y-74930000D01*
X111760000Y-74930000D02*
X109220000Y-74930000D01*
X102870000Y-74930000D02*
X102870000Y-73660000D01*
X102870000Y-81280000D02*
X102870000Y-74930000D01*
X102870000Y-82550000D02*
X102870000Y-81280000D01*
X111760000Y-78740000D02*
X109220000Y-78740000D01*
X109220000Y-74930000D02*
X109220000Y-78740000D01*
X102870000Y-82550000D02*
X105410000Y-82550000D01*
X105410000Y-82550000D02*
X109220000Y-78740000D01*
X118110000Y-74930000D02*
X118110000Y-72390000D01*
X109220000Y-68580000D02*
X109220000Y-74930000D01*
X111760000Y-68580000D02*
X109220000Y-68580000D01*
G04 #@! TO.N,Net-(C2-Pad2)*
X102830000Y-85090000D02*
X102870000Y-85050000D01*
X90170000Y-76200000D02*
X90170000Y-82550000D01*
X92710000Y-85090000D02*
X95250000Y-85090000D01*
X90170000Y-82550000D02*
X92710000Y-85090000D01*
X99060000Y-78740000D02*
X99060000Y-85090000D01*
X95250000Y-85090000D02*
X99060000Y-85090000D01*
X99060000Y-85090000D02*
X102830000Y-85090000D01*
X102870000Y-85050000D02*
X106720000Y-85050000D01*
X106720000Y-85050000D02*
X110490000Y-81280000D01*
X110490000Y-81280000D02*
X111760000Y-81280000D01*
G04 #@! TO.N,Net-(J2-Pad1)*
X111760000Y-71120000D02*
X114300000Y-71120000D01*
X115570000Y-69850000D02*
X118110000Y-69850000D01*
X114300000Y-71120000D02*
X115570000Y-69850000D01*
G04 #@! TO.N,Net-(R1-Pad2)*
X95250000Y-72390000D02*
X95250000Y-77470000D01*
X99060000Y-76200000D02*
X95250000Y-76200000D01*
G04 #@! TO.N,Net-(J2-Pad4)*
X118110000Y-81280000D02*
X118110000Y-77470000D01*
X111760000Y-83820000D02*
X115570000Y-83820000D01*
X115570000Y-83820000D02*
X118110000Y-81280000D01*
G04 #@! TD*
M02*
