G04 #@! TF.GenerationSoftware,KiCad,Pcbnew,5.0.0-fee4fd1~66~ubuntu18.04.1*
G04 #@! TF.CreationDate,2018-10-01T18:34:02+02:00*
G04 #@! TF.ProjectId,pwrsupply,707772737570706C792E6B696361645F,rev?*
G04 #@! TF.SameCoordinates,PX542d128PY52f7038*
G04 #@! TF.FileFunction,Copper,L2,Bot,Signal*
G04 #@! TF.FilePolarity,Positive*
%FSLAX46Y46*%
G04 Gerber Fmt 4.6, Leading zero omitted, Abs format (unit mm)*
G04 Created by KiCad (PCBNEW 5.0.0-fee4fd1~66~ubuntu18.04.1) date Mon Oct  1 18:34:02 2018*
%MOMM*%
%LPD*%
G01*
G04 APERTURE LIST*
G04 #@! TA.AperFunction,ComponentPad*
%ADD10R,1.600000X1.600000*%
G04 #@! TD*
G04 #@! TA.AperFunction,ComponentPad*
%ADD11C,1.600000*%
G04 #@! TD*
G04 #@! TA.AperFunction,ComponentPad*
%ADD12O,1.600000X1.600000*%
G04 #@! TD*
G04 #@! TA.AperFunction,ComponentPad*
%ADD13R,2.000000X1.905000*%
G04 #@! TD*
G04 #@! TA.AperFunction,ComponentPad*
%ADD14O,2.000000X1.905000*%
G04 #@! TD*
G04 #@! TA.AperFunction,ComponentPad*
%ADD15R,1.700000X1.700000*%
G04 #@! TD*
G04 #@! TA.AperFunction,ComponentPad*
%ADD16O,1.700000X1.700000*%
G04 #@! TD*
G04 #@! TA.AperFunction,Conductor*
%ADD17C,1.000000*%
G04 #@! TD*
G04 APERTURE END LIST*
D10*
G04 #@! TO.P,C1,1*
G04 #@! TO.N,Net-(C1-Pad1)*
X14605000Y22225000D03*
D11*
G04 #@! TO.P,C1,2*
G04 #@! TO.N,Net-(C1-Pad2)*
X14605000Y19725000D03*
G04 #@! TD*
G04 #@! TO.P,C2,2*
G04 #@! TO.N,Net-(C2-Pad2)*
X14605000Y1945000D03*
D10*
G04 #@! TO.P,C2,1*
G04 #@! TO.N,Net-(C1-Pad2)*
X14605000Y4445000D03*
G04 #@! TD*
D11*
G04 #@! TO.P,R1,1*
G04 #@! TO.N,Net-(C1-Pad1)*
X6985000Y22225000D03*
D12*
G04 #@! TO.P,R1,2*
G04 #@! TO.N,Net-(R1-Pad2)*
X6985000Y14605000D03*
G04 #@! TD*
G04 #@! TO.P,R2,2*
G04 #@! TO.N,Net-(C2-Pad2)*
X6985000Y1905000D03*
D11*
G04 #@! TO.P,R2,1*
G04 #@! TO.N,Net-(R1-Pad2)*
X6985000Y9525000D03*
G04 #@! TD*
D10*
G04 #@! TO.P,U1,1*
G04 #@! TO.N,Net-(C1-Pad2)*
X10795000Y15875000D03*
D12*
G04 #@! TO.P,U1,5*
G04 #@! TO.N,N/C*
X18415000Y8255000D03*
G04 #@! TO.P,U1,2*
G04 #@! TO.N,Net-(C1-Pad2)*
X10795000Y13335000D03*
G04 #@! TO.P,U1,6*
G04 #@! TO.N,N/C*
X18415000Y10795000D03*
G04 #@! TO.P,U1,3*
G04 #@! TO.N,Net-(R1-Pad2)*
X10795000Y10795000D03*
G04 #@! TO.P,U1,7*
G04 #@! TO.N,N/C*
X18415000Y13335000D03*
G04 #@! TO.P,U1,4*
G04 #@! TO.N,Net-(C2-Pad2)*
X10795000Y8255000D03*
G04 #@! TO.P,U1,8*
G04 #@! TO.N,Net-(C1-Pad1)*
X18415000Y15875000D03*
G04 #@! TD*
D13*
G04 #@! TO.P,U2,1*
G04 #@! TO.N,Net-(C1-Pad1)*
X23495000Y20955000D03*
D14*
G04 #@! TO.P,U2,2*
G04 #@! TO.N,Net-(C1-Pad2)*
X23495000Y18415000D03*
G04 #@! TO.P,U2,3*
G04 #@! TO.N,Net-(J2-Pad1)*
X23495000Y15875000D03*
G04 #@! TD*
G04 #@! TO.P,U3,3*
G04 #@! TO.N,Net-(J2-Pad4)*
X23495000Y3175000D03*
G04 #@! TO.P,U3,2*
G04 #@! TO.N,Net-(C2-Pad2)*
X23495000Y5715000D03*
D13*
G04 #@! TO.P,U3,1*
G04 #@! TO.N,Net-(C1-Pad2)*
X23495000Y8255000D03*
G04 #@! TD*
D15*
G04 #@! TO.P,J1,1*
G04 #@! TO.N,Net-(C2-Pad2)*
X1905000Y10795000D03*
D16*
G04 #@! TO.P,J1,2*
G04 #@! TO.N,Net-(C1-Pad1)*
X1905000Y13335000D03*
G04 #@! TD*
D15*
G04 #@! TO.P,J2,1*
G04 #@! TO.N,Net-(J2-Pad1)*
X29845000Y17145000D03*
D16*
G04 #@! TO.P,J2,2*
G04 #@! TO.N,Net-(C1-Pad2)*
X29845000Y14605000D03*
G04 #@! TO.P,J2,3*
X29845000Y12065000D03*
G04 #@! TO.P,J2,4*
G04 #@! TO.N,Net-(J2-Pad4)*
X29845000Y9525000D03*
G04 #@! TD*
D17*
G04 #@! TO.N,Net-(C1-Pad1)*
X1905000Y13335000D02*
X1905000Y19685000D01*
X4445000Y22225000D02*
X6985000Y22225000D01*
X1905000Y19685000D02*
X4445000Y22225000D01*
X6985000Y22225000D02*
X14605000Y22225000D01*
X18415000Y15875000D02*
X18415000Y22225000D01*
X14605000Y22225000D02*
X18415000Y22225000D01*
X23495000Y20955000D02*
X22225000Y22225000D01*
X22225000Y22225000D02*
X20955000Y22225000D01*
X18415000Y22225000D02*
X20955000Y22225000D01*
X20955000Y22225000D02*
X21590000Y22225000D01*
G04 #@! TO.N,Net-(C1-Pad2)*
X10795000Y13335000D02*
X10795000Y15875000D01*
X13345000Y19725000D02*
X14605000Y19725000D01*
X10795000Y15875000D02*
X10795000Y17175000D01*
X10795000Y17175000D02*
X13345000Y19725000D01*
X10795000Y13335000D02*
X14605000Y13335000D01*
X14605000Y19725000D02*
X14605000Y13335000D01*
X29845000Y12065000D02*
X23495000Y12065000D01*
X23495000Y12065000D02*
X20955000Y12065000D01*
X14605000Y12065000D02*
X14605000Y13335000D01*
X14605000Y5715000D02*
X14605000Y12065000D01*
X14605000Y4445000D02*
X14605000Y5715000D01*
X23495000Y8255000D02*
X20955000Y8255000D01*
X20955000Y12065000D02*
X20955000Y8255000D01*
X14605000Y4445000D02*
X17145000Y4445000D01*
X17145000Y4445000D02*
X20955000Y8255000D01*
X29845000Y12065000D02*
X29845000Y14605000D01*
X20955000Y18415000D02*
X20955000Y12065000D01*
X23495000Y18415000D02*
X20955000Y18415000D01*
G04 #@! TO.N,Net-(C2-Pad2)*
X14565000Y1905000D02*
X14605000Y1945000D01*
X1905000Y10795000D02*
X1905000Y4445000D01*
X4445000Y1905000D02*
X6985000Y1905000D01*
X1905000Y4445000D02*
X4445000Y1905000D01*
X10795000Y8255000D02*
X10795000Y1905000D01*
X6985000Y1905000D02*
X10795000Y1905000D01*
X10795000Y1905000D02*
X14565000Y1905000D01*
X14605000Y1945000D02*
X18455000Y1945000D01*
X18455000Y1945000D02*
X22225000Y5715000D01*
X22225000Y5715000D02*
X23495000Y5715000D01*
G04 #@! TO.N,Net-(J2-Pad1)*
X23495000Y15875000D02*
X26035000Y15875000D01*
X27305000Y17145000D02*
X29845000Y17145000D01*
X26035000Y15875000D02*
X27305000Y17145000D01*
G04 #@! TO.N,Net-(R1-Pad2)*
X6985000Y14605000D02*
X6985000Y9525000D01*
X10795000Y10795000D02*
X6985000Y10795000D01*
G04 #@! TO.N,Net-(J2-Pad4)*
X29845000Y5715000D02*
X29845000Y9525000D01*
X23495000Y3175000D02*
X27305000Y3175000D01*
X27305000Y3175000D02*
X29845000Y5715000D01*
G04 #@! TD*
M02*
