M48
;DRILL file {KiCad 5.0.0-fee4fd1~66~ubuntu18.04.1} date Wed Sep 19 14:50:14 2018
;FORMAT={-:-/ absolute / inch / decimal}
FMAT,2
INCH,TZ
T1C0.0315
T2C0.0394
T3C0.0433
%
G90
G05
M72
T1
X4.05Y-3.25
X3.75Y-3.05
X3.75Y-3.35
X3.9Y-2.8
X3.9Y-2.9
X3.9Y-3.
X3.9Y-3.1
X4.2Y-2.8
X4.2Y-2.9
X4.2Y-3.
X4.2Y-3.1
X3.75Y-2.55
X3.75Y-2.85
X4.05Y-2.55
X4.05Y-2.6484
X4.05Y-3.3484
T2
X3.55Y-2.9
X3.55Y-3.
X4.65Y-2.75
X4.65Y-2.85
X4.65Y-2.95
X4.65Y-3.05
T3
X4.4Y-3.1
X4.4Y-3.2
X4.4Y-3.3
X4.4Y-2.6
X4.4Y-2.7
X4.4Y-2.8
T0
M30
