M48
;DRILL file {KiCad 5.0.0-fee4fd1~66~ubuntu18.04.1} date Sat Sep 29 14:48:10 2018
;FORMAT={-:-/ absolute / metric / decimal}
FMAT,2
METRIC,TZ
T1C0.800
T2C1.000
%
G90
G05
M71
T1
X6.985Y9.525
X14.605Y4.445
X14.605Y1.945
X10.795Y15.875
X10.795Y13.335
X10.795Y10.795
X10.795Y8.255
X18.415Y15.875
X18.415Y13.335
X18.415Y10.795
X18.415Y8.255
X14.605Y22.225
X14.605Y19.725
X6.985Y1.905
X6.985Y22.225
X6.985Y14.605
T2
X1.905Y13.335
X1.905Y10.795
X29.845Y17.145
X29.845Y14.605
X29.845Y12.065
X29.845Y9.525
X23.495Y8.255
X23.495Y5.715
X23.495Y3.175
X23.495Y20.955
X23.495Y18.415
X23.495Y15.875
T0
M30
