G04 #@! TF.GenerationSoftware,KiCad,Pcbnew,5.0.0-fee4fd1~66~ubuntu18.04.1*
G04 #@! TF.CreationDate,2018-09-29T14:40:01+02:00*
G04 #@! TF.ProjectId,pwrsupply,707772737570706C792E6B696361645F,rev?*
G04 #@! TF.SameCoordinates,PX542d128PY52f7038*
G04 #@! TF.FileFunction,Legend,Top*
G04 #@! TF.FilePolarity,Positive*
%FSLAX46Y46*%
G04 Gerber Fmt 4.6, Leading zero omitted, Abs format (unit mm)*
G04 Created by KiCad (PCBNEW 5.0.0-fee4fd1~66~ubuntu18.04.1) date Sat Sep 29 14:40:01 2018*
%MOMM*%
%LPD*%
G01*
G04 APERTURE LIST*
%ADD10C,0.120000*%
%ADD11C,0.150000*%
G04 APERTURE END LIST*
D10*
G04 #@! TO.C,C1*
X17225000Y20975000D02*
G75*
G03X17225000Y20975000I-2620000J0D01*
G01*
X17185000Y20975000D02*
X12025000Y20975000D01*
X17185000Y20935000D02*
X12025000Y20935000D01*
X17184000Y20895000D02*
X12026000Y20895000D01*
X17183000Y20855000D02*
X12027000Y20855000D01*
X17181000Y20815000D02*
X12029000Y20815000D01*
X17178000Y20775000D02*
X12032000Y20775000D01*
X17174000Y20735000D02*
X15645000Y20735000D01*
X13565000Y20735000D02*
X12036000Y20735000D01*
X17170000Y20695000D02*
X15645000Y20695000D01*
X13565000Y20695000D02*
X12040000Y20695000D01*
X17166000Y20655000D02*
X15645000Y20655000D01*
X13565000Y20655000D02*
X12044000Y20655000D01*
X17161000Y20615000D02*
X15645000Y20615000D01*
X13565000Y20615000D02*
X12049000Y20615000D01*
X17155000Y20575000D02*
X15645000Y20575000D01*
X13565000Y20575000D02*
X12055000Y20575000D01*
X17148000Y20535000D02*
X15645000Y20535000D01*
X13565000Y20535000D02*
X12062000Y20535000D01*
X17141000Y20495000D02*
X15645000Y20495000D01*
X13565000Y20495000D02*
X12069000Y20495000D01*
X17133000Y20455000D02*
X15645000Y20455000D01*
X13565000Y20455000D02*
X12077000Y20455000D01*
X17125000Y20415000D02*
X15645000Y20415000D01*
X13565000Y20415000D02*
X12085000Y20415000D01*
X17116000Y20375000D02*
X15645000Y20375000D01*
X13565000Y20375000D02*
X12094000Y20375000D01*
X17106000Y20335000D02*
X15645000Y20335000D01*
X13565000Y20335000D02*
X12104000Y20335000D01*
X17096000Y20295000D02*
X15645000Y20295000D01*
X13565000Y20295000D02*
X12114000Y20295000D01*
X17085000Y20254000D02*
X15645000Y20254000D01*
X13565000Y20254000D02*
X12125000Y20254000D01*
X17073000Y20214000D02*
X15645000Y20214000D01*
X13565000Y20214000D02*
X12137000Y20214000D01*
X17060000Y20174000D02*
X15645000Y20174000D01*
X13565000Y20174000D02*
X12150000Y20174000D01*
X17047000Y20134000D02*
X15645000Y20134000D01*
X13565000Y20134000D02*
X12163000Y20134000D01*
X17033000Y20094000D02*
X15645000Y20094000D01*
X13565000Y20094000D02*
X12177000Y20094000D01*
X17019000Y20054000D02*
X15645000Y20054000D01*
X13565000Y20054000D02*
X12191000Y20054000D01*
X17003000Y20014000D02*
X15645000Y20014000D01*
X13565000Y20014000D02*
X12207000Y20014000D01*
X16987000Y19974000D02*
X15645000Y19974000D01*
X13565000Y19974000D02*
X12223000Y19974000D01*
X16970000Y19934000D02*
X15645000Y19934000D01*
X13565000Y19934000D02*
X12240000Y19934000D01*
X16953000Y19894000D02*
X15645000Y19894000D01*
X13565000Y19894000D02*
X12257000Y19894000D01*
X16934000Y19854000D02*
X15645000Y19854000D01*
X13565000Y19854000D02*
X12276000Y19854000D01*
X16915000Y19814000D02*
X15645000Y19814000D01*
X13565000Y19814000D02*
X12295000Y19814000D01*
X16895000Y19774000D02*
X15645000Y19774000D01*
X13565000Y19774000D02*
X12315000Y19774000D01*
X16873000Y19734000D02*
X15645000Y19734000D01*
X13565000Y19734000D02*
X12337000Y19734000D01*
X16852000Y19694000D02*
X15645000Y19694000D01*
X13565000Y19694000D02*
X12358000Y19694000D01*
X16829000Y19654000D02*
X15645000Y19654000D01*
X13565000Y19654000D02*
X12381000Y19654000D01*
X16805000Y19614000D02*
X15645000Y19614000D01*
X13565000Y19614000D02*
X12405000Y19614000D01*
X16780000Y19574000D02*
X15645000Y19574000D01*
X13565000Y19574000D02*
X12430000Y19574000D01*
X16754000Y19534000D02*
X15645000Y19534000D01*
X13565000Y19534000D02*
X12456000Y19534000D01*
X16727000Y19494000D02*
X15645000Y19494000D01*
X13565000Y19494000D02*
X12483000Y19494000D01*
X16700000Y19454000D02*
X15645000Y19454000D01*
X13565000Y19454000D02*
X12510000Y19454000D01*
X16670000Y19414000D02*
X15645000Y19414000D01*
X13565000Y19414000D02*
X12540000Y19414000D01*
X16640000Y19374000D02*
X15645000Y19374000D01*
X13565000Y19374000D02*
X12570000Y19374000D01*
X16609000Y19334000D02*
X15645000Y19334000D01*
X13565000Y19334000D02*
X12601000Y19334000D01*
X16576000Y19294000D02*
X15645000Y19294000D01*
X13565000Y19294000D02*
X12634000Y19294000D01*
X16542000Y19254000D02*
X15645000Y19254000D01*
X13565000Y19254000D02*
X12668000Y19254000D01*
X16506000Y19214000D02*
X15645000Y19214000D01*
X13565000Y19214000D02*
X12704000Y19214000D01*
X16469000Y19174000D02*
X15645000Y19174000D01*
X13565000Y19174000D02*
X12741000Y19174000D01*
X16431000Y19134000D02*
X15645000Y19134000D01*
X13565000Y19134000D02*
X12779000Y19134000D01*
X16390000Y19094000D02*
X15645000Y19094000D01*
X13565000Y19094000D02*
X12820000Y19094000D01*
X16348000Y19054000D02*
X15645000Y19054000D01*
X13565000Y19054000D02*
X12862000Y19054000D01*
X16304000Y19014000D02*
X15645000Y19014000D01*
X13565000Y19014000D02*
X12906000Y19014000D01*
X16258000Y18974000D02*
X15645000Y18974000D01*
X13565000Y18974000D02*
X12952000Y18974000D01*
X16210000Y18934000D02*
X15645000Y18934000D01*
X13565000Y18934000D02*
X13000000Y18934000D01*
X16159000Y18894000D02*
X15645000Y18894000D01*
X13565000Y18894000D02*
X13051000Y18894000D01*
X16105000Y18854000D02*
X15645000Y18854000D01*
X13565000Y18854000D02*
X13105000Y18854000D01*
X16048000Y18814000D02*
X15645000Y18814000D01*
X13565000Y18814000D02*
X13162000Y18814000D01*
X15988000Y18774000D02*
X15645000Y18774000D01*
X13565000Y18774000D02*
X13222000Y18774000D01*
X15924000Y18734000D02*
X15645000Y18734000D01*
X13565000Y18734000D02*
X13286000Y18734000D01*
X15856000Y18694000D02*
X15645000Y18694000D01*
X13565000Y18694000D02*
X13354000Y18694000D01*
X15783000Y18654000D02*
X13427000Y18654000D01*
X15703000Y18614000D02*
X13507000Y18614000D01*
X15616000Y18574000D02*
X13594000Y18574000D01*
X15520000Y18534000D02*
X13690000Y18534000D01*
X15410000Y18494000D02*
X13800000Y18494000D01*
X15282000Y18454000D02*
X13928000Y18454000D01*
X15123000Y18414000D02*
X14087000Y18414000D01*
X14889000Y18374000D02*
X14321000Y18374000D01*
X16080000Y23779775D02*
X16080000Y23279775D01*
X16330000Y23529775D02*
X15830000Y23529775D01*
G04 #@! TO.C,C2*
X16330000Y5749775D02*
X15830000Y5749775D01*
X16080000Y5999775D02*
X16080000Y5499775D01*
X14889000Y594000D02*
X14321000Y594000D01*
X15123000Y634000D02*
X14087000Y634000D01*
X15282000Y674000D02*
X13928000Y674000D01*
X15410000Y714000D02*
X13800000Y714000D01*
X15520000Y754000D02*
X13690000Y754000D01*
X15616000Y794000D02*
X13594000Y794000D01*
X15703000Y834000D02*
X13507000Y834000D01*
X15783000Y874000D02*
X13427000Y874000D01*
X13565000Y914000D02*
X13354000Y914000D01*
X15856000Y914000D02*
X15645000Y914000D01*
X13565000Y954000D02*
X13286000Y954000D01*
X15924000Y954000D02*
X15645000Y954000D01*
X13565000Y994000D02*
X13222000Y994000D01*
X15988000Y994000D02*
X15645000Y994000D01*
X13565000Y1034000D02*
X13162000Y1034000D01*
X16048000Y1034000D02*
X15645000Y1034000D01*
X13565000Y1074000D02*
X13105000Y1074000D01*
X16105000Y1074000D02*
X15645000Y1074000D01*
X13565000Y1114000D02*
X13051000Y1114000D01*
X16159000Y1114000D02*
X15645000Y1114000D01*
X13565000Y1154000D02*
X13000000Y1154000D01*
X16210000Y1154000D02*
X15645000Y1154000D01*
X13565000Y1194000D02*
X12952000Y1194000D01*
X16258000Y1194000D02*
X15645000Y1194000D01*
X13565000Y1234000D02*
X12906000Y1234000D01*
X16304000Y1234000D02*
X15645000Y1234000D01*
X13565000Y1274000D02*
X12862000Y1274000D01*
X16348000Y1274000D02*
X15645000Y1274000D01*
X13565000Y1314000D02*
X12820000Y1314000D01*
X16390000Y1314000D02*
X15645000Y1314000D01*
X13565000Y1354000D02*
X12779000Y1354000D01*
X16431000Y1354000D02*
X15645000Y1354000D01*
X13565000Y1394000D02*
X12741000Y1394000D01*
X16469000Y1394000D02*
X15645000Y1394000D01*
X13565000Y1434000D02*
X12704000Y1434000D01*
X16506000Y1434000D02*
X15645000Y1434000D01*
X13565000Y1474000D02*
X12668000Y1474000D01*
X16542000Y1474000D02*
X15645000Y1474000D01*
X13565000Y1514000D02*
X12634000Y1514000D01*
X16576000Y1514000D02*
X15645000Y1514000D01*
X13565000Y1554000D02*
X12601000Y1554000D01*
X16609000Y1554000D02*
X15645000Y1554000D01*
X13565000Y1594000D02*
X12570000Y1594000D01*
X16640000Y1594000D02*
X15645000Y1594000D01*
X13565000Y1634000D02*
X12540000Y1634000D01*
X16670000Y1634000D02*
X15645000Y1634000D01*
X13565000Y1674000D02*
X12510000Y1674000D01*
X16700000Y1674000D02*
X15645000Y1674000D01*
X13565000Y1714000D02*
X12483000Y1714000D01*
X16727000Y1714000D02*
X15645000Y1714000D01*
X13565000Y1754000D02*
X12456000Y1754000D01*
X16754000Y1754000D02*
X15645000Y1754000D01*
X13565000Y1794000D02*
X12430000Y1794000D01*
X16780000Y1794000D02*
X15645000Y1794000D01*
X13565000Y1834000D02*
X12405000Y1834000D01*
X16805000Y1834000D02*
X15645000Y1834000D01*
X13565000Y1874000D02*
X12381000Y1874000D01*
X16829000Y1874000D02*
X15645000Y1874000D01*
X13565000Y1914000D02*
X12358000Y1914000D01*
X16852000Y1914000D02*
X15645000Y1914000D01*
X13565000Y1954000D02*
X12337000Y1954000D01*
X16873000Y1954000D02*
X15645000Y1954000D01*
X13565000Y1994000D02*
X12315000Y1994000D01*
X16895000Y1994000D02*
X15645000Y1994000D01*
X13565000Y2034000D02*
X12295000Y2034000D01*
X16915000Y2034000D02*
X15645000Y2034000D01*
X13565000Y2074000D02*
X12276000Y2074000D01*
X16934000Y2074000D02*
X15645000Y2074000D01*
X13565000Y2114000D02*
X12257000Y2114000D01*
X16953000Y2114000D02*
X15645000Y2114000D01*
X13565000Y2154000D02*
X12240000Y2154000D01*
X16970000Y2154000D02*
X15645000Y2154000D01*
X13565000Y2194000D02*
X12223000Y2194000D01*
X16987000Y2194000D02*
X15645000Y2194000D01*
X13565000Y2234000D02*
X12207000Y2234000D01*
X17003000Y2234000D02*
X15645000Y2234000D01*
X13565000Y2274000D02*
X12191000Y2274000D01*
X17019000Y2274000D02*
X15645000Y2274000D01*
X13565000Y2314000D02*
X12177000Y2314000D01*
X17033000Y2314000D02*
X15645000Y2314000D01*
X13565000Y2354000D02*
X12163000Y2354000D01*
X17047000Y2354000D02*
X15645000Y2354000D01*
X13565000Y2394000D02*
X12150000Y2394000D01*
X17060000Y2394000D02*
X15645000Y2394000D01*
X13565000Y2434000D02*
X12137000Y2434000D01*
X17073000Y2434000D02*
X15645000Y2434000D01*
X13565000Y2474000D02*
X12125000Y2474000D01*
X17085000Y2474000D02*
X15645000Y2474000D01*
X13565000Y2515000D02*
X12114000Y2515000D01*
X17096000Y2515000D02*
X15645000Y2515000D01*
X13565000Y2555000D02*
X12104000Y2555000D01*
X17106000Y2555000D02*
X15645000Y2555000D01*
X13565000Y2595000D02*
X12094000Y2595000D01*
X17116000Y2595000D02*
X15645000Y2595000D01*
X13565000Y2635000D02*
X12085000Y2635000D01*
X17125000Y2635000D02*
X15645000Y2635000D01*
X13565000Y2675000D02*
X12077000Y2675000D01*
X17133000Y2675000D02*
X15645000Y2675000D01*
X13565000Y2715000D02*
X12069000Y2715000D01*
X17141000Y2715000D02*
X15645000Y2715000D01*
X13565000Y2755000D02*
X12062000Y2755000D01*
X17148000Y2755000D02*
X15645000Y2755000D01*
X13565000Y2795000D02*
X12055000Y2795000D01*
X17155000Y2795000D02*
X15645000Y2795000D01*
X13565000Y2835000D02*
X12049000Y2835000D01*
X17161000Y2835000D02*
X15645000Y2835000D01*
X13565000Y2875000D02*
X12044000Y2875000D01*
X17166000Y2875000D02*
X15645000Y2875000D01*
X13565000Y2915000D02*
X12040000Y2915000D01*
X17170000Y2915000D02*
X15645000Y2915000D01*
X13565000Y2955000D02*
X12036000Y2955000D01*
X17174000Y2955000D02*
X15645000Y2955000D01*
X17178000Y2995000D02*
X12032000Y2995000D01*
X17181000Y3035000D02*
X12029000Y3035000D01*
X17183000Y3075000D02*
X12027000Y3075000D01*
X17184000Y3115000D02*
X12026000Y3115000D01*
X17185000Y3155000D02*
X12025000Y3155000D01*
X17185000Y3195000D02*
X12025000Y3195000D01*
X17225000Y3195000D02*
G75*
G03X17225000Y3195000I-2620000J0D01*
G01*
G04 #@! TO.C,R1*
X8025000Y21685000D02*
X8355000Y21685000D01*
X8355000Y21685000D02*
X8355000Y15145000D01*
X8355000Y15145000D02*
X8025000Y15145000D01*
X5945000Y21685000D02*
X5615000Y21685000D01*
X5615000Y21685000D02*
X5615000Y15145000D01*
X5615000Y15145000D02*
X5945000Y15145000D01*
G04 #@! TO.C,R2*
X5615000Y2445000D02*
X5945000Y2445000D01*
X5615000Y8985000D02*
X5615000Y2445000D01*
X5945000Y8985000D02*
X5615000Y8985000D01*
X8355000Y2445000D02*
X8025000Y2445000D01*
X8355000Y8985000D02*
X8355000Y2445000D01*
X8025000Y8985000D02*
X8355000Y8985000D01*
G04 #@! TO.C,U1*
X15605000Y17205000D02*
G75*
G02X13605000Y17205000I-1000000J0D01*
G01*
X13605000Y17205000D02*
X11955000Y17205000D01*
X11955000Y17205000D02*
X11955000Y6925000D01*
X11955000Y6925000D02*
X17255000Y6925000D01*
X17255000Y6925000D02*
X17255000Y17205000D01*
X17255000Y17205000D02*
X15605000Y17205000D01*
G04 #@! TO.C,U2*
X26765000Y23535000D02*
X26765000Y13295000D01*
X22124000Y23535000D02*
X22124000Y13295000D01*
X26765000Y23535000D02*
X22124000Y23535000D01*
X26765000Y13295000D02*
X22124000Y13295000D01*
X25255000Y23535000D02*
X25255000Y13295000D01*
X26765000Y20265000D02*
X25255000Y20265000D01*
X26765000Y16564000D02*
X25255000Y16564000D01*
G04 #@! TO.C,U3*
X26765000Y3864000D02*
X25255000Y3864000D01*
X26765000Y7565000D02*
X25255000Y7565000D01*
X25255000Y10835000D02*
X25255000Y595000D01*
X26765000Y595000D02*
X22124000Y595000D01*
X26765000Y10835000D02*
X22124000Y10835000D01*
X22124000Y10835000D02*
X22124000Y595000D01*
X26765000Y10835000D02*
X26765000Y595000D01*
G04 #@! TO.C,J1*
X3235000Y14665000D02*
X575000Y14665000D01*
X3235000Y12065000D02*
X3235000Y14665000D01*
X575000Y12065000D02*
X575000Y14665000D01*
X3235000Y12065000D02*
X575000Y12065000D01*
X3235000Y10795000D02*
X3235000Y9465000D01*
X3235000Y9465000D02*
X1905000Y9465000D01*
G04 #@! TO.C,J2*
X28515000Y8195000D02*
X31175000Y8195000D01*
X28515000Y15875000D02*
X28515000Y8195000D01*
X31175000Y15875000D02*
X31175000Y8195000D01*
X28515000Y15875000D02*
X31175000Y15875000D01*
X28515000Y17145000D02*
X28515000Y18475000D01*
X28515000Y18475000D02*
X29845000Y18475000D01*
G04 #@! TO.C,C1*
D11*
X18712142Y20808334D02*
X18759761Y20760715D01*
X18807380Y20617858D01*
X18807380Y20522620D01*
X18759761Y20379762D01*
X18664523Y20284524D01*
X18569285Y20236905D01*
X18378809Y20189286D01*
X18235952Y20189286D01*
X18045476Y20236905D01*
X17950238Y20284524D01*
X17855000Y20379762D01*
X17807380Y20522620D01*
X17807380Y20617858D01*
X17855000Y20760715D01*
X17902619Y20808334D01*
X18807380Y21760715D02*
X18807380Y21189286D01*
X18807380Y21475000D02*
X17807380Y21475000D01*
X17950238Y21379762D01*
X18045476Y21284524D01*
X18093095Y21189286D01*
G04 #@! TO.C,C2*
X18712142Y3028334D02*
X18759761Y2980715D01*
X18807380Y2837858D01*
X18807380Y2742620D01*
X18759761Y2599762D01*
X18664523Y2504524D01*
X18569285Y2456905D01*
X18378809Y2409286D01*
X18235952Y2409286D01*
X18045476Y2456905D01*
X17950238Y2504524D01*
X17855000Y2599762D01*
X17807380Y2742620D01*
X17807380Y2837858D01*
X17855000Y2980715D01*
X17902619Y3028334D01*
X17902619Y3409286D02*
X17855000Y3456905D01*
X17807380Y3552143D01*
X17807380Y3790239D01*
X17855000Y3885477D01*
X17902619Y3933096D01*
X17997857Y3980715D01*
X18093095Y3980715D01*
X18235952Y3933096D01*
X18807380Y3361667D01*
X18807380Y3980715D01*
G04 #@! TO.C,R1*
X9807380Y18248334D02*
X9331190Y17915000D01*
X9807380Y17676905D02*
X8807380Y17676905D01*
X8807380Y18057858D01*
X8855000Y18153096D01*
X8902619Y18200715D01*
X8997857Y18248334D01*
X9140714Y18248334D01*
X9235952Y18200715D01*
X9283571Y18153096D01*
X9331190Y18057858D01*
X9331190Y17676905D01*
X9807380Y19200715D02*
X9807380Y18629286D01*
X9807380Y18915000D02*
X8807380Y18915000D01*
X8950238Y18819762D01*
X9045476Y18724524D01*
X9093095Y18629286D01*
G04 #@! TO.C,R2*
X9807380Y5548334D02*
X9331190Y5215000D01*
X9807380Y4976905D02*
X8807380Y4976905D01*
X8807380Y5357858D01*
X8855000Y5453096D01*
X8902619Y5500715D01*
X8997857Y5548334D01*
X9140714Y5548334D01*
X9235952Y5500715D01*
X9283571Y5453096D01*
X9331190Y5357858D01*
X9331190Y4976905D01*
X8902619Y5929286D02*
X8855000Y5976905D01*
X8807380Y6072143D01*
X8807380Y6310239D01*
X8855000Y6405477D01*
X8902619Y6453096D01*
X8997857Y6500715D01*
X9093095Y6500715D01*
X9235952Y6453096D01*
X9807380Y5881667D01*
X9807380Y6500715D01*
G04 #@! TO.C,U1*
X13843095Y18752620D02*
X13843095Y17943096D01*
X13890714Y17847858D01*
X13938333Y17800239D01*
X14033571Y17752620D01*
X14224047Y17752620D01*
X14319285Y17800239D01*
X14366904Y17847858D01*
X14414523Y17943096D01*
X14414523Y18752620D01*
X15414523Y17752620D02*
X14843095Y17752620D01*
X15128809Y17752620D02*
X15128809Y18752620D01*
X15033571Y18609762D01*
X14938333Y18514524D01*
X14843095Y18466905D01*
G04 #@! TO.C,U2*
X27217380Y17653096D02*
X28026904Y17653096D01*
X28122142Y17700715D01*
X28169761Y17748334D01*
X28217380Y17843572D01*
X28217380Y18034048D01*
X28169761Y18129286D01*
X28122142Y18176905D01*
X28026904Y18224524D01*
X27217380Y18224524D01*
X27312619Y18653096D02*
X27265000Y18700715D01*
X27217380Y18795953D01*
X27217380Y19034048D01*
X27265000Y19129286D01*
X27312619Y19176905D01*
X27407857Y19224524D01*
X27503095Y19224524D01*
X27645952Y19176905D01*
X28217380Y18605477D01*
X28217380Y19224524D01*
G04 #@! TO.C,U3*
X27217380Y4953096D02*
X28026904Y4953096D01*
X28122142Y5000715D01*
X28169761Y5048334D01*
X28217380Y5143572D01*
X28217380Y5334048D01*
X28169761Y5429286D01*
X28122142Y5476905D01*
X28026904Y5524524D01*
X27217380Y5524524D01*
X27217380Y5905477D02*
X27217380Y6524524D01*
X27598333Y6191191D01*
X27598333Y6334048D01*
X27645952Y6429286D01*
X27693571Y6476905D01*
X27788809Y6524524D01*
X28026904Y6524524D01*
X28122142Y6476905D01*
X28169761Y6429286D01*
X28217380Y6334048D01*
X28217380Y6048334D01*
X28169761Y5953096D01*
X28122142Y5905477D01*
G04 #@! TO.C,J1*
X1571666Y9012620D02*
X1571666Y8298334D01*
X1524047Y8155477D01*
X1428809Y8060239D01*
X1285952Y8012620D01*
X1190714Y8012620D01*
X2571666Y8012620D02*
X2000238Y8012620D01*
X2285952Y8012620D02*
X2285952Y9012620D01*
X2190714Y8869762D01*
X2095476Y8774524D01*
X2000238Y8726905D01*
G04 #@! TO.C,J2*
X29511666Y20022620D02*
X29511666Y19308334D01*
X29464047Y19165477D01*
X29368809Y19070239D01*
X29225952Y19022620D01*
X29130714Y19022620D01*
X29940238Y19927381D02*
X29987857Y19975000D01*
X30083095Y20022620D01*
X30321190Y20022620D01*
X30416428Y19975000D01*
X30464047Y19927381D01*
X30511666Y19832143D01*
X30511666Y19736905D01*
X30464047Y19594048D01*
X29892619Y19022620D01*
X30511666Y19022620D01*
G04 #@! TD*
M02*
