%TF.GenerationSoftware,KiCad,Pcbnew,(5.1.6)-1*%
%TF.CreationDate,2020-10-29T20:05:36+01:00*%
%TF.ProjectId,atmega8breakeout,61746d65-6761-4386-9272-65616b656f75,rev?*%
%TF.SameCoordinates,Original*%
%TF.FileFunction,Copper,L2,Bot*%
%TF.FilePolarity,Positive*%
%FSLAX46Y46*%
G04 Gerber Fmt 4.6, Leading zero omitted, Abs format (unit mm)*
G04 Created by KiCad (PCBNEW (5.1.6)-1) date 2020-10-29 20:05:36*
%MOMM*%
%LPD*%
G01*
G04 APERTURE LIST*
%TA.AperFunction,ComponentPad*%
%ADD10R,3.000000X3.000000*%
%TD*%
%TA.AperFunction,ComponentPad*%
%ADD11C,3.000000*%
%TD*%
%TA.AperFunction,ComponentPad*%
%ADD12C,1.500000*%
%TD*%
%TA.AperFunction,ComponentPad*%
%ADD13R,1.700000X1.700000*%
%TD*%
%TA.AperFunction,ComponentPad*%
%ADD14O,1.700000X1.700000*%
%TD*%
%TA.AperFunction,ComponentPad*%
%ADD15R,1.350000X1.350000*%
%TD*%
%TA.AperFunction,ComponentPad*%
%ADD16O,1.350000X1.350000*%
%TD*%
%TA.AperFunction,ViaPad*%
%ADD17C,0.800000*%
%TD*%
%TA.AperFunction,Conductor*%
%ADD18C,0.400000*%
%TD*%
G04 APERTURE END LIST*
D10*
%TO.P,J1,1*%
%TO.N,/5+*%
X159145000Y-47230000D03*
D11*
%TO.P,J1,2*%
%TO.N,GND*%
X154065000Y-47230000D03*
%TD*%
D12*
%TO.P,Y1,1*%
%TO.N,Net-(C1-Pad1)*%
X159040000Y-66850000D03*
%TO.P,Y1,2*%
%TO.N,Net-(C2-Pad1)*%
X154160000Y-66850000D03*
%TD*%
D13*
%TO.P,J2,1*%
%TO.N,Net-(J2-Pad1)*%
X143330000Y-54260000D03*
D14*
%TO.P,J2,2*%
%TO.N,Net-(J2-Pad2)*%
X143330000Y-56800000D03*
%TO.P,J2,3*%
%TO.N,Net-(J2-Pad3)*%
X143330000Y-59340000D03*
%TO.P,J2,4*%
%TO.N,Net-(J2-Pad4)*%
X143330000Y-61880000D03*
%TO.P,J2,5*%
%TO.N,Net-(J2-Pad5)*%
X143330000Y-64420000D03*
%TO.P,J2,6*%
%TO.N,Net-(J2-Pad6)*%
X143330000Y-66960000D03*
%TO.P,J2,7*%
%TO.N,/Mosi*%
X143330000Y-69500000D03*
%TO.P,J2,8*%
%TO.N,/Miso*%
X143330000Y-72040000D03*
%TO.P,J2,9*%
%TO.N,/Sck*%
X143330000Y-74580000D03*
%TO.P,J2,10*%
%TO.N,Net-(J2-Pad10)*%
X143330000Y-77120000D03*
%TO.P,J2,11*%
%TO.N,/ADC6*%
X143330000Y-79660000D03*
%TO.P,J2,12*%
%TO.N,/AREF*%
X143330000Y-82200000D03*
%TD*%
%TO.P,J3,12*%
%TO.N,N/C*%
X169800000Y-54350000D03*
%TO.P,J3,11*%
%TO.N,/PD3*%
X169800000Y-56890000D03*
%TO.P,J3,10*%
%TO.N,/PD1*%
X169800000Y-59430000D03*
%TO.P,J3,9*%
%TO.N,/PD0*%
X169800000Y-61970000D03*
%TO.P,J3,8*%
%TO.N,Net-(J3-Pad8)*%
X169800000Y-64510000D03*
%TO.P,J3,7*%
%TO.N,Net-(J3-Pad7)*%
X169800000Y-67050000D03*
%TO.P,J3,6*%
%TO.N,Net-(J3-Pad6)*%
X169800000Y-69590000D03*
%TO.P,J3,5*%
%TO.N,Net-(J3-Pad5)*%
X169800000Y-72130000D03*
%TO.P,J3,4*%
%TO.N,Net-(J3-Pad4)*%
X169800000Y-74670000D03*
%TO.P,J3,3*%
%TO.N,Net-(J3-Pad3)*%
X169800000Y-77210000D03*
%TO.P,J3,2*%
%TO.N,/ADC7*%
X169800000Y-79750000D03*
D13*
%TO.P,J3,1*%
%TO.N,/AGND21*%
X169800000Y-82290000D03*
%TD*%
D15*
%TO.P,J4,1*%
%TO.N,/Miso*%
X154605000Y-87930000D03*
D16*
%TO.P,J4,2*%
%TO.N,/5+*%
X154605000Y-85930000D03*
%TO.P,J4,3*%
%TO.N,/Sck*%
X156605000Y-87930000D03*
%TO.P,J4,4*%
%TO.N,/Mosi*%
X156605000Y-85930000D03*
%TO.P,J4,5*%
%TO.N,/Reset*%
X158605000Y-87930000D03*
%TO.P,J4,6*%
%TO.N,GND*%
X158605000Y-85930000D03*
%TD*%
D17*
%TO.N,GND*%
X157845900Y-71530600D03*
%TO.N,/5+*%
X154484500Y-80000700D03*
%TO.N,/Reset*%
X161128000Y-65398200D03*
X159521900Y-76544600D03*
%TD*%
D18*
%TO.N,GND*%
X158605000Y-85930000D02*
X158605000Y-84855000D01*
X157845900Y-71530600D02*
X157845900Y-84095900D01*
X157845900Y-84095900D02*
X158605000Y-84855000D01*
X154065000Y-47230000D02*
X157845900Y-51010900D01*
X157845900Y-51010900D02*
X157845900Y-71530600D01*
%TO.N,/5+*%
X154605000Y-85930000D02*
X154605000Y-84855000D01*
X154605000Y-84855000D02*
X154484500Y-84734500D01*
X154484500Y-84734500D02*
X154484500Y-80000700D01*
%TO.N,/Mosi*%
X156605000Y-84855000D02*
X156604900Y-84855000D01*
X156604900Y-84855000D02*
X156604900Y-81130800D01*
X156604900Y-81130800D02*
X144974100Y-69500000D01*
X144974100Y-69500000D02*
X144580000Y-69500000D01*
X143330000Y-69500000D02*
X144580000Y-69500000D01*
X156605000Y-85930000D02*
X156605000Y-84855000D01*
%TO.N,/Sck*%
X143330000Y-74580000D02*
X143330000Y-75830000D01*
X143330000Y-75830000D02*
X143720700Y-75830000D01*
X143720700Y-75830000D02*
X144580000Y-76689300D01*
X144580000Y-76689300D02*
X144580000Y-77300400D01*
X144580000Y-77300400D02*
X154234200Y-86954600D01*
X154234200Y-86954600D02*
X155629600Y-86954600D01*
X155629600Y-86954600D02*
X156605000Y-87930000D01*
%TO.N,/Reset*%
X161128000Y-65398200D02*
X161128000Y-74938500D01*
X161128000Y-74938500D02*
X159521900Y-76544600D01*
X158605000Y-87930000D02*
X159680000Y-87930000D01*
X159680000Y-87930000D02*
X159680000Y-76702700D01*
X159680000Y-76702700D02*
X159521900Y-76544600D01*
%TD*%
M02*
