%TF.GenerationSoftware,KiCad,Pcbnew,(5.1.6)-1*%
%TF.CreationDate,2020-10-29T20:04:16+01:00*%
%TF.ProjectId,atmega8breakeout,61746d65-6761-4386-9272-65616b656f75,rev?*%
%TF.SameCoordinates,Original*%
%TF.FileFunction,Paste,Top*%
%TF.FilePolarity,Positive*%
%FSLAX46Y46*%
G04 Gerber Fmt 4.6, Leading zero omitted, Abs format (unit mm)*
G04 Created by KiCad (PCBNEW (5.1.6)-1) date 2020-10-29 20:04:16*
%MOMM*%
%LPD*%
G01*
G04 APERTURE LIST*
%ADD10R,0.550000X1.600000*%
%ADD11R,1.600000X0.550000*%
%ADD12R,2.180000X1.600000*%
G04 APERTURE END LIST*
D10*
%TO.C,U1*%
X159405000Y-72870000D03*
X158605000Y-72870000D03*
X157805000Y-72870000D03*
X157005000Y-72870000D03*
X156205000Y-72870000D03*
X155405000Y-72870000D03*
X154605000Y-72870000D03*
X153805000Y-72870000D03*
D11*
X152355000Y-74320000D03*
X152355000Y-75120000D03*
X152355000Y-75920000D03*
X152355000Y-76720000D03*
X152355000Y-77520000D03*
X152355000Y-78320000D03*
X152355000Y-79120000D03*
X152355000Y-79920000D03*
D10*
X153805000Y-81370000D03*
X154605000Y-81370000D03*
X155405000Y-81370000D03*
X156205000Y-81370000D03*
X157005000Y-81370000D03*
X157805000Y-81370000D03*
X158605000Y-81370000D03*
X159405000Y-81370000D03*
D11*
X160855000Y-79920000D03*
X160855000Y-79120000D03*
X160855000Y-78320000D03*
X160855000Y-77520000D03*
X160855000Y-76720000D03*
X160855000Y-75920000D03*
X160855000Y-75120000D03*
X160855000Y-74320000D03*
%TD*%
D12*
%TO.C,SW1*%
X152000000Y-59710000D03*
X161180000Y-59710000D03*
%TD*%
%TO.C,C1*%
G36*
G01*
X154225000Y-55335000D02*
X153725000Y-55335000D01*
G75*
G02*
X153500000Y-55110000I0J225000D01*
G01*
X153500000Y-54660000D01*
G75*
G02*
X153725000Y-54435000I225000J0D01*
G01*
X154225000Y-54435000D01*
G75*
G02*
X154450000Y-54660000I0J-225000D01*
G01*
X154450000Y-55110000D01*
G75*
G02*
X154225000Y-55335000I-225000J0D01*
G01*
G37*
G36*
G01*
X154225000Y-53785000D02*
X153725000Y-53785000D01*
G75*
G02*
X153500000Y-53560000I0J225000D01*
G01*
X153500000Y-53110000D01*
G75*
G02*
X153725000Y-52885000I225000J0D01*
G01*
X154225000Y-52885000D01*
G75*
G02*
X154450000Y-53110000I0J-225000D01*
G01*
X154450000Y-53560000D01*
G75*
G02*
X154225000Y-53785000I-225000J0D01*
G01*
G37*
%TD*%
%TO.C,C2*%
G36*
G01*
X151635000Y-53815000D02*
X151135000Y-53815000D01*
G75*
G02*
X150910000Y-53590000I0J225000D01*
G01*
X150910000Y-53140000D01*
G75*
G02*
X151135000Y-52915000I225000J0D01*
G01*
X151635000Y-52915000D01*
G75*
G02*
X151860000Y-53140000I0J-225000D01*
G01*
X151860000Y-53590000D01*
G75*
G02*
X151635000Y-53815000I-225000J0D01*
G01*
G37*
G36*
G01*
X151635000Y-55365000D02*
X151135000Y-55365000D01*
G75*
G02*
X150910000Y-55140000I0J225000D01*
G01*
X150910000Y-54690000D01*
G75*
G02*
X151135000Y-54465000I225000J0D01*
G01*
X151635000Y-54465000D01*
G75*
G02*
X151860000Y-54690000I0J-225000D01*
G01*
X151860000Y-55140000D01*
G75*
G02*
X151635000Y-55365000I-225000J0D01*
G01*
G37*
%TD*%
%TO.C,D1*%
G36*
G01*
X159451250Y-55515000D02*
X158938750Y-55515000D01*
G75*
G02*
X158720000Y-55296250I0J218750D01*
G01*
X158720000Y-54858750D01*
G75*
G02*
X158938750Y-54640000I218750J0D01*
G01*
X159451250Y-54640000D01*
G75*
G02*
X159670000Y-54858750I0J-218750D01*
G01*
X159670000Y-55296250D01*
G75*
G02*
X159451250Y-55515000I-218750J0D01*
G01*
G37*
G36*
G01*
X159451250Y-53940000D02*
X158938750Y-53940000D01*
G75*
G02*
X158720000Y-53721250I0J218750D01*
G01*
X158720000Y-53283750D01*
G75*
G02*
X158938750Y-53065000I218750J0D01*
G01*
X159451250Y-53065000D01*
G75*
G02*
X159670000Y-53283750I0J-218750D01*
G01*
X159670000Y-53721250D01*
G75*
G02*
X159451250Y-53940000I-218750J0D01*
G01*
G37*
%TD*%
%TO.C,R1*%
G36*
G01*
X161550000Y-53015000D02*
X162100000Y-53015000D01*
G75*
G02*
X162300000Y-53215000I0J-200000D01*
G01*
X162300000Y-53615000D01*
G75*
G02*
X162100000Y-53815000I-200000J0D01*
G01*
X161550000Y-53815000D01*
G75*
G02*
X161350000Y-53615000I0J200000D01*
G01*
X161350000Y-53215000D01*
G75*
G02*
X161550000Y-53015000I200000J0D01*
G01*
G37*
G36*
G01*
X161550000Y-54665000D02*
X162100000Y-54665000D01*
G75*
G02*
X162300000Y-54865000I0J-200000D01*
G01*
X162300000Y-55265000D01*
G75*
G02*
X162100000Y-55465000I-200000J0D01*
G01*
X161550000Y-55465000D01*
G75*
G02*
X161350000Y-55265000I0J200000D01*
G01*
X161350000Y-54865000D01*
G75*
G02*
X161550000Y-54665000I200000J0D01*
G01*
G37*
%TD*%
%TO.C,R2*%
G36*
G01*
X156840000Y-53865000D02*
X156290000Y-53865000D01*
G75*
G02*
X156090000Y-53665000I0J200000D01*
G01*
X156090000Y-53265000D01*
G75*
G02*
X156290000Y-53065000I200000J0D01*
G01*
X156840000Y-53065000D01*
G75*
G02*
X157040000Y-53265000I0J-200000D01*
G01*
X157040000Y-53665000D01*
G75*
G02*
X156840000Y-53865000I-200000J0D01*
G01*
G37*
G36*
G01*
X156840000Y-55515000D02*
X156290000Y-55515000D01*
G75*
G02*
X156090000Y-55315000I0J200000D01*
G01*
X156090000Y-54915000D01*
G75*
G02*
X156290000Y-54715000I200000J0D01*
G01*
X156840000Y-54715000D01*
G75*
G02*
X157040000Y-54915000I0J-200000D01*
G01*
X157040000Y-55315000D01*
G75*
G02*
X156840000Y-55515000I-200000J0D01*
G01*
G37*
%TD*%
M02*
