M48
; DRILL file {KiCad (5.1.6)-1} date 10/29/20 20:10:12
; FORMAT={-:-/ absolute / metric / decimal}
; #@! TF.CreationDate,2020-10-29T20:10:12+01:00
; #@! TF.GenerationSoftware,Kicad,Pcbnew,(5.1.6)-1
; #@! TF.FileFunction,Plated,1,2,PTH
FMAT,2
METRIC
T1C0.400
T2C0.800
T3C1.000
T4C1.520
%
G90
G05
T1
X154.484Y-80.001
X157.846Y-71.531
X159.522Y-76.545
X161.128Y-65.398
T2
X154.605Y-85.93
X154.605Y-87.93
X156.605Y-85.93
X156.605Y-87.93
X158.605Y-85.93
X158.605Y-87.93
X154.16Y-66.85
X159.04Y-66.85
T3
X169.8Y-54.35
X169.8Y-56.89
X169.8Y-59.43
X169.8Y-61.97
X169.8Y-64.51
X169.8Y-67.05
X169.8Y-69.59
X169.8Y-72.13
X169.8Y-74.67
X169.8Y-77.21
X169.8Y-79.75
X169.8Y-82.29
X143.33Y-54.26
X143.33Y-56.8
X143.33Y-59.34
X143.33Y-61.88
X143.33Y-64.42
X143.33Y-66.96
X143.33Y-69.5
X143.33Y-72.04
X143.33Y-74.58
X143.33Y-77.12
X143.33Y-79.66
X143.33Y-82.2
T4
X154.065Y-47.23
X159.145Y-47.23
T0
M30
