%TF.GenerationSoftware,KiCad,Pcbnew,(5.1.6)-1*%
%TF.CreationDate,2020-10-29T20:05:36+01:00*%
%TF.ProjectId,atmega8breakeout,61746d65-6761-4386-9272-65616b656f75,rev?*%
%TF.SameCoordinates,Original*%
%TF.FileFunction,Copper,L1,Top*%
%TF.FilePolarity,Positive*%
%FSLAX46Y46*%
G04 Gerber Fmt 4.6, Leading zero omitted, Abs format (unit mm)*
G04 Created by KiCad (PCBNEW (5.1.6)-1) date 2020-10-29 20:05:36*
%MOMM*%
%LPD*%
G01*
G04 APERTURE LIST*
%TA.AperFunction,SMDPad,CuDef*%
%ADD10R,0.550000X1.600000*%
%TD*%
%TA.AperFunction,SMDPad,CuDef*%
%ADD11R,1.600000X0.550000*%
%TD*%
%TA.AperFunction,ComponentPad*%
%ADD12R,3.000000X3.000000*%
%TD*%
%TA.AperFunction,ComponentPad*%
%ADD13C,3.000000*%
%TD*%
%TA.AperFunction,SMDPad,CuDef*%
%ADD14R,2.180000X1.600000*%
%TD*%
%TA.AperFunction,ComponentPad*%
%ADD15C,1.500000*%
%TD*%
%TA.AperFunction,ComponentPad*%
%ADD16R,1.700000X1.700000*%
%TD*%
%TA.AperFunction,ComponentPad*%
%ADD17O,1.700000X1.700000*%
%TD*%
%TA.AperFunction,ComponentPad*%
%ADD18R,1.350000X1.350000*%
%TD*%
%TA.AperFunction,ComponentPad*%
%ADD19O,1.350000X1.350000*%
%TD*%
%TA.AperFunction,ViaPad*%
%ADD20C,0.800000*%
%TD*%
%TA.AperFunction,Conductor*%
%ADD21C,0.400000*%
%TD*%
G04 APERTURE END LIST*
D10*
%TO.P,U1,1*%
%TO.N,N/C*%
X159405000Y-72870000D03*
%TO.P,U1,2*%
X158605000Y-72870000D03*
%TO.P,U1,3*%
%TO.N,GND*%
X157805000Y-72870000D03*
%TO.P,U1,4*%
%TO.N,/5+*%
X157005000Y-72870000D03*
%TO.P,U1,5*%
%TO.N,GND*%
X156205000Y-72870000D03*
%TO.P,U1,6*%
%TO.N,/5+*%
X155405000Y-72870000D03*
%TO.P,U1,7*%
%TO.N,Net-(C1-Pad1)*%
X154605000Y-72870000D03*
%TO.P,U1,8*%
%TO.N,Net-(C2-Pad1)*%
X153805000Y-72870000D03*
D11*
%TO.P,U1,9*%
%TO.N,Net-(J2-Pad1)*%
X152355000Y-74320000D03*
%TO.P,U1,10*%
%TO.N,Net-(J2-Pad2)*%
X152355000Y-75120000D03*
%TO.P,U1,11*%
%TO.N,Net-(J2-Pad3)*%
X152355000Y-75920000D03*
%TO.P,U1,12*%
%TO.N,Net-(J2-Pad4)*%
X152355000Y-76720000D03*
%TO.P,U1,13*%
%TO.N,Net-(J2-Pad5)*%
X152355000Y-77520000D03*
%TO.P,U1,14*%
%TO.N,Net-(J2-Pad6)*%
X152355000Y-78320000D03*
%TO.P,U1,15*%
%TO.N,/Mosi*%
X152355000Y-79120000D03*
%TO.P,U1,16*%
%TO.N,/Miso*%
X152355000Y-79920000D03*
D10*
%TO.P,U1,17*%
%TO.N,/Sck*%
X153805000Y-81370000D03*
%TO.P,U1,18*%
%TO.N,Net-(J2-Pad10)*%
X154605000Y-81370000D03*
%TO.P,U1,19*%
%TO.N,/ADC6*%
X155405000Y-81370000D03*
%TO.P,U1,20*%
%TO.N,/AREF*%
X156205000Y-81370000D03*
%TO.P,U1,21*%
%TO.N,/AGND21*%
X157005000Y-81370000D03*
%TO.P,U1,22*%
%TO.N,/ADC7*%
X157805000Y-81370000D03*
%TO.P,U1,23*%
%TO.N,Net-(J3-Pad3)*%
X158605000Y-81370000D03*
%TO.P,U1,24*%
%TO.N,Net-(J3-Pad4)*%
X159405000Y-81370000D03*
D11*
%TO.P,U1,25*%
%TO.N,Net-(J3-Pad5)*%
X160855000Y-79920000D03*
%TO.P,U1,26*%
%TO.N,Net-(J3-Pad6)*%
X160855000Y-79120000D03*
%TO.P,U1,27*%
%TO.N,Net-(J3-Pad7)*%
X160855000Y-78320000D03*
%TO.P,U1,28*%
%TO.N,Net-(J3-Pad8)*%
X160855000Y-77520000D03*
%TO.P,U1,29*%
%TO.N,/Reset*%
X160855000Y-76720000D03*
%TO.P,U1,30*%
%TO.N,/PD0*%
X160855000Y-75920000D03*
%TO.P,U1,31*%
%TO.N,/PD1*%
X160855000Y-75120000D03*
%TO.P,U1,32*%
%TO.N,/PD3*%
X160855000Y-74320000D03*
%TD*%
D12*
%TO.P,J1,1*%
%TO.N,/5+*%
X159145000Y-47230000D03*
D13*
%TO.P,J1,2*%
%TO.N,GND*%
X154065000Y-47230000D03*
%TD*%
D14*
%TO.P,SW1,1*%
%TO.N,GND*%
X152000000Y-59710000D03*
%TO.P,SW1,2*%
%TO.N,/Reset*%
X161180000Y-59710000D03*
%TD*%
%TO.P,C1,1*%
%TO.N,Net-(C1-Pad1)*%
%TA.AperFunction,SMDPad,CuDef*%
G36*
G01*
X154225000Y-55335000D02*
X153725000Y-55335000D01*
G75*
G02*
X153500000Y-55110000I0J225000D01*
G01*
X153500000Y-54660000D01*
G75*
G02*
X153725000Y-54435000I225000J0D01*
G01*
X154225000Y-54435000D01*
G75*
G02*
X154450000Y-54660000I0J-225000D01*
G01*
X154450000Y-55110000D01*
G75*
G02*
X154225000Y-55335000I-225000J0D01*
G01*
G37*
%TD.AperFunction*%
%TO.P,C1,2*%
%TO.N,GND*%
%TA.AperFunction,SMDPad,CuDef*%
G36*
G01*
X154225000Y-53785000D02*
X153725000Y-53785000D01*
G75*
G02*
X153500000Y-53560000I0J225000D01*
G01*
X153500000Y-53110000D01*
G75*
G02*
X153725000Y-52885000I225000J0D01*
G01*
X154225000Y-52885000D01*
G75*
G02*
X154450000Y-53110000I0J-225000D01*
G01*
X154450000Y-53560000D01*
G75*
G02*
X154225000Y-53785000I-225000J0D01*
G01*
G37*
%TD.AperFunction*%
%TD*%
%TO.P,C2,2*%
%TO.N,GND*%
%TA.AperFunction,SMDPad,CuDef*%
G36*
G01*
X151635000Y-53815000D02*
X151135000Y-53815000D01*
G75*
G02*
X150910000Y-53590000I0J225000D01*
G01*
X150910000Y-53140000D01*
G75*
G02*
X151135000Y-52915000I225000J0D01*
G01*
X151635000Y-52915000D01*
G75*
G02*
X151860000Y-53140000I0J-225000D01*
G01*
X151860000Y-53590000D01*
G75*
G02*
X151635000Y-53815000I-225000J0D01*
G01*
G37*
%TD.AperFunction*%
%TO.P,C2,1*%
%TO.N,Net-(C2-Pad1)*%
%TA.AperFunction,SMDPad,CuDef*%
G36*
G01*
X151635000Y-55365000D02*
X151135000Y-55365000D01*
G75*
G02*
X150910000Y-55140000I0J225000D01*
G01*
X150910000Y-54690000D01*
G75*
G02*
X151135000Y-54465000I225000J0D01*
G01*
X151635000Y-54465000D01*
G75*
G02*
X151860000Y-54690000I0J-225000D01*
G01*
X151860000Y-55140000D01*
G75*
G02*
X151635000Y-55365000I-225000J0D01*
G01*
G37*
%TD.AperFunction*%
%TD*%
%TO.P,D1,1*%
%TO.N,Net-(D1-Pad1)*%
%TA.AperFunction,SMDPad,CuDef*%
G36*
G01*
X159451250Y-55515000D02*
X158938750Y-55515000D01*
G75*
G02*
X158720000Y-55296250I0J218750D01*
G01*
X158720000Y-54858750D01*
G75*
G02*
X158938750Y-54640000I218750J0D01*
G01*
X159451250Y-54640000D01*
G75*
G02*
X159670000Y-54858750I0J-218750D01*
G01*
X159670000Y-55296250D01*
G75*
G02*
X159451250Y-55515000I-218750J0D01*
G01*
G37*
%TD.AperFunction*%
%TO.P,D1,2*%
%TO.N,/5+*%
%TA.AperFunction,SMDPad,CuDef*%
G36*
G01*
X159451250Y-53940000D02*
X158938750Y-53940000D01*
G75*
G02*
X158720000Y-53721250I0J218750D01*
G01*
X158720000Y-53283750D01*
G75*
G02*
X158938750Y-53065000I218750J0D01*
G01*
X159451250Y-53065000D01*
G75*
G02*
X159670000Y-53283750I0J-218750D01*
G01*
X159670000Y-53721250D01*
G75*
G02*
X159451250Y-53940000I-218750J0D01*
G01*
G37*
%TD.AperFunction*%
%TD*%
%TO.P,R1,1*%
%TO.N,/5+*%
%TA.AperFunction,SMDPad,CuDef*%
G36*
G01*
X161550000Y-53015000D02*
X162100000Y-53015000D01*
G75*
G02*
X162300000Y-53215000I0J-200000D01*
G01*
X162300000Y-53615000D01*
G75*
G02*
X162100000Y-53815000I-200000J0D01*
G01*
X161550000Y-53815000D01*
G75*
G02*
X161350000Y-53615000I0J200000D01*
G01*
X161350000Y-53215000D01*
G75*
G02*
X161550000Y-53015000I200000J0D01*
G01*
G37*
%TD.AperFunction*%
%TO.P,R1,2*%
%TO.N,/Reset*%
%TA.AperFunction,SMDPad,CuDef*%
G36*
G01*
X161550000Y-54665000D02*
X162100000Y-54665000D01*
G75*
G02*
X162300000Y-54865000I0J-200000D01*
G01*
X162300000Y-55265000D01*
G75*
G02*
X162100000Y-55465000I-200000J0D01*
G01*
X161550000Y-55465000D01*
G75*
G02*
X161350000Y-55265000I0J200000D01*
G01*
X161350000Y-54865000D01*
G75*
G02*
X161550000Y-54665000I200000J0D01*
G01*
G37*
%TD.AperFunction*%
%TD*%
%TO.P,R2,2*%
%TO.N,GND*%
%TA.AperFunction,SMDPad,CuDef*%
G36*
G01*
X156840000Y-53865000D02*
X156290000Y-53865000D01*
G75*
G02*
X156090000Y-53665000I0J200000D01*
G01*
X156090000Y-53265000D01*
G75*
G02*
X156290000Y-53065000I200000J0D01*
G01*
X156840000Y-53065000D01*
G75*
G02*
X157040000Y-53265000I0J-200000D01*
G01*
X157040000Y-53665000D01*
G75*
G02*
X156840000Y-53865000I-200000J0D01*
G01*
G37*
%TD.AperFunction*%
%TO.P,R2,1*%
%TO.N,Net-(D1-Pad1)*%
%TA.AperFunction,SMDPad,CuDef*%
G36*
G01*
X156840000Y-55515000D02*
X156290000Y-55515000D01*
G75*
G02*
X156090000Y-55315000I0J200000D01*
G01*
X156090000Y-54915000D01*
G75*
G02*
X156290000Y-54715000I200000J0D01*
G01*
X156840000Y-54715000D01*
G75*
G02*
X157040000Y-54915000I0J-200000D01*
G01*
X157040000Y-55315000D01*
G75*
G02*
X156840000Y-55515000I-200000J0D01*
G01*
G37*
%TD.AperFunction*%
%TD*%
D15*
%TO.P,Y1,1*%
%TO.N,Net-(C1-Pad1)*%
X159040000Y-66850000D03*
%TO.P,Y1,2*%
%TO.N,Net-(C2-Pad1)*%
X154160000Y-66850000D03*
%TD*%
D16*
%TO.P,J2,1*%
%TO.N,Net-(J2-Pad1)*%
X143330000Y-54260000D03*
D17*
%TO.P,J2,2*%
%TO.N,Net-(J2-Pad2)*%
X143330000Y-56800000D03*
%TO.P,J2,3*%
%TO.N,Net-(J2-Pad3)*%
X143330000Y-59340000D03*
%TO.P,J2,4*%
%TO.N,Net-(J2-Pad4)*%
X143330000Y-61880000D03*
%TO.P,J2,5*%
%TO.N,Net-(J2-Pad5)*%
X143330000Y-64420000D03*
%TO.P,J2,6*%
%TO.N,Net-(J2-Pad6)*%
X143330000Y-66960000D03*
%TO.P,J2,7*%
%TO.N,/Mosi*%
X143330000Y-69500000D03*
%TO.P,J2,8*%
%TO.N,/Miso*%
X143330000Y-72040000D03*
%TO.P,J2,9*%
%TO.N,/Sck*%
X143330000Y-74580000D03*
%TO.P,J2,10*%
%TO.N,Net-(J2-Pad10)*%
X143330000Y-77120000D03*
%TO.P,J2,11*%
%TO.N,/ADC6*%
X143330000Y-79660000D03*
%TO.P,J2,12*%
%TO.N,/AREF*%
X143330000Y-82200000D03*
%TD*%
%TO.P,J3,12*%
%TO.N,N/C*%
X169800000Y-54350000D03*
%TO.P,J3,11*%
%TO.N,/PD3*%
X169800000Y-56890000D03*
%TO.P,J3,10*%
%TO.N,/PD1*%
X169800000Y-59430000D03*
%TO.P,J3,9*%
%TO.N,/PD0*%
X169800000Y-61970000D03*
%TO.P,J3,8*%
%TO.N,Net-(J3-Pad8)*%
X169800000Y-64510000D03*
%TO.P,J3,7*%
%TO.N,Net-(J3-Pad7)*%
X169800000Y-67050000D03*
%TO.P,J3,6*%
%TO.N,Net-(J3-Pad6)*%
X169800000Y-69590000D03*
%TO.P,J3,5*%
%TO.N,Net-(J3-Pad5)*%
X169800000Y-72130000D03*
%TO.P,J3,4*%
%TO.N,Net-(J3-Pad4)*%
X169800000Y-74670000D03*
%TO.P,J3,3*%
%TO.N,Net-(J3-Pad3)*%
X169800000Y-77210000D03*
%TO.P,J3,2*%
%TO.N,/ADC7*%
X169800000Y-79750000D03*
D16*
%TO.P,J3,1*%
%TO.N,/AGND21*%
X169800000Y-82290000D03*
%TD*%
D18*
%TO.P,J4,1*%
%TO.N,/Miso*%
X154605000Y-87930000D03*
D19*
%TO.P,J4,2*%
%TO.N,/5+*%
X154605000Y-85930000D03*
%TO.P,J4,3*%
%TO.N,/Sck*%
X156605000Y-87930000D03*
%TO.P,J4,4*%
%TO.N,/Mosi*%
X156605000Y-85930000D03*
%TO.P,J4,5*%
%TO.N,/Reset*%
X158605000Y-87930000D03*
%TO.P,J4,6*%
%TO.N,GND*%
X158605000Y-85930000D03*
%TD*%
D20*
%TO.N,GND*%
X157845900Y-71530600D03*
%TO.N,/5+*%
X154484500Y-80000700D03*
%TO.N,/Reset*%
X161128000Y-65398200D03*
X159521900Y-76544600D03*
%TD*%
D21*
%TO.N,Net-(C1-Pad1)*%
X153975000Y-54885000D02*
X159040000Y-59950000D01*
X159040000Y-59950000D02*
X159040000Y-66850000D01*
X159040000Y-66850000D02*
X154605000Y-71285000D01*
X154605000Y-71285000D02*
X154605000Y-72870000D01*
%TO.N,GND*%
X157805000Y-72870000D02*
X157805000Y-74070000D01*
X156205000Y-72870000D02*
X156205000Y-74070000D01*
X156205000Y-74070000D02*
X157805000Y-74070000D01*
X157805000Y-71670000D02*
X157845900Y-71629100D01*
X157845900Y-71629100D02*
X157845900Y-71530600D01*
X157805000Y-72870000D02*
X157805000Y-71670000D01*
X154065000Y-53245000D02*
X153975000Y-53335000D01*
X154065000Y-47230000D02*
X154065000Y-53245000D01*
X156565000Y-53465000D02*
X154285000Y-53465000D01*
X154285000Y-53465000D02*
X154065000Y-53245000D01*
X152000000Y-59710000D02*
X152000000Y-58510000D01*
X151385000Y-53365000D02*
X150604800Y-54145200D01*
X150604800Y-54145200D02*
X150604800Y-57114800D01*
X150604800Y-57114800D02*
X152000000Y-58510000D01*
X153975000Y-53335000D02*
X153945000Y-53365000D01*
X153945000Y-53365000D02*
X151385000Y-53365000D01*
%TO.N,Net-(C2-Pad1)*%
X151385000Y-54915000D02*
X154160000Y-57690000D01*
X154160000Y-57690000D02*
X154160000Y-66850000D01*
X154160000Y-66850000D02*
X153805000Y-67205000D01*
X153805000Y-67205000D02*
X153805000Y-72870000D01*
%TO.N,Net-(J3-Pad3)*%
X158605000Y-81370000D02*
X158605000Y-82570000D01*
X169800000Y-77210000D02*
X168550000Y-77210000D01*
X168550000Y-77210000D02*
X163190000Y-82570000D01*
X163190000Y-82570000D02*
X158605000Y-82570000D01*
%TO.N,Net-(J3-Pad6)*%
X160855000Y-79120000D02*
X162055000Y-79120000D01*
X169800000Y-69590000D02*
X169800000Y-70840000D01*
X169800000Y-70840000D02*
X169096900Y-70840000D01*
X169096900Y-70840000D02*
X167820300Y-72116600D01*
X167820300Y-72116600D02*
X167820300Y-73354700D01*
X167820300Y-73354700D02*
X162055000Y-79120000D01*
%TO.N,Net-(J3-Pad7)*%
X160855000Y-78320000D02*
X162055000Y-78320000D01*
X169800000Y-67050000D02*
X169800000Y-68300000D01*
X169800000Y-68300000D02*
X169425800Y-68300000D01*
X169425800Y-68300000D02*
X166055900Y-71669900D01*
X166055900Y-71669900D02*
X166055900Y-74319100D01*
X166055900Y-74319100D02*
X162055000Y-78320000D01*
%TO.N,Net-(J3-Pad8)*%
X169800000Y-65760000D02*
X169409400Y-65760000D01*
X169409400Y-65760000D02*
X165305600Y-69863800D01*
X165305600Y-69863800D02*
X165305600Y-74269400D01*
X165305600Y-74269400D02*
X162055000Y-77520000D01*
X160855000Y-77520000D02*
X162055000Y-77520000D01*
X169800000Y-64510000D02*
X169800000Y-65760000D01*
%TO.N,Net-(D1-Pad1)*%
X156565000Y-55115000D02*
X159157500Y-55115000D01*
X159157500Y-55115000D02*
X159195000Y-55077500D01*
%TO.N,/5+*%
X154484500Y-80000700D02*
X155405000Y-79080200D01*
X155405000Y-79080200D02*
X155405000Y-72870000D01*
X160103200Y-54235700D02*
X159282500Y-53415000D01*
X161825000Y-53415000D02*
X161004300Y-54235700D01*
X161004300Y-54235700D02*
X160103200Y-54235700D01*
X160103200Y-54235700D02*
X160103200Y-56839500D01*
X160103200Y-56839500D02*
X159789600Y-57153100D01*
X159789600Y-57153100D02*
X159789600Y-65797800D01*
X159789600Y-65797800D02*
X160142700Y-66150900D01*
X160142700Y-66150900D02*
X160142700Y-67349000D01*
X160142700Y-67349000D02*
X157005000Y-70486700D01*
X157005000Y-70486700D02*
X157005000Y-71670000D01*
X157005000Y-72870000D02*
X157005000Y-71670000D01*
X155405000Y-72870000D02*
X155405000Y-71670000D01*
X155405000Y-71670000D02*
X157005000Y-71670000D01*
X159282500Y-53415000D02*
X159195000Y-53502500D01*
X159145000Y-49130000D02*
X159282500Y-49267500D01*
X159282500Y-49267500D02*
X159282500Y-53415000D01*
X159145000Y-47230000D02*
X159145000Y-49130000D01*
%TO.N,Net-(J2-Pad1)*%
X152355000Y-74320000D02*
X152355000Y-64193200D01*
X152355000Y-64193200D02*
X143671800Y-55510000D01*
X143671800Y-55510000D02*
X143330000Y-55510000D01*
X143330000Y-54260000D02*
X143330000Y-55510000D01*
%TO.N,Net-(J2-Pad2)*%
X152355000Y-75120000D02*
X151155000Y-75120000D01*
X143330000Y-56800000D02*
X143330000Y-58050000D01*
X143330000Y-58050000D02*
X143720600Y-58050000D01*
X143720600Y-58050000D02*
X151155000Y-65484400D01*
X151155000Y-65484400D02*
X151155000Y-75120000D01*
%TO.N,Net-(J2-Pad3)*%
X143330000Y-60590000D02*
X143718500Y-60590000D01*
X143718500Y-60590000D02*
X150654700Y-67526200D01*
X150654700Y-67526200D02*
X150654700Y-75419700D01*
X150654700Y-75419700D02*
X151155000Y-75920000D01*
X152355000Y-75920000D02*
X151155000Y-75920000D01*
X143330000Y-59340000D02*
X143330000Y-60590000D01*
%TO.N,Net-(J2-Pad4)*%
X143330000Y-63130000D02*
X143718500Y-63130000D01*
X143718500Y-63130000D02*
X149634300Y-69045800D01*
X149634300Y-69045800D02*
X149634300Y-75199300D01*
X149634300Y-75199300D02*
X151155000Y-76720000D01*
X152355000Y-76720000D02*
X151155000Y-76720000D01*
X143330000Y-61880000D02*
X143330000Y-63130000D01*
%TO.N,Net-(J2-Pad5)*%
X143330000Y-65670000D02*
X143718400Y-65670000D01*
X143718400Y-65670000D02*
X149134000Y-71085600D01*
X149134000Y-71085600D02*
X149134000Y-75499000D01*
X149134000Y-75499000D02*
X151155000Y-77520000D01*
X152355000Y-77520000D02*
X151155000Y-77520000D01*
X143330000Y-64420000D02*
X143330000Y-65670000D01*
%TO.N,Net-(J2-Pad6)*%
X143330000Y-68210000D02*
X143666900Y-68210000D01*
X143666900Y-68210000D02*
X148633700Y-73176800D01*
X148633700Y-73176800D02*
X148633700Y-75798700D01*
X148633700Y-75798700D02*
X151155000Y-78320000D01*
X152355000Y-78320000D02*
X151155000Y-78320000D01*
X143330000Y-66960000D02*
X143330000Y-68210000D01*
%TO.N,Net-(J2-Pad10)*%
X154605000Y-82570000D02*
X154697200Y-82570000D01*
X154697200Y-82570000D02*
X157605000Y-85477800D01*
X157605000Y-85477800D02*
X157605000Y-88317100D01*
X157605000Y-88317100D02*
X157000700Y-88921400D01*
X157000700Y-88921400D02*
X153790000Y-88921400D01*
X153790000Y-88921400D02*
X153629700Y-88761100D01*
X153629700Y-88761100D02*
X153629700Y-88322600D01*
X153629700Y-88322600D02*
X143677100Y-78370000D01*
X143677100Y-78370000D02*
X143330000Y-78370000D01*
X154605000Y-81370000D02*
X154605000Y-82570000D01*
X143330000Y-77120000D02*
X143330000Y-78370000D01*
%TO.N,/ADC6*%
X155405000Y-81370000D02*
X155405000Y-82570000D01*
X143330000Y-79660000D02*
X153093600Y-89423600D01*
X153093600Y-89423600D02*
X158521100Y-89423600D01*
X158521100Y-89423600D02*
X159595600Y-88349100D01*
X159595600Y-88349100D02*
X159595600Y-85535300D01*
X159595600Y-85535300D02*
X158950800Y-84890500D01*
X158950800Y-84890500D02*
X157725500Y-84890500D01*
X157725500Y-84890500D02*
X155405000Y-82570000D01*
%TO.N,/AREF*%
X144580000Y-82200000D02*
X152304000Y-89924000D01*
X152304000Y-89924000D02*
X158728400Y-89924000D01*
X158728400Y-89924000D02*
X160096000Y-88556400D01*
X160096000Y-88556400D02*
X160096000Y-85328000D01*
X160096000Y-85328000D02*
X159093800Y-84325800D01*
X159093800Y-84325800D02*
X157960800Y-84325800D01*
X157960800Y-84325800D02*
X156205000Y-82570000D01*
X156205000Y-81370000D02*
X156205000Y-82570000D01*
X143330000Y-82200000D02*
X144580000Y-82200000D01*
%TO.N,/PD3*%
X169800000Y-56890000D02*
X169800000Y-58140000D01*
X169800000Y-58140000D02*
X169409400Y-58140000D01*
X169409400Y-58140000D02*
X160855000Y-66694400D01*
X160855000Y-66694400D02*
X160855000Y-74320000D01*
%TO.N,/PD1*%
X160855000Y-75120000D02*
X162055000Y-75120000D01*
X169800000Y-59430000D02*
X169800000Y-60680000D01*
X169800000Y-60680000D02*
X169409400Y-60680000D01*
X169409400Y-60680000D02*
X162055000Y-68034400D01*
X162055000Y-68034400D02*
X162055000Y-75120000D01*
%TO.N,/PD0*%
X162055000Y-75920000D02*
X164569000Y-73406000D01*
X164569000Y-73406000D02*
X164569000Y-68060400D01*
X164569000Y-68060400D02*
X169409400Y-63220000D01*
X169409400Y-63220000D02*
X169800000Y-63220000D01*
X160855000Y-75920000D02*
X162055000Y-75920000D01*
X169800000Y-61970000D02*
X169800000Y-63220000D01*
%TO.N,Net-(J3-Pad5)*%
X162055000Y-79920000D02*
X168550000Y-73425000D01*
X168550000Y-73425000D02*
X168550000Y-72130000D01*
X160855000Y-79920000D02*
X162055000Y-79920000D01*
X169800000Y-72130000D02*
X168550000Y-72130000D01*
%TO.N,Net-(J3-Pad4)*%
X169800000Y-74670000D02*
X168550000Y-74670000D01*
X168550000Y-74670000D02*
X161850000Y-81370000D01*
X161850000Y-81370000D02*
X159405000Y-81370000D01*
%TO.N,/ADC7*%
X157805000Y-82570000D02*
X158305300Y-83070300D01*
X158305300Y-83070300D02*
X165229700Y-83070300D01*
X165229700Y-83070300D02*
X168550000Y-79750000D01*
X157805000Y-81370000D02*
X157805000Y-82570000D01*
X169800000Y-79750000D02*
X168550000Y-79750000D01*
%TO.N,/AGND21*%
X157005000Y-82570000D02*
X158005600Y-83570600D01*
X158005600Y-83570600D02*
X167269400Y-83570600D01*
X167269400Y-83570600D02*
X168550000Y-82290000D01*
X157005000Y-81370000D02*
X157005000Y-82570000D01*
X169800000Y-82290000D02*
X168550000Y-82290000D01*
%TO.N,/Mosi*%
X143330000Y-70750000D02*
X144030900Y-70750000D01*
X144030900Y-70750000D02*
X148133400Y-74852500D01*
X148133400Y-74852500D02*
X148133400Y-76098400D01*
X148133400Y-76098400D02*
X151155000Y-79120000D01*
X143330000Y-69500000D02*
X143330000Y-70750000D01*
X152355000Y-79120000D02*
X151155000Y-79120000D01*
%TO.N,/Miso*%
X152355000Y-79920000D02*
X151155000Y-79920000D01*
X143330000Y-72040000D02*
X144580000Y-72040000D01*
X144580000Y-72040000D02*
X144580000Y-73345000D01*
X144580000Y-73345000D02*
X151155000Y-79920000D01*
X154605000Y-87930000D02*
X152355000Y-85680000D01*
X152355000Y-85680000D02*
X152355000Y-79920000D01*
%TO.N,/Sck*%
X156605000Y-87930000D02*
X155605000Y-86930000D01*
X155605000Y-86930000D02*
X155605000Y-85300200D01*
X155605000Y-85300200D02*
X153805000Y-83500200D01*
X153805000Y-83500200D02*
X153805000Y-81370000D01*
%TO.N,/Reset*%
X161180000Y-60910000D02*
X161128000Y-60962000D01*
X161128000Y-60962000D02*
X161128000Y-65398200D01*
X161180000Y-59710000D02*
X161180000Y-60910000D01*
X161180000Y-59110000D02*
X161180000Y-59710000D01*
X159521900Y-76544600D02*
X159655000Y-76677700D01*
X159655000Y-76677700D02*
X159655000Y-76720000D01*
X160855000Y-76720000D02*
X159655000Y-76720000D01*
X161180000Y-59110000D02*
X161180000Y-58510000D01*
X161180000Y-58510000D02*
X161825000Y-57865000D01*
X161825000Y-57865000D02*
X161825000Y-55065000D01*
%TD*%
M02*
