%TF.GenerationSoftware,KiCad,Pcbnew,(5.1.6)-1*%
%TF.CreationDate,2020-10-29T20:04:16+01:00*%
%TF.ProjectId,atmega8breakeout,61746d65-6761-4386-9272-65616b656f75,rev?*%
%TF.SameCoordinates,Original*%
%TF.FileFunction,Legend,Top*%
%TF.FilePolarity,Positive*%
%FSLAX46Y46*%
G04 Gerber Fmt 4.6, Leading zero omitted, Abs format (unit mm)*
G04 Created by KiCad (PCBNEW (5.1.6)-1) date 2020-10-29 20:04:16*
%MOMM*%
%LPD*%
G01*
G04 APERTURE LIST*
%ADD10C,0.150000*%
%ADD11C,0.120000*%
G04 APERTURE END LIST*
D10*
%TO.C,U1*%
X160230000Y-73495000D02*
X160005000Y-73495000D01*
X160230000Y-80745000D02*
X159905000Y-80745000D01*
X152980000Y-80745000D02*
X153305000Y-80745000D01*
X152980000Y-73495000D02*
X153305000Y-73495000D01*
X160230000Y-73495000D02*
X160230000Y-73820000D01*
X152980000Y-73495000D02*
X152980000Y-73820000D01*
X152980000Y-80745000D02*
X152980000Y-80420000D01*
X160230000Y-80745000D02*
X160230000Y-80420000D01*
X160005000Y-73495000D02*
X160005000Y-72070000D01*
D11*
%TO.C,J1*%
X151525000Y-44690000D02*
X161685000Y-44690000D01*
X151525000Y-43420000D02*
X151525000Y-51040000D01*
X151525000Y-51040000D02*
X161685000Y-51040000D01*
X161685000Y-51040000D02*
X161685000Y-43420000D01*
X161685000Y-43420000D02*
X151525000Y-43420000D01*
%TO.C,SW1*%
X153530000Y-61520000D02*
X153530000Y-57900000D01*
X159650000Y-61520000D02*
X153530000Y-61520000D01*
X159650000Y-57900000D02*
X159650000Y-61520000D01*
X153530000Y-57900000D02*
X159650000Y-57900000D01*
%TO.C,C1*%
X153465000Y-54250580D02*
X153465000Y-53969420D01*
X154485000Y-54250580D02*
X154485000Y-53969420D01*
%TO.C,C2*%
X151895000Y-54280580D02*
X151895000Y-53999420D01*
X150875000Y-54280580D02*
X150875000Y-53999420D01*
%TO.C,D1*%
X158460000Y-53490000D02*
X158460000Y-55775000D01*
X158460000Y-55775000D02*
X159930000Y-55775000D01*
X159930000Y-55775000D02*
X159930000Y-53490000D01*
%TO.C,R1*%
X162347500Y-54002742D02*
X162347500Y-54477258D01*
X161302500Y-54002742D02*
X161302500Y-54477258D01*
%TO.C,R2*%
X156042500Y-54527258D02*
X156042500Y-54052742D01*
X157087500Y-54527258D02*
X157087500Y-54052742D01*
%TO.C,Y1*%
X159725000Y-64325000D02*
X153475000Y-64325000D01*
X159725000Y-69375000D02*
X153475000Y-69375000D01*
X159725000Y-64325000D02*
G75*
G02*
X159725000Y-69375000I0J-2525000D01*
G01*
X153475000Y-64325000D02*
G75*
G03*
X153475000Y-69375000I0J-2525000D01*
G01*
%TO.C,J4*%
X153545000Y-88990000D02*
X153545000Y-87930000D01*
X154605000Y-88990000D02*
X153545000Y-88990000D01*
X153545000Y-86930000D02*
X153545000Y-84870000D01*
X155605000Y-86930000D02*
X153545000Y-86930000D01*
X155605000Y-88990000D02*
X155605000Y-86930000D01*
X153545000Y-84870000D02*
X159665000Y-84870000D01*
X155605000Y-88990000D02*
X159665000Y-88990000D01*
X159665000Y-88990000D02*
X159665000Y-84870000D01*
%TO.C,U1*%
D10*
X162107380Y-77881904D02*
X162916904Y-77881904D01*
X163012142Y-77834285D01*
X163059761Y-77786666D01*
X163107380Y-77691428D01*
X163107380Y-77500952D01*
X163059761Y-77405714D01*
X163012142Y-77358095D01*
X162916904Y-77310476D01*
X162107380Y-77310476D01*
X163107380Y-76310476D02*
X163107380Y-76881904D01*
X163107380Y-76596190D02*
X162107380Y-76596190D01*
X162250238Y-76691428D01*
X162345476Y-76786666D01*
X162393095Y-76881904D01*
%TO.C,J1*%
X156271666Y-51762380D02*
X156271666Y-52476666D01*
X156224047Y-52619523D01*
X156128809Y-52714761D01*
X155985952Y-52762380D01*
X155890714Y-52762380D01*
X157271666Y-52762380D02*
X156700238Y-52762380D01*
X156985952Y-52762380D02*
X156985952Y-51762380D01*
X156890714Y-51905238D01*
X156795476Y-52000476D01*
X156700238Y-52048095D01*
%TO.C,SW1*%
X155256666Y-57514761D02*
X155399523Y-57562380D01*
X155637619Y-57562380D01*
X155732857Y-57514761D01*
X155780476Y-57467142D01*
X155828095Y-57371904D01*
X155828095Y-57276666D01*
X155780476Y-57181428D01*
X155732857Y-57133809D01*
X155637619Y-57086190D01*
X155447142Y-57038571D01*
X155351904Y-56990952D01*
X155304285Y-56943333D01*
X155256666Y-56848095D01*
X155256666Y-56752857D01*
X155304285Y-56657619D01*
X155351904Y-56610000D01*
X155447142Y-56562380D01*
X155685238Y-56562380D01*
X155828095Y-56610000D01*
X156161428Y-56562380D02*
X156399523Y-57562380D01*
X156590000Y-56848095D01*
X156780476Y-57562380D01*
X157018571Y-56562380D01*
X157923333Y-57562380D02*
X157351904Y-57562380D01*
X157637619Y-57562380D02*
X157637619Y-56562380D01*
X157542380Y-56705238D01*
X157447142Y-56800476D01*
X157351904Y-56848095D01*
%TO.C,C1*%
X152902142Y-54276666D02*
X152949761Y-54324285D01*
X152997380Y-54467142D01*
X152997380Y-54562380D01*
X152949761Y-54705238D01*
X152854523Y-54800476D01*
X152759285Y-54848095D01*
X152568809Y-54895714D01*
X152425952Y-54895714D01*
X152235476Y-54848095D01*
X152140238Y-54800476D01*
X152045000Y-54705238D01*
X151997380Y-54562380D01*
X151997380Y-54467142D01*
X152045000Y-54324285D01*
X152092619Y-54276666D01*
X152997380Y-53324285D02*
X152997380Y-53895714D01*
X152997380Y-53610000D02*
X151997380Y-53610000D01*
X152140238Y-53705238D01*
X152235476Y-53800476D01*
X152283095Y-53895714D01*
%TO.C,C2*%
X150312142Y-54306666D02*
X150359761Y-54354285D01*
X150407380Y-54497142D01*
X150407380Y-54592380D01*
X150359761Y-54735238D01*
X150264523Y-54830476D01*
X150169285Y-54878095D01*
X149978809Y-54925714D01*
X149835952Y-54925714D01*
X149645476Y-54878095D01*
X149550238Y-54830476D01*
X149455000Y-54735238D01*
X149407380Y-54592380D01*
X149407380Y-54497142D01*
X149455000Y-54354285D01*
X149502619Y-54306666D01*
X149502619Y-53925714D02*
X149455000Y-53878095D01*
X149407380Y-53782857D01*
X149407380Y-53544761D01*
X149455000Y-53449523D01*
X149502619Y-53401904D01*
X149597857Y-53354285D01*
X149693095Y-53354285D01*
X149835952Y-53401904D01*
X150407380Y-53973333D01*
X150407380Y-53354285D01*
%TO.C,D1*%
X158217380Y-55028095D02*
X157217380Y-55028095D01*
X157217380Y-54790000D01*
X157265000Y-54647142D01*
X157360238Y-54551904D01*
X157455476Y-54504285D01*
X157645952Y-54456666D01*
X157788809Y-54456666D01*
X157979285Y-54504285D01*
X158074523Y-54551904D01*
X158169761Y-54647142D01*
X158217380Y-54790000D01*
X158217380Y-55028095D01*
X158217380Y-53504285D02*
X158217380Y-54075714D01*
X158217380Y-53790000D02*
X157217380Y-53790000D01*
X157360238Y-53885238D01*
X157455476Y-53980476D01*
X157503095Y-54075714D01*
%TO.C,R1*%
X163707380Y-54406666D02*
X163231190Y-54740000D01*
X163707380Y-54978095D02*
X162707380Y-54978095D01*
X162707380Y-54597142D01*
X162755000Y-54501904D01*
X162802619Y-54454285D01*
X162897857Y-54406666D01*
X163040714Y-54406666D01*
X163135952Y-54454285D01*
X163183571Y-54501904D01*
X163231190Y-54597142D01*
X163231190Y-54978095D01*
X163707380Y-53454285D02*
X163707380Y-54025714D01*
X163707380Y-53740000D02*
X162707380Y-53740000D01*
X162850238Y-53835238D01*
X162945476Y-53930476D01*
X162993095Y-54025714D01*
%TO.C,R2*%
X155587380Y-54456666D02*
X155111190Y-54790000D01*
X155587380Y-55028095D02*
X154587380Y-55028095D01*
X154587380Y-54647142D01*
X154635000Y-54551904D01*
X154682619Y-54504285D01*
X154777857Y-54456666D01*
X154920714Y-54456666D01*
X155015952Y-54504285D01*
X155063571Y-54551904D01*
X155111190Y-54647142D01*
X155111190Y-55028095D01*
X154682619Y-54075714D02*
X154635000Y-54028095D01*
X154587380Y-53932857D01*
X154587380Y-53694761D01*
X154635000Y-53599523D01*
X154682619Y-53551904D01*
X154777857Y-53504285D01*
X154873095Y-53504285D01*
X155015952Y-53551904D01*
X155587380Y-54123333D01*
X155587380Y-53504285D01*
%TO.C,Y1*%
X156123809Y-70351190D02*
X156123809Y-70827380D01*
X155790476Y-69827380D02*
X156123809Y-70351190D01*
X156457142Y-69827380D01*
X157314285Y-70827380D02*
X156742857Y-70827380D01*
X157028571Y-70827380D02*
X157028571Y-69827380D01*
X156933333Y-69970238D01*
X156838095Y-70065476D01*
X156742857Y-70113095D01*
%TO.C,J4*%
X151997380Y-87263333D02*
X152711666Y-87263333D01*
X152854523Y-87310952D01*
X152949761Y-87406190D01*
X152997380Y-87549047D01*
X152997380Y-87644285D01*
X152330714Y-86358571D02*
X152997380Y-86358571D01*
X151949761Y-86596666D02*
X152664047Y-86834761D01*
X152664047Y-86215714D01*
%TD*%
M02*
