M48
;DRILL file {KiCad 4.0.2+dfsg1-stable} date tis 26 jun 2018 22:09:39
;FORMAT={-:-/ absolute / metric / decimal}
FMAT,2
METRIC,TZ
T1C0.800
T4C1.000
%
G90
G05
M71
T1
X6.604Y11.049
X6.604Y7.874
X6.604Y4.699
X11.684Y11.049
X11.684Y7.874
X11.684Y4.699
X15.494Y5.969
X20.574Y5.969
X8.509Y15.494
X10.509Y15.494
X14.224Y16.764
X14.224Y14.224
X14.224Y11.684
X14.224Y9.144
X19.304Y2.794
X21.844Y16.764
X21.844Y14.224
X21.844Y11.684
X21.844Y9.144
X16.804Y2.794
T4
X2.794Y15.494
X2.794Y12.954
X2.794Y10.414
X2.794Y7.874
X2.794Y5.334
X25.654Y12.954
X25.654Y7.239
T0
M30
