G04 #@! TF.FileFunction,Copper,L2,Bot,Signal*
%FSLAX45Y45*%
G04 Gerber Fmt 4.5, Leading zero omitted, Abs format (unit mm)*
G04 Created by KiCad (PCBNEW 4.0.2+dfsg1-stable) date tis 26 jun 2018 22:09:35*
%MOMM*%
G01*
G04 APERTURE LIST*
%ADD10C,0.100000*%
%ADD11R,1.700000X1.700000*%
%ADD12R,1.600000X1.600000*%
%ADD13O,1.600000X1.600000*%
%ADD14C,1.600000*%
%ADD15C,1.400000*%
%ADD16O,1.400000X1.400000*%
%ADD17R,1.300000X1.300000*%
%ADD18C,1.300000*%
%ADD19C,0.550000*%
G04 APERTURE END LIST*
D10*
D11*
X279400Y1041400D03*
D12*
X1422400Y1676400D03*
D13*
X2184400Y914400D03*
X1422400Y1422400D03*
X2184400Y1168400D03*
X1422400Y1168400D03*
X2184400Y1422400D03*
X1422400Y914400D03*
X2184400Y1676400D03*
D12*
X850900Y1549400D03*
D14*
X1050900Y1549400D03*
D11*
X279400Y533400D03*
X279400Y1549400D03*
X279400Y787400D03*
X2565400Y723900D03*
X279400Y1295400D03*
X2565400Y1295400D03*
D15*
X1168400Y787400D03*
D16*
X660400Y787400D03*
D15*
X1168400Y1104900D03*
D16*
X660400Y1104900D03*
D15*
X1168400Y469900D03*
D16*
X660400Y469900D03*
D15*
X2057400Y596900D03*
D16*
X1549400Y596900D03*
D17*
X1930400Y279400D03*
D18*
X1680400Y279400D03*
D19*
X279400Y1295400D02*
X596900Y1295400D01*
X596900Y1295400D02*
X850900Y1549400D01*
X660400Y1104900D02*
X787400Y1104900D01*
X1050900Y1368400D02*
X1050900Y1549400D01*
X787400Y1104900D02*
X1050900Y1368400D01*
X660400Y469900D02*
X342900Y469900D01*
X342900Y469900D02*
X279400Y533400D01*
X2565400Y723900D02*
X2501900Y723900D01*
X2501900Y723900D02*
X2120900Y342900D01*
X2120900Y342900D02*
X2120900Y88900D01*
X2120900Y88900D02*
X1485900Y88900D01*
X1485900Y88900D02*
X1358900Y215900D01*
X1358900Y215900D02*
X914400Y215900D01*
X914400Y215900D02*
X660400Y469900D01*
X2184400Y1422400D02*
X2159000Y1422400D01*
X2159000Y1422400D02*
X1701800Y1879600D01*
X1701800Y1879600D02*
X609600Y1879600D01*
X609600Y1879600D02*
X279400Y1549400D01*
X279400Y1574800D02*
X279400Y1549400D01*
X279400Y787400D02*
X381000Y787400D01*
X1219200Y635000D02*
X1422400Y838200D01*
X533400Y635000D02*
X1219200Y635000D01*
X381000Y787400D02*
X533400Y635000D01*
X1422400Y838200D02*
X1422400Y914400D01*
X660400Y787400D02*
X406400Y1041400D01*
X406400Y1041400D02*
X279400Y1041400D01*
X1168400Y1104900D02*
X1231900Y1168400D01*
X1231900Y1168400D02*
X1422400Y1168400D01*
X1168400Y1104900D02*
X1168400Y787400D01*
X2184400Y1168400D02*
X2311400Y1168400D01*
X2438400Y1295400D02*
X2565400Y1295400D01*
X2311400Y1168400D02*
X2438400Y1295400D01*
X2057400Y596900D02*
X1930400Y596900D01*
X1930400Y279400D02*
X1930400Y596900D01*
X1930400Y596900D02*
X1930400Y1104900D01*
X1993900Y1168400D02*
X2184400Y1168400D01*
X1930400Y1104900D02*
X1993900Y1168400D01*
X2057400Y1168400D02*
X2184400Y1168400D01*
X1168400Y469900D02*
X1295400Y469900D01*
X1422400Y596900D02*
X1549400Y596900D01*
X1295400Y469900D02*
X1422400Y596900D01*
X1549400Y596900D02*
X1680400Y596900D01*
X1680400Y596900D02*
X1676400Y596900D01*
X1676400Y596900D02*
X1680400Y596900D01*
X1680400Y279400D02*
X1680400Y596900D01*
X1680400Y596900D02*
X1680400Y1354900D01*
X1612900Y1422400D02*
X1422400Y1422400D01*
X1680400Y1354900D02*
X1612900Y1422400D01*
M02*
