M48
; DRILL file {KiCad 6.0.0-d3dd2cf0fa~116~ubuntu20.04.1} date Thu 06 Jan 2022 08:49:09 PM CET
; FORMAT={-:-/ absolute / metric / decimal}
; #@! TF.CreationDate,2022-01-06T20:49:09+01:00
; #@! TF.GenerationSoftware,Kicad,Pcbnew,6.0.0-d3dd2cf0fa~116~ubuntu20.04.1
; #@! TF.FileFunction,MixedPlating,1,2
FMAT,2
METRIC
; #@! TA.AperFunction,Plated,PTH,ViaDrill
T1C0.400
; #@! TA.AperFunction,Plated,PTH,ComponentDrill
T2C0.500
; #@! TA.AperFunction,Plated,PTH,ComponentDrill
T3C0.762
; #@! TA.AperFunction,Plated,PTH,ComponentDrill
T4C0.800
; #@! TA.AperFunction,Plated,PTH,ComponentDrill
T5C0.900
; #@! TA.AperFunction,Plated,PTH,ComponentDrill
T6C1.000
; #@! TA.AperFunction,Plated,PTH,ComponentDrill
T7C1.300
%
G90
G05
T1
X151.401Y-105.856
X152.243Y-103.947
X154.056Y-104.554
X154.096Y-108.623
X154.708Y-103.701
X154.929Y-110.019
X157.171Y-111.222
X157.517Y-108.023
X158.332Y-106.424
X158.484Y-110.182
X159.561Y-104.194
X162.01Y-100.519
X195.265Y-112.34
T2
X167.945Y-103.965
X167.945Y-105.665
T3
X112.31Y-104.01
X112.33Y-106.15
X113.56Y-107.96
X113.58Y-102.26
X115.64Y-101.6
X115.64Y-108.6
X117.7Y-107.93
X118.97Y-104.02
X118.97Y-106.18
X135.59Y-104.01
X135.61Y-106.15
X136.84Y-107.96
X136.86Y-102.26
X138.92Y-101.6
X138.92Y-108.6
X140.98Y-107.93
X142.25Y-104.02
X142.25Y-106.18
X178.77Y-104.045
X178.79Y-106.185
X180.02Y-107.995
X180.04Y-102.295
X182.1Y-101.635
X182.1Y-108.635
X184.16Y-107.965
X185.43Y-104.055
X185.43Y-106.215
X202.07Y-104.045
X202.09Y-106.185
X203.32Y-107.995
X203.34Y-102.295
X205.4Y-101.635
X205.4Y-108.635
X207.46Y-107.965
X208.73Y-104.055
X208.73Y-106.215
T4
X103.175Y-119.905
X103.175Y-127.525
X105.715Y-119.905
X105.715Y-127.525
X108.255Y-119.905
X108.255Y-127.525
X110.795Y-119.905
X110.795Y-127.525
X113.335Y-119.905
X113.335Y-127.525
X115.875Y-119.905
X115.875Y-127.525
X118.415Y-119.905
X118.415Y-127.525
X120.955Y-119.905
X120.955Y-127.525
X123.495Y-119.905
X123.495Y-127.525
X126.035Y-119.905
X126.035Y-127.525
X133.175Y-119.905
X133.175Y-127.525
X135.715Y-119.905
X135.715Y-127.525
X138.255Y-119.905
X138.255Y-127.525
X140.795Y-119.905
X140.795Y-127.525
X143.335Y-119.905
X143.335Y-127.525
X145.875Y-119.905
X145.875Y-127.525
X148.415Y-119.905
X148.415Y-127.525
X149.18Y-84.29
X149.18Y-91.91
X150.955Y-119.905
X150.955Y-127.525
X152.705Y-84.29
X152.705Y-91.91
X153.495Y-119.905
X153.495Y-127.525
X156.035Y-119.905
X156.035Y-127.525
X156.3Y-84.29
X156.3Y-91.91
X163.175Y-119.905
X163.175Y-127.525
X165.715Y-119.905
X165.715Y-127.525
X166.695Y-101.425
X166.695Y-108.41
X168.255Y-119.905
X168.255Y-127.525
X169.195Y-101.425
X169.195Y-108.41
X170.795Y-119.905
X170.795Y-127.525
X173.335Y-119.905
X173.335Y-127.525
X175.875Y-119.905
X175.875Y-127.525
X178.415Y-119.905
X178.415Y-127.525
X180.955Y-119.905
X180.955Y-127.525
X183.495Y-119.905
X183.495Y-127.525
X186.035Y-119.905
X186.035Y-127.525
X193.175Y-119.905
X193.175Y-127.525
X195.715Y-119.905
X195.715Y-127.525
X198.255Y-119.905
X198.255Y-127.525
X200.795Y-119.905
X200.795Y-127.525
X203.335Y-119.905
X203.335Y-127.525
X205.875Y-119.905
X205.875Y-127.525
X208.415Y-119.905
X208.415Y-127.525
X210.955Y-119.905
X210.955Y-127.525
X213.495Y-119.905
X213.495Y-127.525
X216.035Y-119.905
X216.035Y-127.525
T5
X163.3Y-86.835
X163.3Y-89.375
X173.2Y-86.835
X173.2Y-89.375
T6
X102.9Y-104.025
X102.9Y-106.565
X102.9Y-109.105
X102.9Y-111.645
X128.755Y-86.312
X128.755Y-88.852
X131.295Y-86.312
X131.295Y-88.852
X133.835Y-86.312
X133.835Y-88.852
X216.8Y-84.615
X216.8Y-87.155
X216.8Y-89.695
X216.8Y-92.235
X216.8Y-94.775
T7
X112.665Y-87.795
X117.745Y-87.795
T0
M30
