G04 #@! TF.GenerationSoftware,KiCad,Pcbnew,6.0.0-d3dd2cf0fa~116~ubuntu20.04.1*
G04 #@! TF.CreationDate,2022-01-06T20:49:06+01:00*
G04 #@! TF.ProjectId,numitron clock,6e756d69-7472-46f6-9e20-636c6f636b2e,rev?*
G04 #@! TF.SameCoordinates,Original*
G04 #@! TF.FileFunction,Legend,Top*
G04 #@! TF.FilePolarity,Positive*
%FSLAX46Y46*%
G04 Gerber Fmt 4.6, Leading zero omitted, Abs format (unit mm)*
G04 Created by KiCad (PCBNEW 6.0.0-d3dd2cf0fa~116~ubuntu20.04.1) date 2022-01-06 20:49:06*
%MOMM*%
%LPD*%
G01*
G04 APERTURE LIST*
%ADD10C,0.150000*%
%ADD11C,0.120000*%
G04 APERTURE END LIST*
D10*
X212214285Y-92652380D02*
X212214285Y-91652380D01*
X212785714Y-92652380D01*
X212785714Y-91652380D01*
X213833333Y-92557142D02*
X213785714Y-92604761D01*
X213642857Y-92652380D01*
X213547619Y-92652380D01*
X213404761Y-92604761D01*
X213309523Y-92509523D01*
X213261904Y-92414285D01*
X213214285Y-92223809D01*
X213214285Y-92080952D01*
X213261904Y-91890476D01*
X213309523Y-91795238D01*
X213404761Y-91700000D01*
X213547619Y-91652380D01*
X213642857Y-91652380D01*
X213785714Y-91700000D01*
X213833333Y-91747619D01*
X211509523Y-90004761D02*
X211652380Y-90052380D01*
X211890476Y-90052380D01*
X211985714Y-90004761D01*
X212033333Y-89957142D01*
X212080952Y-89861904D01*
X212080952Y-89766666D01*
X212033333Y-89671428D01*
X211985714Y-89623809D01*
X211890476Y-89576190D01*
X211700000Y-89528571D01*
X211604761Y-89480952D01*
X211557142Y-89433333D01*
X211509523Y-89338095D01*
X211509523Y-89242857D01*
X211557142Y-89147619D01*
X211604761Y-89100000D01*
X211700000Y-89052380D01*
X211938095Y-89052380D01*
X212080952Y-89100000D01*
X213080952Y-89957142D02*
X213033333Y-90004761D01*
X212890476Y-90052380D01*
X212795238Y-90052380D01*
X212652380Y-90004761D01*
X212557142Y-89909523D01*
X212509523Y-89814285D01*
X212461904Y-89623809D01*
X212461904Y-89480952D01*
X212509523Y-89290476D01*
X212557142Y-89195238D01*
X212652380Y-89100000D01*
X212795238Y-89052380D01*
X212890476Y-89052380D01*
X213033333Y-89100000D01*
X213080952Y-89147619D01*
X213985714Y-90052380D02*
X213509523Y-90052380D01*
X213509523Y-89052380D01*
X211385714Y-87504761D02*
X211528571Y-87552380D01*
X211766666Y-87552380D01*
X211861904Y-87504761D01*
X211909523Y-87457142D01*
X211957142Y-87361904D01*
X211957142Y-87266666D01*
X211909523Y-87171428D01*
X211861904Y-87123809D01*
X211766666Y-87076190D01*
X211576190Y-87028571D01*
X211480952Y-86980952D01*
X211433333Y-86933333D01*
X211385714Y-86838095D01*
X211385714Y-86742857D01*
X211433333Y-86647619D01*
X211480952Y-86600000D01*
X211576190Y-86552380D01*
X211814285Y-86552380D01*
X211957142Y-86600000D01*
X212385714Y-87552380D02*
X212385714Y-86552380D01*
X212623809Y-86552380D01*
X212766666Y-86600000D01*
X212861904Y-86695238D01*
X212909523Y-86790476D01*
X212957142Y-86980952D01*
X212957142Y-87123809D01*
X212909523Y-87314285D01*
X212861904Y-87409523D01*
X212766666Y-87504761D01*
X212623809Y-87552380D01*
X212385714Y-87552380D01*
X213338095Y-87266666D02*
X213814285Y-87266666D01*
X213242857Y-87552380D02*
X213576190Y-86552380D01*
X213909523Y-87552380D01*
X211838095Y-94300000D02*
X211742857Y-94252380D01*
X211600000Y-94252380D01*
X211457142Y-94300000D01*
X211361904Y-94395238D01*
X211314285Y-94490476D01*
X211266666Y-94680952D01*
X211266666Y-94823809D01*
X211314285Y-95014285D01*
X211361904Y-95109523D01*
X211457142Y-95204761D01*
X211600000Y-95252380D01*
X211695238Y-95252380D01*
X211838095Y-95204761D01*
X211885714Y-95157142D01*
X211885714Y-94823809D01*
X211695238Y-94823809D01*
X212314285Y-95252380D02*
X212314285Y-94252380D01*
X212885714Y-95252380D01*
X212885714Y-94252380D01*
X213361904Y-95252380D02*
X213361904Y-94252380D01*
X213600000Y-94252380D01*
X213742857Y-94300000D01*
X213838095Y-94395238D01*
X213885714Y-94490476D01*
X213933333Y-94680952D01*
X213933333Y-94823809D01*
X213885714Y-95014285D01*
X213838095Y-95109523D01*
X213742857Y-95204761D01*
X213600000Y-95252380D01*
X213361904Y-95252380D01*
X211266666Y-84052380D02*
X211600000Y-85052380D01*
X211933333Y-84052380D01*
X212838095Y-84957142D02*
X212790476Y-85004761D01*
X212647619Y-85052380D01*
X212552380Y-85052380D01*
X212409523Y-85004761D01*
X212314285Y-84909523D01*
X212266666Y-84814285D01*
X212219047Y-84623809D01*
X212219047Y-84480952D01*
X212266666Y-84290476D01*
X212314285Y-84195238D01*
X212409523Y-84100000D01*
X212552380Y-84052380D01*
X212647619Y-84052380D01*
X212790476Y-84100000D01*
X212838095Y-84147619D01*
X213838095Y-84957142D02*
X213790476Y-85004761D01*
X213647619Y-85052380D01*
X213552380Y-85052380D01*
X213409523Y-85004761D01*
X213314285Y-84909523D01*
X213266666Y-84814285D01*
X213219047Y-84623809D01*
X213219047Y-84480952D01*
X213266666Y-84290476D01*
X213314285Y-84195238D01*
X213409523Y-84100000D01*
X213552380Y-84052380D01*
X213647619Y-84052380D01*
X213790476Y-84100000D01*
X213838095Y-84147619D01*
X172919047Y-91971428D02*
X173680952Y-91971428D01*
X163019047Y-91871428D02*
X163780952Y-91871428D01*
X172319047Y-83971428D02*
X173080952Y-83971428D01*
X172700000Y-84352380D02*
X172700000Y-83590476D01*
X162919047Y-83971428D02*
X163680952Y-83971428D01*
X163300000Y-84352380D02*
X163300000Y-83590476D01*
X110538095Y-80600000D02*
X110442857Y-80552380D01*
X110300000Y-80552380D01*
X110157142Y-80600000D01*
X110061904Y-80695238D01*
X110014285Y-80790476D01*
X109966666Y-80980952D01*
X109966666Y-81123809D01*
X110014285Y-81314285D01*
X110061904Y-81409523D01*
X110157142Y-81504761D01*
X110300000Y-81552380D01*
X110395238Y-81552380D01*
X110538095Y-81504761D01*
X110585714Y-81457142D01*
X110585714Y-81123809D01*
X110395238Y-81123809D01*
X111014285Y-81552380D02*
X111014285Y-80552380D01*
X111585714Y-81552380D01*
X111585714Y-80552380D01*
X112061904Y-81552380D02*
X112061904Y-80552380D01*
X112300000Y-80552380D01*
X112442857Y-80600000D01*
X112538095Y-80695238D01*
X112585714Y-80790476D01*
X112633333Y-80980952D01*
X112633333Y-81123809D01*
X112585714Y-81314285D01*
X112538095Y-81409523D01*
X112442857Y-81504761D01*
X112300000Y-81552380D01*
X112061904Y-81552380D01*
X118266666Y-80752380D02*
X118600000Y-81752380D01*
X118933333Y-80752380D01*
X119838095Y-81657142D02*
X119790476Y-81704761D01*
X119647619Y-81752380D01*
X119552380Y-81752380D01*
X119409523Y-81704761D01*
X119314285Y-81609523D01*
X119266666Y-81514285D01*
X119219047Y-81323809D01*
X119219047Y-81180952D01*
X119266666Y-80990476D01*
X119314285Y-80895238D01*
X119409523Y-80800000D01*
X119552380Y-80752380D01*
X119647619Y-80752380D01*
X119790476Y-80800000D01*
X119838095Y-80847619D01*
X120838095Y-81657142D02*
X120790476Y-81704761D01*
X120647619Y-81752380D01*
X120552380Y-81752380D01*
X120409523Y-81704761D01*
X120314285Y-81609523D01*
X120266666Y-81514285D01*
X120219047Y-81323809D01*
X120219047Y-81180952D01*
X120266666Y-80990476D01*
X120314285Y-80895238D01*
X120409523Y-80800000D01*
X120552380Y-80752380D01*
X120647619Y-80752380D01*
X120790476Y-80800000D01*
X120838095Y-80847619D01*
X105038095Y-106252380D02*
X105609523Y-106252380D01*
X105323809Y-107252380D02*
X105323809Y-106252380D01*
X105847619Y-106252380D02*
X106514285Y-107252380D01*
X106514285Y-106252380D02*
X105847619Y-107252380D01*
X106895238Y-107252380D02*
X106895238Y-106252380D01*
X107133333Y-106252380D01*
X107276190Y-106300000D01*
X107371428Y-106395238D01*
X107419047Y-106490476D01*
X107466666Y-106680952D01*
X107466666Y-106823809D01*
X107419047Y-107014285D01*
X107371428Y-107109523D01*
X107276190Y-107204761D01*
X107133333Y-107252380D01*
X106895238Y-107252380D01*
X105633333Y-109752380D02*
X105300000Y-109276190D01*
X105061904Y-109752380D02*
X105061904Y-108752380D01*
X105442857Y-108752380D01*
X105538095Y-108800000D01*
X105585714Y-108847619D01*
X105633333Y-108942857D01*
X105633333Y-109085714D01*
X105585714Y-109180952D01*
X105538095Y-109228571D01*
X105442857Y-109276190D01*
X105061904Y-109276190D01*
X105966666Y-108752380D02*
X106633333Y-109752380D01*
X106633333Y-108752380D02*
X105966666Y-109752380D01*
X107014285Y-109752380D02*
X107014285Y-108752380D01*
X107252380Y-108752380D01*
X107395238Y-108800000D01*
X107490476Y-108895238D01*
X107538095Y-108990476D01*
X107585714Y-109180952D01*
X107585714Y-109323809D01*
X107538095Y-109514285D01*
X107490476Y-109609523D01*
X107395238Y-109704761D01*
X107252380Y-109752380D01*
X107014285Y-109752380D01*
X105438095Y-103600000D02*
X105342857Y-103552380D01*
X105200000Y-103552380D01*
X105057142Y-103600000D01*
X104961904Y-103695238D01*
X104914285Y-103790476D01*
X104866666Y-103980952D01*
X104866666Y-104123809D01*
X104914285Y-104314285D01*
X104961904Y-104409523D01*
X105057142Y-104504761D01*
X105200000Y-104552380D01*
X105295238Y-104552380D01*
X105438095Y-104504761D01*
X105485714Y-104457142D01*
X105485714Y-104123809D01*
X105295238Y-104123809D01*
X105914285Y-104552380D02*
X105914285Y-103552380D01*
X106485714Y-104552380D01*
X106485714Y-103552380D01*
X106961904Y-104552380D02*
X106961904Y-103552380D01*
X107200000Y-103552380D01*
X107342857Y-103600000D01*
X107438095Y-103695238D01*
X107485714Y-103790476D01*
X107533333Y-103980952D01*
X107533333Y-104123809D01*
X107485714Y-104314285D01*
X107438095Y-104409523D01*
X107342857Y-104504761D01*
X107200000Y-104552380D01*
X106961904Y-104552380D01*
X104866666Y-111452380D02*
X105200000Y-112452380D01*
X105533333Y-111452380D01*
X106438095Y-112357142D02*
X106390476Y-112404761D01*
X106247619Y-112452380D01*
X106152380Y-112452380D01*
X106009523Y-112404761D01*
X105914285Y-112309523D01*
X105866666Y-112214285D01*
X105819047Y-112023809D01*
X105819047Y-111880952D01*
X105866666Y-111690476D01*
X105914285Y-111595238D01*
X106009523Y-111500000D01*
X106152380Y-111452380D01*
X106247619Y-111452380D01*
X106390476Y-111500000D01*
X106438095Y-111547619D01*
X107438095Y-112357142D02*
X107390476Y-112404761D01*
X107247619Y-112452380D01*
X107152380Y-112452380D01*
X107009523Y-112404761D01*
X106914285Y-112309523D01*
X106866666Y-112214285D01*
X106819047Y-112023809D01*
X106819047Y-111880952D01*
X106866666Y-111690476D01*
X106914285Y-111595238D01*
X107009523Y-111500000D01*
X107152380Y-111452380D01*
X107247619Y-111452380D01*
X107390476Y-111500000D01*
X107438095Y-111547619D01*
D11*
X100000000Y-130000000D02*
X100000000Y-80000000D01*
X100000000Y-80000000D02*
X220000000Y-80000000D01*
X220000000Y-80000000D02*
X220000000Y-130000000D01*
X220000000Y-130000000D02*
X100000000Y-130000000D01*
D10*
X115857142Y-72635714D02*
X115857142Y-73302380D01*
X115619047Y-72254761D02*
X115380952Y-72969047D01*
X116000000Y-72969047D01*
X116571428Y-72302380D02*
X116666666Y-72302380D01*
X116761904Y-72350000D01*
X116809523Y-72397619D01*
X116857142Y-72492857D01*
X116904761Y-72683333D01*
X116904761Y-72921428D01*
X116857142Y-73111904D01*
X116809523Y-73207142D01*
X116761904Y-73254761D01*
X116666666Y-73302380D01*
X116571428Y-73302380D01*
X116476190Y-73254761D01*
X116428571Y-73207142D01*
X116380952Y-73111904D01*
X116333333Y-72921428D01*
X116333333Y-72683333D01*
X116380952Y-72492857D01*
X116428571Y-72397619D01*
X116476190Y-72350000D01*
X116571428Y-72302380D01*
X117333333Y-73207142D02*
X117380952Y-73254761D01*
X117333333Y-73302380D01*
X117285714Y-73254761D01*
X117333333Y-73207142D01*
X117333333Y-73302380D01*
X118000000Y-72302380D02*
X118095238Y-72302380D01*
X118190476Y-72350000D01*
X118238095Y-72397619D01*
X118285714Y-72492857D01*
X118333333Y-72683333D01*
X118333333Y-72921428D01*
X118285714Y-73111904D01*
X118238095Y-73207142D01*
X118190476Y-73254761D01*
X118095238Y-73302380D01*
X118000000Y-73302380D01*
X117904761Y-73254761D01*
X117857142Y-73207142D01*
X117809523Y-73111904D01*
X117761904Y-72921428D01*
X117761904Y-72683333D01*
X117809523Y-72492857D01*
X117857142Y-72397619D01*
X117904761Y-72350000D01*
X118000000Y-72302380D01*
X118952380Y-72302380D02*
X119047619Y-72302380D01*
X119142857Y-72350000D01*
X119190476Y-72397619D01*
X119238095Y-72492857D01*
X119285714Y-72683333D01*
X119285714Y-72921428D01*
X119238095Y-73111904D01*
X119190476Y-73207142D01*
X119142857Y-73254761D01*
X119047619Y-73302380D01*
X118952380Y-73302380D01*
X118857142Y-73254761D01*
X118809523Y-73207142D01*
X118761904Y-73111904D01*
X118714285Y-72921428D01*
X118714285Y-72683333D01*
X118761904Y-72492857D01*
X118809523Y-72397619D01*
X118857142Y-72350000D01*
X118952380Y-72302380D01*
X119904761Y-72302380D02*
X120000000Y-72302380D01*
X120095238Y-72350000D01*
X120142857Y-72397619D01*
X120190476Y-72492857D01*
X120238095Y-72683333D01*
X120238095Y-72921428D01*
X120190476Y-73111904D01*
X120142857Y-73207142D01*
X120095238Y-73254761D01*
X120000000Y-73302380D01*
X119904761Y-73302380D01*
X119809523Y-73254761D01*
X119761904Y-73207142D01*
X119714285Y-73111904D01*
X119666666Y-72921428D01*
X119666666Y-72683333D01*
X119714285Y-72492857D01*
X119761904Y-72397619D01*
X119809523Y-72350000D01*
X119904761Y-72302380D01*
X120857142Y-72302380D02*
X120952380Y-72302380D01*
X121047619Y-72350000D01*
X121095238Y-72397619D01*
X121142857Y-72492857D01*
X121190476Y-72683333D01*
X121190476Y-72921428D01*
X121142857Y-73111904D01*
X121095238Y-73207142D01*
X121047619Y-73254761D01*
X120952380Y-73302380D01*
X120857142Y-73302380D01*
X120761904Y-73254761D01*
X120714285Y-73207142D01*
X120666666Y-73111904D01*
X120619047Y-72921428D01*
X120619047Y-72683333D01*
X120666666Y-72492857D01*
X120714285Y-72397619D01*
X120761904Y-72350000D01*
X120857142Y-72302380D01*
X122380952Y-73302380D02*
X122380952Y-72635714D01*
X122380952Y-72730952D02*
X122428571Y-72683333D01*
X122523809Y-72635714D01*
X122666666Y-72635714D01*
X122761904Y-72683333D01*
X122809523Y-72778571D01*
X122809523Y-73302380D01*
X122809523Y-72778571D02*
X122857142Y-72683333D01*
X122952380Y-72635714D01*
X123095238Y-72635714D01*
X123190476Y-72683333D01*
X123238095Y-72778571D01*
X123238095Y-73302380D01*
X123714285Y-73302380D02*
X123714285Y-72635714D01*
X123714285Y-72730952D02*
X123761904Y-72683333D01*
X123857142Y-72635714D01*
X124000000Y-72635714D01*
X124095238Y-72683333D01*
X124142857Y-72778571D01*
X124142857Y-73302380D01*
X124142857Y-72778571D02*
X124190476Y-72683333D01*
X124285714Y-72635714D01*
X124428571Y-72635714D01*
X124523809Y-72683333D01*
X124571428Y-72778571D01*
X124571428Y-73302380D01*
D11*
X140000000Y-77000000D02*
X140000000Y-73413580D01*
X100000000Y-77000000D02*
X100000000Y-73413580D01*
X140000000Y-74000000D02*
X125384524Y-74000000D01*
X114615476Y-74000000D02*
X100000000Y-74000000D01*
X140000000Y-74000000D02*
X138873496Y-73413579D01*
X140000000Y-74000000D02*
X138873496Y-74586421D01*
X100000000Y-74000000D02*
X101126504Y-74586421D01*
X100000000Y-74000000D02*
X101126504Y-73413579D01*
D10*
X195857142Y-72635714D02*
X195857142Y-73302380D01*
X195619047Y-72254761D02*
X195380952Y-72969047D01*
X196000000Y-72969047D01*
X196571428Y-72302380D02*
X196666666Y-72302380D01*
X196761904Y-72350000D01*
X196809523Y-72397619D01*
X196857142Y-72492857D01*
X196904761Y-72683333D01*
X196904761Y-72921428D01*
X196857142Y-73111904D01*
X196809523Y-73207142D01*
X196761904Y-73254761D01*
X196666666Y-73302380D01*
X196571428Y-73302380D01*
X196476190Y-73254761D01*
X196428571Y-73207142D01*
X196380952Y-73111904D01*
X196333333Y-72921428D01*
X196333333Y-72683333D01*
X196380952Y-72492857D01*
X196428571Y-72397619D01*
X196476190Y-72350000D01*
X196571428Y-72302380D01*
X197333333Y-73207142D02*
X197380952Y-73254761D01*
X197333333Y-73302380D01*
X197285714Y-73254761D01*
X197333333Y-73207142D01*
X197333333Y-73302380D01*
X198000000Y-72302380D02*
X198095238Y-72302380D01*
X198190476Y-72350000D01*
X198238095Y-72397619D01*
X198285714Y-72492857D01*
X198333333Y-72683333D01*
X198333333Y-72921428D01*
X198285714Y-73111904D01*
X198238095Y-73207142D01*
X198190476Y-73254761D01*
X198095238Y-73302380D01*
X198000000Y-73302380D01*
X197904761Y-73254761D01*
X197857142Y-73207142D01*
X197809523Y-73111904D01*
X197761904Y-72921428D01*
X197761904Y-72683333D01*
X197809523Y-72492857D01*
X197857142Y-72397619D01*
X197904761Y-72350000D01*
X198000000Y-72302380D01*
X198952380Y-72302380D02*
X199047619Y-72302380D01*
X199142857Y-72350000D01*
X199190476Y-72397619D01*
X199238095Y-72492857D01*
X199285714Y-72683333D01*
X199285714Y-72921428D01*
X199238095Y-73111904D01*
X199190476Y-73207142D01*
X199142857Y-73254761D01*
X199047619Y-73302380D01*
X198952380Y-73302380D01*
X198857142Y-73254761D01*
X198809523Y-73207142D01*
X198761904Y-73111904D01*
X198714285Y-72921428D01*
X198714285Y-72683333D01*
X198761904Y-72492857D01*
X198809523Y-72397619D01*
X198857142Y-72350000D01*
X198952380Y-72302380D01*
X199904761Y-72302380D02*
X200000000Y-72302380D01*
X200095238Y-72350000D01*
X200142857Y-72397619D01*
X200190476Y-72492857D01*
X200238095Y-72683333D01*
X200238095Y-72921428D01*
X200190476Y-73111904D01*
X200142857Y-73207142D01*
X200095238Y-73254761D01*
X200000000Y-73302380D01*
X199904761Y-73302380D01*
X199809523Y-73254761D01*
X199761904Y-73207142D01*
X199714285Y-73111904D01*
X199666666Y-72921428D01*
X199666666Y-72683333D01*
X199714285Y-72492857D01*
X199761904Y-72397619D01*
X199809523Y-72350000D01*
X199904761Y-72302380D01*
X200857142Y-72302380D02*
X200952380Y-72302380D01*
X201047619Y-72350000D01*
X201095238Y-72397619D01*
X201142857Y-72492857D01*
X201190476Y-72683333D01*
X201190476Y-72921428D01*
X201142857Y-73111904D01*
X201095238Y-73207142D01*
X201047619Y-73254761D01*
X200952380Y-73302380D01*
X200857142Y-73302380D01*
X200761904Y-73254761D01*
X200714285Y-73207142D01*
X200666666Y-73111904D01*
X200619047Y-72921428D01*
X200619047Y-72683333D01*
X200666666Y-72492857D01*
X200714285Y-72397619D01*
X200761904Y-72350000D01*
X200857142Y-72302380D01*
X202380952Y-73302380D02*
X202380952Y-72635714D01*
X202380952Y-72730952D02*
X202428571Y-72683333D01*
X202523809Y-72635714D01*
X202666666Y-72635714D01*
X202761904Y-72683333D01*
X202809523Y-72778571D01*
X202809523Y-73302380D01*
X202809523Y-72778571D02*
X202857142Y-72683333D01*
X202952380Y-72635714D01*
X203095238Y-72635714D01*
X203190476Y-72683333D01*
X203238095Y-72778571D01*
X203238095Y-73302380D01*
X203714285Y-73302380D02*
X203714285Y-72635714D01*
X203714285Y-72730952D02*
X203761904Y-72683333D01*
X203857142Y-72635714D01*
X204000000Y-72635714D01*
X204095238Y-72683333D01*
X204142857Y-72778571D01*
X204142857Y-73302380D01*
X204142857Y-72778571D02*
X204190476Y-72683333D01*
X204285714Y-72635714D01*
X204428571Y-72635714D01*
X204523809Y-72683333D01*
X204571428Y-72778571D01*
X204571428Y-73302380D01*
D11*
X180000000Y-77000000D02*
X180000000Y-73413580D01*
X220000000Y-77000000D02*
X220000000Y-73413580D01*
X180000000Y-74000000D02*
X194615476Y-74000000D01*
X205384524Y-74000000D02*
X220000000Y-74000000D01*
X180000000Y-74000000D02*
X181126504Y-74586421D01*
X180000000Y-74000000D02*
X181126504Y-73413579D01*
X220000000Y-74000000D02*
X218873496Y-73413579D01*
X220000000Y-74000000D02*
X218873496Y-74586421D01*
D10*
X88897619Y-122119047D02*
X88850000Y-122071428D01*
X88802380Y-121976190D01*
X88802380Y-121738095D01*
X88850000Y-121642857D01*
X88897619Y-121595238D01*
X88992857Y-121547619D01*
X89088095Y-121547619D01*
X89230952Y-121595238D01*
X89802380Y-122166666D01*
X89802380Y-121547619D01*
X88802380Y-120642857D02*
X88802380Y-121119047D01*
X89278571Y-121166666D01*
X89230952Y-121119047D01*
X89183333Y-121023809D01*
X89183333Y-120785714D01*
X89230952Y-120690476D01*
X89278571Y-120642857D01*
X89373809Y-120595238D01*
X89611904Y-120595238D01*
X89707142Y-120642857D01*
X89754761Y-120690476D01*
X89802380Y-120785714D01*
X89802380Y-121023809D01*
X89754761Y-121119047D01*
X89707142Y-121166666D01*
X89707142Y-120166666D02*
X89754761Y-120119047D01*
X89802380Y-120166666D01*
X89754761Y-120214285D01*
X89707142Y-120166666D01*
X89802380Y-120166666D01*
X88802380Y-119500000D02*
X88802380Y-119404761D01*
X88850000Y-119309523D01*
X88897619Y-119261904D01*
X88992857Y-119214285D01*
X89183333Y-119166666D01*
X89421428Y-119166666D01*
X89611904Y-119214285D01*
X89707142Y-119261904D01*
X89754761Y-119309523D01*
X89802380Y-119404761D01*
X89802380Y-119500000D01*
X89754761Y-119595238D01*
X89707142Y-119642857D01*
X89611904Y-119690476D01*
X89421428Y-119738095D01*
X89183333Y-119738095D01*
X88992857Y-119690476D01*
X88897619Y-119642857D01*
X88850000Y-119595238D01*
X88802380Y-119500000D01*
X88802380Y-118547619D02*
X88802380Y-118452380D01*
X88850000Y-118357142D01*
X88897619Y-118309523D01*
X88992857Y-118261904D01*
X89183333Y-118214285D01*
X89421428Y-118214285D01*
X89611904Y-118261904D01*
X89707142Y-118309523D01*
X89754761Y-118357142D01*
X89802380Y-118452380D01*
X89802380Y-118547619D01*
X89754761Y-118642857D01*
X89707142Y-118690476D01*
X89611904Y-118738095D01*
X89421428Y-118785714D01*
X89183333Y-118785714D01*
X88992857Y-118738095D01*
X88897619Y-118690476D01*
X88850000Y-118642857D01*
X88802380Y-118547619D01*
X88802380Y-117595238D02*
X88802380Y-117500000D01*
X88850000Y-117404761D01*
X88897619Y-117357142D01*
X88992857Y-117309523D01*
X89183333Y-117261904D01*
X89421428Y-117261904D01*
X89611904Y-117309523D01*
X89707142Y-117357142D01*
X89754761Y-117404761D01*
X89802380Y-117500000D01*
X89802380Y-117595238D01*
X89754761Y-117690476D01*
X89707142Y-117738095D01*
X89611904Y-117785714D01*
X89421428Y-117833333D01*
X89183333Y-117833333D01*
X88992857Y-117785714D01*
X88897619Y-117738095D01*
X88850000Y-117690476D01*
X88802380Y-117595238D01*
X88802380Y-116642857D02*
X88802380Y-116547619D01*
X88850000Y-116452380D01*
X88897619Y-116404761D01*
X88992857Y-116357142D01*
X89183333Y-116309523D01*
X89421428Y-116309523D01*
X89611904Y-116357142D01*
X89707142Y-116404761D01*
X89754761Y-116452380D01*
X89802380Y-116547619D01*
X89802380Y-116642857D01*
X89754761Y-116738095D01*
X89707142Y-116785714D01*
X89611904Y-116833333D01*
X89421428Y-116880952D01*
X89183333Y-116880952D01*
X88992857Y-116833333D01*
X88897619Y-116785714D01*
X88850000Y-116738095D01*
X88802380Y-116642857D01*
X89802380Y-115119047D02*
X89135714Y-115119047D01*
X89230952Y-115119047D02*
X89183333Y-115071428D01*
X89135714Y-114976190D01*
X89135714Y-114833333D01*
X89183333Y-114738095D01*
X89278571Y-114690476D01*
X89802380Y-114690476D01*
X89278571Y-114690476D02*
X89183333Y-114642857D01*
X89135714Y-114547619D01*
X89135714Y-114404761D01*
X89183333Y-114309523D01*
X89278571Y-114261904D01*
X89802380Y-114261904D01*
X89802380Y-113785714D02*
X89135714Y-113785714D01*
X89230952Y-113785714D02*
X89183333Y-113738095D01*
X89135714Y-113642857D01*
X89135714Y-113500000D01*
X89183333Y-113404761D01*
X89278571Y-113357142D01*
X89802380Y-113357142D01*
X89278571Y-113357142D02*
X89183333Y-113309523D01*
X89135714Y-113214285D01*
X89135714Y-113071428D01*
X89183333Y-112976190D01*
X89278571Y-112928571D01*
X89802380Y-112928571D01*
D11*
X95000000Y-105000000D02*
X89913580Y-105000000D01*
X95000000Y-130000000D02*
X89913580Y-130000000D01*
X90500000Y-105000000D02*
X90500000Y-112115476D01*
X90500000Y-122884524D02*
X90500000Y-130000000D01*
X90500000Y-105000000D02*
X89913579Y-106126504D01*
X90500000Y-105000000D02*
X91086421Y-106126504D01*
X90500000Y-130000000D02*
X91086421Y-128873496D01*
X90500000Y-130000000D02*
X89913579Y-128873496D01*
D10*
X155476190Y-71302380D02*
X154904761Y-71302380D01*
X155190476Y-71302380D02*
X155190476Y-70302380D01*
X155095238Y-70445238D01*
X155000000Y-70540476D01*
X154904761Y-70588095D01*
X155857142Y-70397619D02*
X155904761Y-70350000D01*
X156000000Y-70302380D01*
X156238095Y-70302380D01*
X156333333Y-70350000D01*
X156380952Y-70397619D01*
X156428571Y-70492857D01*
X156428571Y-70588095D01*
X156380952Y-70730952D01*
X155809523Y-71302380D01*
X156428571Y-71302380D01*
X157047619Y-70302380D02*
X157142857Y-70302380D01*
X157238095Y-70350000D01*
X157285714Y-70397619D01*
X157333333Y-70492857D01*
X157380952Y-70683333D01*
X157380952Y-70921428D01*
X157333333Y-71111904D01*
X157285714Y-71207142D01*
X157238095Y-71254761D01*
X157142857Y-71302380D01*
X157047619Y-71302380D01*
X156952380Y-71254761D01*
X156904761Y-71207142D01*
X156857142Y-71111904D01*
X156809523Y-70921428D01*
X156809523Y-70683333D01*
X156857142Y-70492857D01*
X156904761Y-70397619D01*
X156952380Y-70350000D01*
X157047619Y-70302380D01*
X157809523Y-71207142D02*
X157857142Y-71254761D01*
X157809523Y-71302380D01*
X157761904Y-71254761D01*
X157809523Y-71207142D01*
X157809523Y-71302380D01*
X158476190Y-70302380D02*
X158571428Y-70302380D01*
X158666666Y-70350000D01*
X158714285Y-70397619D01*
X158761904Y-70492857D01*
X158809523Y-70683333D01*
X158809523Y-70921428D01*
X158761904Y-71111904D01*
X158714285Y-71207142D01*
X158666666Y-71254761D01*
X158571428Y-71302380D01*
X158476190Y-71302380D01*
X158380952Y-71254761D01*
X158333333Y-71207142D01*
X158285714Y-71111904D01*
X158238095Y-70921428D01*
X158238095Y-70683333D01*
X158285714Y-70492857D01*
X158333333Y-70397619D01*
X158380952Y-70350000D01*
X158476190Y-70302380D01*
X159428571Y-70302380D02*
X159523809Y-70302380D01*
X159619047Y-70350000D01*
X159666666Y-70397619D01*
X159714285Y-70492857D01*
X159761904Y-70683333D01*
X159761904Y-70921428D01*
X159714285Y-71111904D01*
X159666666Y-71207142D01*
X159619047Y-71254761D01*
X159523809Y-71302380D01*
X159428571Y-71302380D01*
X159333333Y-71254761D01*
X159285714Y-71207142D01*
X159238095Y-71111904D01*
X159190476Y-70921428D01*
X159190476Y-70683333D01*
X159238095Y-70492857D01*
X159285714Y-70397619D01*
X159333333Y-70350000D01*
X159428571Y-70302380D01*
X160380952Y-70302380D02*
X160476190Y-70302380D01*
X160571428Y-70350000D01*
X160619047Y-70397619D01*
X160666666Y-70492857D01*
X160714285Y-70683333D01*
X160714285Y-70921428D01*
X160666666Y-71111904D01*
X160619047Y-71207142D01*
X160571428Y-71254761D01*
X160476190Y-71302380D01*
X160380952Y-71302380D01*
X160285714Y-71254761D01*
X160238095Y-71207142D01*
X160190476Y-71111904D01*
X160142857Y-70921428D01*
X160142857Y-70683333D01*
X160190476Y-70492857D01*
X160238095Y-70397619D01*
X160285714Y-70350000D01*
X160380952Y-70302380D01*
X161333333Y-70302380D02*
X161428571Y-70302380D01*
X161523809Y-70350000D01*
X161571428Y-70397619D01*
X161619047Y-70492857D01*
X161666666Y-70683333D01*
X161666666Y-70921428D01*
X161619047Y-71111904D01*
X161571428Y-71207142D01*
X161523809Y-71254761D01*
X161428571Y-71302380D01*
X161333333Y-71302380D01*
X161238095Y-71254761D01*
X161190476Y-71207142D01*
X161142857Y-71111904D01*
X161095238Y-70921428D01*
X161095238Y-70683333D01*
X161142857Y-70492857D01*
X161190476Y-70397619D01*
X161238095Y-70350000D01*
X161333333Y-70302380D01*
X162857142Y-71302380D02*
X162857142Y-70635714D01*
X162857142Y-70730952D02*
X162904761Y-70683333D01*
X163000000Y-70635714D01*
X163142857Y-70635714D01*
X163238095Y-70683333D01*
X163285714Y-70778571D01*
X163285714Y-71302380D01*
X163285714Y-70778571D02*
X163333333Y-70683333D01*
X163428571Y-70635714D01*
X163571428Y-70635714D01*
X163666666Y-70683333D01*
X163714285Y-70778571D01*
X163714285Y-71302380D01*
X164190476Y-71302380D02*
X164190476Y-70635714D01*
X164190476Y-70730952D02*
X164238095Y-70683333D01*
X164333333Y-70635714D01*
X164476190Y-70635714D01*
X164571428Y-70683333D01*
X164619047Y-70778571D01*
X164619047Y-71302380D01*
X164619047Y-70778571D02*
X164666666Y-70683333D01*
X164761904Y-70635714D01*
X164904761Y-70635714D01*
X165000000Y-70683333D01*
X165047619Y-70778571D01*
X165047619Y-71302380D01*
D11*
X220000000Y-80000000D02*
X220000000Y-71413580D01*
X100000000Y-80000000D02*
X100000000Y-71413580D01*
X220000000Y-72000000D02*
X165860715Y-72000000D01*
X154139286Y-72000000D02*
X100000000Y-72000000D01*
X220000000Y-72000000D02*
X218873496Y-71413579D01*
X220000000Y-72000000D02*
X218873496Y-72586421D01*
X100000000Y-72000000D02*
X101126504Y-72586421D01*
X100000000Y-72000000D02*
X101126504Y-71413579D01*
D10*
X226302380Y-109095238D02*
X226302380Y-109571428D01*
X226778571Y-109619047D01*
X226730952Y-109571428D01*
X226683333Y-109476190D01*
X226683333Y-109238095D01*
X226730952Y-109142857D01*
X226778571Y-109095238D01*
X226873809Y-109047619D01*
X227111904Y-109047619D01*
X227207142Y-109095238D01*
X227254761Y-109142857D01*
X227302380Y-109238095D01*
X227302380Y-109476190D01*
X227254761Y-109571428D01*
X227207142Y-109619047D01*
X226302380Y-108428571D02*
X226302380Y-108333333D01*
X226350000Y-108238095D01*
X226397619Y-108190476D01*
X226492857Y-108142857D01*
X226683333Y-108095238D01*
X226921428Y-108095238D01*
X227111904Y-108142857D01*
X227207142Y-108190476D01*
X227254761Y-108238095D01*
X227302380Y-108333333D01*
X227302380Y-108428571D01*
X227254761Y-108523809D01*
X227207142Y-108571428D01*
X227111904Y-108619047D01*
X226921428Y-108666666D01*
X226683333Y-108666666D01*
X226492857Y-108619047D01*
X226397619Y-108571428D01*
X226350000Y-108523809D01*
X226302380Y-108428571D01*
X227207142Y-107666666D02*
X227254761Y-107619047D01*
X227302380Y-107666666D01*
X227254761Y-107714285D01*
X227207142Y-107666666D01*
X227302380Y-107666666D01*
X226302380Y-107000000D02*
X226302380Y-106904761D01*
X226350000Y-106809523D01*
X226397619Y-106761904D01*
X226492857Y-106714285D01*
X226683333Y-106666666D01*
X226921428Y-106666666D01*
X227111904Y-106714285D01*
X227207142Y-106761904D01*
X227254761Y-106809523D01*
X227302380Y-106904761D01*
X227302380Y-107000000D01*
X227254761Y-107095238D01*
X227207142Y-107142857D01*
X227111904Y-107190476D01*
X226921428Y-107238095D01*
X226683333Y-107238095D01*
X226492857Y-107190476D01*
X226397619Y-107142857D01*
X226350000Y-107095238D01*
X226302380Y-107000000D01*
X226302380Y-106047619D02*
X226302380Y-105952380D01*
X226350000Y-105857142D01*
X226397619Y-105809523D01*
X226492857Y-105761904D01*
X226683333Y-105714285D01*
X226921428Y-105714285D01*
X227111904Y-105761904D01*
X227207142Y-105809523D01*
X227254761Y-105857142D01*
X227302380Y-105952380D01*
X227302380Y-106047619D01*
X227254761Y-106142857D01*
X227207142Y-106190476D01*
X227111904Y-106238095D01*
X226921428Y-106285714D01*
X226683333Y-106285714D01*
X226492857Y-106238095D01*
X226397619Y-106190476D01*
X226350000Y-106142857D01*
X226302380Y-106047619D01*
X226302380Y-105095238D02*
X226302380Y-105000000D01*
X226350000Y-104904761D01*
X226397619Y-104857142D01*
X226492857Y-104809523D01*
X226683333Y-104761904D01*
X226921428Y-104761904D01*
X227111904Y-104809523D01*
X227207142Y-104857142D01*
X227254761Y-104904761D01*
X227302380Y-105000000D01*
X227302380Y-105095238D01*
X227254761Y-105190476D01*
X227207142Y-105238095D01*
X227111904Y-105285714D01*
X226921428Y-105333333D01*
X226683333Y-105333333D01*
X226492857Y-105285714D01*
X226397619Y-105238095D01*
X226350000Y-105190476D01*
X226302380Y-105095238D01*
X226302380Y-104142857D02*
X226302380Y-104047619D01*
X226350000Y-103952380D01*
X226397619Y-103904761D01*
X226492857Y-103857142D01*
X226683333Y-103809523D01*
X226921428Y-103809523D01*
X227111904Y-103857142D01*
X227207142Y-103904761D01*
X227254761Y-103952380D01*
X227302380Y-104047619D01*
X227302380Y-104142857D01*
X227254761Y-104238095D01*
X227207142Y-104285714D01*
X227111904Y-104333333D01*
X226921428Y-104380952D01*
X226683333Y-104380952D01*
X226492857Y-104333333D01*
X226397619Y-104285714D01*
X226350000Y-104238095D01*
X226302380Y-104142857D01*
X227302380Y-102619047D02*
X226635714Y-102619047D01*
X226730952Y-102619047D02*
X226683333Y-102571428D01*
X226635714Y-102476190D01*
X226635714Y-102333333D01*
X226683333Y-102238095D01*
X226778571Y-102190476D01*
X227302380Y-102190476D01*
X226778571Y-102190476D02*
X226683333Y-102142857D01*
X226635714Y-102047619D01*
X226635714Y-101904761D01*
X226683333Y-101809523D01*
X226778571Y-101761904D01*
X227302380Y-101761904D01*
X227302380Y-101285714D02*
X226635714Y-101285714D01*
X226730952Y-101285714D02*
X226683333Y-101238095D01*
X226635714Y-101142857D01*
X226635714Y-101000000D01*
X226683333Y-100904761D01*
X226778571Y-100857142D01*
X227302380Y-100857142D01*
X226778571Y-100857142D02*
X226683333Y-100809523D01*
X226635714Y-100714285D01*
X226635714Y-100571428D01*
X226683333Y-100476190D01*
X226778571Y-100428571D01*
X227302380Y-100428571D01*
D11*
X220000000Y-130000000D02*
X228586420Y-130000000D01*
X220000000Y-80000000D02*
X228586420Y-80000000D01*
X228000000Y-130000000D02*
X228000000Y-110384524D01*
X228000000Y-99615476D02*
X228000000Y-80000000D01*
X228000000Y-130000000D02*
X228586421Y-128873496D01*
X228000000Y-130000000D02*
X227413579Y-128873496D01*
X228000000Y-80000000D02*
X227413579Y-81126504D01*
X228000000Y-80000000D02*
X228586421Y-81126504D01*
D10*
X147104761Y-89433333D02*
X147152380Y-89290476D01*
X147152380Y-89052380D01*
X147104761Y-88957142D01*
X147057142Y-88909523D01*
X146961904Y-88861904D01*
X146866666Y-88861904D01*
X146771428Y-88909523D01*
X146723809Y-88957142D01*
X146676190Y-89052380D01*
X146628571Y-89242857D01*
X146580952Y-89338095D01*
X146533333Y-89385714D01*
X146438095Y-89433333D01*
X146342857Y-89433333D01*
X146247619Y-89385714D01*
X146200000Y-89338095D01*
X146152380Y-89242857D01*
X146152380Y-89004761D01*
X146200000Y-88861904D01*
X146152380Y-88528571D02*
X147152380Y-88290476D01*
X146438095Y-88100000D01*
X147152380Y-87909523D01*
X146152380Y-87671428D01*
X147152380Y-86766666D02*
X147152380Y-87338095D01*
X147152380Y-87052380D02*
X146152380Y-87052380D01*
X146295238Y-87147619D01*
X146390476Y-87242857D01*
X146438095Y-87338095D01*
X190304761Y-89333333D02*
X190352380Y-89190476D01*
X190352380Y-88952380D01*
X190304761Y-88857142D01*
X190257142Y-88809523D01*
X190161904Y-88761904D01*
X190066666Y-88761904D01*
X189971428Y-88809523D01*
X189923809Y-88857142D01*
X189876190Y-88952380D01*
X189828571Y-89142857D01*
X189780952Y-89238095D01*
X189733333Y-89285714D01*
X189638095Y-89333333D01*
X189542857Y-89333333D01*
X189447619Y-89285714D01*
X189400000Y-89238095D01*
X189352380Y-89142857D01*
X189352380Y-88904761D01*
X189400000Y-88761904D01*
X189352380Y-88428571D02*
X190352380Y-88190476D01*
X189638095Y-88000000D01*
X190352380Y-87809523D01*
X189352380Y-87571428D01*
X189447619Y-87238095D02*
X189400000Y-87190476D01*
X189352380Y-87095238D01*
X189352380Y-86857142D01*
X189400000Y-86761904D01*
X189447619Y-86714285D01*
X189542857Y-86666666D01*
X189638095Y-86666666D01*
X189780952Y-86714285D01*
X190352380Y-87285714D01*
X190352380Y-86666666D01*
X195904761Y-89952380D02*
X195952380Y-89809523D01*
X195952380Y-89571428D01*
X195904761Y-89476190D01*
X195857142Y-89428571D01*
X195761904Y-89380952D01*
X195666666Y-89380952D01*
X195571428Y-89428571D01*
X195523809Y-89476190D01*
X195476190Y-89571428D01*
X195428571Y-89761904D01*
X195380952Y-89857142D01*
X195333333Y-89904761D01*
X195238095Y-89952380D01*
X195142857Y-89952380D01*
X195047619Y-89904761D01*
X195000000Y-89857142D01*
X194952380Y-89761904D01*
X194952380Y-89523809D01*
X195000000Y-89380952D01*
X195904761Y-88571428D02*
X195952380Y-88666666D01*
X195952380Y-88857142D01*
X195904761Y-88952380D01*
X195809523Y-89000000D01*
X195428571Y-89000000D01*
X195333333Y-88952380D01*
X195285714Y-88857142D01*
X195285714Y-88666666D01*
X195333333Y-88571428D01*
X195428571Y-88523809D01*
X195523809Y-88523809D01*
X195619047Y-89000000D01*
X195285714Y-88238095D02*
X195285714Y-87857142D01*
X194952380Y-88095238D02*
X195809523Y-88095238D01*
X195904761Y-88047619D01*
X195952380Y-87952380D01*
X195952380Y-87857142D01*
X195952380Y-86761904D02*
X194952380Y-86761904D01*
X195666666Y-86428571D01*
X194952380Y-86095238D01*
X195952380Y-86095238D01*
X181304761Y-89333333D02*
X181352380Y-89190476D01*
X181352380Y-88952380D01*
X181304761Y-88857142D01*
X181257142Y-88809523D01*
X181161904Y-88761904D01*
X181066666Y-88761904D01*
X180971428Y-88809523D01*
X180923809Y-88857142D01*
X180876190Y-88952380D01*
X180828571Y-89142857D01*
X180780952Y-89238095D01*
X180733333Y-89285714D01*
X180638095Y-89333333D01*
X180542857Y-89333333D01*
X180447619Y-89285714D01*
X180400000Y-89238095D01*
X180352380Y-89142857D01*
X180352380Y-88904761D01*
X180400000Y-88761904D01*
X180352380Y-88428571D02*
X181352380Y-88190476D01*
X180638095Y-88000000D01*
X181352380Y-87809523D01*
X180352380Y-87571428D01*
X180352380Y-87285714D02*
X180352380Y-86666666D01*
X180733333Y-87000000D01*
X180733333Y-86857142D01*
X180780952Y-86761904D01*
X180828571Y-86714285D01*
X180923809Y-86666666D01*
X181161904Y-86666666D01*
X181257142Y-86714285D01*
X181304761Y-86761904D01*
X181352380Y-86857142D01*
X181352380Y-87142857D01*
X181304761Y-87238095D01*
X181257142Y-87285714D01*
X186904761Y-89904761D02*
X186952380Y-89761904D01*
X186952380Y-89523809D01*
X186904761Y-89428571D01*
X186857142Y-89380952D01*
X186761904Y-89333333D01*
X186666666Y-89333333D01*
X186571428Y-89380952D01*
X186523809Y-89428571D01*
X186476190Y-89523809D01*
X186428571Y-89714285D01*
X186380952Y-89809523D01*
X186333333Y-89857142D01*
X186238095Y-89904761D01*
X186142857Y-89904761D01*
X186047619Y-89857142D01*
X186000000Y-89809523D01*
X185952380Y-89714285D01*
X185952380Y-89476190D01*
X186000000Y-89333333D01*
X186904761Y-88523809D02*
X186952380Y-88619047D01*
X186952380Y-88809523D01*
X186904761Y-88904761D01*
X186809523Y-88952380D01*
X186428571Y-88952380D01*
X186333333Y-88904761D01*
X186285714Y-88809523D01*
X186285714Y-88619047D01*
X186333333Y-88523809D01*
X186428571Y-88476190D01*
X186523809Y-88476190D01*
X186619047Y-88952380D01*
X186285714Y-88190476D02*
X186285714Y-87809523D01*
X185952380Y-88047619D02*
X186809523Y-88047619D01*
X186904761Y-88000000D01*
X186952380Y-87904761D01*
X186952380Y-87809523D01*
X186952380Y-86714285D02*
X185952380Y-86714285D01*
X186428571Y-86714285D02*
X186428571Y-86142857D01*
X186952380Y-86142857D02*
X185952380Y-86142857D01*
X102566666Y-101147380D02*
X102566666Y-101861666D01*
X102519047Y-102004523D01*
X102423809Y-102099761D01*
X102280952Y-102147380D01*
X102185714Y-102147380D01*
X103471428Y-101480714D02*
X103471428Y-102147380D01*
X103233333Y-101099761D02*
X102995238Y-101814047D01*
X103614285Y-101814047D01*
X216466666Y-96557380D02*
X216466666Y-97271666D01*
X216419047Y-97414523D01*
X216323809Y-97509761D01*
X216180952Y-97557380D01*
X216085714Y-97557380D01*
X216895238Y-96652619D02*
X216942857Y-96605000D01*
X217038095Y-96557380D01*
X217276190Y-96557380D01*
X217371428Y-96605000D01*
X217419047Y-96652619D01*
X217466666Y-96747857D01*
X217466666Y-96843095D01*
X217419047Y-96985952D01*
X216847619Y-97557380D01*
X217466666Y-97557380D01*
X169692380Y-88843095D02*
X168692380Y-88843095D01*
X168692380Y-88605000D01*
X168740000Y-88462142D01*
X168835238Y-88366904D01*
X168930476Y-88319285D01*
X169120952Y-88271666D01*
X169263809Y-88271666D01*
X169454285Y-88319285D01*
X169549523Y-88366904D01*
X169644761Y-88462142D01*
X169692380Y-88605000D01*
X169692380Y-88843095D01*
X169692380Y-87319285D02*
X169692380Y-87890714D01*
X169692380Y-87605000D02*
X168692380Y-87605000D01*
X168835238Y-87700238D01*
X168930476Y-87795476D01*
X168978095Y-87890714D01*
X159792380Y-88843095D02*
X158792380Y-88843095D01*
X158792380Y-88605000D01*
X158840000Y-88462142D01*
X158935238Y-88366904D01*
X159030476Y-88319285D01*
X159220952Y-88271666D01*
X159363809Y-88271666D01*
X159554285Y-88319285D01*
X159649523Y-88366904D01*
X159744761Y-88462142D01*
X159792380Y-88605000D01*
X159792380Y-88843095D01*
X158887619Y-87890714D02*
X158840000Y-87843095D01*
X158792380Y-87747857D01*
X158792380Y-87509761D01*
X158840000Y-87414523D01*
X158887619Y-87366904D01*
X158982857Y-87319285D01*
X159078095Y-87319285D01*
X159220952Y-87366904D01*
X159792380Y-87938333D01*
X159792380Y-87319285D01*
X154382380Y-88266666D02*
X153906190Y-88600000D01*
X154382380Y-88838095D02*
X153382380Y-88838095D01*
X153382380Y-88457142D01*
X153430000Y-88361904D01*
X153477619Y-88314285D01*
X153572857Y-88266666D01*
X153715714Y-88266666D01*
X153810952Y-88314285D01*
X153858571Y-88361904D01*
X153906190Y-88457142D01*
X153906190Y-88838095D01*
X153382380Y-87933333D02*
X153382380Y-87314285D01*
X153763333Y-87647619D01*
X153763333Y-87504761D01*
X153810952Y-87409523D01*
X153858571Y-87361904D01*
X153953809Y-87314285D01*
X154191904Y-87314285D01*
X154287142Y-87361904D01*
X154334761Y-87409523D01*
X154382380Y-87504761D01*
X154382380Y-87790476D01*
X154334761Y-87885714D01*
X154287142Y-87933333D01*
X169871190Y-105291190D02*
X170347380Y-105291190D01*
X169347380Y-105624523D02*
X169871190Y-105291190D01*
X169347380Y-104957857D01*
X170347380Y-104100714D02*
X170347380Y-104672142D01*
X170347380Y-104386428D02*
X169347380Y-104386428D01*
X169490238Y-104481666D01*
X169585476Y-104576904D01*
X169633095Y-104672142D01*
X153673526Y-109503969D02*
X154245946Y-108931549D01*
X154279618Y-108830534D01*
X154279618Y-108763190D01*
X154245946Y-108662175D01*
X154111259Y-108527488D01*
X154010244Y-108493816D01*
X153942900Y-108493816D01*
X153841885Y-108527488D01*
X153269465Y-109099908D01*
X152596030Y-108426473D02*
X152932748Y-108763190D01*
X153303137Y-108460144D01*
X153235794Y-108460144D01*
X153134778Y-108426473D01*
X152966420Y-108258114D01*
X152932748Y-108157099D01*
X152932748Y-108089755D01*
X152966420Y-107988740D01*
X153134778Y-107820381D01*
X153235794Y-107786709D01*
X153303137Y-107786709D01*
X153404152Y-107820381D01*
X153572511Y-107988740D01*
X153606183Y-108089755D01*
X153606183Y-108157099D01*
X114871666Y-93507380D02*
X114871666Y-94221666D01*
X114824047Y-94364523D01*
X114728809Y-94459761D01*
X114585952Y-94507380D01*
X114490714Y-94507380D01*
X115252619Y-93507380D02*
X115871666Y-93507380D01*
X115538333Y-93888333D01*
X115681190Y-93888333D01*
X115776428Y-93935952D01*
X115824047Y-93983571D01*
X115871666Y-94078809D01*
X115871666Y-94316904D01*
X115824047Y-94412142D01*
X115776428Y-94459761D01*
X115681190Y-94507380D01*
X115395476Y-94507380D01*
X115300238Y-94459761D01*
X115252619Y-94412142D01*
X150787380Y-88266666D02*
X150311190Y-88600000D01*
X150787380Y-88838095D02*
X149787380Y-88838095D01*
X149787380Y-88457142D01*
X149835000Y-88361904D01*
X149882619Y-88314285D01*
X149977857Y-88266666D01*
X150120714Y-88266666D01*
X150215952Y-88314285D01*
X150263571Y-88361904D01*
X150311190Y-88457142D01*
X150311190Y-88838095D01*
X149882619Y-87885714D02*
X149835000Y-87838095D01*
X149787380Y-87742857D01*
X149787380Y-87504761D01*
X149835000Y-87409523D01*
X149882619Y-87361904D01*
X149977857Y-87314285D01*
X150073095Y-87314285D01*
X150215952Y-87361904D01*
X150787380Y-87933333D01*
X150787380Y-87314285D01*
X204538095Y-104727380D02*
X204538095Y-105536904D01*
X204585714Y-105632142D01*
X204633333Y-105679761D01*
X204728571Y-105727380D01*
X204919047Y-105727380D01*
X205014285Y-105679761D01*
X205061904Y-105632142D01*
X205109523Y-105536904D01*
X205109523Y-104727380D01*
X205633333Y-105727380D02*
X205823809Y-105727380D01*
X205919047Y-105679761D01*
X205966666Y-105632142D01*
X206061904Y-105489285D01*
X206109523Y-105298809D01*
X206109523Y-104917857D01*
X206061904Y-104822619D01*
X206014285Y-104775000D01*
X205919047Y-104727380D01*
X205728571Y-104727380D01*
X205633333Y-104775000D01*
X205585714Y-104822619D01*
X205538095Y-104917857D01*
X205538095Y-105155952D01*
X205585714Y-105251190D01*
X205633333Y-105298809D01*
X205728571Y-105346428D01*
X205919047Y-105346428D01*
X206014285Y-105298809D01*
X206061904Y-105251190D01*
X206109523Y-105155952D01*
X180761904Y-104727380D02*
X180761904Y-105536904D01*
X180809523Y-105632142D01*
X180857142Y-105679761D01*
X180952380Y-105727380D01*
X181142857Y-105727380D01*
X181238095Y-105679761D01*
X181285714Y-105632142D01*
X181333333Y-105536904D01*
X181333333Y-104727380D01*
X182333333Y-105727380D02*
X181761904Y-105727380D01*
X182047619Y-105727380D02*
X182047619Y-104727380D01*
X181952380Y-104870238D01*
X181857142Y-104965476D01*
X181761904Y-105013095D01*
X182952380Y-104727380D02*
X183047619Y-104727380D01*
X183142857Y-104775000D01*
X183190476Y-104822619D01*
X183238095Y-104917857D01*
X183285714Y-105108333D01*
X183285714Y-105346428D01*
X183238095Y-105536904D01*
X183190476Y-105632142D01*
X183142857Y-105679761D01*
X183047619Y-105727380D01*
X182952380Y-105727380D01*
X182857142Y-105679761D01*
X182809523Y-105632142D01*
X182761904Y-105536904D01*
X182714285Y-105346428D01*
X182714285Y-105108333D01*
X182761904Y-104917857D01*
X182809523Y-104822619D01*
X182857142Y-104775000D01*
X182952380Y-104727380D01*
X114301904Y-104692380D02*
X114301904Y-105501904D01*
X114349523Y-105597142D01*
X114397142Y-105644761D01*
X114492380Y-105692380D01*
X114682857Y-105692380D01*
X114778095Y-105644761D01*
X114825714Y-105597142D01*
X114873333Y-105501904D01*
X114873333Y-104692380D01*
X115873333Y-105692380D02*
X115301904Y-105692380D01*
X115587619Y-105692380D02*
X115587619Y-104692380D01*
X115492380Y-104835238D01*
X115397142Y-104930476D01*
X115301904Y-104978095D01*
X116254285Y-104787619D02*
X116301904Y-104740000D01*
X116397142Y-104692380D01*
X116635238Y-104692380D01*
X116730476Y-104740000D01*
X116778095Y-104787619D01*
X116825714Y-104882857D01*
X116825714Y-104978095D01*
X116778095Y-105120952D01*
X116206666Y-105692380D01*
X116825714Y-105692380D01*
X137581904Y-104692380D02*
X137581904Y-105501904D01*
X137629523Y-105597142D01*
X137677142Y-105644761D01*
X137772380Y-105692380D01*
X137962857Y-105692380D01*
X138058095Y-105644761D01*
X138105714Y-105597142D01*
X138153333Y-105501904D01*
X138153333Y-104692380D01*
X138581904Y-104787619D02*
X138629523Y-104740000D01*
X138724761Y-104692380D01*
X138962857Y-104692380D01*
X139058095Y-104740000D01*
X139105714Y-104787619D01*
X139153333Y-104882857D01*
X139153333Y-104978095D01*
X139105714Y-105120952D01*
X138534285Y-105692380D01*
X139153333Y-105692380D01*
X139534285Y-104787619D02*
X139581904Y-104740000D01*
X139677142Y-104692380D01*
X139915238Y-104692380D01*
X140010476Y-104740000D01*
X140058095Y-104787619D01*
X140105714Y-104882857D01*
X140105714Y-104978095D01*
X140058095Y-105120952D01*
X139486666Y-105692380D01*
X140105714Y-105692380D01*
X167778333Y-106217142D02*
X167730714Y-106264761D01*
X167587857Y-106312380D01*
X167492619Y-106312380D01*
X167349761Y-106264761D01*
X167254523Y-106169523D01*
X167206904Y-106074285D01*
X167159285Y-105883809D01*
X167159285Y-105740952D01*
X167206904Y-105550476D01*
X167254523Y-105455238D01*
X167349761Y-105360000D01*
X167492619Y-105312380D01*
X167587857Y-105312380D01*
X167730714Y-105360000D01*
X167778333Y-105407619D01*
X168730714Y-106312380D02*
X168159285Y-106312380D01*
X168445000Y-106312380D02*
X168445000Y-105312380D01*
X168349761Y-105455238D01*
X168254523Y-105550476D01*
X168159285Y-105598095D01*
X167778333Y-99232142D02*
X167730714Y-99279761D01*
X167587857Y-99327380D01*
X167492619Y-99327380D01*
X167349761Y-99279761D01*
X167254523Y-99184523D01*
X167206904Y-99089285D01*
X167159285Y-98898809D01*
X167159285Y-98755952D01*
X167206904Y-98565476D01*
X167254523Y-98470238D01*
X167349761Y-98375000D01*
X167492619Y-98327380D01*
X167587857Y-98327380D01*
X167730714Y-98375000D01*
X167778333Y-98422619D01*
X168159285Y-98422619D02*
X168206904Y-98375000D01*
X168302142Y-98327380D01*
X168540238Y-98327380D01*
X168635476Y-98375000D01*
X168683095Y-98422619D01*
X168730714Y-98517857D01*
X168730714Y-98613095D01*
X168683095Y-98755952D01*
X168111666Y-99327380D01*
X168730714Y-99327380D01*
X122107380Y-87915833D02*
X122821666Y-87915833D01*
X122964523Y-87963452D01*
X123059761Y-88058690D01*
X123107380Y-88201547D01*
X123107380Y-88296785D01*
X123107380Y-86915833D02*
X123107380Y-87487261D01*
X123107380Y-87201547D02*
X122107380Y-87201547D01*
X122250238Y-87296785D01*
X122345476Y-87392023D01*
X122393095Y-87487261D01*
X160297380Y-124476904D02*
X161106904Y-124476904D01*
X161202142Y-124429285D01*
X161249761Y-124381666D01*
X161297380Y-124286428D01*
X161297380Y-124095952D01*
X161249761Y-124000714D01*
X161202142Y-123953095D01*
X161106904Y-123905476D01*
X160297380Y-123905476D01*
X160392619Y-123476904D02*
X160345000Y-123429285D01*
X160297380Y-123334047D01*
X160297380Y-123095952D01*
X160345000Y-123000714D01*
X160392619Y-122953095D01*
X160487857Y-122905476D01*
X160583095Y-122905476D01*
X160725952Y-122953095D01*
X161297380Y-123524523D01*
X161297380Y-122905476D01*
X152002380Y-88266666D02*
X151526190Y-88600000D01*
X152002380Y-88838095D02*
X151002380Y-88838095D01*
X151002380Y-88457142D01*
X151050000Y-88361904D01*
X151097619Y-88314285D01*
X151192857Y-88266666D01*
X151335714Y-88266666D01*
X151430952Y-88314285D01*
X151478571Y-88361904D01*
X151526190Y-88457142D01*
X151526190Y-88838095D01*
X152002380Y-87314285D02*
X152002380Y-87885714D01*
X152002380Y-87600000D02*
X151002380Y-87600000D01*
X151145238Y-87695238D01*
X151240476Y-87790476D01*
X151288095Y-87885714D01*
X130297380Y-124476904D02*
X131106904Y-124476904D01*
X131202142Y-124429285D01*
X131249761Y-124381666D01*
X131297380Y-124286428D01*
X131297380Y-124095952D01*
X131249761Y-124000714D01*
X131202142Y-123953095D01*
X131106904Y-123905476D01*
X130297380Y-123905476D01*
X131297380Y-122905476D02*
X131297380Y-123476904D01*
X131297380Y-123191190D02*
X130297380Y-123191190D01*
X130440238Y-123286428D01*
X130535476Y-123381666D01*
X130583095Y-123476904D01*
X100297380Y-124476904D02*
X101106904Y-124476904D01*
X101202142Y-124429285D01*
X101249761Y-124381666D01*
X101297380Y-124286428D01*
X101297380Y-124095952D01*
X101249761Y-124000714D01*
X101202142Y-123953095D01*
X101106904Y-123905476D01*
X100297380Y-123905476D01*
X100297380Y-123524523D02*
X100297380Y-122905476D01*
X100678333Y-123238809D01*
X100678333Y-123095952D01*
X100725952Y-123000714D01*
X100773571Y-122953095D01*
X100868809Y-122905476D01*
X101106904Y-122905476D01*
X101202142Y-122953095D01*
X101249761Y-123000714D01*
X101297380Y-123095952D01*
X101297380Y-123381666D01*
X101249761Y-123476904D01*
X101202142Y-123524523D01*
X190297380Y-124476904D02*
X191106904Y-124476904D01*
X191202142Y-124429285D01*
X191249761Y-124381666D01*
X191297380Y-124286428D01*
X191297380Y-124095952D01*
X191249761Y-124000714D01*
X191202142Y-123953095D01*
X191106904Y-123905476D01*
X190297380Y-123905476D01*
X190630714Y-123000714D02*
X191297380Y-123000714D01*
X190249761Y-123238809D02*
X190964047Y-123476904D01*
X190964047Y-122857857D01*
D11*
X145950000Y-85040000D02*
X145950000Y-91160000D01*
X145950000Y-91160000D02*
X142250000Y-91160000D01*
X142250000Y-91160000D02*
X142250000Y-85040000D01*
X142250000Y-85040000D02*
X145950000Y-85040000D01*
X190650000Y-91060000D02*
X190650000Y-84940000D01*
X190650000Y-84940000D02*
X194350000Y-84940000D01*
X194350000Y-84940000D02*
X194350000Y-91060000D01*
X194350000Y-91060000D02*
X190650000Y-91060000D01*
X181650000Y-91060000D02*
X181650000Y-84940000D01*
X181650000Y-84940000D02*
X185350000Y-84940000D01*
X185350000Y-84940000D02*
X185350000Y-91060000D01*
X185350000Y-91060000D02*
X181650000Y-91060000D01*
X101570000Y-112975000D02*
X104230000Y-112975000D01*
X101570000Y-105295000D02*
X101570000Y-112975000D01*
X104230000Y-105295000D02*
X104230000Y-112975000D01*
X101570000Y-105295000D02*
X104230000Y-105295000D01*
X101570000Y-104025000D02*
X101570000Y-102695000D01*
X101570000Y-102695000D02*
X102900000Y-102695000D01*
X218130000Y-96105000D02*
X216800000Y-96105000D01*
X218130000Y-94775000D02*
X218130000Y-96105000D01*
X218130000Y-93505000D02*
X215470000Y-93505000D01*
X215470000Y-93505000D02*
X215470000Y-83285000D01*
X218130000Y-93505000D02*
X218130000Y-83285000D01*
X218130000Y-83285000D02*
X215470000Y-83285000D01*
X173200462Y-85115000D02*
G75*
G03*
X171655170Y-90665000I-462J-2990000D01*
G01*
X174744830Y-90665000D02*
G75*
G03*
X173199538Y-85115000I-1544830J2560000D01*
G01*
X175700000Y-88105000D02*
G75*
G03*
X175700000Y-88105000I-2500000J0D01*
G01*
X171655000Y-90665000D02*
X174745000Y-90665000D01*
X163300462Y-85115000D02*
G75*
G03*
X161755170Y-90665000I-462J-2990000D01*
G01*
X164844830Y-90665000D02*
G75*
G03*
X163299538Y-85115000I-1544830J2560000D01*
G01*
X165800000Y-88105000D02*
G75*
G03*
X165800000Y-88105000I-2500000J0D01*
G01*
X161755000Y-90665000D02*
X164845000Y-90665000D01*
X155260000Y-91370000D02*
X154930000Y-91370000D01*
X154930000Y-91370000D02*
X154930000Y-84830000D01*
X154930000Y-84830000D02*
X155260000Y-84830000D01*
X157340000Y-91370000D02*
X157670000Y-91370000D01*
X157670000Y-91370000D02*
X157670000Y-84830000D01*
X157670000Y-84830000D02*
X157340000Y-84830000D01*
X168644333Y-105665549D02*
G75*
G03*
X168645000Y-103965000I-699333J850549D01*
G01*
X167245000Y-103965000D02*
G75*
G03*
X167245667Y-105665549I700000J-850000D01*
G01*
D10*
X157959099Y-109267425D02*
X158966726Y-110275052D01*
X152673476Y-104300000D02*
X152903286Y-104529810D01*
X157800000Y-99173476D02*
X158029810Y-99403286D01*
X162926524Y-104300000D02*
X162696714Y-104070190D01*
X157800000Y-109426524D02*
X157570190Y-109196714D01*
X162926524Y-104300000D02*
X162696714Y-104529810D01*
X157800000Y-99173476D02*
X157570190Y-99403286D01*
X152673476Y-104300000D02*
X152903286Y-104070190D01*
X157800000Y-109426524D02*
X157959099Y-109267425D01*
D11*
X117745000Y-86115000D02*
G75*
G03*
X117061682Y-86260244I0J-1680000D01*
G01*
X116209999Y-87111000D02*
G75*
G03*
X116209573Y-88478042I1535001J-684000D01*
G01*
X117061000Y-89330001D02*
G75*
G03*
X118428042Y-89330427I684000J1535001D01*
G01*
X119280001Y-88479000D02*
G75*
G03*
X119280427Y-87111958I-1535001J684000D01*
G01*
X118429000Y-86260000D02*
G75*
G03*
X117716195Y-86114747I-684000J-1535000D01*
G01*
X114345000Y-87795000D02*
G75*
G03*
X114345000Y-87795000I-1680000J0D01*
G01*
X120345000Y-83695000D02*
X110065000Y-83695000D01*
X120345000Y-85195000D02*
X110065000Y-85195000D01*
X120345000Y-90096000D02*
X110065000Y-90096000D01*
X120345000Y-93056000D02*
X110065000Y-93056000D01*
X120345000Y-83135000D02*
X110065000Y-83135000D01*
X120345000Y-93056000D02*
X120345000Y-83135000D01*
X110065000Y-93056000D02*
X110065000Y-83135000D01*
X111390000Y-88864000D02*
X111437000Y-88818000D01*
X113699000Y-86556000D02*
X113734000Y-86521000D01*
X111595000Y-89070000D02*
X111630000Y-89034000D01*
X113892000Y-86772000D02*
X113939000Y-86726000D01*
X120585000Y-83635000D02*
X120585000Y-82895000D01*
X120585000Y-82895000D02*
X120085000Y-82895000D01*
X151665000Y-91370000D02*
X151335000Y-91370000D01*
X151335000Y-91370000D02*
X151335000Y-84830000D01*
X151335000Y-84830000D02*
X151665000Y-84830000D01*
X153745000Y-91370000D02*
X154075000Y-91370000D01*
X154075000Y-91370000D02*
X154075000Y-84830000D01*
X154075000Y-84830000D02*
X153745000Y-84830000D01*
D10*
X208971067Y-105135000D02*
G75*
G03*
X208971067Y-105135000I-3535534J0D01*
G01*
X185671067Y-105135000D02*
G75*
G03*
X185671067Y-105135000I-3535534J0D01*
G01*
X119211067Y-105100000D02*
G75*
G03*
X119211067Y-105100000I-3535534J0D01*
G01*
X142491067Y-105100000D02*
G75*
G03*
X142491067Y-105100000I-3535534J0D01*
G01*
D11*
X165925000Y-106990000D02*
X169965000Y-106990000D01*
X165925000Y-109830000D02*
X169965000Y-109830000D01*
X165925000Y-106990000D02*
X165925000Y-107615000D01*
X165925000Y-109205000D02*
X165925000Y-109830000D01*
X169965000Y-106990000D02*
X169965000Y-107615000D01*
X169965000Y-109205000D02*
X169965000Y-109830000D01*
X165925000Y-100005000D02*
X169965000Y-100005000D01*
X165925000Y-102845000D02*
X169965000Y-102845000D01*
X165925000Y-100005000D02*
X165925000Y-100630000D01*
X165925000Y-102220000D02*
X165925000Y-102845000D01*
X169965000Y-100005000D02*
X169965000Y-100630000D01*
X169965000Y-102220000D02*
X169965000Y-102845000D01*
X123545000Y-92142500D02*
X123545000Y-83022500D01*
X123545000Y-83022500D02*
X139045000Y-83022500D01*
X139045000Y-83022500D02*
X139045000Y-92142500D01*
X139045000Y-92142500D02*
X123545000Y-92142500D01*
X129245000Y-92142500D02*
X129245000Y-90832500D01*
X129245000Y-90832500D02*
X124845000Y-90832500D01*
X124845000Y-90832500D02*
X124845000Y-84332500D01*
X124845000Y-84332500D02*
X137745000Y-84332500D01*
X137745000Y-84332500D02*
X137745000Y-90832500D01*
X137745000Y-90832500D02*
X133345000Y-90832500D01*
X133345000Y-90832500D02*
X133345000Y-90832500D01*
X133345000Y-90832500D02*
X133345000Y-92142500D01*
X128755000Y-92532500D02*
X128255000Y-93532500D01*
X128255000Y-93532500D02*
X129255000Y-93532500D01*
X129255000Y-93532500D02*
X128755000Y-92532500D01*
X161845000Y-124715000D02*
G75*
G03*
X161845000Y-122715000I0J1000000D01*
G01*
X161845000Y-124715000D02*
X161845000Y-125965000D01*
X161845000Y-125965000D02*
X187365000Y-125965000D01*
X187365000Y-125965000D02*
X187365000Y-121465000D01*
X187365000Y-121465000D02*
X161845000Y-121465000D01*
X161845000Y-121465000D02*
X161845000Y-122715000D01*
X147810000Y-91370000D02*
X148140000Y-91370000D01*
X147810000Y-84830000D02*
X147810000Y-91370000D01*
X148140000Y-84830000D02*
X147810000Y-84830000D01*
X150550000Y-91370000D02*
X150220000Y-91370000D01*
X150550000Y-84830000D02*
X150550000Y-91370000D01*
X150220000Y-84830000D02*
X150550000Y-84830000D01*
X157365000Y-125965000D02*
X157365000Y-121465000D01*
X157365000Y-121465000D02*
X131845000Y-121465000D01*
X131845000Y-121465000D02*
X131845000Y-122715000D01*
X131845000Y-125965000D02*
X157365000Y-125965000D01*
X131845000Y-124715000D02*
X131845000Y-125965000D01*
X131845000Y-124715000D02*
G75*
G03*
X131845000Y-122715000I0J1000000D01*
G01*
X127365000Y-125965000D02*
X127365000Y-121465000D01*
X101845000Y-121465000D02*
X101845000Y-122715000D01*
X101845000Y-124715000D02*
X101845000Y-125965000D01*
X101845000Y-125965000D02*
X127365000Y-125965000D01*
X127365000Y-121465000D02*
X101845000Y-121465000D01*
X101845000Y-124715000D02*
G75*
G03*
X101845000Y-122715000I0J1000000D01*
G01*
X217365000Y-125965000D02*
X217365000Y-121465000D01*
X191845000Y-121465000D02*
X191845000Y-122715000D01*
X191845000Y-124715000D02*
X191845000Y-125965000D01*
X191845000Y-125965000D02*
X217365000Y-125965000D01*
X217365000Y-121465000D02*
X191845000Y-121465000D01*
X191845000Y-124715000D02*
G75*
G03*
X191845000Y-122715000I0J1000000D01*
G01*
M02*
