G04 #@! TF.GenerationSoftware,KiCad,Pcbnew,6.0.4-6f826c9f35~116~ubuntu20.04.1*
G04 #@! TF.CreationDate,2022-04-08T21:02:54+02:00*
G04 #@! TF.ProjectId,numitron clock-rotated-numitrons,6e756d69-7472-46f6-9e20-636c6f636b2d,rev?*
G04 #@! TF.SameCoordinates,Original*
G04 #@! TF.FileFunction,Copper,L2,Bot*
G04 #@! TF.FilePolarity,Positive*
%FSLAX46Y46*%
G04 Gerber Fmt 4.6, Leading zero omitted, Abs format (unit mm)*
G04 Created by KiCad (PCBNEW 6.0.4-6f826c9f35~116~ubuntu20.04.1) date 2022-04-08 21:02:54*
%MOMM*%
%LPD*%
G01*
G04 APERTURE LIST*
G04 Aperture macros list*
%AMRoundRect*
0 Rectangle with rounded corners*
0 $1 Rounding radius*
0 $2 $3 $4 $5 $6 $7 $8 $9 X,Y pos of 4 corners*
0 Add a 4 corners polygon primitive as box body*
4,1,4,$2,$3,$4,$5,$6,$7,$8,$9,$2,$3,0*
0 Add four circle primitives for the rounded corners*
1,1,$1+$1,$2,$3*
1,1,$1+$1,$4,$5*
1,1,$1+$1,$6,$7*
1,1,$1+$1,$8,$9*
0 Add four rect primitives between the rounded corners*
20,1,$1+$1,$2,$3,$4,$5,0*
20,1,$1+$1,$4,$5,$6,$7,0*
20,1,$1+$1,$6,$7,$8,$9,0*
20,1,$1+$1,$8,$9,$2,$3,0*%
G04 Aperture macros list end*
G04 #@! TA.AperFunction,ComponentPad*
%ADD10R,1.600000X2.400000*%
G04 #@! TD*
G04 #@! TA.AperFunction,ComponentPad*
%ADD11O,1.600000X2.400000*%
G04 #@! TD*
G04 #@! TA.AperFunction,ComponentPad*
%ADD12R,1.524000X1.524000*%
G04 #@! TD*
G04 #@! TA.AperFunction,ComponentPad*
%ADD13C,1.524000*%
G04 #@! TD*
G04 #@! TA.AperFunction,ComponentPad*
%ADD14RoundRect,0.250000X0.600000X-0.600000X0.600000X0.600000X-0.600000X0.600000X-0.600000X-0.600000X0*%
G04 #@! TD*
G04 #@! TA.AperFunction,ComponentPad*
%ADD15C,1.700000*%
G04 #@! TD*
G04 #@! TA.AperFunction,ComponentPad*
%ADD16C,1.600000*%
G04 #@! TD*
G04 #@! TA.AperFunction,ComponentPad*
%ADD17O,1.600000X1.600000*%
G04 #@! TD*
G04 #@! TA.AperFunction,ComponentPad*
%ADD18R,1.700000X1.700000*%
G04 #@! TD*
G04 #@! TA.AperFunction,ComponentPad*
%ADD19O,1.700000X1.700000*%
G04 #@! TD*
G04 #@! TA.AperFunction,ComponentPad*
%ADD20C,1.000000*%
G04 #@! TD*
G04 #@! TA.AperFunction,ComponentPad*
%ADD21R,2.600000X2.600000*%
G04 #@! TD*
G04 #@! TA.AperFunction,ComponentPad*
%ADD22C,2.600000*%
G04 #@! TD*
G04 #@! TA.AperFunction,ComponentPad*
%ADD23R,1.800000X1.800000*%
G04 #@! TD*
G04 #@! TA.AperFunction,ComponentPad*
%ADD24C,1.800000*%
G04 #@! TD*
G04 #@! TA.AperFunction,ViaPad*
%ADD25C,0.800000*%
G04 #@! TD*
G04 #@! TA.AperFunction,ViaPad*
%ADD26C,0.400000*%
G04 #@! TD*
G04 #@! TA.AperFunction,Conductor*
%ADD27C,0.200000*%
G04 #@! TD*
G04 APERTURE END LIST*
D10*
X133175000Y-127525000D03*
D11*
X135715000Y-127525000D03*
X138255000Y-127525000D03*
X140795000Y-127525000D03*
X143335000Y-127525000D03*
X145875000Y-127525000D03*
X148415000Y-127525000D03*
X150955000Y-127525000D03*
X153495000Y-127525000D03*
X156035000Y-127525000D03*
X156035000Y-119905000D03*
X153495000Y-119905000D03*
X150955000Y-119905000D03*
X148415000Y-119905000D03*
X145875000Y-119905000D03*
X143335000Y-119905000D03*
X140795000Y-119905000D03*
X138255000Y-119905000D03*
X135715000Y-119905000D03*
X133175000Y-119905000D03*
D10*
X103175000Y-127525000D03*
D11*
X105715000Y-127525000D03*
X108255000Y-127525000D03*
X110795000Y-127525000D03*
X113335000Y-127525000D03*
X115875000Y-127525000D03*
X118415000Y-127525000D03*
X120955000Y-127525000D03*
X123495000Y-127525000D03*
X126035000Y-127525000D03*
X126035000Y-119905000D03*
X123495000Y-119905000D03*
X120955000Y-119905000D03*
X118415000Y-119905000D03*
X115875000Y-119905000D03*
X113335000Y-119905000D03*
X110795000Y-119905000D03*
X108255000Y-119905000D03*
X105715000Y-119905000D03*
X103175000Y-119905000D03*
D10*
X193175000Y-127525000D03*
D11*
X195715000Y-127525000D03*
X198255000Y-127525000D03*
X200795000Y-127525000D03*
X203335000Y-127525000D03*
X205875000Y-127525000D03*
X208415000Y-127525000D03*
X210955000Y-127525000D03*
X213495000Y-127525000D03*
X216035000Y-127525000D03*
X216035000Y-119905000D03*
X213495000Y-119905000D03*
X210955000Y-119905000D03*
X208415000Y-119905000D03*
X205875000Y-119905000D03*
X203335000Y-119905000D03*
X200795000Y-119905000D03*
X198255000Y-119905000D03*
X195715000Y-119905000D03*
X193175000Y-119905000D03*
D12*
X204560000Y-108835000D03*
D13*
X206620000Y-108175000D03*
X207890000Y-106425000D03*
X207870000Y-104285000D03*
X206640000Y-102475000D03*
X204560000Y-101835000D03*
X202500000Y-102505000D03*
X201230000Y-104255000D03*
X201230000Y-106415000D03*
D12*
X181260000Y-108835000D03*
D13*
X183320000Y-108175000D03*
X184590000Y-106425000D03*
X184570000Y-104285000D03*
X183340000Y-102475000D03*
X181260000Y-101835000D03*
X179200000Y-102505000D03*
X177930000Y-104255000D03*
X177930000Y-106415000D03*
D10*
X163175000Y-127525000D03*
D11*
X165715000Y-127525000D03*
X168255000Y-127525000D03*
X170795000Y-127525000D03*
X173335000Y-127525000D03*
X175875000Y-127525000D03*
X178415000Y-127525000D03*
X180955000Y-127525000D03*
X183495000Y-127525000D03*
X186035000Y-127525000D03*
X186035000Y-119905000D03*
X183495000Y-119905000D03*
X180955000Y-119905000D03*
X178415000Y-119905000D03*
X175875000Y-119905000D03*
X173335000Y-119905000D03*
X170795000Y-119905000D03*
X168255000Y-119905000D03*
X165715000Y-119905000D03*
X163175000Y-119905000D03*
D14*
X128755000Y-88852500D03*
D15*
X128755000Y-86312500D03*
X131295000Y-88852500D03*
X131295000Y-86312500D03*
X133835000Y-88852500D03*
X133835000Y-86312500D03*
D16*
X152705000Y-91910000D03*
D17*
X152705000Y-84290000D03*
D12*
X114800000Y-108800000D03*
D13*
X116860000Y-108140000D03*
X118130000Y-106390000D03*
X118110000Y-104250000D03*
X116880000Y-102440000D03*
X114800000Y-101800000D03*
X112740000Y-102470000D03*
X111470000Y-104220000D03*
X111470000Y-106380000D03*
D16*
X166695000Y-108410000D03*
X169195000Y-108410000D03*
X149180000Y-84290000D03*
D17*
X149180000Y-91910000D03*
D12*
X138080000Y-108800000D03*
D13*
X140140000Y-108140000D03*
X141410000Y-106390000D03*
X141390000Y-104250000D03*
X140160000Y-102440000D03*
X138080000Y-101800000D03*
X136020000Y-102470000D03*
X134750000Y-104220000D03*
X134750000Y-106380000D03*
D16*
X156300000Y-91910000D03*
D17*
X156300000Y-84290000D03*
D18*
X102900000Y-104025000D03*
D19*
X102900000Y-106565000D03*
X102900000Y-109105000D03*
X102900000Y-111645000D03*
D18*
X216800000Y-94775000D03*
D19*
X216800000Y-92235000D03*
X216800000Y-89695000D03*
X216800000Y-87155000D03*
X216800000Y-84615000D03*
D20*
X167945000Y-103965000D03*
X167945000Y-105665000D03*
D21*
X117745000Y-87795000D03*
D22*
X112665000Y-87795000D03*
D23*
X163300000Y-89375000D03*
D24*
X163300000Y-86835000D03*
D23*
X173200000Y-89375000D03*
D24*
X173200000Y-86835000D03*
D16*
X166695000Y-101425000D03*
X169195000Y-101425000D03*
D25*
X154096000Y-108623000D03*
X151401000Y-105856000D03*
X195265000Y-112340000D03*
X159561000Y-104194000D03*
X158484000Y-110182000D03*
X157171000Y-111222000D03*
X154708000Y-103701000D03*
X154930000Y-110019000D03*
X152243000Y-103947000D03*
D26*
X151900000Y-110700000D03*
X151900000Y-109500000D03*
X212200000Y-124119800D03*
X209700000Y-109500000D03*
X208100000Y-111100000D03*
D25*
X158332000Y-106424000D03*
X157517000Y-108023000D03*
X162010000Y-100520000D03*
X154056000Y-104554000D03*
D26*
X118600000Y-114800000D03*
X120700000Y-114800000D03*
X112865000Y-104306200D03*
D27*
X134445000Y-119099100D02*
X134445000Y-124794700D01*
X105715000Y-127525000D02*
X105715000Y-126064700D01*
X104445000Y-124794700D02*
X105715000Y-126064700D01*
X115857600Y-100739800D02*
X112873100Y-100739800D01*
X134445000Y-124794700D02*
X135715000Y-126064700D01*
X204560000Y-108835000D02*
X204560000Y-106040000D01*
X216800000Y-84615000D02*
X216800000Y-85725300D01*
X112873100Y-100739800D02*
X103078200Y-110534700D01*
X204560000Y-106040000D02*
X208000000Y-102600000D01*
X181920100Y-107152600D02*
X183807500Y-107152600D01*
X135715000Y-127525000D02*
X135715000Y-126064700D01*
X181260000Y-107812700D02*
X181920100Y-107152600D01*
X206031880Y-100340480D02*
X207598200Y-101906800D01*
X185384500Y-108729600D02*
X194587900Y-108729600D01*
X115857600Y-103462200D02*
X115857900Y-103462500D01*
X206575800Y-100884400D02*
X216495200Y-90965000D01*
X117745000Y-89355300D02*
X115857600Y-91242700D01*
X208000000Y-102600000D02*
X208000000Y-102308700D01*
X117683100Y-103156900D02*
X118502800Y-103156900D01*
X130777500Y-84290000D02*
X149180000Y-84290000D01*
X103078200Y-110534700D02*
X102900000Y-110534700D01*
X102900000Y-111645000D02*
X102900000Y-110534700D01*
X102900000Y-112755300D02*
X104445000Y-114300300D01*
X206031880Y-100340480D02*
X202690420Y-100340480D01*
X115857600Y-91242700D02*
X115857600Y-100739800D01*
X194587900Y-108729600D02*
X194587900Y-108887900D01*
X217951200Y-86598900D02*
X217077600Y-85725300D01*
X216495200Y-90965000D02*
X217121800Y-90965000D01*
X202690420Y-100340480D02*
X194587900Y-108443000D01*
X194587900Y-108443000D02*
X194587900Y-108887900D01*
X165715000Y-128985300D02*
X166145500Y-129415800D01*
X208000000Y-102308700D02*
X207598200Y-101906900D01*
X195284500Y-129415800D02*
X195715000Y-128985300D01*
X117745000Y-87795000D02*
X117745000Y-89355300D01*
X115857900Y-103462500D02*
X117377500Y-103462500D01*
X217077600Y-85725300D02*
X216800000Y-85725300D01*
X104445000Y-114300300D02*
X104445000Y-124794700D01*
X117377500Y-103462500D02*
X117683100Y-103156900D01*
X115857900Y-103462500D02*
X114800000Y-104520400D01*
X181260000Y-108835000D02*
X181260000Y-107812700D01*
X183807500Y-107152600D02*
X185384500Y-108729600D01*
X217121800Y-90965000D02*
X217951200Y-90135600D01*
X118502800Y-103156900D02*
X134445000Y-119099100D01*
X165715000Y-127525000D02*
X165715000Y-128985300D01*
X114800000Y-104520400D02*
X114800000Y-108800000D01*
X207598200Y-101906800D02*
X207598200Y-101906900D01*
X217951200Y-90135600D02*
X217951200Y-86598900D01*
X194587900Y-108887900D02*
X194587900Y-124937600D01*
X194587900Y-124937600D02*
X195715000Y-126064700D01*
X166145500Y-129415800D02*
X195284500Y-129415800D01*
X128755000Y-86312500D02*
X130777500Y-84290000D01*
X115857600Y-100739800D02*
X115857600Y-103462200D01*
X102900000Y-111645000D02*
X102900000Y-112755300D01*
X195715000Y-127525000D02*
X195715000Y-126064700D01*
X195715000Y-127525000D02*
X195715000Y-128985300D01*
X153003000Y-107530000D02*
X154096000Y-108623000D01*
X149180000Y-91910000D02*
X149180000Y-93210000D01*
X153003000Y-97032900D02*
X153003000Y-107530000D01*
X149180000Y-93210000D02*
X153003000Y-97032900D01*
X135800000Y-100600000D02*
X138428200Y-100600000D01*
X140795000Y-127525000D02*
X140795000Y-126064700D01*
X132742500Y-114942500D02*
X131600000Y-113800000D01*
X132759800Y-114942500D02*
X132742500Y-114942500D01*
X140795000Y-126064700D02*
X136985000Y-122254700D01*
X136985000Y-122254700D02*
X136985000Y-119167700D01*
X140160000Y-102331800D02*
X140160000Y-102440000D01*
X131600000Y-104800000D02*
X135800000Y-100600000D01*
X136985000Y-119167700D02*
X132759800Y-114942500D01*
X131600000Y-113800000D02*
X131600000Y-104800000D01*
X138428200Y-100600000D02*
X140160000Y-102331800D01*
X143335000Y-126064700D02*
X143335000Y-127525000D01*
X144446100Y-118246100D02*
X144446100Y-124953600D01*
X133500000Y-105700000D02*
X133500000Y-107300000D01*
X140340000Y-105300000D02*
X133900000Y-105300000D01*
X144446100Y-124953600D02*
X143335000Y-126064700D01*
X133900000Y-105300000D02*
X133500000Y-105700000D01*
X141390000Y-104250000D02*
X140340000Y-105300000D01*
X133500000Y-107300000D02*
X144446100Y-118246100D01*
X146661300Y-117938700D02*
X139102400Y-110379800D01*
X140399300Y-106390000D02*
X141410000Y-106390000D01*
X146811300Y-118088700D02*
X146661300Y-117938700D01*
X139102400Y-110379800D02*
X139102400Y-107686900D01*
X146940480Y-124999220D02*
X146940480Y-118217880D01*
X145875000Y-127525000D02*
X145875000Y-126064700D01*
X139102400Y-107686900D02*
X140399300Y-106390000D01*
X146934520Y-118211920D02*
X146811300Y-118088700D01*
X145875000Y-126064700D02*
X146940480Y-124999220D01*
X146940480Y-118217880D02*
X146661300Y-117938700D01*
X148415000Y-127525000D02*
X148415000Y-126064700D01*
X147710807Y-118710807D02*
X147355480Y-119066133D01*
X147300000Y-119121614D02*
X147710807Y-118710807D01*
X147900000Y-118521613D02*
X147710807Y-118710807D01*
X147300000Y-124949700D02*
X147300000Y-119121614D01*
X148415000Y-126064700D02*
X147300000Y-124949700D01*
X147900000Y-115900000D02*
X147900000Y-118521613D01*
X140140000Y-108140000D02*
X147900000Y-115900000D01*
X141850500Y-103189200D02*
X140910800Y-103189200D01*
X138080000Y-102080000D02*
X138080000Y-101800000D01*
X139700000Y-103700000D02*
X138080000Y-102080000D01*
X148415000Y-109753700D02*
X141850500Y-103189200D01*
X140910800Y-103189200D02*
X140400000Y-103700000D01*
X140400000Y-103700000D02*
X139700000Y-103700000D01*
X148415000Y-119905000D02*
X148415000Y-109753700D01*
X134750000Y-106380000D02*
X134750000Y-107650000D01*
X134750000Y-107650000D02*
X145875000Y-118775000D01*
X145875000Y-118775000D02*
X145875000Y-119905000D01*
X134180000Y-104220000D02*
X134750000Y-104220000D01*
X133512300Y-108612300D02*
X132900000Y-108000000D01*
X143335000Y-119905000D02*
X143335000Y-118444700D01*
X132900000Y-105500000D02*
X134180000Y-104220000D01*
X133512300Y-108622000D02*
X133512300Y-108612300D01*
X132900000Y-108000000D02*
X132900000Y-105500000D01*
X133512300Y-108622000D02*
X143335000Y-118444700D01*
X150955000Y-119905000D02*
X150955000Y-106302000D01*
X150955000Y-106302000D02*
X151401000Y-105856000D01*
X216035000Y-118205000D02*
X216800000Y-117440000D01*
X102900000Y-102675000D02*
X102900000Y-104025000D01*
X166695000Y-108410000D02*
X166695000Y-101425000D01*
X166695000Y-101425000D02*
X166695000Y-94170000D01*
X216800000Y-117440000D02*
X216800000Y-94775000D01*
X163300000Y-89375000D02*
X163300000Y-90775000D01*
X171800000Y-89375000D02*
X173200000Y-89375000D01*
X163175000Y-119905000D02*
X163175000Y-127525000D01*
X216035000Y-119905000D02*
X216035000Y-118205000D01*
X167005000Y-94170000D02*
X171800000Y-89375000D01*
X133175000Y-127525000D02*
X133175000Y-119905000D01*
X166695000Y-94170000D02*
X167005000Y-94170000D01*
X103175000Y-127525000D02*
X103175000Y-119905000D01*
X112665000Y-87795000D02*
X112665000Y-92910000D01*
X163300000Y-90775000D02*
X166695000Y-94170000D01*
X216035000Y-119905000D02*
X216035000Y-127525000D01*
X112665000Y-92910000D02*
X102900000Y-102675000D01*
X193175000Y-127525000D02*
X193175000Y-119905000D01*
X169195000Y-102715000D02*
X167945000Y-103965000D01*
X169195000Y-101425000D02*
X169195000Y-102715000D01*
X169195000Y-106915000D02*
X167945000Y-105665000D01*
X169195000Y-108410000D02*
X169195000Y-106915000D01*
X196985000Y-114060000D02*
X195265000Y-112340000D01*
X198255000Y-127525000D02*
X198255000Y-125825000D01*
X196985000Y-124555000D02*
X196985000Y-114060000D01*
X198255000Y-125825000D02*
X196985000Y-124555000D01*
X156276000Y-107479000D02*
X159561000Y-104194000D01*
X156276000Y-111127000D02*
X156276000Y-107479000D01*
X123769000Y-129499000D02*
X153508000Y-129499000D01*
X123495000Y-127525000D02*
X123495000Y-129225000D01*
X154765000Y-112638000D02*
X156276000Y-111127000D01*
X123495000Y-129225000D02*
X123769000Y-129499000D01*
X154765000Y-128242000D02*
X154765000Y-112638000D01*
X153508000Y-129499000D02*
X154765000Y-128242000D01*
X166985000Y-122490000D02*
X166985000Y-118683000D01*
X166985000Y-118683000D02*
X158484000Y-110182000D01*
X183495000Y-127525000D02*
X181971000Y-129049000D01*
X181971000Y-129049000D02*
X170361000Y-129049000D01*
X170361000Y-129049000D02*
X169695000Y-128382000D01*
X169695000Y-125200000D02*
X166985000Y-122490000D01*
X169695000Y-128382000D02*
X169695000Y-125200000D01*
X168255000Y-127525000D02*
X168255000Y-125825000D01*
X168255000Y-125825000D02*
X164445000Y-122015000D01*
X164445000Y-122015000D02*
X164445000Y-118496000D01*
X164445000Y-118496000D02*
X157171000Y-111222000D01*
X155644000Y-104636000D02*
X154708000Y-103701000D01*
X153495000Y-119905000D02*
X153495000Y-112443000D01*
X155644000Y-110294000D02*
X155644000Y-104636000D01*
X153495000Y-112443000D02*
X155644000Y-110294000D01*
X153495000Y-125825000D02*
X152348000Y-124678000D01*
X152348000Y-124678000D02*
X152348000Y-112600000D01*
X153495000Y-127525000D02*
X153495000Y-125825000D01*
X152348000Y-112600000D02*
X154930000Y-110019000D01*
X149819000Y-106371000D02*
X152243000Y-103947000D01*
X150955000Y-127525000D02*
X150955000Y-124295000D01*
X149819000Y-123159000D02*
X149819000Y-106371000D01*
X150955000Y-124295000D02*
X149819000Y-123159000D01*
X151900000Y-110700000D02*
X151900000Y-109500000D01*
X200795000Y-126064700D02*
X199683800Y-124953500D01*
X206640000Y-102388600D02*
X206640000Y-102475000D01*
X200795000Y-127525000D02*
X200795000Y-126064700D01*
X202312700Y-101226638D02*
X202839338Y-100700000D01*
X202312700Y-101227800D02*
X202312700Y-101226638D01*
X199683800Y-103856700D02*
X202312700Y-101227800D01*
X199683800Y-124953500D02*
X199683800Y-103856700D01*
X204951400Y-100700000D02*
X206640000Y-102388600D01*
X202839338Y-100700000D02*
X204951400Y-100700000D01*
X207870000Y-104285000D02*
X212200000Y-108615000D01*
X212200000Y-108615000D02*
X212200000Y-124119800D01*
X208100000Y-117400000D02*
X209487600Y-118787600D01*
X209487600Y-118787600D02*
X209487600Y-120740800D01*
X207890000Y-106425000D02*
X209700000Y-108235000D01*
X205875000Y-124353400D02*
X205875000Y-127525000D01*
X209487600Y-120740800D02*
X205875000Y-124353400D01*
X208100000Y-111100000D02*
X208100000Y-117400000D01*
X209700000Y-108235000D02*
X209700000Y-109500000D01*
X209848000Y-120890200D02*
X209848000Y-111403000D01*
X209848000Y-111403000D02*
X206620000Y-108175000D01*
X208415000Y-122323200D02*
X209848000Y-120890200D01*
X208415000Y-127525000D02*
X208415000Y-122323200D01*
X203537600Y-102857400D02*
X203537600Y-113567300D01*
X204560000Y-101835000D02*
X203537600Y-102857400D01*
X208415000Y-119905000D02*
X208415000Y-118444700D01*
X203537600Y-113567300D02*
X208415000Y-118444700D01*
X205875000Y-119905000D02*
X205875000Y-118444700D01*
X202500000Y-102505000D02*
X203028100Y-103033100D01*
X203028100Y-103033100D02*
X203028100Y-115597800D01*
X203028100Y-115597800D02*
X205875000Y-118444700D01*
X202518100Y-117627800D02*
X203335000Y-118444700D01*
X203335000Y-119905000D02*
X203335000Y-118444700D01*
X201230000Y-104255000D02*
X202518100Y-105543100D01*
X202518100Y-105543100D02*
X202518100Y-117627800D01*
X200795000Y-119905000D02*
X200795000Y-118444700D01*
X201230000Y-118009700D02*
X200795000Y-118444700D01*
X201230000Y-106415000D02*
X201230000Y-118009700D01*
X136020000Y-102470000D02*
X135005700Y-102470000D01*
X135005700Y-102470000D02*
X132300000Y-105175700D01*
X140795000Y-118395000D02*
X140795000Y-119905000D01*
X132300000Y-109900000D02*
X140795000Y-118395000D01*
X132300000Y-105175700D02*
X132300000Y-109900000D01*
X169691000Y-109523000D02*
X161431000Y-109523000D01*
X161431000Y-109523000D02*
X158332000Y-106424000D01*
X216800000Y-87155000D02*
X192059000Y-87155000D01*
X192059000Y-87155000D02*
X169691000Y-109523000D01*
X157517000Y-108023000D02*
X159438000Y-109944000D01*
X169856000Y-109944000D02*
X190105000Y-89695000D01*
X190105000Y-89695000D02*
X216800000Y-89695000D01*
X159438000Y-109944000D02*
X169856000Y-109944000D01*
X162010000Y-94960300D02*
X162010000Y-100520000D01*
X152705000Y-91910000D02*
X153850000Y-90765400D01*
X157815000Y-90765400D02*
X162010000Y-94960300D01*
X153850000Y-90765400D02*
X157815000Y-90765400D01*
X153993000Y-104491000D02*
X153993000Y-94216700D01*
X153993000Y-94216700D02*
X156300000Y-91910000D01*
X154056000Y-104554000D02*
X153993000Y-104491000D01*
X160755000Y-84290000D02*
X163300000Y-86835000D01*
X156300000Y-84290000D02*
X160755000Y-84290000D01*
X118415000Y-126064700D02*
X119847800Y-124631900D01*
X119847800Y-124631900D02*
X119847800Y-111127800D01*
X118415000Y-127525000D02*
X118415000Y-126064700D01*
X119847800Y-111127800D02*
X116860000Y-108140000D01*
X118130000Y-106390000D02*
X118290000Y-106390000D01*
X118290000Y-106390000D02*
X120700000Y-108800000D01*
X118500000Y-114800000D02*
X118500000Y-117829800D01*
X118500000Y-117829800D02*
X118685100Y-118014900D01*
X119474520Y-118804320D02*
X118685100Y-118014900D01*
X120700000Y-108800000D02*
X120700000Y-114800000D01*
X115875000Y-126064700D02*
X119474520Y-122465180D01*
X118600000Y-114800000D02*
X118500000Y-114800000D01*
X115875000Y-127525000D02*
X115875000Y-126064700D01*
X119474520Y-122465180D02*
X119474520Y-118804320D01*
X118877100Y-128985300D02*
X113335000Y-128985300D01*
X122041100Y-108181100D02*
X122041100Y-124278700D01*
X119685000Y-128177400D02*
X118877100Y-128985300D01*
X113335000Y-127525000D02*
X113335000Y-128985300D01*
X118110000Y-104250000D02*
X122041100Y-108181100D01*
X119685000Y-126634800D02*
X119685000Y-128177400D01*
X122041100Y-124278700D02*
X119685000Y-126634800D01*
X110795000Y-126064700D02*
X114454500Y-122405200D01*
X112974800Y-117232200D02*
X112974800Y-104416000D01*
X110795000Y-127525000D02*
X110795000Y-126064700D01*
X114454500Y-122405200D02*
X114454500Y-118711900D01*
X114454500Y-118711900D02*
X112974800Y-117232200D01*
X112974800Y-104416000D02*
X112865000Y-104306200D01*
X113777600Y-113807300D02*
X113777600Y-102822400D01*
X118415000Y-119905000D02*
X118415000Y-118444700D01*
X113777600Y-102822400D02*
X114800000Y-101800000D01*
X118415000Y-118444700D02*
X113777600Y-113807300D01*
X115875000Y-119905000D02*
X115875000Y-118444700D01*
X113335100Y-115904800D02*
X115875000Y-118444700D01*
X112740000Y-102470000D02*
X113335100Y-103065100D01*
X113335100Y-103065100D02*
X113335100Y-115904800D01*
X113335000Y-119905000D02*
X113335000Y-118444700D01*
X112614500Y-105364500D02*
X112614500Y-117724200D01*
X112614500Y-117724200D02*
X113335000Y-118444700D01*
X111470000Y-104220000D02*
X112614500Y-105364500D01*
X111470000Y-106380000D02*
X111470000Y-117769700D01*
X110795000Y-119905000D02*
X110795000Y-118444700D01*
X111470000Y-117769700D02*
X110795000Y-118444700D01*
X178415000Y-126064700D02*
X182427000Y-122052700D01*
X182427000Y-109068000D02*
X183320000Y-108175000D01*
X182427000Y-122052700D02*
X182427000Y-109068000D01*
X178415000Y-127525000D02*
X178415000Y-126064700D01*
X180237600Y-107924600D02*
X180237600Y-111317300D01*
X175875000Y-127025000D02*
X175875000Y-127525000D01*
X180237600Y-111317300D02*
X182067480Y-113147180D01*
X181737200Y-106425000D02*
X180237600Y-107924600D01*
X182067480Y-120832520D02*
X175875000Y-127025000D01*
X184590000Y-106425000D02*
X181737200Y-106425000D01*
X182067480Y-113147180D02*
X182067480Y-120832520D01*
X179865900Y-107786600D02*
X179865900Y-120994100D01*
X184570000Y-104285000D02*
X183367500Y-104285000D01*
X179865900Y-120994100D02*
X173335000Y-127525000D01*
X183367500Y-104285000D02*
X179865900Y-107786600D01*
X183340000Y-102475000D02*
X183340000Y-103803000D01*
X179505400Y-107637600D02*
X179505400Y-120715700D01*
X183340000Y-103803000D02*
X179505400Y-107637600D01*
X179505400Y-120715700D02*
X174156400Y-126064700D01*
X170795000Y-127525000D02*
X170795000Y-126064700D01*
X174156400Y-126064700D02*
X170795000Y-126064700D01*
X178415000Y-118444700D02*
X178952400Y-117907300D01*
X178952400Y-106725300D02*
X181260000Y-104417700D01*
X178415000Y-119905000D02*
X178415000Y-118444700D01*
X178952400Y-117907300D02*
X178952400Y-106725300D01*
X181260000Y-104417700D02*
X181260000Y-101835000D01*
X177803438Y-102505000D02*
X179200000Y-102505000D01*
X170795000Y-109513438D02*
X177803438Y-102505000D01*
X170795000Y-119905000D02*
X170795000Y-109513438D01*
X173335000Y-119905000D02*
X173335000Y-108850000D01*
X173335000Y-108850000D02*
X177930000Y-104255000D01*
X175875000Y-118444700D02*
X177930000Y-116389700D01*
X175875000Y-119905000D02*
X175875000Y-118444700D01*
X177930000Y-116389700D02*
X177930000Y-106415000D01*
M02*
