G04 #@! TF.GenerationSoftware,KiCad,Pcbnew,6.0.4-6f826c9f35~116~ubuntu20.04.1*
G04 #@! TF.CreationDate,2022-04-08T21:02:54+02:00*
G04 #@! TF.ProjectId,numitron clock-rotated-numitrons,6e756d69-7472-46f6-9e20-636c6f636b2d,rev?*
G04 #@! TF.SameCoordinates,Original*
G04 #@! TF.FileFunction,Copper,L1,Top*
G04 #@! TF.FilePolarity,Positive*
%FSLAX46Y46*%
G04 Gerber Fmt 4.6, Leading zero omitted, Abs format (unit mm)*
G04 Created by KiCad (PCBNEW 6.0.4-6f826c9f35~116~ubuntu20.04.1) date 2022-04-08 21:02:54*
%MOMM*%
%LPD*%
G01*
G04 APERTURE LIST*
G04 Aperture macros list*
%AMRoundRect*
0 Rectangle with rounded corners*
0 $1 Rounding radius*
0 $2 $3 $4 $5 $6 $7 $8 $9 X,Y pos of 4 corners*
0 Add a 4 corners polygon primitive as box body*
4,1,4,$2,$3,$4,$5,$6,$7,$8,$9,$2,$3,0*
0 Add four circle primitives for the rounded corners*
1,1,$1+$1,$2,$3*
1,1,$1+$1,$4,$5*
1,1,$1+$1,$6,$7*
1,1,$1+$1,$8,$9*
0 Add four rect primitives between the rounded corners*
20,1,$1+$1,$2,$3,$4,$5,0*
20,1,$1+$1,$4,$5,$6,$7,0*
20,1,$1+$1,$6,$7,$8,$9,0*
20,1,$1+$1,$8,$9,$2,$3,0*%
%AMRotRect*
0 Rectangle, with rotation*
0 The origin of the aperture is its center*
0 $1 length*
0 $2 width*
0 $3 Rotation angle, in degrees counterclockwise*
0 Add horizontal line*
21,1,$1,$2,0,0,$3*%
G04 Aperture macros list end*
G04 #@! TA.AperFunction,ComponentPad*
%ADD10R,1.600000X2.400000*%
G04 #@! TD*
G04 #@! TA.AperFunction,ComponentPad*
%ADD11O,1.600000X2.400000*%
G04 #@! TD*
G04 #@! TA.AperFunction,SMDPad,CuDef*
%ADD12RotRect,1.600000X0.550000X135.000000*%
G04 #@! TD*
G04 #@! TA.AperFunction,SMDPad,CuDef*
%ADD13RotRect,1.600000X0.550000X225.000000*%
G04 #@! TD*
G04 #@! TA.AperFunction,ComponentPad*
%ADD14R,1.524000X1.524000*%
G04 #@! TD*
G04 #@! TA.AperFunction,ComponentPad*
%ADD15C,1.524000*%
G04 #@! TD*
G04 #@! TA.AperFunction,ComponentPad*
%ADD16RoundRect,0.250000X0.600000X-0.600000X0.600000X0.600000X-0.600000X0.600000X-0.600000X-0.600000X0*%
G04 #@! TD*
G04 #@! TA.AperFunction,ComponentPad*
%ADD17C,1.700000*%
G04 #@! TD*
G04 #@! TA.AperFunction,ComponentPad*
%ADD18C,1.600000*%
G04 #@! TD*
G04 #@! TA.AperFunction,ComponentPad*
%ADD19O,1.600000X1.600000*%
G04 #@! TD*
G04 #@! TA.AperFunction,ComponentPad*
%ADD20R,1.700000X1.700000*%
G04 #@! TD*
G04 #@! TA.AperFunction,ComponentPad*
%ADD21O,1.700000X1.700000*%
G04 #@! TD*
G04 #@! TA.AperFunction,ComponentPad*
%ADD22C,1.000000*%
G04 #@! TD*
G04 #@! TA.AperFunction,ComponentPad*
%ADD23R,2.600000X2.600000*%
G04 #@! TD*
G04 #@! TA.AperFunction,ComponentPad*
%ADD24C,2.600000*%
G04 #@! TD*
G04 #@! TA.AperFunction,ComponentPad*
%ADD25R,1.800000X1.800000*%
G04 #@! TD*
G04 #@! TA.AperFunction,ComponentPad*
%ADD26C,1.800000*%
G04 #@! TD*
G04 #@! TA.AperFunction,SMDPad,CuDef*
%ADD27R,1.500000X1.500000*%
G04 #@! TD*
G04 #@! TA.AperFunction,ViaPad*
%ADD28C,0.800000*%
G04 #@! TD*
G04 #@! TA.AperFunction,ViaPad*
%ADD29C,0.400000*%
G04 #@! TD*
G04 #@! TA.AperFunction,Conductor*
%ADD30C,0.200000*%
G04 #@! TD*
G04 APERTURE END LIST*
D10*
X133175000Y-127525000D03*
D11*
X135715000Y-127525000D03*
X138255000Y-127525000D03*
X140795000Y-127525000D03*
X143335000Y-127525000D03*
X145875000Y-127525000D03*
X148415000Y-127525000D03*
X150955000Y-127525000D03*
X153495000Y-127525000D03*
X156035000Y-127525000D03*
X156035000Y-119905000D03*
X153495000Y-119905000D03*
X150955000Y-119905000D03*
X148415000Y-119905000D03*
X145875000Y-119905000D03*
X143335000Y-119905000D03*
X140795000Y-119905000D03*
X138255000Y-119905000D03*
X135715000Y-119905000D03*
X133175000Y-119905000D03*
D10*
X103175000Y-127525000D03*
D11*
X105715000Y-127525000D03*
X108255000Y-127525000D03*
X110795000Y-127525000D03*
X113335000Y-127525000D03*
X115875000Y-127525000D03*
X118415000Y-127525000D03*
X120955000Y-127525000D03*
X123495000Y-127525000D03*
X126035000Y-127525000D03*
X126035000Y-119905000D03*
X123495000Y-119905000D03*
X120955000Y-119905000D03*
X118415000Y-119905000D03*
X115875000Y-119905000D03*
X113335000Y-119905000D03*
X110795000Y-119905000D03*
X108255000Y-119905000D03*
X105715000Y-119905000D03*
X103175000Y-119905000D03*
D10*
X193175000Y-127525000D03*
D11*
X195715000Y-127525000D03*
X198255000Y-127525000D03*
X200795000Y-127525000D03*
X203335000Y-127525000D03*
X205875000Y-127525000D03*
X208415000Y-127525000D03*
X210955000Y-127525000D03*
X213495000Y-127525000D03*
X216035000Y-127525000D03*
X216035000Y-119905000D03*
X213495000Y-119905000D03*
X210955000Y-119905000D03*
X208415000Y-119905000D03*
X205875000Y-119905000D03*
X203335000Y-119905000D03*
X200795000Y-119905000D03*
X198255000Y-119905000D03*
X195715000Y-119905000D03*
X193175000Y-119905000D03*
D12*
X158825305Y-109285103D03*
X159390990Y-108719417D03*
X159956676Y-108153732D03*
X160522361Y-107588047D03*
X161088047Y-107022361D03*
X161653732Y-106456676D03*
X162219417Y-105890990D03*
X162785103Y-105325305D03*
D13*
X162785103Y-103274695D03*
X162219417Y-102709010D03*
X161653732Y-102143324D03*
X161088047Y-101577639D03*
X160522361Y-101011953D03*
X159956676Y-100446268D03*
X159390990Y-99880583D03*
X158825305Y-99314897D03*
D12*
X156774695Y-99314897D03*
X156209010Y-99880583D03*
X155643324Y-100446268D03*
X155077639Y-101011953D03*
X154511953Y-101577639D03*
X153946268Y-102143324D03*
X153380583Y-102709010D03*
X152814897Y-103274695D03*
D13*
X152814897Y-105325305D03*
X153380583Y-105890990D03*
X153946268Y-106456676D03*
X154511953Y-107022361D03*
X155077639Y-107588047D03*
X155643324Y-108153732D03*
X156209010Y-108719417D03*
X156774695Y-109285103D03*
D14*
X204560000Y-108835000D03*
D15*
X206620000Y-108175000D03*
X207890000Y-106425000D03*
X207870000Y-104285000D03*
X206640000Y-102475000D03*
X204560000Y-101835000D03*
X202500000Y-102505000D03*
X201230000Y-104255000D03*
X201230000Y-106415000D03*
D14*
X181260000Y-108835000D03*
D15*
X183320000Y-108175000D03*
X184590000Y-106425000D03*
X184570000Y-104285000D03*
X183340000Y-102475000D03*
X181260000Y-101835000D03*
X179200000Y-102505000D03*
X177930000Y-104255000D03*
X177930000Y-106415000D03*
D10*
X163175000Y-127525000D03*
D11*
X165715000Y-127525000D03*
X168255000Y-127525000D03*
X170795000Y-127525000D03*
X173335000Y-127525000D03*
X175875000Y-127525000D03*
X178415000Y-127525000D03*
X180955000Y-127525000D03*
X183495000Y-127525000D03*
X186035000Y-127525000D03*
X186035000Y-119905000D03*
X183495000Y-119905000D03*
X180955000Y-119905000D03*
X178415000Y-119905000D03*
X175875000Y-119905000D03*
X173335000Y-119905000D03*
X170795000Y-119905000D03*
X168255000Y-119905000D03*
X165715000Y-119905000D03*
X163175000Y-119905000D03*
D16*
X128755000Y-88852500D03*
D17*
X128755000Y-86312500D03*
X131295000Y-88852500D03*
X131295000Y-86312500D03*
X133835000Y-88852500D03*
X133835000Y-86312500D03*
D18*
X152705000Y-91910000D03*
D19*
X152705000Y-84290000D03*
D14*
X114800000Y-108800000D03*
D15*
X116860000Y-108140000D03*
X118130000Y-106390000D03*
X118110000Y-104250000D03*
X116880000Y-102440000D03*
X114800000Y-101800000D03*
X112740000Y-102470000D03*
X111470000Y-104220000D03*
X111470000Y-106380000D03*
D18*
X166695000Y-108410000D03*
X169195000Y-108410000D03*
X149180000Y-84290000D03*
D19*
X149180000Y-91910000D03*
D14*
X138080000Y-108800000D03*
D15*
X140140000Y-108140000D03*
X141410000Y-106390000D03*
X141390000Y-104250000D03*
X140160000Y-102440000D03*
X138080000Y-101800000D03*
X136020000Y-102470000D03*
X134750000Y-104220000D03*
X134750000Y-106380000D03*
D18*
X156300000Y-91910000D03*
D19*
X156300000Y-84290000D03*
D20*
X102900000Y-104025000D03*
D21*
X102900000Y-106565000D03*
X102900000Y-109105000D03*
X102900000Y-111645000D03*
D20*
X216800000Y-94775000D03*
D21*
X216800000Y-92235000D03*
X216800000Y-89695000D03*
X216800000Y-87155000D03*
X216800000Y-84615000D03*
D22*
X167945000Y-103965000D03*
X167945000Y-105665000D03*
D23*
X117745000Y-87795000D03*
D24*
X112665000Y-87795000D03*
D25*
X163300000Y-89375000D03*
D26*
X163300000Y-86835000D03*
D25*
X173200000Y-89375000D03*
D26*
X173200000Y-86835000D03*
D27*
X183500000Y-91900000D03*
X183500000Y-84100000D03*
X192500000Y-91900000D03*
X192500000Y-84100000D03*
D18*
X166695000Y-101425000D03*
X169195000Y-101425000D03*
D27*
X144100000Y-84200000D03*
X144100000Y-92000000D03*
D28*
X154096000Y-108623000D03*
X151401000Y-105856000D03*
X195265000Y-112340000D03*
X159561000Y-104194000D03*
X158484000Y-110182000D03*
X157171000Y-111222000D03*
X154708000Y-103701000D03*
X154930000Y-110019000D03*
X152243000Y-103947000D03*
D29*
X151900000Y-110700000D03*
X151900000Y-109500000D03*
X212200000Y-124119800D03*
X209700000Y-109500000D03*
X208100000Y-111100000D03*
D28*
X158332000Y-106424000D03*
X157517000Y-108023000D03*
X162010000Y-100520000D03*
X154056000Y-104554000D03*
D29*
X118600000Y-114800000D03*
X120700000Y-114800000D03*
X112865000Y-104306200D03*
D30*
X155333700Y-101268100D02*
X155589800Y-101524200D01*
X154327900Y-100262200D02*
X154050600Y-100539500D01*
X162403500Y-107206400D02*
X162427700Y-107182200D01*
X156958700Y-100630400D02*
X156958700Y-100630300D01*
X175635000Y-108835000D02*
X173982200Y-107182200D01*
X160743400Y-105867500D02*
X160904000Y-105706900D01*
X162427700Y-107182200D02*
X173982200Y-107182200D01*
X127642700Y-103942700D02*
X127642700Y-87795000D01*
X156209000Y-99880600D02*
X156958700Y-100630300D01*
X160522400Y-107588000D02*
X159772700Y-106838200D01*
X160286600Y-106324300D02*
X159772700Y-106838200D01*
X160286600Y-105867500D02*
X160286600Y-106324300D01*
X138760000Y-109500000D02*
X143100000Y-109500000D01*
X160286600Y-105867500D02*
X160743400Y-105867500D01*
X138080000Y-108820000D02*
X138760000Y-109500000D01*
X117745000Y-87795000D02*
X119305300Y-87795000D01*
X155650600Y-101585000D02*
X156004100Y-101585000D01*
X127642700Y-87424800D02*
X127642700Y-87795000D01*
X155333700Y-101268100D02*
X155077600Y-101012000D01*
X128755000Y-86312500D02*
X127642700Y-87424800D01*
X156004100Y-101585000D02*
X160286600Y-105867500D01*
X155589800Y-101524200D02*
X155650600Y-101585000D01*
X181260000Y-108835000D02*
X175635000Y-108835000D01*
X138080000Y-108800000D02*
X132500000Y-108800000D01*
X161653700Y-106456700D02*
X160904000Y-105706900D01*
X156004100Y-101585000D02*
X156958700Y-100630400D01*
X154050600Y-100539500D02*
X152060500Y-100539500D01*
X119305300Y-87795000D02*
X127642700Y-87795000D01*
X132500000Y-108800000D02*
X127642700Y-103942700D01*
X155077600Y-101012000D02*
X154327900Y-100262200D01*
X161653700Y-106456700D02*
X162403500Y-107206400D01*
X143100000Y-109500000D02*
X152060500Y-100539500D01*
X138080000Y-108800000D02*
X138080000Y-108820000D01*
X149180000Y-91910000D02*
X145440000Y-91910000D01*
X154618000Y-108047500D02*
X154158000Y-108507000D01*
X154618100Y-108047500D02*
X155077600Y-107588000D01*
X142850000Y-92000000D02*
X139702000Y-88852500D01*
X154158000Y-108507000D02*
X154158000Y-108561000D01*
X139702000Y-88852500D02*
X133835000Y-88852500D01*
X155078000Y-107588000D02*
X154618000Y-108047500D01*
X145350000Y-92000000D02*
X144100000Y-92000000D01*
X145440000Y-91910000D02*
X145350000Y-92000000D01*
X154618000Y-108047500D02*
X154618100Y-108047500D01*
X144100000Y-92000000D02*
X142850000Y-92000000D01*
X154158000Y-108561000D02*
X154096000Y-108623000D01*
X160522361Y-101011953D02*
X160522361Y-100877639D01*
X168400000Y-93000000D02*
X191700000Y-93000000D01*
X191700000Y-93000000D02*
X192500000Y-92200000D01*
X192500000Y-92200000D02*
X192500000Y-91900000D01*
X160522361Y-100877639D02*
X168400000Y-93000000D01*
X124765000Y-120612000D02*
X125567000Y-121415000D01*
X154765000Y-120617000D02*
X154765000Y-119188000D01*
X152355500Y-105784500D02*
X152815000Y-105325000D01*
X180955000Y-118205000D02*
X210955000Y-118205000D01*
X120955000Y-119905000D02*
X120955000Y-118205000D01*
X151401000Y-105856000D02*
X151507000Y-105856000D01*
X155600000Y-121453000D02*
X154765000Y-120617000D01*
X151896000Y-106244000D02*
X152355500Y-105784500D01*
X152505000Y-118355000D02*
X150955000Y-119905000D01*
X152355700Y-105784500D02*
X152814900Y-105325300D01*
X179407000Y-121453000D02*
X155600000Y-121453000D01*
X123808000Y-118205000D02*
X124765000Y-119162000D01*
X124765000Y-119162000D02*
X124765000Y-120612000D01*
X151507000Y-105856000D02*
X151896000Y-106244000D01*
X154765000Y-119188000D02*
X153932000Y-118355000D01*
X125567000Y-121415000D02*
X149445000Y-121415000D01*
X120955000Y-118205000D02*
X123808000Y-118205000D01*
X153932000Y-118355000D02*
X152505000Y-118355000D01*
X152355500Y-105784500D02*
X152355700Y-105784500D01*
X180955000Y-119905000D02*
X179407000Y-121453000D01*
X210955000Y-118205000D02*
X210955000Y-119905000D01*
X180955000Y-119905000D02*
X180955000Y-118205000D01*
X149445000Y-121415000D02*
X150955000Y-119905000D01*
X168503000Y-91900000D02*
X159957000Y-100446000D01*
X159957000Y-100446000D02*
X159956700Y-100446300D01*
X183500000Y-91900000D02*
X168503000Y-91900000D01*
X154410000Y-93061000D02*
X152295000Y-93061000D01*
X159391000Y-99880600D02*
X160310000Y-98961300D01*
X146817000Y-87582500D02*
X132565000Y-87582500D01*
X160310000Y-98961300D02*
X154410000Y-93061000D01*
X132565000Y-87582500D02*
X131295000Y-86312500D01*
X152295000Y-93061000D02*
X146817000Y-87582500D01*
X129906000Y-87701700D02*
X131817000Y-87701700D01*
X131817000Y-87701700D02*
X132565000Y-88449700D01*
X132565000Y-89279900D02*
X138273000Y-94987600D01*
X154498000Y-94987600D02*
X158825000Y-99314900D01*
X138273000Y-94987600D02*
X154498000Y-94987600D01*
X128755000Y-88852500D02*
X129906000Y-87701700D01*
X158825300Y-99314900D02*
X158825000Y-99314900D01*
X132565000Y-88449700D02*
X132565000Y-89279900D01*
X131295000Y-88852500D02*
X140838000Y-98395700D01*
X140838000Y-98395700D02*
X155856000Y-98395700D01*
X156774700Y-99314500D02*
X156774700Y-99314900D01*
X156315500Y-98855300D02*
X156775000Y-99314900D01*
X156315500Y-98855300D02*
X156774700Y-99314500D01*
X155856000Y-98395700D02*
X156315500Y-98855300D01*
X132677000Y-85154200D02*
X133835000Y-86312500D01*
X193175000Y-119905000D02*
X186035000Y-119905000D01*
X162007000Y-108410000D02*
X161539000Y-108410000D01*
X193175000Y-127525000D02*
X193175000Y-125825000D01*
X126035000Y-119905000D02*
X126035000Y-118205000D01*
X212225000Y-120925000D02*
X212225000Y-119176000D01*
X160876000Y-115906000D02*
X158334000Y-115906000D01*
X150525000Y-89375000D02*
X145350000Y-84200000D01*
X140738000Y-86312500D02*
X142850000Y-84200000D01*
X193175000Y-125825000D02*
X186035000Y-125825000D01*
X142850000Y-84200000D02*
X144100000Y-84200000D01*
X156885000Y-125825000D02*
X163175000Y-125825000D01*
X211735000Y-121415000D02*
X212225000Y-120925000D01*
X159038000Y-106139000D02*
X158392000Y-105494000D01*
X126035000Y-118205000D02*
X133175000Y-118205000D01*
X163300000Y-89375000D02*
X150525000Y-89375000D01*
X105715000Y-118205000D02*
X103175000Y-118205000D01*
X133175000Y-127525000D02*
X126035000Y-127525000D01*
X156035000Y-126675000D02*
X156885000Y-125825000D01*
X133835000Y-86312500D02*
X140738000Y-86312500D01*
X160876000Y-109073000D02*
X160876000Y-115906000D01*
X112665000Y-87795000D02*
X115306000Y-85154200D01*
X159957000Y-108154000D02*
X159497500Y-107694000D01*
X162007000Y-107942000D02*
X162007000Y-108410000D01*
X155742000Y-117912000D02*
X156035000Y-118205000D01*
X102900000Y-104025000D02*
X101256000Y-105669000D01*
X137283000Y-117912000D02*
X155742000Y-117912000D01*
X133175000Y-119905000D02*
X133175000Y-119055000D01*
X158392000Y-105494000D02*
X158392000Y-105458000D01*
X159038000Y-107234000D02*
X159038000Y-106139000D01*
X115306000Y-85154200D02*
X132677000Y-85154200D01*
X160876000Y-115906000D02*
X163175000Y-118205000D01*
X156035000Y-119905000D02*
X156035000Y-118205000D01*
X156035000Y-127525000D02*
X156035000Y-126675000D01*
X160876000Y-109073000D02*
X159957000Y-108154000D01*
X135715000Y-119905000D02*
X135715000Y-119480000D01*
X163175000Y-119905000D02*
X163175000Y-118205000D01*
X135715000Y-119055000D02*
X135715000Y-119480000D01*
X154512000Y-101577600D02*
X154512000Y-101578000D01*
X212225000Y-119176000D02*
X212996000Y-118405000D01*
X101256000Y-116286000D02*
X103175000Y-118205000D01*
X174600000Y-89375000D02*
X179875000Y-84100000D01*
X212996000Y-118405000D02*
X214535000Y-118405000D01*
X145350000Y-84200000D02*
X144100000Y-84200000D01*
X165715000Y-119905000D02*
X165715000Y-118205000D01*
X163175000Y-125825000D02*
X186035000Y-125825000D01*
X158392000Y-105458000D02*
X154512000Y-101578000D01*
X179875000Y-84100000D02*
X183500000Y-84100000D01*
X133175000Y-118205000D02*
X133175000Y-119055000D01*
X133175000Y-119055000D02*
X135715000Y-119055000D01*
X163175000Y-127525000D02*
X163175000Y-125825000D01*
X159956700Y-108153200D02*
X159956700Y-108153700D01*
X158334000Y-115906000D02*
X156035000Y-118205000D01*
X183500000Y-84100000D02*
X192500000Y-84100000D01*
X135715000Y-119480000D02*
X137283000Y-117912000D01*
X161088200Y-107022200D02*
X162007000Y-107942000D01*
X165715000Y-118205000D02*
X163175000Y-118205000D01*
X166695000Y-108410000D02*
X162007000Y-108410000D01*
X186035000Y-127525000D02*
X186035000Y-125825000D01*
X195715000Y-119905000D02*
X193175000Y-119905000D01*
X101256000Y-105669000D02*
X101256000Y-116286000D01*
X195715000Y-119905000D02*
X197225000Y-121415000D01*
X103175000Y-119905000D02*
X103175000Y-118205000D01*
X161539000Y-108410000D02*
X160876000Y-109073000D01*
X173200000Y-89375000D02*
X174600000Y-89375000D01*
X214535000Y-118405000D02*
X216035000Y-119905000D01*
X159497500Y-107694000D02*
X159038000Y-107234000D01*
X159497500Y-107694000D02*
X159956700Y-108153200D01*
X197225000Y-121415000D02*
X211735000Y-121415000D01*
X105715000Y-119905000D02*
X105715000Y-118205000D01*
X164145000Y-103965000D02*
X162785100Y-105324900D01*
X162785100Y-105324900D02*
X162785000Y-105325000D01*
X162785100Y-105324900D02*
X162785100Y-105325300D01*
X167945000Y-103965000D02*
X164145000Y-103965000D01*
X163139000Y-106810000D02*
X164284000Y-105665000D01*
X162679000Y-106350500D02*
X162678900Y-106350500D01*
X162219000Y-105891000D02*
X162679000Y-106350500D01*
X164284000Y-105665000D02*
X167945000Y-105665000D01*
X162679000Y-106350500D02*
X163139000Y-106810000D01*
X162678900Y-106350500D02*
X162219400Y-105891000D01*
X213495000Y-127525000D02*
X213495000Y-125825000D01*
X162606000Y-101224000D02*
X163667000Y-100164000D01*
X213495000Y-125825000D02*
X217172000Y-122148000D01*
X163667000Y-100164000D02*
X191764000Y-100164000D01*
X208615000Y-117015000D02*
X191764000Y-100164000D01*
X217172000Y-119057000D02*
X215129000Y-117015000D01*
X217172000Y-122148000D02*
X217172000Y-119057000D01*
X162573000Y-101224000D02*
X162606000Y-101224000D01*
X215129000Y-117015000D02*
X208615000Y-117015000D01*
X161654000Y-102143000D02*
X162573000Y-101224000D01*
X161654000Y-102143000D02*
X161653700Y-102143300D01*
X162679000Y-102249500D02*
X163139000Y-101790000D01*
X162678900Y-102249500D02*
X162219400Y-102709000D01*
X171976000Y-100568000D02*
X183493000Y-100568000D01*
X170008000Y-102535000D02*
X171976000Y-100568000D01*
X163884000Y-102535000D02*
X170008000Y-102535000D01*
X183493000Y-100568000D02*
X195265000Y-112340000D01*
X162219000Y-102709000D02*
X162679000Y-102249500D01*
X162679000Y-102249500D02*
X162678900Y-102249500D01*
X163139000Y-101790000D02*
X163884000Y-102535000D01*
X162785100Y-103274900D02*
X162785100Y-103274700D01*
X162785000Y-103275000D02*
X161866000Y-104194000D01*
X162785000Y-103275000D02*
X162785100Y-103274900D01*
X161866000Y-104194000D02*
X159561000Y-104194000D01*
X116343000Y-122257000D02*
X118049000Y-122257000D01*
X160310000Y-109639000D02*
X159850500Y-109179000D01*
X119515000Y-120791000D02*
X119515000Y-119064000D01*
X158027000Y-111922000D02*
X160310000Y-109639000D01*
X108255000Y-129225000D02*
X111105000Y-129225000D01*
X111105000Y-129225000D02*
X112065000Y-128265000D01*
X112065000Y-128265000D02*
X112065000Y-126535000D01*
X119515000Y-119064000D02*
X126658000Y-111922000D01*
X159391000Y-108719500D02*
X159391000Y-108719400D01*
X159850500Y-109179000D02*
X159391000Y-108719500D01*
X108255000Y-127525000D02*
X108255000Y-129225000D01*
X112065000Y-126535000D02*
X116343000Y-122257000D01*
X118049000Y-122257000D02*
X119515000Y-120791000D01*
X159850500Y-109179000D02*
X159391000Y-108719000D01*
X126658000Y-111922000D02*
X158027000Y-111922000D01*
X158654500Y-109455500D02*
X158825000Y-109285000D01*
X158484000Y-109626000D02*
X158654500Y-109455500D01*
X158484000Y-110182000D02*
X158484000Y-109626000D01*
X158654500Y-109455500D02*
X158654900Y-109455500D01*
X158654900Y-109455500D02*
X158825300Y-109285100D01*
X156873000Y-111222000D02*
X155856000Y-110204000D01*
X155856000Y-110204000D02*
X156774700Y-109285300D01*
X157171000Y-111222000D02*
X156873000Y-111222000D01*
X153876600Y-103205000D02*
X153380600Y-102709000D01*
X154373000Y-103701000D02*
X154708000Y-103701000D01*
X123745000Y-121855000D02*
X153245000Y-121855000D01*
X153495000Y-121605000D02*
X153804000Y-121914000D01*
X153381000Y-102709000D02*
X153877000Y-103205000D01*
X123495000Y-121605000D02*
X123745000Y-121855000D01*
X153245000Y-121855000D02*
X153495000Y-121605000D01*
X153804000Y-121914000D02*
X183186000Y-121914000D01*
X213495000Y-119905000D02*
X213495000Y-121605000D01*
X183744000Y-121854000D02*
X183495000Y-121605000D01*
X213246000Y-121854000D02*
X183744000Y-121854000D01*
X153877000Y-103205000D02*
X154373000Y-103701000D01*
X123495000Y-119905000D02*
X123495000Y-121605000D01*
X153877000Y-103205000D02*
X153876600Y-103205000D01*
X183495000Y-119905000D02*
X183495000Y-121605000D01*
X183186000Y-121914000D02*
X183495000Y-121605000D01*
X153495000Y-119905000D02*
X153495000Y-121605000D01*
X213495000Y-121605000D02*
X213246000Y-121854000D01*
X155290000Y-109639000D02*
X155290000Y-109658000D01*
X156209000Y-108719500D02*
X156209000Y-108719400D01*
X155290000Y-109658000D02*
X154930000Y-110019000D01*
X155749500Y-109179000D02*
X156209000Y-108719500D01*
X107806098Y-110106098D02*
X107806098Y-110122000D01*
X102900000Y-106565000D02*
X104265000Y-106565000D01*
X156209000Y-108719000D02*
X155749500Y-109179000D01*
X154827000Y-110122000D02*
X154930000Y-110019000D01*
X107806098Y-110122000D02*
X154827000Y-110122000D01*
X104265000Y-106565000D02*
X107806098Y-110106098D01*
X155749500Y-109179000D02*
X155290000Y-109639000D01*
X180955000Y-127525000D02*
X180955000Y-129225000D01*
X152814900Y-103275100D02*
X152814900Y-103274700D01*
X180955000Y-129225000D02*
X150955000Y-129225000D01*
X120955000Y-129225000D02*
X150955000Y-129225000D01*
X120955000Y-127525000D02*
X120955000Y-129225000D01*
X210955000Y-127525000D02*
X210955000Y-129225000D01*
X210955000Y-129225000D02*
X180955000Y-129225000D01*
X152815000Y-103275000D02*
X152814900Y-103275100D01*
X150955000Y-127525000D02*
X150955000Y-129225000D01*
X152814900Y-103275100D02*
X152243000Y-103847000D01*
X152243000Y-103847000D02*
X152243000Y-103947000D01*
X154296160Y-109500000D02*
X154348080Y-109448080D01*
X106985000Y-128555000D02*
X108087000Y-129658000D01*
X102900000Y-109105000D02*
X102900000Y-110455000D01*
X128100000Y-110800000D02*
X151800000Y-110800000D01*
X151900000Y-109500000D02*
X154296160Y-109500000D01*
X155643300Y-108153700D02*
X155643000Y-108154000D01*
X155643000Y-108154000D02*
X154348080Y-109448080D01*
X119700000Y-126100000D02*
X119975000Y-125825000D01*
X106985000Y-113981000D02*
X106985000Y-128555000D01*
X108087000Y-129658000D02*
X118792000Y-129658000D01*
X104595000Y-110800000D02*
X128100000Y-110800000D01*
X119975000Y-125825000D02*
X138255000Y-125825000D01*
X118792000Y-129658000D02*
X119700000Y-128750000D01*
X119700000Y-128750000D02*
X119700000Y-126100000D01*
X138255000Y-125825000D02*
X138255000Y-127525000D01*
X102900000Y-110455000D02*
X103459000Y-110455000D01*
X103459000Y-110455000D02*
X106985000Y-113981000D01*
X151800000Y-110800000D02*
X151900000Y-110700000D01*
X102900000Y-109105000D02*
X104595000Y-110800000D01*
X203335000Y-127525000D02*
X203325000Y-127525000D01*
X203325000Y-124875000D02*
X204080200Y-124119800D01*
X203325000Y-127525000D02*
X203325000Y-124875000D01*
X204080200Y-124119800D02*
X212200000Y-124119800D01*
X208200000Y-111000000D02*
X208100000Y-111100000D01*
X209700000Y-109500000D02*
X208200000Y-111000000D01*
X155124000Y-85408700D02*
X171774000Y-85408700D01*
X171774000Y-85408700D02*
X173200000Y-86835000D01*
X152705000Y-84290000D02*
X154005000Y-84290000D01*
X154005000Y-84290000D02*
X155124000Y-85408700D01*
X155025000Y-105697000D02*
X157605000Y-105697000D01*
X153946300Y-106456700D02*
X154866000Y-105537000D01*
X157605000Y-105697000D02*
X158332000Y-106424000D01*
X154866000Y-105537000D02*
X155025000Y-105697000D01*
X154512000Y-107022000D02*
X154512000Y-107022400D01*
X155840000Y-106512000D02*
X156006000Y-106512000D01*
X154512000Y-107022000D02*
X155431000Y-106103000D01*
X156006000Y-106512000D02*
X157517000Y-108023000D01*
X155431000Y-106103000D02*
X155840000Y-106512000D01*
X161088000Y-101578000D02*
X161547500Y-101118000D01*
X161547500Y-101118000D02*
X162007000Y-100658000D01*
X162007000Y-100523000D02*
X162010000Y-100520000D01*
X161088000Y-101577500D02*
X161088000Y-101577600D01*
X161547500Y-101118000D02*
X161088000Y-101577500D01*
X162007000Y-100658000D02*
X162007000Y-100523000D01*
X154300000Y-104972000D02*
X154056000Y-104728000D01*
X153381000Y-105891000D02*
X153840500Y-105431500D01*
X153840100Y-105431500D02*
X153380600Y-105891000D01*
X154056000Y-104728000D02*
X154056000Y-104554000D01*
X153840500Y-105431500D02*
X154300000Y-104972000D01*
X153840500Y-105431500D02*
X153840100Y-105431500D01*
X120700000Y-114800000D02*
X118600000Y-114800000D01*
X115013900Y-104306100D02*
X112865000Y-104306100D01*
X116880000Y-102440000D02*
X115013900Y-104306100D01*
X112865000Y-104306100D02*
X112865000Y-104306200D01*
M02*
