G04 #@! TF.GenerationSoftware,KiCad,Pcbnew,6.0.0-d3dd2cf0fa~116~ubuntu20.04.1*
G04 #@! TF.CreationDate,2022-01-06T20:49:06+01:00*
G04 #@! TF.ProjectId,numitron clock,6e756d69-7472-46f6-9e20-636c6f636b2e,rev?*
G04 #@! TF.SameCoordinates,Original*
G04 #@! TF.FileFunction,Copper,L1,Top*
G04 #@! TF.FilePolarity,Positive*
%FSLAX46Y46*%
G04 Gerber Fmt 4.6, Leading zero omitted, Abs format (unit mm)*
G04 Created by KiCad (PCBNEW 6.0.0-d3dd2cf0fa~116~ubuntu20.04.1) date 2022-01-06 20:49:06*
%MOMM*%
%LPD*%
G01*
G04 APERTURE LIST*
G04 Aperture macros list*
%AMRoundRect*
0 Rectangle with rounded corners*
0 $1 Rounding radius*
0 $2 $3 $4 $5 $6 $7 $8 $9 X,Y pos of 4 corners*
0 Add a 4 corners polygon primitive as box body*
4,1,4,$2,$3,$4,$5,$6,$7,$8,$9,$2,$3,0*
0 Add four circle primitives for the rounded corners*
1,1,$1+$1,$2,$3*
1,1,$1+$1,$4,$5*
1,1,$1+$1,$6,$7*
1,1,$1+$1,$8,$9*
0 Add four rect primitives between the rounded corners*
20,1,$1+$1,$2,$3,$4,$5,0*
20,1,$1+$1,$4,$5,$6,$7,0*
20,1,$1+$1,$6,$7,$8,$9,0*
20,1,$1+$1,$8,$9,$2,$3,0*%
%AMRotRect*
0 Rectangle, with rotation*
0 The origin of the aperture is its center*
0 $1 length*
0 $2 width*
0 $3 Rotation angle, in degrees counterclockwise*
0 Add horizontal line*
21,1,$1,$2,0,0,$3*%
G04 Aperture macros list end*
G04 #@! TA.AperFunction,SMDPad,CuDef*
%ADD10R,1.500000X1.500000*%
G04 #@! TD*
G04 #@! TA.AperFunction,ComponentPad*
%ADD11R,1.700000X1.700000*%
G04 #@! TD*
G04 #@! TA.AperFunction,ComponentPad*
%ADD12O,1.700000X1.700000*%
G04 #@! TD*
G04 #@! TA.AperFunction,ComponentPad*
%ADD13R,1.800000X1.800000*%
G04 #@! TD*
G04 #@! TA.AperFunction,ComponentPad*
%ADD14C,1.800000*%
G04 #@! TD*
G04 #@! TA.AperFunction,ComponentPad*
%ADD15C,1.600000*%
G04 #@! TD*
G04 #@! TA.AperFunction,ComponentPad*
%ADD16O,1.600000X1.600000*%
G04 #@! TD*
G04 #@! TA.AperFunction,ComponentPad*
%ADD17C,1.000000*%
G04 #@! TD*
G04 #@! TA.AperFunction,SMDPad,CuDef*
%ADD18RotRect,1.600000X0.550000X225.000000*%
G04 #@! TD*
G04 #@! TA.AperFunction,SMDPad,CuDef*
%ADD19RotRect,1.600000X0.550000X135.000000*%
G04 #@! TD*
G04 #@! TA.AperFunction,ComponentPad*
%ADD20R,2.600000X2.600000*%
G04 #@! TD*
G04 #@! TA.AperFunction,ComponentPad*
%ADD21C,2.600000*%
G04 #@! TD*
G04 #@! TA.AperFunction,ComponentPad*
%ADD22R,1.524000X1.524000*%
G04 #@! TD*
G04 #@! TA.AperFunction,ComponentPad*
%ADD23C,1.524000*%
G04 #@! TD*
G04 #@! TA.AperFunction,ComponentPad*
%ADD24RoundRect,0.250000X0.600000X-0.600000X0.600000X0.600000X-0.600000X0.600000X-0.600000X-0.600000X0*%
G04 #@! TD*
G04 #@! TA.AperFunction,ComponentPad*
%ADD25C,1.700000*%
G04 #@! TD*
G04 #@! TA.AperFunction,ComponentPad*
%ADD26R,1.600000X2.400000*%
G04 #@! TD*
G04 #@! TA.AperFunction,ComponentPad*
%ADD27O,1.600000X2.400000*%
G04 #@! TD*
G04 #@! TA.AperFunction,ViaPad*
%ADD28C,0.800000*%
G04 #@! TD*
G04 #@! TA.AperFunction,Conductor*
%ADD29C,0.200000*%
G04 #@! TD*
G04 APERTURE END LIST*
D10*
X144100000Y-84200000D03*
X144100000Y-92000000D03*
X192500000Y-91900000D03*
X192500000Y-84100000D03*
X183500000Y-91900000D03*
X183500000Y-84100000D03*
D11*
X102900000Y-104025000D03*
D12*
X102900000Y-106565000D03*
X102900000Y-109105000D03*
X102900000Y-111645000D03*
X216800000Y-84615000D03*
X216800000Y-87155000D03*
X216800000Y-89695000D03*
X216800000Y-92235000D03*
D11*
X216800000Y-94775000D03*
D13*
X173200000Y-89375000D03*
D14*
X173200000Y-86835000D03*
D13*
X163300000Y-89375000D03*
D14*
X163300000Y-86835000D03*
D15*
X156300000Y-91910000D03*
D16*
X156300000Y-84290000D03*
D17*
X167945000Y-103965000D03*
X167945000Y-105665000D03*
D18*
X156774695Y-109285103D03*
X156209010Y-108719417D03*
X155643324Y-108153732D03*
X155077639Y-107588047D03*
X154511953Y-107022361D03*
X153946268Y-106456676D03*
X153380583Y-105890990D03*
X152814897Y-105325305D03*
D19*
X152814897Y-103274695D03*
X153380583Y-102709010D03*
X153946268Y-102143324D03*
X154511953Y-101577639D03*
X155077639Y-101011953D03*
X155643324Y-100446268D03*
X156209010Y-99880583D03*
X156774695Y-99314897D03*
D18*
X158825305Y-99314897D03*
X159390990Y-99880583D03*
X159956676Y-100446268D03*
X160522361Y-101011953D03*
X161088047Y-101577639D03*
X161653732Y-102143324D03*
X162219417Y-102709010D03*
X162785103Y-103274695D03*
D19*
X162785103Y-105325305D03*
X162219417Y-105890990D03*
X161653732Y-106456676D03*
X161088047Y-107022361D03*
X160522361Y-107588047D03*
X159956676Y-108153732D03*
X159390990Y-108719417D03*
X158825305Y-109285103D03*
D20*
X117745000Y-87795000D03*
D21*
X112665000Y-87795000D03*
D15*
X152705000Y-91910000D03*
D16*
X152705000Y-84290000D03*
D22*
X205400000Y-101635000D03*
D23*
X203340000Y-102295000D03*
X202070000Y-104045000D03*
X202090000Y-106185000D03*
X203320000Y-107995000D03*
X205400000Y-108635000D03*
X207460000Y-107965000D03*
X208730000Y-106215000D03*
X208730000Y-104055000D03*
X185430000Y-104055000D03*
X185430000Y-106215000D03*
X184160000Y-107965000D03*
X182100000Y-108635000D03*
X180020000Y-107995000D03*
X178790000Y-106185000D03*
X178770000Y-104045000D03*
X180040000Y-102295000D03*
D22*
X182100000Y-101635000D03*
D23*
X118970000Y-104020000D03*
X118970000Y-106180000D03*
X117700000Y-107930000D03*
X115640000Y-108600000D03*
X113560000Y-107960000D03*
X112330000Y-106150000D03*
X112310000Y-104010000D03*
X113580000Y-102260000D03*
D22*
X115640000Y-101600000D03*
D23*
X142250000Y-104020000D03*
X142250000Y-106180000D03*
X140980000Y-107930000D03*
X138920000Y-108600000D03*
X136840000Y-107960000D03*
X135610000Y-106150000D03*
X135590000Y-104010000D03*
X136860000Y-102260000D03*
D22*
X138920000Y-101600000D03*
D15*
X166695000Y-108410000D03*
X169195000Y-108410000D03*
X166695000Y-101425000D03*
X169195000Y-101425000D03*
D24*
X128755000Y-88852500D03*
D25*
X131295000Y-88852500D03*
X133835000Y-88852500D03*
X128755000Y-86312500D03*
X131295000Y-86312500D03*
X133835000Y-86312500D03*
D26*
X163175000Y-127525000D03*
D27*
X186035000Y-119905000D03*
X165715000Y-127525000D03*
X183495000Y-119905000D03*
X168255000Y-127525000D03*
X180955000Y-119905000D03*
X170795000Y-127525000D03*
X178415000Y-119905000D03*
X173335000Y-127525000D03*
X175875000Y-119905000D03*
X175875000Y-127525000D03*
X173335000Y-119905000D03*
X178415000Y-127525000D03*
X170795000Y-119905000D03*
X180955000Y-127525000D03*
X168255000Y-119905000D03*
X183495000Y-127525000D03*
X165715000Y-119905000D03*
X186035000Y-127525000D03*
X163175000Y-119905000D03*
D16*
X149180000Y-91910000D03*
D15*
X149180000Y-84290000D03*
D26*
X133175000Y-127525000D03*
D27*
X135715000Y-127525000D03*
X138255000Y-127525000D03*
X140795000Y-127525000D03*
X143335000Y-127525000D03*
X145875000Y-127525000D03*
X148415000Y-127525000D03*
X150955000Y-127525000D03*
X153495000Y-127525000D03*
X156035000Y-127525000D03*
X156035000Y-119905000D03*
X153495000Y-119905000D03*
X150955000Y-119905000D03*
X148415000Y-119905000D03*
X145875000Y-119905000D03*
X143335000Y-119905000D03*
X140795000Y-119905000D03*
X138255000Y-119905000D03*
X135715000Y-119905000D03*
X133175000Y-119905000D03*
D26*
X103175000Y-127525000D03*
D27*
X105715000Y-127525000D03*
X108255000Y-127525000D03*
X110795000Y-127525000D03*
X113335000Y-127525000D03*
X115875000Y-127525000D03*
X118415000Y-127525000D03*
X120955000Y-127525000D03*
X123495000Y-127525000D03*
X126035000Y-127525000D03*
X126035000Y-119905000D03*
X123495000Y-119905000D03*
X120955000Y-119905000D03*
X118415000Y-119905000D03*
X115875000Y-119905000D03*
X113335000Y-119905000D03*
X110795000Y-119905000D03*
X108255000Y-119905000D03*
X105715000Y-119905000D03*
X103175000Y-119905000D03*
D26*
X193175000Y-127525000D03*
D27*
X195715000Y-127525000D03*
X198255000Y-127525000D03*
X200795000Y-127525000D03*
X203335000Y-127525000D03*
X205875000Y-127525000D03*
X208415000Y-127525000D03*
X210955000Y-127525000D03*
X213495000Y-127525000D03*
X216035000Y-127525000D03*
X216035000Y-119905000D03*
X213495000Y-119905000D03*
X210955000Y-119905000D03*
X208415000Y-119905000D03*
X205875000Y-119905000D03*
X203335000Y-119905000D03*
X200795000Y-119905000D03*
X198255000Y-119905000D03*
X195715000Y-119905000D03*
X193175000Y-119905000D03*
D28*
X154056000Y-104554000D03*
X162010300Y-100519500D03*
X157517200Y-108022700D03*
X158332000Y-106423900D03*
X152242600Y-103946700D03*
X154929500Y-110018600D03*
X154708400Y-103701200D03*
X157171400Y-111222000D03*
X158484000Y-110182100D03*
X159561400Y-104193900D03*
X195264900Y-112339900D03*
X151401000Y-105855900D03*
X154096300Y-108623000D03*
D29*
X154056000Y-104728000D02*
X154056000Y-104554000D01*
X154299800Y-104971800D02*
X154056000Y-104728000D01*
X153380600Y-105891000D02*
X154299800Y-104971800D01*
X161088000Y-101577600D02*
X162007300Y-100658300D01*
X162007200Y-100522600D02*
X162010300Y-100519500D01*
X162007200Y-100658300D02*
X162007200Y-100522600D01*
X162007300Y-100658300D02*
X162007200Y-100658300D01*
X156006300Y-106511800D02*
X157517200Y-108022700D01*
X155839900Y-106511800D02*
X156006300Y-106511800D01*
X155431300Y-106103100D02*
X155839900Y-106511800D01*
X154512000Y-107022400D02*
X155431300Y-106103100D01*
X153946300Y-106456700D02*
X154865600Y-105537400D01*
X157604900Y-105696800D02*
X158332000Y-106423900D01*
X155024900Y-105696800D02*
X157604900Y-105696800D01*
X154865600Y-105537400D02*
X155024900Y-105696800D01*
X171773700Y-85408700D02*
X173200000Y-86835000D01*
X155123700Y-85408700D02*
X171773700Y-85408700D01*
X154005000Y-84290000D02*
X155123700Y-85408700D01*
X152705000Y-84290000D02*
X154005000Y-84290000D01*
X103459400Y-110455000D02*
X102900000Y-110455000D01*
X106985000Y-113980600D02*
X103459400Y-110455000D01*
X106985000Y-128555100D02*
X106985000Y-113980600D01*
X108087400Y-129657500D02*
X106985000Y-128555100D01*
X116823800Y-129657500D02*
X108087400Y-129657500D01*
X120656300Y-125825000D02*
X116823800Y-129657500D01*
X138255000Y-125825000D02*
X120656300Y-125825000D01*
X138255000Y-127525000D02*
X138255000Y-125825000D01*
X102900000Y-109105000D02*
X102900000Y-110455000D01*
X102348000Y-107755000D02*
X102900000Y-107755000D01*
X101692900Y-107099900D02*
X102348000Y-107755000D01*
X101692900Y-106110100D02*
X101692900Y-107099900D01*
X102484300Y-105318700D02*
X101692900Y-106110100D01*
X107924500Y-105318700D02*
X102484300Y-105318700D01*
X108171000Y-105072200D02*
X107924500Y-105318700D01*
X112991800Y-105072200D02*
X108171000Y-105072200D01*
X113019600Y-105100000D02*
X112991800Y-105072200D01*
X121446400Y-105100000D02*
X113019600Y-105100000D01*
X126042900Y-109696500D02*
X121446400Y-105100000D01*
X154100500Y-109696500D02*
X126042900Y-109696500D01*
X155643300Y-108153700D02*
X154100500Y-109696500D01*
X102900000Y-109105000D02*
X102900000Y-107755000D01*
X120955000Y-129225000D02*
X150955000Y-129225000D01*
X120955000Y-127525000D02*
X120955000Y-129225000D01*
X210955000Y-129225000D02*
X180955000Y-129225000D01*
X210955000Y-127525000D02*
X210955000Y-129225000D01*
X180955000Y-127525000D02*
X180955000Y-129225000D01*
X150955000Y-127525000D02*
X150955000Y-129225000D01*
X180955000Y-129225000D02*
X150955000Y-129225000D01*
X152242600Y-103847000D02*
X152242600Y-103946700D01*
X152814900Y-103274700D02*
X152242600Y-103847000D01*
X156209000Y-108719400D02*
X155289700Y-109638700D01*
X155289700Y-109658400D02*
X154929500Y-110018600D01*
X155289700Y-109638700D02*
X155289700Y-109658400D01*
X104906500Y-107221500D02*
X104250000Y-106565000D01*
X112778600Y-107221500D02*
X104906500Y-107221500D01*
X113178400Y-106821700D02*
X112778600Y-107221500D01*
X118101800Y-106821700D02*
X113178400Y-106821700D01*
X121401600Y-110121500D02*
X118101800Y-106821700D01*
X154826600Y-110121500D02*
X121401600Y-110121500D01*
X154929500Y-110018600D02*
X154826600Y-110121500D01*
X102900000Y-106565000D02*
X104250000Y-106565000D01*
X154372800Y-103701200D02*
X154708400Y-103701200D01*
X153380600Y-102709000D02*
X154372800Y-103701200D01*
X123495000Y-119905000D02*
X123495000Y-121605000D01*
X153495000Y-121405000D02*
X153495000Y-121405200D01*
X153495000Y-121405200D02*
X153495000Y-121605000D01*
X153495000Y-119905000D02*
X153495000Y-121405000D01*
X183743700Y-121853700D02*
X183495000Y-121605000D01*
X213246300Y-121853700D02*
X183743700Y-121853700D01*
X213495000Y-121605000D02*
X213246300Y-121853700D01*
X213495000Y-119905000D02*
X213495000Y-121605000D01*
X183495000Y-119905000D02*
X183495000Y-121605000D01*
X153244900Y-121855100D02*
X153495000Y-121605000D01*
X123745100Y-121855100D02*
X153244900Y-121855100D01*
X123495000Y-121605000D02*
X123745100Y-121855100D01*
X183186100Y-121913900D02*
X183495000Y-121605000D01*
X153803900Y-121913900D02*
X183186100Y-121913900D01*
X153495000Y-121605000D02*
X153803900Y-121913900D01*
X156873200Y-111222000D02*
X155855500Y-110204300D01*
X157171400Y-111222000D02*
X156873200Y-111222000D01*
X156774700Y-109285100D02*
X155855500Y-110204300D01*
X158484000Y-109626400D02*
X158825300Y-109285100D01*
X158484000Y-110182100D02*
X158484000Y-109626400D01*
X108255000Y-127525000D02*
X108255000Y-129225000D01*
X159391000Y-108719400D02*
X160310300Y-109638700D01*
X158026900Y-111922100D02*
X160310300Y-109638700D01*
X126657500Y-111922100D02*
X158026900Y-111922100D01*
X119515200Y-119064400D02*
X126657500Y-111922100D01*
X119515200Y-120791300D02*
X119515200Y-119064400D01*
X118049400Y-122257100D02*
X119515200Y-120791300D01*
X116977800Y-122257100D02*
X118049400Y-122257100D01*
X112065000Y-127169900D02*
X116977800Y-122257100D01*
X112065000Y-128265100D02*
X112065000Y-127169900D01*
X111105100Y-129225000D02*
X112065000Y-128265100D01*
X108255000Y-129225000D02*
X111105100Y-129225000D01*
X162785100Y-103274700D02*
X161865900Y-104193900D01*
X161865900Y-104193900D02*
X159561400Y-104193900D01*
X162219400Y-102709000D02*
X163138700Y-101789700D01*
X183492700Y-100567700D02*
X195264900Y-112339900D01*
X171976100Y-100567700D02*
X183492700Y-100567700D01*
X170008500Y-102535300D02*
X171976100Y-100567700D01*
X163884300Y-102535300D02*
X170008500Y-102535300D01*
X163138700Y-101789700D02*
X163884300Y-102535300D01*
X213495000Y-127525000D02*
X213495000Y-125825000D01*
X217171900Y-122148100D02*
X213495000Y-125825000D01*
X217171900Y-119057400D02*
X217171900Y-122148100D01*
X215129300Y-117014800D02*
X217171900Y-119057400D01*
X210719300Y-117014800D02*
X215129300Y-117014800D01*
X193868000Y-100163500D02*
X210719300Y-117014800D01*
X163666600Y-100163500D02*
X193868000Y-100163500D01*
X162606000Y-101224100D02*
X163666600Y-100163500D01*
X162573000Y-101224100D02*
X162606000Y-101224100D01*
X162573000Y-101224000D02*
X162573000Y-101224100D01*
X161653700Y-102143300D02*
X162573000Y-101224000D01*
X162219400Y-105891000D02*
X163138700Y-106810300D01*
X164284000Y-105665000D02*
X167945000Y-105665000D01*
X163138700Y-106810300D02*
X164284000Y-105665000D01*
X164145400Y-103965000D02*
X162785100Y-105325300D01*
X167945000Y-103965000D02*
X164145400Y-103965000D01*
X103175000Y-118205000D02*
X105715000Y-118205000D01*
X103175000Y-119905000D02*
X103175000Y-118205000D01*
X105715000Y-119905000D02*
X105715000Y-118205000D01*
X163175000Y-127525000D02*
X163175000Y-125825000D01*
X140737500Y-86312500D02*
X142850000Y-84200000D01*
X133835000Y-86312500D02*
X140737500Y-86312500D01*
X144100000Y-84200000D02*
X142850000Y-84200000D01*
X183500000Y-84100000D02*
X192500000Y-84100000D01*
X156035000Y-127525000D02*
X156035000Y-126675000D01*
X179875000Y-84100000D02*
X183500000Y-84100000D01*
X174600000Y-89375000D02*
X179875000Y-84100000D01*
X173200000Y-89375000D02*
X174600000Y-89375000D01*
X133175000Y-127525000D02*
X126035000Y-127525000D01*
X132676700Y-85154200D02*
X133835000Y-86312500D01*
X115305800Y-85154200D02*
X132676700Y-85154200D01*
X112665000Y-87795000D02*
X115305800Y-85154200D01*
X159956700Y-108153700D02*
X160876000Y-109072900D01*
X126035000Y-118205000D02*
X133175000Y-118205000D01*
X126035000Y-119905000D02*
X126035000Y-118205000D01*
X133175000Y-119055000D02*
X135715000Y-119055000D01*
X133175000Y-119905000D02*
X133175000Y-119055000D01*
X133175000Y-119055000D02*
X133175000Y-118205000D01*
X163175000Y-118205000D02*
X165715000Y-118205000D01*
X163175000Y-119905000D02*
X163175000Y-118205000D01*
X165715000Y-119905000D02*
X165715000Y-118205000D01*
X159956700Y-108153700D02*
X159037500Y-107234400D01*
X154512000Y-101577600D02*
X155431300Y-102496800D01*
X101255800Y-116285800D02*
X103175000Y-118205000D01*
X101255800Y-105669200D02*
X101255800Y-116285800D01*
X102900000Y-104025000D02*
X101255800Y-105669200D01*
X195715000Y-119905000D02*
X193175000Y-119905000D01*
X193175000Y-119905000D02*
X186035000Y-119905000D01*
X156035000Y-119905000D02*
X156035000Y-118205000D01*
X158334000Y-115906000D02*
X156035000Y-118205000D01*
X160876000Y-115906000D02*
X158334000Y-115906000D01*
X160876000Y-115906000D02*
X163175000Y-118205000D01*
X135715000Y-119905000D02*
X135715000Y-119480000D01*
X135715000Y-119480000D02*
X135715000Y-119055000D01*
X155741800Y-117911800D02*
X156035000Y-118205000D01*
X137283200Y-117911800D02*
X155741800Y-117911800D01*
X135715000Y-119480000D02*
X137283200Y-117911800D01*
X193175000Y-125825000D02*
X186035000Y-125825000D01*
X193175000Y-127525000D02*
X193175000Y-125825000D01*
X186035000Y-127525000D02*
X186035000Y-125825000D01*
X197224700Y-121414700D02*
X195715000Y-119905000D01*
X211068200Y-121414700D02*
X197224700Y-121414700D01*
X212225000Y-120257900D02*
X211068200Y-121414700D01*
X212225000Y-119176300D02*
X212225000Y-120257900D01*
X212996500Y-118404800D02*
X212225000Y-119176300D01*
X214534800Y-118404800D02*
X212996500Y-118404800D01*
X216035000Y-119905000D02*
X214534800Y-118404800D01*
X156885000Y-125825000D02*
X163175000Y-125825000D01*
X156035000Y-126675000D02*
X156885000Y-125825000D01*
X163175000Y-125825000D02*
X186035000Y-125825000D01*
X160876000Y-109072900D02*
X160876000Y-109073000D01*
X160876000Y-109073000D02*
X160876000Y-115906000D01*
X161088000Y-107022400D02*
X162007300Y-107941600D01*
X162007200Y-107941700D02*
X162007300Y-107941600D01*
X162007200Y-108410000D02*
X162007200Y-107941700D01*
X166695000Y-108410000D02*
X162007200Y-108410000D01*
X161539000Y-108410000D02*
X160876000Y-109073000D01*
X162007200Y-108410000D02*
X161539000Y-108410000D01*
X158392200Y-105457800D02*
X155431300Y-102496800D01*
X158392200Y-105494000D02*
X158392200Y-105457800D01*
X159037500Y-106139300D02*
X158392200Y-105494000D01*
X159037500Y-107234400D02*
X159037500Y-106139300D01*
X150525000Y-89375000D02*
X145350000Y-84200000D01*
X163300000Y-89375000D02*
X150525000Y-89375000D01*
X144100000Y-84200000D02*
X145350000Y-84200000D01*
X140838200Y-98395700D02*
X155855500Y-98395700D01*
X131295000Y-88852500D02*
X140838200Y-98395700D01*
X156774700Y-99314900D02*
X155855500Y-98395700D01*
X154498000Y-94987600D02*
X158825300Y-99314900D01*
X138272700Y-94987600D02*
X154498000Y-94987600D01*
X132565000Y-89279900D02*
X138272700Y-94987600D01*
X132565000Y-88449700D02*
X132565000Y-89279900D01*
X131817000Y-87701700D02*
X132565000Y-88449700D01*
X129905800Y-87701700D02*
X131817000Y-87701700D01*
X128755000Y-88852500D02*
X129905800Y-87701700D01*
X132565000Y-87582500D02*
X131295000Y-86312500D01*
X146816900Y-87582500D02*
X132565000Y-87582500D01*
X152295400Y-93061000D02*
X146816900Y-87582500D01*
X154410000Y-93061000D02*
X152295400Y-93061000D01*
X160310300Y-98961300D02*
X154410000Y-93061000D01*
X159391000Y-99880600D02*
X160310300Y-98961300D01*
X117700000Y-116380000D02*
X117700000Y-107930000D01*
X115875000Y-118205000D02*
X117700000Y-116380000D01*
X115875000Y-119905000D02*
X115875000Y-118205000D01*
X112065000Y-109455000D02*
X113560000Y-107960000D01*
X112065000Y-124555000D02*
X112065000Y-109455000D01*
X110795000Y-125825000D02*
X112065000Y-124555000D01*
X110795000Y-127525000D02*
X110795000Y-125825000D01*
X114809600Y-109430400D02*
X115640000Y-108600000D01*
X114809600Y-120801900D02*
X114809600Y-109430400D01*
X115421800Y-121414100D02*
X114809600Y-120801900D01*
X116905900Y-121414100D02*
X115421800Y-121414100D01*
X118415000Y-119905000D02*
X116905900Y-121414100D01*
X184160000Y-108165400D02*
X184160000Y-107965000D01*
X174120400Y-118205000D02*
X184160000Y-108165400D01*
X170795000Y-118205000D02*
X174120400Y-118205000D01*
X170795000Y-119905000D02*
X170795000Y-118205000D01*
X185430000Y-108275600D02*
X185430000Y-106215000D01*
X183449500Y-110256100D02*
X185430000Y-108275600D01*
X182983900Y-110256100D02*
X183449500Y-110256100D01*
X173335000Y-119905000D02*
X182983900Y-110256100D01*
X175875000Y-119905000D02*
X175875000Y-118205000D01*
X186527800Y-105152800D02*
X185430000Y-104055000D01*
X186527800Y-107764400D02*
X186527800Y-105152800D01*
X176087200Y-118205000D02*
X186527800Y-107764400D01*
X175875000Y-118205000D02*
X176087200Y-118205000D01*
X168503000Y-91900000D02*
X159956700Y-100446300D01*
X183500000Y-91900000D02*
X168503000Y-91900000D01*
X149445300Y-121414700D02*
X150955000Y-119905000D01*
X125567300Y-121414700D02*
X149445300Y-121414700D01*
X124765000Y-120612400D02*
X125567300Y-121414700D01*
X124765000Y-119161600D02*
X124765000Y-120612400D01*
X123808400Y-118205000D02*
X124765000Y-119161600D01*
X120955000Y-118205000D02*
X123808400Y-118205000D01*
X120955000Y-119905000D02*
X120955000Y-118205000D01*
X152504900Y-118355100D02*
X150955000Y-119905000D01*
X153931900Y-118355100D02*
X152504900Y-118355100D01*
X154765000Y-119188200D02*
X153931900Y-118355100D01*
X154765000Y-120617400D02*
X154765000Y-119188200D01*
X155600500Y-121452900D02*
X154765000Y-120617400D01*
X179407100Y-121452900D02*
X155600500Y-121452900D01*
X180955000Y-119905000D02*
X179407100Y-121452900D01*
X210955000Y-118205000D02*
X180955000Y-118205000D01*
X210955000Y-119905000D02*
X210955000Y-118205000D01*
X180955000Y-119905000D02*
X180955000Y-118205000D01*
X151507100Y-105855900D02*
X151895700Y-106244500D01*
X151401000Y-105855900D02*
X151507100Y-105855900D01*
X152814900Y-105325300D02*
X151895700Y-106244500D01*
X192500000Y-91900000D02*
X191250000Y-91900000D01*
X168384400Y-93150000D02*
X160522400Y-101012000D01*
X190000000Y-93150000D02*
X168384400Y-93150000D01*
X191250000Y-91900000D02*
X190000000Y-93150000D01*
X145440000Y-91910000D02*
X145350000Y-92000000D01*
X149180000Y-91910000D02*
X145440000Y-91910000D01*
X144100000Y-92000000D02*
X145350000Y-92000000D01*
X139702500Y-88852500D02*
X142850000Y-92000000D01*
X133835000Y-88852500D02*
X139702500Y-88852500D01*
X144100000Y-92000000D02*
X142850000Y-92000000D01*
X154158400Y-108507300D02*
X154158400Y-108507200D01*
X154158400Y-108560900D02*
X154158400Y-108507300D01*
X154096300Y-108623000D02*
X154158400Y-108560900D01*
X155077600Y-107588000D02*
X154158400Y-108507200D01*
X121027500Y-86312500D02*
X119545000Y-87795000D01*
X128755000Y-86312500D02*
X121027500Y-86312500D01*
X117745000Y-87795000D02*
X119545000Y-87795000D01*
X216293800Y-85965000D02*
X216800000Y-85965000D01*
X205400000Y-96858800D02*
X216293800Y-85965000D01*
X205400000Y-101635000D02*
X205400000Y-96858800D01*
X216800000Y-84615000D02*
X216800000Y-85965000D01*
X161653700Y-106456700D02*
X160734500Y-105537400D01*
X160522400Y-107588000D02*
X159603200Y-106668700D01*
X162738400Y-107210500D02*
X162573000Y-107375900D01*
X167996000Y-107210500D02*
X162738400Y-107210500D01*
X170091500Y-105115000D02*
X167996000Y-107210500D01*
X179882000Y-105115000D02*
X170091500Y-105115000D01*
X182100000Y-102897000D02*
X179882000Y-105115000D01*
X182100000Y-101635000D02*
X182100000Y-102897000D01*
X161653700Y-106456700D02*
X162573000Y-107375900D01*
X155077600Y-101012000D02*
X155996900Y-101931200D01*
X156209000Y-99880600D02*
X157128200Y-100799800D01*
X160734500Y-105537400D02*
X160310200Y-105961700D01*
X160310200Y-105961700D02*
X159603200Y-106668700D01*
X156727900Y-101931200D02*
X155996900Y-101931200D01*
X156727900Y-102379400D02*
X156727900Y-101931200D01*
X160310200Y-105961700D02*
X156727900Y-102379400D01*
X156727900Y-101200100D02*
X157128200Y-100799800D01*
X156727900Y-101931200D02*
X156727900Y-101200100D01*
X153800500Y-100450600D02*
X154158400Y-100092700D01*
X141331400Y-100450600D02*
X153800500Y-100450600D01*
X140182000Y-101600000D02*
X141331400Y-100450600D01*
X138920000Y-101600000D02*
X140182000Y-101600000D01*
X155077600Y-101012000D02*
X154158400Y-100092700D01*
M02*
