G04 #@! TF.GenerationSoftware,KiCad,Pcbnew,6.0.0-d3dd2cf0fa~116~ubuntu20.04.1*
G04 #@! TF.CreationDate,2022-01-06T20:49:07+01:00*
G04 #@! TF.ProjectId,numitron clock,6e756d69-7472-46f6-9e20-636c6f636b2e,rev?*
G04 #@! TF.SameCoordinates,Original*
G04 #@! TF.FileFunction,Soldermask,Top*
G04 #@! TF.FilePolarity,Negative*
%FSLAX46Y46*%
G04 Gerber Fmt 4.6, Leading zero omitted, Abs format (unit mm)*
G04 Created by KiCad (PCBNEW 6.0.0-d3dd2cf0fa~116~ubuntu20.04.1) date 2022-01-06 20:49:07*
%MOMM*%
%LPD*%
G01*
G04 APERTURE LIST*
G04 Aperture macros list*
%AMRoundRect*
0 Rectangle with rounded corners*
0 $1 Rounding radius*
0 $2 $3 $4 $5 $6 $7 $8 $9 X,Y pos of 4 corners*
0 Add a 4 corners polygon primitive as box body*
4,1,4,$2,$3,$4,$5,$6,$7,$8,$9,$2,$3,0*
0 Add four circle primitives for the rounded corners*
1,1,$1+$1,$2,$3*
1,1,$1+$1,$4,$5*
1,1,$1+$1,$6,$7*
1,1,$1+$1,$8,$9*
0 Add four rect primitives between the rounded corners*
20,1,$1+$1,$2,$3,$4,$5,0*
20,1,$1+$1,$4,$5,$6,$7,0*
20,1,$1+$1,$6,$7,$8,$9,0*
20,1,$1+$1,$8,$9,$2,$3,0*%
%AMRotRect*
0 Rectangle, with rotation*
0 The origin of the aperture is its center*
0 $1 length*
0 $2 width*
0 $3 Rotation angle, in degrees counterclockwise*
0 Add horizontal line*
21,1,$1,$2,0,0,$3*%
G04 Aperture macros list end*
%ADD10R,1.500000X1.500000*%
%ADD11R,1.700000X1.700000*%
%ADD12O,1.700000X1.700000*%
%ADD13R,1.800000X1.800000*%
%ADD14C,1.800000*%
%ADD15C,1.600000*%
%ADD16O,1.600000X1.600000*%
%ADD17C,1.000000*%
%ADD18RotRect,1.600000X0.550000X225.000000*%
%ADD19RotRect,1.600000X0.550000X135.000000*%
%ADD20R,2.600000X2.600000*%
%ADD21C,2.600000*%
%ADD22R,1.524000X1.524000*%
%ADD23C,1.524000*%
%ADD24RoundRect,0.250000X0.600000X-0.600000X0.600000X0.600000X-0.600000X0.600000X-0.600000X-0.600000X0*%
%ADD25C,1.700000*%
%ADD26R,1.600000X2.400000*%
%ADD27O,1.600000X2.400000*%
G04 APERTURE END LIST*
D10*
X144100000Y-84200000D03*
X144100000Y-92000000D03*
X192500000Y-91900000D03*
X192500000Y-84100000D03*
X183500000Y-91900000D03*
X183500000Y-84100000D03*
D11*
X102900000Y-104025000D03*
D12*
X102900000Y-106565000D03*
X102900000Y-109105000D03*
X102900000Y-111645000D03*
X216800000Y-84615000D03*
X216800000Y-87155000D03*
X216800000Y-89695000D03*
X216800000Y-92235000D03*
D11*
X216800000Y-94775000D03*
D13*
X173200000Y-89375000D03*
D14*
X173200000Y-86835000D03*
D13*
X163300000Y-89375000D03*
D14*
X163300000Y-86835000D03*
D15*
X156300000Y-91910000D03*
D16*
X156300000Y-84290000D03*
D17*
X167945000Y-103965000D03*
X167945000Y-105665000D03*
D18*
X156774695Y-109285103D03*
X156209010Y-108719417D03*
X155643324Y-108153732D03*
X155077639Y-107588047D03*
X154511953Y-107022361D03*
X153946268Y-106456676D03*
X153380583Y-105890990D03*
X152814897Y-105325305D03*
D19*
X152814897Y-103274695D03*
X153380583Y-102709010D03*
X153946268Y-102143324D03*
X154511953Y-101577639D03*
X155077639Y-101011953D03*
X155643324Y-100446268D03*
X156209010Y-99880583D03*
X156774695Y-99314897D03*
D18*
X158825305Y-99314897D03*
X159390990Y-99880583D03*
X159956676Y-100446268D03*
X160522361Y-101011953D03*
X161088047Y-101577639D03*
X161653732Y-102143324D03*
X162219417Y-102709010D03*
X162785103Y-103274695D03*
D19*
X162785103Y-105325305D03*
X162219417Y-105890990D03*
X161653732Y-106456676D03*
X161088047Y-107022361D03*
X160522361Y-107588047D03*
X159956676Y-108153732D03*
X159390990Y-108719417D03*
X158825305Y-109285103D03*
D20*
X117745000Y-87795000D03*
D21*
X112665000Y-87795000D03*
D15*
X152705000Y-91910000D03*
D16*
X152705000Y-84290000D03*
D22*
X205400000Y-101635000D03*
D23*
X203340000Y-102295000D03*
X202070000Y-104045000D03*
X202090000Y-106185000D03*
X203320000Y-107995000D03*
X205400000Y-108635000D03*
X207460000Y-107965000D03*
X208730000Y-106215000D03*
X208730000Y-104055000D03*
X185430000Y-104055000D03*
X185430000Y-106215000D03*
X184160000Y-107965000D03*
X182100000Y-108635000D03*
X180020000Y-107995000D03*
X178790000Y-106185000D03*
X178770000Y-104045000D03*
X180040000Y-102295000D03*
D22*
X182100000Y-101635000D03*
D23*
X118970000Y-104020000D03*
X118970000Y-106180000D03*
X117700000Y-107930000D03*
X115640000Y-108600000D03*
X113560000Y-107960000D03*
X112330000Y-106150000D03*
X112310000Y-104010000D03*
X113580000Y-102260000D03*
D22*
X115640000Y-101600000D03*
D23*
X142250000Y-104020000D03*
X142250000Y-106180000D03*
X140980000Y-107930000D03*
X138920000Y-108600000D03*
X136840000Y-107960000D03*
X135610000Y-106150000D03*
X135590000Y-104010000D03*
X136860000Y-102260000D03*
D22*
X138920000Y-101600000D03*
D15*
X166695000Y-108410000D03*
X169195000Y-108410000D03*
X166695000Y-101425000D03*
X169195000Y-101425000D03*
D24*
X128755000Y-88852500D03*
D25*
X131295000Y-88852500D03*
X133835000Y-88852500D03*
X128755000Y-86312500D03*
X131295000Y-86312500D03*
X133835000Y-86312500D03*
D26*
X163175000Y-127525000D03*
D27*
X186035000Y-119905000D03*
X165715000Y-127525000D03*
X183495000Y-119905000D03*
X168255000Y-127525000D03*
X180955000Y-119905000D03*
X170795000Y-127525000D03*
X178415000Y-119905000D03*
X173335000Y-127525000D03*
X175875000Y-119905000D03*
X175875000Y-127525000D03*
X173335000Y-119905000D03*
X178415000Y-127525000D03*
X170795000Y-119905000D03*
X180955000Y-127525000D03*
X168255000Y-119905000D03*
X183495000Y-127525000D03*
X165715000Y-119905000D03*
X186035000Y-127525000D03*
X163175000Y-119905000D03*
D16*
X149180000Y-91910000D03*
D15*
X149180000Y-84290000D03*
D26*
X133175000Y-127525000D03*
D27*
X135715000Y-127525000D03*
X138255000Y-127525000D03*
X140795000Y-127525000D03*
X143335000Y-127525000D03*
X145875000Y-127525000D03*
X148415000Y-127525000D03*
X150955000Y-127525000D03*
X153495000Y-127525000D03*
X156035000Y-127525000D03*
X156035000Y-119905000D03*
X153495000Y-119905000D03*
X150955000Y-119905000D03*
X148415000Y-119905000D03*
X145875000Y-119905000D03*
X143335000Y-119905000D03*
X140795000Y-119905000D03*
X138255000Y-119905000D03*
X135715000Y-119905000D03*
X133175000Y-119905000D03*
D26*
X103175000Y-127525000D03*
D27*
X105715000Y-127525000D03*
X108255000Y-127525000D03*
X110795000Y-127525000D03*
X113335000Y-127525000D03*
X115875000Y-127525000D03*
X118415000Y-127525000D03*
X120955000Y-127525000D03*
X123495000Y-127525000D03*
X126035000Y-127525000D03*
X126035000Y-119905000D03*
X123495000Y-119905000D03*
X120955000Y-119905000D03*
X118415000Y-119905000D03*
X115875000Y-119905000D03*
X113335000Y-119905000D03*
X110795000Y-119905000D03*
X108255000Y-119905000D03*
X105715000Y-119905000D03*
X103175000Y-119905000D03*
D26*
X193175000Y-127525000D03*
D27*
X195715000Y-127525000D03*
X198255000Y-127525000D03*
X200795000Y-127525000D03*
X203335000Y-127525000D03*
X205875000Y-127525000D03*
X208415000Y-127525000D03*
X210955000Y-127525000D03*
X213495000Y-127525000D03*
X216035000Y-127525000D03*
X216035000Y-119905000D03*
X213495000Y-119905000D03*
X210955000Y-119905000D03*
X208415000Y-119905000D03*
X205875000Y-119905000D03*
X203335000Y-119905000D03*
X200795000Y-119905000D03*
X198255000Y-119905000D03*
X195715000Y-119905000D03*
X193175000Y-119905000D03*
M02*
