G04 #@! TF.FileFunction,Copper,L2,Bot,Signal*
%FSLAX46Y46*%
G04 Gerber Fmt 4.6, Leading zero omitted, Abs format (unit mm)*
G04 Created by KiCad (PCBNEW 4.0.2+dfsg1-stable) date tis 19 jun 2018 20:47:41*
%MOMM*%
G01*
G04 APERTURE LIST*
%ADD10C,0.100000*%
%ADD11R,1.800000X1.800000*%
%ADD12C,1.800000*%
%ADD13R,1.700000X1.700000*%
%ADD14O,1.700000X1.700000*%
%ADD15R,2.400000X1.600000*%
%ADD16O,2.400000X1.600000*%
%ADD17C,0.500000*%
G04 APERTURE END LIST*
D10*
D11*
X12065000Y15240000D03*
D12*
X9525000Y15240000D03*
D13*
X18415000Y3175000D03*
D14*
X18415000Y5715000D03*
X18415000Y8255000D03*
X18415000Y10795000D03*
D13*
X3175000Y10795000D03*
D14*
X3175000Y8255000D03*
X3175000Y5715000D03*
X3175000Y3175000D03*
D15*
X6985000Y10795000D03*
D16*
X14605000Y3175000D03*
X6985000Y8255000D03*
X14605000Y5715000D03*
X6985000Y5715000D03*
X14605000Y8255000D03*
X6985000Y3175000D03*
X14605000Y10795000D03*
D17*
X3175000Y3175000D02*
X6985000Y3175000D01*
X6985000Y3175000D02*
X10160000Y3175000D01*
X10160000Y3175000D02*
X12065000Y5080000D01*
X12065000Y5080000D02*
X12065000Y15240000D01*
X3175000Y8255000D02*
X6985000Y8255000D01*
X6985000Y8255000D02*
X8890000Y8255000D01*
X8890000Y8255000D02*
X9525000Y8890000D01*
X9525000Y8890000D02*
X9525000Y15240000D01*
X14605000Y3175000D02*
X18415000Y3175000D01*
X14605000Y5715000D02*
X18415000Y5715000D01*
X14605000Y8255000D02*
X18415000Y8255000D01*
X14605000Y10795000D02*
X18415000Y10795000D01*
X3175000Y10795000D02*
X6985000Y10795000D01*
X3175000Y5715000D02*
X6985000Y5715000D01*
M02*
