G04 #@! TF.GenerationSoftware,KiCad,Pcbnew,5.1.0-060a0da~80~ubuntu18.04.1*
G04 #@! TF.CreationDate,2019-03-27T19:23:36+01:00*
G04 #@! TF.ProjectId,distpedal,64697374-7065-4646-916c-2e6b69636164,rev?*
G04 #@! TF.SameCoordinates,PX6d01460PY6ad32b0*
G04 #@! TF.FileFunction,Legend,Top*
G04 #@! TF.FilePolarity,Positive*
%FSLAX46Y46*%
G04 Gerber Fmt 4.6, Leading zero omitted, Abs format (unit mm)*
G04 Created by KiCad (PCBNEW 5.1.0-060a0da~80~ubuntu18.04.1) date 2019-03-27 19:23:36*
%MOMM*%
%LPD*%
G04 APERTURE LIST*
%ADD10C,0.120000*%
%ADD11C,0.150000*%
G04 APERTURE END LIST*
D10*
X41346000Y38569000D02*
X41346000Y38554000D01*
X41346000Y40694000D02*
X41346000Y40679000D01*
X36806000Y38569000D02*
X36806000Y38554000D01*
X36806000Y40694000D02*
X36806000Y40679000D01*
X36806000Y38554000D02*
X41346000Y38554000D01*
X36806000Y40694000D02*
X41346000Y40694000D01*
X77580000Y11692000D02*
X77580000Y7452000D01*
X67580000Y11692000D02*
X67580000Y7452000D01*
X67580000Y7452000D02*
X77580000Y7452000D01*
X67580000Y11692000D02*
X77580000Y11692000D01*
X67580000Y13192000D02*
X67580000Y5952000D01*
X62580000Y13192000D02*
X62580000Y5952000D01*
X62580000Y5952000D02*
X67580000Y5952000D01*
X62580000Y13192000D02*
X67580000Y13192000D01*
X62580000Y17692000D02*
X62580000Y1452000D01*
X54840000Y17692000D02*
X54840000Y1452000D01*
X54840000Y1452000D02*
X62580000Y1452000D01*
X54840000Y17692000D02*
X62580000Y17692000D01*
X27040000Y20162000D02*
X27040000Y22002000D01*
X27040000Y22002000D02*
X23760000Y22002000D01*
X23760000Y22002000D02*
X23760000Y20162000D01*
X23760000Y20162000D02*
X27040000Y20162000D01*
X28220000Y21082000D02*
X27040000Y21082000D01*
X22580000Y21082000D02*
X23760000Y21082000D01*
X26464000Y20162000D02*
X26464000Y22002000D01*
X26344000Y20162000D02*
X26344000Y22002000D01*
X26584000Y20162000D02*
X26584000Y22002000D01*
X24216000Y17430000D02*
X24216000Y15590000D01*
X24456000Y17430000D02*
X24456000Y15590000D01*
X24336000Y17430000D02*
X24336000Y15590000D01*
X28220000Y16510000D02*
X27040000Y16510000D01*
X22580000Y16510000D02*
X23760000Y16510000D01*
X27040000Y17430000D02*
X23760000Y17430000D01*
X27040000Y15590000D02*
X27040000Y17430000D01*
X23760000Y15590000D02*
X27040000Y15590000D01*
X23760000Y17430000D02*
X23760000Y15590000D01*
X11144000Y29694000D02*
X11144000Y29364000D01*
X11144000Y29364000D02*
X4604000Y29364000D01*
X4604000Y29364000D02*
X4604000Y29694000D01*
X11144000Y31774000D02*
X11144000Y32104000D01*
X11144000Y32104000D02*
X4604000Y32104000D01*
X4604000Y32104000D02*
X4604000Y31774000D01*
X11157629Y23695002D02*
X11157629Y24025002D01*
X4617629Y23695002D02*
X11157629Y23695002D01*
X4617629Y24025002D02*
X4617629Y23695002D01*
X11157629Y26435002D02*
X11157629Y26105002D01*
X4617629Y26435002D02*
X11157629Y26435002D01*
X4617629Y26105002D02*
X4617629Y26435002D01*
X49808000Y39592000D02*
X50138000Y39592000D01*
X50138000Y39592000D02*
X50138000Y33052000D01*
X50138000Y33052000D02*
X49808000Y33052000D01*
X47728000Y39592000D02*
X47398000Y39592000D01*
X47398000Y39592000D02*
X47398000Y33052000D01*
X47398000Y33052000D02*
X47728000Y33052000D01*
X43026000Y33242000D02*
X42696000Y33242000D01*
X43026000Y26702000D02*
X43026000Y33242000D01*
X42696000Y26702000D02*
X43026000Y26702000D01*
X40286000Y33242000D02*
X40616000Y33242000D01*
X40286000Y26702000D02*
X40286000Y33242000D01*
X40616000Y26702000D02*
X40286000Y26702000D01*
X37314000Y8922000D02*
X36984000Y8922000D01*
X36984000Y8922000D02*
X36984000Y15462000D01*
X36984000Y15462000D02*
X37314000Y15462000D01*
X39394000Y8922000D02*
X39724000Y8922000D01*
X39724000Y8922000D02*
X39724000Y15462000D01*
X39724000Y15462000D02*
X39394000Y15462000D01*
X11144000Y18533336D02*
X11144000Y18203336D01*
X11144000Y18203336D02*
X4604000Y18203336D01*
X4604000Y18203336D02*
X4604000Y18533336D01*
X11144000Y20613336D02*
X11144000Y20943336D01*
X11144000Y20943336D02*
X4604000Y20943336D01*
X4604000Y20943336D02*
X4604000Y20613336D01*
X11144000Y12711670D02*
X11144000Y13041670D01*
X4604000Y12711670D02*
X11144000Y12711670D01*
X4604000Y13041670D02*
X4604000Y12711670D01*
X11144000Y15451670D02*
X11144000Y15121670D01*
X4604000Y15451670D02*
X11144000Y15451670D01*
X4604000Y15121670D02*
X4604000Y15451670D01*
X54840000Y44870000D02*
X62580000Y44870000D01*
X54840000Y28630000D02*
X62580000Y28630000D01*
X54840000Y44870000D02*
X54840000Y28630000D01*
X62580000Y44870000D02*
X62580000Y28630000D01*
X62580000Y40370000D02*
X67580000Y40370000D01*
X62580000Y33130000D02*
X67580000Y33130000D01*
X62580000Y40370000D02*
X62580000Y33130000D01*
X67580000Y40370000D02*
X67580000Y33130000D01*
X67580000Y38870000D02*
X77580000Y38870000D01*
X67580000Y34630000D02*
X77580000Y34630000D01*
X67580000Y38870000D02*
X67580000Y34630000D01*
X77580000Y38870000D02*
X77580000Y34630000D01*
X30883829Y30694536D02*
G75*
G02X30883829Y32694536I0J1000000D01*
G01*
X30883829Y32694536D02*
X30883829Y33944536D01*
X30883829Y33944536D02*
X20603829Y33944536D01*
X20603829Y33944536D02*
X20603829Y29444536D01*
X20603829Y29444536D02*
X30883829Y29444536D01*
X30883829Y29444536D02*
X30883829Y30694536D01*
X55904000Y26384000D02*
X56234000Y26384000D01*
X56234000Y26384000D02*
X56234000Y19844000D01*
X56234000Y19844000D02*
X55904000Y19844000D01*
X53824000Y26384000D02*
X53494000Y26384000D01*
X53494000Y26384000D02*
X53494000Y19844000D01*
X53494000Y19844000D02*
X53824000Y19844000D01*
X5564000Y41202000D02*
X10104000Y41202000D01*
X5564000Y39062000D02*
X10104000Y39062000D01*
X5564000Y41202000D02*
X5564000Y41187000D01*
X5564000Y39077000D02*
X5564000Y39062000D01*
X10104000Y41202000D02*
X10104000Y41187000D01*
X10104000Y39077000D02*
X10104000Y39062000D01*
X10104000Y34505000D02*
X10104000Y34490000D01*
X10104000Y36630000D02*
X10104000Y36615000D01*
X5564000Y34505000D02*
X5564000Y34490000D01*
X5564000Y36630000D02*
X5564000Y36615000D01*
X5564000Y34490000D02*
X10104000Y34490000D01*
X5564000Y36630000D02*
X10104000Y36630000D01*
X36806000Y22406000D02*
X41346000Y22406000D01*
X36806000Y20266000D02*
X41346000Y20266000D01*
X36806000Y22406000D02*
X36806000Y22391000D01*
X36806000Y20281000D02*
X36806000Y20266000D01*
X41346000Y22406000D02*
X41346000Y22391000D01*
X41346000Y20281000D02*
X41346000Y20266000D01*
X26440000Y10360000D02*
X21900000Y10360000D01*
X26440000Y12500000D02*
X21900000Y12500000D01*
X26440000Y10360000D02*
X26440000Y10375000D01*
X26440000Y12485000D02*
X26440000Y12500000D01*
X21900000Y10360000D02*
X21900000Y10375000D01*
X21900000Y12485000D02*
X21900000Y12500000D01*
X5564000Y9960000D02*
X10104000Y9960000D01*
X5564000Y7820000D02*
X10104000Y7820000D01*
X5564000Y9960000D02*
X5564000Y9945000D01*
X5564000Y7835000D02*
X5564000Y7820000D01*
X10104000Y9960000D02*
X10104000Y9945000D01*
X10104000Y7835000D02*
X10104000Y7820000D01*
X16504629Y43865800D02*
G75*
G03X16504629Y43865800I-1251000J0D01*
G01*
X25851829Y43865800D02*
G75*
G03X25851829Y43865800I-1251000J0D01*
G01*
X61589629Y25440667D02*
G75*
G03X61589629Y25440667I-1251000J0D01*
G01*
X61589629Y20881334D02*
G75*
G03X61589629Y20881334I-1251000J0D01*
G01*
X50019000Y21336000D02*
G75*
G03X50019000Y21336000I-1251000J0D01*
G01*
X50019000Y16764000D02*
G75*
G03X50019000Y16764000I-1251000J0D01*
G01*
X25851829Y5126136D02*
G75*
G03X25851829Y5126136I-1251000J0D01*
G01*
X16504629Y5126136D02*
G75*
G03X16504629Y5126136I-1251000J0D01*
G01*
D11*
X38909333Y41466858D02*
X38861714Y41419239D01*
X38718857Y41371620D01*
X38623619Y41371620D01*
X38480761Y41419239D01*
X38385523Y41514477D01*
X38337904Y41609715D01*
X38290285Y41800191D01*
X38290285Y41943048D01*
X38337904Y42133524D01*
X38385523Y42228762D01*
X38480761Y42324000D01*
X38623619Y42371620D01*
X38718857Y42371620D01*
X38861714Y42324000D01*
X38909333Y42276381D01*
X39242666Y42371620D02*
X39861714Y42371620D01*
X39528380Y41990667D01*
X39671238Y41990667D01*
X39766476Y41943048D01*
X39814095Y41895429D01*
X39861714Y41800191D01*
X39861714Y41562096D01*
X39814095Y41466858D01*
X39766476Y41419239D01*
X39671238Y41371620D01*
X39385523Y41371620D01*
X39290285Y41419239D01*
X39242666Y41466858D01*
X59745714Y18369620D02*
X59412380Y18845810D01*
X59174285Y18369620D02*
X59174285Y19369620D01*
X59555238Y19369620D01*
X59650476Y19322000D01*
X59698095Y19274381D01*
X59745714Y19179143D01*
X59745714Y19036286D01*
X59698095Y18941048D01*
X59650476Y18893429D01*
X59555238Y18845810D01*
X59174285Y18845810D01*
X60031428Y19369620D02*
X60364761Y18369620D01*
X60698095Y19369620D01*
X61031428Y18750572D02*
X61793333Y18750572D01*
X62221904Y19274381D02*
X62269523Y19322000D01*
X62364761Y19369620D01*
X62602857Y19369620D01*
X62698095Y19322000D01*
X62745714Y19274381D01*
X62793333Y19179143D01*
X62793333Y19083905D01*
X62745714Y18941048D01*
X62174285Y18369620D01*
X62793333Y18369620D01*
X18819904Y22407620D02*
X18819904Y23407620D01*
X19058000Y23407620D01*
X19200857Y23360000D01*
X19296095Y23264762D01*
X19343714Y23169524D01*
X19391333Y22979048D01*
X19391333Y22836191D01*
X19343714Y22645715D01*
X19296095Y22550477D01*
X19200857Y22455239D01*
X19058000Y22407620D01*
X18819904Y22407620D01*
X20343714Y22407620D02*
X19772285Y22407620D01*
X20058000Y22407620D02*
X20058000Y23407620D01*
X19962761Y23264762D01*
X19867523Y23169524D01*
X19772285Y23121905D01*
X28948095Y18879620D02*
X28948095Y19879620D01*
X29519523Y18879620D02*
X29090952Y19451048D01*
X29519523Y19879620D02*
X28948095Y19308191D01*
X18565904Y17581620D02*
X18565904Y18581620D01*
X18804000Y18581620D01*
X18946857Y18534000D01*
X19042095Y18438762D01*
X19089714Y18343524D01*
X19137333Y18153048D01*
X19137333Y18010191D01*
X19089714Y17819715D01*
X19042095Y17724477D01*
X18946857Y17629239D01*
X18804000Y17581620D01*
X18565904Y17581620D01*
X19518285Y18486381D02*
X19565904Y18534000D01*
X19661142Y18581620D01*
X19899238Y18581620D01*
X19994476Y18534000D01*
X20042095Y18486381D01*
X20089714Y18391143D01*
X20089714Y18295905D01*
X20042095Y18153048D01*
X19470666Y17581620D01*
X20089714Y17581620D01*
X21328095Y17807620D02*
X21328095Y18807620D01*
X21899523Y17807620D02*
X21470952Y18379048D01*
X21899523Y18807620D02*
X21328095Y18236191D01*
X14057333Y30104288D02*
X13724000Y30580478D01*
X13485904Y30104288D02*
X13485904Y31104288D01*
X13866857Y31104288D01*
X13962095Y31056668D01*
X14009714Y31009049D01*
X14057333Y30913811D01*
X14057333Y30770954D01*
X14009714Y30675716D01*
X13962095Y30628097D01*
X13866857Y30580478D01*
X13485904Y30580478D01*
X15009714Y30104288D02*
X14438285Y30104288D01*
X14724000Y30104288D02*
X14724000Y31104288D01*
X14628761Y30961430D01*
X14533523Y30866192D01*
X14438285Y30818573D01*
X1357333Y24693620D02*
X1024000Y25169810D01*
X785904Y24693620D02*
X785904Y25693620D01*
X1166857Y25693620D01*
X1262095Y25646000D01*
X1309714Y25598381D01*
X1357333Y25503143D01*
X1357333Y25360286D01*
X1309714Y25265048D01*
X1262095Y25217429D01*
X1166857Y25169810D01*
X785904Y25169810D01*
X1738285Y25598381D02*
X1785904Y25646000D01*
X1881142Y25693620D01*
X2119238Y25693620D01*
X2214476Y25646000D01*
X2262095Y25598381D01*
X2309714Y25503143D01*
X2309714Y25407905D01*
X2262095Y25265048D01*
X1690666Y24693620D01*
X2309714Y24693620D01*
X51590380Y36155334D02*
X51114190Y35822000D01*
X51590380Y35583905D02*
X50590380Y35583905D01*
X50590380Y35964858D01*
X50638000Y36060096D01*
X50685619Y36107715D01*
X50780857Y36155334D01*
X50923714Y36155334D01*
X51018952Y36107715D01*
X51066571Y36060096D01*
X51114190Y35964858D01*
X51114190Y35583905D01*
X50590380Y36488667D02*
X50590380Y37107715D01*
X50971333Y36774381D01*
X50971333Y36917239D01*
X51018952Y37012477D01*
X51066571Y37060096D01*
X51161809Y37107715D01*
X51399904Y37107715D01*
X51495142Y37060096D01*
X51542761Y37012477D01*
X51590380Y36917239D01*
X51590380Y36631524D01*
X51542761Y36536286D01*
X51495142Y36488667D01*
X39738380Y29805334D02*
X39262190Y29472000D01*
X39738380Y29233905D02*
X38738380Y29233905D01*
X38738380Y29614858D01*
X38786000Y29710096D01*
X38833619Y29757715D01*
X38928857Y29805334D01*
X39071714Y29805334D01*
X39166952Y29757715D01*
X39214571Y29710096D01*
X39262190Y29614858D01*
X39262190Y29233905D01*
X39071714Y30662477D02*
X39738380Y30662477D01*
X38690761Y30424381D02*
X39405047Y30186286D01*
X39405047Y30805334D01*
X36436380Y12025334D02*
X35960190Y11692000D01*
X36436380Y11453905D02*
X35436380Y11453905D01*
X35436380Y11834858D01*
X35484000Y11930096D01*
X35531619Y11977715D01*
X35626857Y12025334D01*
X35769714Y12025334D01*
X35864952Y11977715D01*
X35912571Y11930096D01*
X35960190Y11834858D01*
X35960190Y11453905D01*
X35436380Y12930096D02*
X35436380Y12453905D01*
X35912571Y12406286D01*
X35864952Y12453905D01*
X35817333Y12549143D01*
X35817333Y12787239D01*
X35864952Y12882477D01*
X35912571Y12930096D01*
X36007809Y12977715D01*
X36245904Y12977715D01*
X36341142Y12930096D01*
X36388761Y12882477D01*
X36436380Y12787239D01*
X36436380Y12549143D01*
X36388761Y12453905D01*
X36341142Y12406286D01*
X1103333Y19105620D02*
X770000Y19581810D01*
X531904Y19105620D02*
X531904Y20105620D01*
X912857Y20105620D01*
X1008095Y20058000D01*
X1055714Y20010381D01*
X1103333Y19915143D01*
X1103333Y19772286D01*
X1055714Y19677048D01*
X1008095Y19629429D01*
X912857Y19581810D01*
X531904Y19581810D01*
X1960476Y20105620D02*
X1770000Y20105620D01*
X1674761Y20058000D01*
X1627142Y20010381D01*
X1531904Y19867524D01*
X1484285Y19677048D01*
X1484285Y19296096D01*
X1531904Y19200858D01*
X1579523Y19153239D01*
X1674761Y19105620D01*
X1865238Y19105620D01*
X1960476Y19153239D01*
X2008095Y19200858D01*
X2055714Y19296096D01*
X2055714Y19534191D01*
X2008095Y19629429D01*
X1960476Y19677048D01*
X1865238Y19724667D01*
X1674761Y19724667D01*
X1579523Y19677048D01*
X1531904Y19629429D01*
X1484285Y19534191D01*
X1357333Y13517620D02*
X1024000Y13993810D01*
X785904Y13517620D02*
X785904Y14517620D01*
X1166857Y14517620D01*
X1262095Y14470000D01*
X1309714Y14422381D01*
X1357333Y14327143D01*
X1357333Y14184286D01*
X1309714Y14089048D01*
X1262095Y14041429D01*
X1166857Y13993810D01*
X785904Y13993810D01*
X1690666Y14517620D02*
X2357333Y14517620D01*
X1928761Y13517620D01*
X59745714Y45547620D02*
X59412380Y46023810D01*
X59174285Y45547620D02*
X59174285Y46547620D01*
X59555238Y46547620D01*
X59650476Y46500000D01*
X59698095Y46452381D01*
X59745714Y46357143D01*
X59745714Y46214286D01*
X59698095Y46119048D01*
X59650476Y46071429D01*
X59555238Y46023810D01*
X59174285Y46023810D01*
X60031428Y46547620D02*
X60364761Y45547620D01*
X60698095Y46547620D01*
X61031428Y45928572D02*
X61793333Y45928572D01*
X62793333Y45547620D02*
X62221904Y45547620D01*
X62507619Y45547620D02*
X62507619Y46547620D01*
X62412380Y46404762D01*
X62317142Y46309524D01*
X62221904Y46261905D01*
X31336209Y30932632D02*
X32145733Y30932632D01*
X32240971Y30980251D01*
X32288590Y31027870D01*
X32336209Y31123108D01*
X32336209Y31313584D01*
X32288590Y31408822D01*
X32240971Y31456441D01*
X32145733Y31504060D01*
X31336209Y31504060D01*
X32336209Y32504060D02*
X32336209Y31932632D01*
X32336209Y32218346D02*
X31336209Y32218346D01*
X31479067Y32123108D01*
X31574305Y32027870D01*
X31621924Y31932632D01*
X57686380Y22947334D02*
X57210190Y22614000D01*
X57686380Y22375905D02*
X56686380Y22375905D01*
X56686380Y22756858D01*
X56734000Y22852096D01*
X56781619Y22899715D01*
X56876857Y22947334D01*
X57019714Y22947334D01*
X57114952Y22899715D01*
X57162571Y22852096D01*
X57210190Y22756858D01*
X57210190Y22375905D01*
X57114952Y23518762D02*
X57067333Y23423524D01*
X57019714Y23375905D01*
X56924476Y23328286D01*
X56876857Y23328286D01*
X56781619Y23375905D01*
X56734000Y23423524D01*
X56686380Y23518762D01*
X56686380Y23709239D01*
X56734000Y23804477D01*
X56781619Y23852096D01*
X56876857Y23899715D01*
X56924476Y23899715D01*
X57019714Y23852096D01*
X57067333Y23804477D01*
X57114952Y23709239D01*
X57114952Y23518762D01*
X57162571Y23423524D01*
X57210190Y23375905D01*
X57305428Y23328286D01*
X57495904Y23328286D01*
X57591142Y23375905D01*
X57638761Y23423524D01*
X57686380Y23518762D01*
X57686380Y23709239D01*
X57638761Y23804477D01*
X57591142Y23852096D01*
X57495904Y23899715D01*
X57305428Y23899715D01*
X57210190Y23852096D01*
X57162571Y23804477D01*
X57114952Y23709239D01*
X2373333Y39774858D02*
X2325714Y39727239D01*
X2182857Y39679620D01*
X2087619Y39679620D01*
X1944761Y39727239D01*
X1849523Y39822477D01*
X1801904Y39917715D01*
X1754285Y40108191D01*
X1754285Y40251048D01*
X1801904Y40441524D01*
X1849523Y40536762D01*
X1944761Y40632000D01*
X2087619Y40679620D01*
X2182857Y40679620D01*
X2325714Y40632000D01*
X2373333Y40584381D01*
X3325714Y39679620D02*
X2754285Y39679620D01*
X3040000Y39679620D02*
X3040000Y40679620D01*
X2944761Y40536762D01*
X2849523Y40441524D01*
X2754285Y40393905D01*
X13268962Y35137192D02*
X13221343Y35089573D01*
X13078486Y35041954D01*
X12983248Y35041954D01*
X12840390Y35089573D01*
X12745152Y35184811D01*
X12697533Y35280049D01*
X12649914Y35470525D01*
X12649914Y35613382D01*
X12697533Y35803858D01*
X12745152Y35899096D01*
X12840390Y35994334D01*
X12983248Y36041954D01*
X13078486Y36041954D01*
X13221343Y35994334D01*
X13268962Y35946715D01*
X13649914Y35946715D02*
X13697533Y35994334D01*
X13792771Y36041954D01*
X14030867Y36041954D01*
X14126105Y35994334D01*
X14173724Y35946715D01*
X14221343Y35851477D01*
X14221343Y35756239D01*
X14173724Y35613382D01*
X13602295Y35041954D01*
X14221343Y35041954D01*
X38909333Y23178858D02*
X38861714Y23131239D01*
X38718857Y23083620D01*
X38623619Y23083620D01*
X38480761Y23131239D01*
X38385523Y23226477D01*
X38337904Y23321715D01*
X38290285Y23512191D01*
X38290285Y23655048D01*
X38337904Y23845524D01*
X38385523Y23940762D01*
X38480761Y24036000D01*
X38623619Y24083620D01*
X38718857Y24083620D01*
X38861714Y24036000D01*
X38909333Y23988381D01*
X39766476Y23750286D02*
X39766476Y23083620D01*
X39528380Y24131239D02*
X39290285Y23416953D01*
X39909333Y23416953D01*
X24003333Y8872858D02*
X23955714Y8825239D01*
X23812857Y8777620D01*
X23717619Y8777620D01*
X23574761Y8825239D01*
X23479523Y8920477D01*
X23431904Y9015715D01*
X23384285Y9206191D01*
X23384285Y9349048D01*
X23431904Y9539524D01*
X23479523Y9634762D01*
X23574761Y9730000D01*
X23717619Y9777620D01*
X23812857Y9777620D01*
X23955714Y9730000D01*
X24003333Y9682381D01*
X24908095Y9777620D02*
X24431904Y9777620D01*
X24384285Y9301429D01*
X24431904Y9349048D01*
X24527142Y9396667D01*
X24765238Y9396667D01*
X24860476Y9349048D01*
X24908095Y9301429D01*
X24955714Y9206191D01*
X24955714Y8968096D01*
X24908095Y8872858D01*
X24860476Y8825239D01*
X24765238Y8777620D01*
X24527142Y8777620D01*
X24431904Y8825239D01*
X24384285Y8872858D01*
X2119333Y8278858D02*
X2071714Y8231239D01*
X1928857Y8183620D01*
X1833619Y8183620D01*
X1690761Y8231239D01*
X1595523Y8326477D01*
X1547904Y8421715D01*
X1500285Y8612191D01*
X1500285Y8755048D01*
X1547904Y8945524D01*
X1595523Y9040762D01*
X1690761Y9136000D01*
X1833619Y9183620D01*
X1928857Y9183620D01*
X2071714Y9136000D01*
X2119333Y9088381D01*
X2976476Y9183620D02*
X2786000Y9183620D01*
X2690761Y9136000D01*
X2643142Y9088381D01*
X2547904Y8945524D01*
X2500285Y8755048D01*
X2500285Y8374096D01*
X2547904Y8278858D01*
X2595523Y8231239D01*
X2690761Y8183620D01*
X2881238Y8183620D01*
X2976476Y8231239D01*
X3024095Y8278858D01*
X3071714Y8374096D01*
X3071714Y8612191D01*
X3024095Y8707429D01*
X2976476Y8755048D01*
X2881238Y8802667D01*
X2690761Y8802667D01*
X2595523Y8755048D01*
X2547904Y8707429D01*
X2500285Y8612191D01*
X14920295Y46663420D02*
X14920295Y45949134D01*
X14872676Y45806277D01*
X14777438Y45711039D01*
X14634581Y45663420D01*
X14539343Y45663420D01*
X15920295Y45663420D02*
X15348867Y45663420D01*
X15634581Y45663420D02*
X15634581Y46663420D01*
X15539343Y46520562D01*
X15444105Y46425324D01*
X15348867Y46377705D01*
X24267495Y46663420D02*
X24267495Y45949134D01*
X24219876Y45806277D01*
X24124638Y45711039D01*
X23981781Y45663420D01*
X23886543Y45663420D01*
X24696067Y46568181D02*
X24743686Y46615800D01*
X24838924Y46663420D01*
X25077019Y46663420D01*
X25172257Y46615800D01*
X25219876Y46568181D01*
X25267495Y46472943D01*
X25267495Y46377705D01*
X25219876Y46234848D01*
X24648448Y45663420D01*
X25267495Y45663420D01*
X57541009Y25107334D02*
X58255295Y25107334D01*
X58398152Y25059715D01*
X58493390Y24964477D01*
X58541009Y24821620D01*
X58541009Y24726382D01*
X57541009Y25488287D02*
X57541009Y26107334D01*
X57921962Y25774001D01*
X57921962Y25916858D01*
X57969581Y26012096D01*
X58017200Y26059715D01*
X58112438Y26107334D01*
X58350533Y26107334D01*
X58445771Y26059715D01*
X58493390Y26012096D01*
X58541009Y25916858D01*
X58541009Y25631144D01*
X58493390Y25535906D01*
X58445771Y25488287D01*
X57541009Y20548001D02*
X58255295Y20548001D01*
X58398152Y20500382D01*
X58493390Y20405144D01*
X58541009Y20262287D01*
X58541009Y20167049D01*
X57874343Y21452763D02*
X58541009Y21452763D01*
X57493390Y21214668D02*
X58207676Y20976573D01*
X58207676Y21595620D01*
X45970380Y21002667D02*
X46684666Y21002667D01*
X46827523Y20955048D01*
X46922761Y20859810D01*
X46970380Y20716953D01*
X46970380Y20621715D01*
X45970380Y21955048D02*
X45970380Y21478858D01*
X46446571Y21431239D01*
X46398952Y21478858D01*
X46351333Y21574096D01*
X46351333Y21812191D01*
X46398952Y21907429D01*
X46446571Y21955048D01*
X46541809Y22002667D01*
X46779904Y22002667D01*
X46875142Y21955048D01*
X46922761Y21907429D01*
X46970380Y21812191D01*
X46970380Y21574096D01*
X46922761Y21478858D01*
X46875142Y21431239D01*
X45970380Y16430667D02*
X46684666Y16430667D01*
X46827523Y16383048D01*
X46922761Y16287810D01*
X46970380Y16144953D01*
X46970380Y16049715D01*
X45970380Y17335429D02*
X45970380Y17144953D01*
X46018000Y17049715D01*
X46065619Y17002096D01*
X46208476Y16906858D01*
X46398952Y16859239D01*
X46779904Y16859239D01*
X46875142Y16906858D01*
X46922761Y16954477D01*
X46970380Y17049715D01*
X46970380Y17240191D01*
X46922761Y17335429D01*
X46875142Y17383048D01*
X46779904Y17430667D01*
X46541809Y17430667D01*
X46446571Y17383048D01*
X46398952Y17335429D01*
X46351333Y17240191D01*
X46351333Y17049715D01*
X46398952Y16954477D01*
X46446571Y16906858D01*
X46541809Y16859239D01*
X24267495Y3423756D02*
X24267495Y2709470D01*
X24219876Y2566613D01*
X24124638Y2471375D01*
X23981781Y2423756D01*
X23886543Y2423756D01*
X24648448Y3423756D02*
X25315114Y3423756D01*
X24886543Y2423756D01*
X14920295Y3423756D02*
X14920295Y2709470D01*
X14872676Y2566613D01*
X14777438Y2471375D01*
X14634581Y2423756D01*
X14539343Y2423756D01*
X15539343Y2995184D02*
X15444105Y3042803D01*
X15396486Y3090422D01*
X15348867Y3185660D01*
X15348867Y3233279D01*
X15396486Y3328517D01*
X15444105Y3376136D01*
X15539343Y3423756D01*
X15729819Y3423756D01*
X15825057Y3376136D01*
X15872676Y3328517D01*
X15920295Y3233279D01*
X15920295Y3185660D01*
X15872676Y3090422D01*
X15825057Y3042803D01*
X15729819Y2995184D01*
X15539343Y2995184D01*
X15444105Y2947565D01*
X15396486Y2899946D01*
X15348867Y2804708D01*
X15348867Y2614232D01*
X15396486Y2518994D01*
X15444105Y2471375D01*
X15539343Y2423756D01*
X15729819Y2423756D01*
X15825057Y2471375D01*
X15872676Y2518994D01*
X15920295Y2614232D01*
X15920295Y2804708D01*
X15872676Y2899946D01*
X15825057Y2947565D01*
X15729819Y2995184D01*
M02*
