M48
; DRILL file {KiCad 5.1.0-060a0da~80~ubuntu18.04.1} date Wed 27 Mar 2019 07:24:15 PM CET
; FORMAT={-:-/ absolute / metric / decimal}
; #@! TF.CreationDate,2019-03-27T19:24:15+01:00
; #@! TF.GenerationSoftware,Kicad,Pcbnew,5.1.0-060a0da~80~ubuntu18.04.1
FMAT,2
METRIC
T1C0.800
T3C1.000
T4C1.300
%
G90
G05
T1
X21.59Y21.082
X29.21Y21.082
X21.59Y16.51
X29.21Y16.51
X54.864Y26.924
X54.864Y19.304
X48.768Y40.132
X48.768Y32.512
X21.934Y35.505
X21.934Y27.885
X24.474Y35.505
X24.474Y27.885
X27.014Y35.505
X27.014Y27.885
X29.554Y35.505
X29.554Y27.885
X36.576Y21.336
X41.576Y21.336
X5.334Y40.132
X10.334Y40.132
X4.064Y30.734
X11.684Y30.734
X5.334Y8.89
X10.334Y8.89
X36.576Y39.624
X41.576Y39.624
X4.064Y19.573
X11.684Y19.573
X4.064Y14.082
X11.684Y14.082
X41.656Y33.782
X41.656Y26.162
X5.334Y35.56
X10.334Y35.56
X38.354Y16.002
X38.354Y8.382
X21.67Y11.43
X26.67Y11.43
X4.078Y25.065
X11.698Y25.065
T3
X60.339Y25.441
X48.768Y16.764
X15.254Y43.866
X60.339Y20.881
X48.768Y21.336
X24.601Y5.126
X15.254Y5.126
X24.601Y43.866
T4
X60.96Y41.75
X60.96Y36.75
X60.96Y31.75
X60.96Y14.572
X60.96Y9.572
X60.96Y4.572
T0
M30
