G04 #@! TF.GenerationSoftware,KiCad,Pcbnew,5.1.0-060a0da~80~ubuntu18.04.1*
G04 #@! TF.CreationDate,2019-03-27T19:23:36+01:00*
G04 #@! TF.ProjectId,distpedal,64697374-7065-4646-916c-2e6b69636164,rev?*
G04 #@! TF.SameCoordinates,PX6d01460PY6ad32b0*
G04 #@! TF.FileFunction,Copper,L1,Top*
G04 #@! TF.FilePolarity,Positive*
%FSLAX46Y46*%
G04 Gerber Fmt 4.6, Leading zero omitted, Abs format (unit mm)*
G04 Created by KiCad (PCBNEW 5.1.0-060a0da~80~ubuntu18.04.1) date 2019-03-27 19:23:36*
%MOMM*%
%LPD*%
G04 APERTURE LIST*
%ADD10C,1.600000*%
%ADD11C,2.340000*%
%ADD12R,1.500000X1.500000*%
%ADD13O,1.500000X1.500000*%
%ADD14O,1.600000X1.600000*%
%ADD15R,1.600000X2.400000*%
%ADD16O,1.600000X2.400000*%
%ADD17C,2.000000*%
G04 APERTURE END LIST*
D10*
X41576000Y39624000D03*
X36576000Y39624000D03*
D11*
X60960000Y4572000D03*
X60960000Y9572000D03*
X60960000Y14572000D03*
D12*
X29210000Y21082000D03*
D13*
X21590000Y21082000D03*
X29210000Y16510000D03*
D12*
X21590000Y16510000D03*
D10*
X11684000Y30734000D03*
D14*
X4064000Y30734000D03*
X11697629Y25065002D03*
D10*
X4077629Y25065002D03*
X48768000Y40132000D03*
D14*
X48768000Y32512000D03*
X41656000Y33782000D03*
D10*
X41656000Y26162000D03*
X38354000Y8382000D03*
D14*
X38354000Y16002000D03*
D10*
X11684000Y19573336D03*
D14*
X4064000Y19573336D03*
X11684000Y14081670D03*
D10*
X4064000Y14081670D03*
D11*
X60960000Y41750000D03*
X60960000Y36750000D03*
X60960000Y31750000D03*
D15*
X29553829Y35504536D03*
D16*
X21933829Y27884536D03*
X27013829Y35504536D03*
X24473829Y27884536D03*
X24473829Y35504536D03*
X27013829Y27884536D03*
X21933829Y35504536D03*
X29553829Y27884536D03*
D10*
X54864000Y26924000D03*
D14*
X54864000Y19304000D03*
D10*
X5334000Y40132000D03*
X10334000Y40132000D03*
X10334000Y35560000D03*
X5334000Y35560000D03*
X36576000Y21336000D03*
X41576000Y21336000D03*
X26670000Y11430000D03*
X21670000Y11430000D03*
X5334000Y8890000D03*
X10334000Y8890000D03*
D17*
X15253629Y43865800D03*
X24600829Y43865800D03*
X60338629Y25440667D03*
X60338629Y20881334D03*
X48768000Y21336000D03*
X48768000Y16764000D03*
X24600829Y5126136D03*
X15253629Y5126136D03*
M02*
