G04 #@! TF.GenerationSoftware,KiCad,Pcbnew,5.0.1-33cea8e~68~ubuntu18.04.1*
G04 #@! TF.CreationDate,2018-10-31T23:38:40+01:00*
G04 #@! TF.ProjectId,tiny85 spi controller,74696E7938352073706920636F6E7472,rev?*
G04 #@! TF.SameCoordinates,PX76b1be0PY3ba3490*
G04 #@! TF.FileFunction,Copper,L2,Bot,Signal*
G04 #@! TF.FilePolarity,Positive*
%FSLAX46Y46*%
G04 Gerber Fmt 4.6, Leading zero omitted, Abs format (unit mm)*
G04 Created by KiCad (PCBNEW 5.0.1-33cea8e~68~ubuntu18.04.1) date Wed 31 Oct 2018 11:38:40 PM CET*
%MOMM*%
%LPD*%
G01*
G04 APERTURE LIST*
G04 #@! TA.AperFunction,Conductor*
%ADD10C,0.100000*%
G04 #@! TD*
G04 #@! TA.AperFunction,SMDPad,CuDef*
%ADD11C,0.590000*%
G04 #@! TD*
G04 #@! TA.AperFunction,SMDPad,CuDef*
%ADD12C,0.400000*%
G04 #@! TD*
G04 #@! TA.AperFunction,SMDPad,CuDef*
%ADD13R,1.500000X1.500000*%
G04 #@! TD*
G04 #@! TA.AperFunction,SMDPad,CuDef*
%ADD14R,1.700000X0.650000*%
G04 #@! TD*
G04 #@! TA.AperFunction,ComponentPad*
%ADD15R,1.700000X1.700000*%
G04 #@! TD*
G04 #@! TA.AperFunction,ComponentPad*
%ADD16O,1.700000X1.700000*%
G04 #@! TD*
G04 #@! TA.AperFunction,ViaPad*
%ADD17C,1.000000*%
G04 #@! TD*
G04 #@! TA.AperFunction,Conductor*
%ADD18C,0.500000*%
G04 #@! TD*
G04 APERTURE END LIST*
D10*
G04 #@! TO.N,GND*
G04 #@! TO.C,D1*
G36*
X31073358Y7734090D02*
X31087676Y7731966D01*
X31101717Y7728449D01*
X31115346Y7723572D01*
X31128431Y7717383D01*
X31140847Y7709942D01*
X31152473Y7701319D01*
X31163198Y7691598D01*
X31172919Y7680873D01*
X31181542Y7669247D01*
X31188983Y7656831D01*
X31195172Y7643746D01*
X31200049Y7630117D01*
X31203566Y7616076D01*
X31205690Y7601758D01*
X31206400Y7587300D01*
X31206400Y7292300D01*
X31205690Y7277842D01*
X31203566Y7263524D01*
X31200049Y7249483D01*
X31195172Y7235854D01*
X31188983Y7222769D01*
X31181542Y7210353D01*
X31172919Y7198727D01*
X31163198Y7188002D01*
X31152473Y7178281D01*
X31140847Y7169658D01*
X31128431Y7162217D01*
X31115346Y7156028D01*
X31101717Y7151151D01*
X31087676Y7147634D01*
X31073358Y7145510D01*
X31058900Y7144800D01*
X30713900Y7144800D01*
X30699442Y7145510D01*
X30685124Y7147634D01*
X30671083Y7151151D01*
X30657454Y7156028D01*
X30644369Y7162217D01*
X30631953Y7169658D01*
X30620327Y7178281D01*
X30609602Y7188002D01*
X30599881Y7198727D01*
X30591258Y7210353D01*
X30583817Y7222769D01*
X30577628Y7235854D01*
X30572751Y7249483D01*
X30569234Y7263524D01*
X30567110Y7277842D01*
X30566400Y7292300D01*
X30566400Y7587300D01*
X30567110Y7601758D01*
X30569234Y7616076D01*
X30572751Y7630117D01*
X30577628Y7643746D01*
X30583817Y7656831D01*
X30591258Y7669247D01*
X30599881Y7680873D01*
X30609602Y7691598D01*
X30620327Y7701319D01*
X30631953Y7709942D01*
X30644369Y7717383D01*
X30657454Y7723572D01*
X30671083Y7728449D01*
X30685124Y7731966D01*
X30699442Y7734090D01*
X30713900Y7734800D01*
X31058900Y7734800D01*
X31073358Y7734090D01*
X31073358Y7734090D01*
G37*
D11*
G04 #@! TD*
G04 #@! TO.P,D1,1*
G04 #@! TO.N,GND*
X30886400Y7439800D03*
D10*
G04 #@! TO.N,Net-(D1-Pad2)*
G04 #@! TO.C,D1*
G36*
X31073358Y8704090D02*
X31087676Y8701966D01*
X31101717Y8698449D01*
X31115346Y8693572D01*
X31128431Y8687383D01*
X31140847Y8679942D01*
X31152473Y8671319D01*
X31163198Y8661598D01*
X31172919Y8650873D01*
X31181542Y8639247D01*
X31188983Y8626831D01*
X31195172Y8613746D01*
X31200049Y8600117D01*
X31203566Y8586076D01*
X31205690Y8571758D01*
X31206400Y8557300D01*
X31206400Y8262300D01*
X31205690Y8247842D01*
X31203566Y8233524D01*
X31200049Y8219483D01*
X31195172Y8205854D01*
X31188983Y8192769D01*
X31181542Y8180353D01*
X31172919Y8168727D01*
X31163198Y8158002D01*
X31152473Y8148281D01*
X31140847Y8139658D01*
X31128431Y8132217D01*
X31115346Y8126028D01*
X31101717Y8121151D01*
X31087676Y8117634D01*
X31073358Y8115510D01*
X31058900Y8114800D01*
X30713900Y8114800D01*
X30699442Y8115510D01*
X30685124Y8117634D01*
X30671083Y8121151D01*
X30657454Y8126028D01*
X30644369Y8132217D01*
X30631953Y8139658D01*
X30620327Y8148281D01*
X30609602Y8158002D01*
X30599881Y8168727D01*
X30591258Y8180353D01*
X30583817Y8192769D01*
X30577628Y8205854D01*
X30572751Y8219483D01*
X30569234Y8233524D01*
X30567110Y8247842D01*
X30566400Y8262300D01*
X30566400Y8557300D01*
X30567110Y8571758D01*
X30569234Y8586076D01*
X30572751Y8600117D01*
X30577628Y8613746D01*
X30583817Y8626831D01*
X30591258Y8639247D01*
X30599881Y8650873D01*
X30609602Y8661598D01*
X30620327Y8671319D01*
X30631953Y8679942D01*
X30644369Y8687383D01*
X30657454Y8693572D01*
X30671083Y8698449D01*
X30685124Y8701966D01*
X30699442Y8704090D01*
X30713900Y8704800D01*
X31058900Y8704800D01*
X31073358Y8704090D01*
X31073358Y8704090D01*
G37*
D11*
G04 #@! TD*
G04 #@! TO.P,D1,2*
G04 #@! TO.N,Net-(D1-Pad2)*
X30886400Y8409800D03*
D10*
G04 #@! TO.N,Net-(C1-Pad2)*
G04 #@! TO.C,R1*
G36*
X30996202Y12081118D02*
X31005909Y12079679D01*
X31015428Y12077294D01*
X31024668Y12073988D01*
X31033540Y12069792D01*
X31041957Y12064747D01*
X31049839Y12058901D01*
X31057111Y12052311D01*
X31063701Y12045039D01*
X31069547Y12037157D01*
X31074592Y12028740D01*
X31078788Y12019868D01*
X31082094Y12010628D01*
X31084479Y12001109D01*
X31085918Y11991402D01*
X31086400Y11981600D01*
X31086400Y11721600D01*
X31085918Y11711798D01*
X31084479Y11702091D01*
X31082094Y11692572D01*
X31078788Y11683332D01*
X31074592Y11674460D01*
X31069547Y11666043D01*
X31063701Y11658161D01*
X31057111Y11650889D01*
X31049839Y11644299D01*
X31041957Y11638453D01*
X31033540Y11633408D01*
X31024668Y11629212D01*
X31015428Y11625906D01*
X31005909Y11623521D01*
X30996202Y11622082D01*
X30986400Y11621600D01*
X30786400Y11621600D01*
X30776598Y11622082D01*
X30766891Y11623521D01*
X30757372Y11625906D01*
X30748132Y11629212D01*
X30739260Y11633408D01*
X30730843Y11638453D01*
X30722961Y11644299D01*
X30715689Y11650889D01*
X30709099Y11658161D01*
X30703253Y11666043D01*
X30698208Y11674460D01*
X30694012Y11683332D01*
X30690706Y11692572D01*
X30688321Y11702091D01*
X30686882Y11711798D01*
X30686400Y11721600D01*
X30686400Y11981600D01*
X30686882Y11991402D01*
X30688321Y12001109D01*
X30690706Y12010628D01*
X30694012Y12019868D01*
X30698208Y12028740D01*
X30703253Y12037157D01*
X30709099Y12045039D01*
X30715689Y12052311D01*
X30722961Y12058901D01*
X30730843Y12064747D01*
X30739260Y12069792D01*
X30748132Y12073988D01*
X30757372Y12077294D01*
X30766891Y12079679D01*
X30776598Y12081118D01*
X30786400Y12081600D01*
X30986400Y12081600D01*
X30996202Y12081118D01*
X30996202Y12081118D01*
G37*
D12*
G04 #@! TD*
G04 #@! TO.P,R1,1*
G04 #@! TO.N,Net-(C1-Pad2)*
X30886400Y11851600D03*
D10*
G04 #@! TO.N,Net-(D1-Pad2)*
G04 #@! TO.C,R1*
G36*
X30996202Y11441118D02*
X31005909Y11439679D01*
X31015428Y11437294D01*
X31024668Y11433988D01*
X31033540Y11429792D01*
X31041957Y11424747D01*
X31049839Y11418901D01*
X31057111Y11412311D01*
X31063701Y11405039D01*
X31069547Y11397157D01*
X31074592Y11388740D01*
X31078788Y11379868D01*
X31082094Y11370628D01*
X31084479Y11361109D01*
X31085918Y11351402D01*
X31086400Y11341600D01*
X31086400Y11081600D01*
X31085918Y11071798D01*
X31084479Y11062091D01*
X31082094Y11052572D01*
X31078788Y11043332D01*
X31074592Y11034460D01*
X31069547Y11026043D01*
X31063701Y11018161D01*
X31057111Y11010889D01*
X31049839Y11004299D01*
X31041957Y10998453D01*
X31033540Y10993408D01*
X31024668Y10989212D01*
X31015428Y10985906D01*
X31005909Y10983521D01*
X30996202Y10982082D01*
X30986400Y10981600D01*
X30786400Y10981600D01*
X30776598Y10982082D01*
X30766891Y10983521D01*
X30757372Y10985906D01*
X30748132Y10989212D01*
X30739260Y10993408D01*
X30730843Y10998453D01*
X30722961Y11004299D01*
X30715689Y11010889D01*
X30709099Y11018161D01*
X30703253Y11026043D01*
X30698208Y11034460D01*
X30694012Y11043332D01*
X30690706Y11052572D01*
X30688321Y11062091D01*
X30686882Y11071798D01*
X30686400Y11081600D01*
X30686400Y11341600D01*
X30686882Y11351402D01*
X30688321Y11361109D01*
X30690706Y11370628D01*
X30694012Y11379868D01*
X30698208Y11388740D01*
X30703253Y11397157D01*
X30709099Y11405039D01*
X30715689Y11412311D01*
X30722961Y11418901D01*
X30730843Y11424747D01*
X30739260Y11429792D01*
X30748132Y11433988D01*
X30757372Y11437294D01*
X30766891Y11439679D01*
X30776598Y11441118D01*
X30786400Y11441600D01*
X30986400Y11441600D01*
X30996202Y11441118D01*
X30996202Y11441118D01*
G37*
D12*
G04 #@! TD*
G04 #@! TO.P,R1,2*
G04 #@! TO.N,Net-(D1-Pad2)*
X30886400Y11211600D03*
D13*
G04 #@! TO.P,SW1,1*
G04 #@! TO.N,Net-(J3-Pad5)*
X14504500Y16751300D03*
G04 #@! TO.P,SW1,2*
G04 #@! TO.N,GND*
X6704500Y16751300D03*
G04 #@! TD*
D14*
G04 #@! TO.P,U2,1*
G04 #@! TO.N,Net-(J3-Pad5)*
X6814800Y5003800D03*
G04 #@! TO.P,U2,2*
G04 #@! TO.N,Net-(U1-Pad11)*
X6814800Y6273800D03*
G04 #@! TO.P,U2,3*
G04 #@! TO.N,Net-(U1-Pad12)*
X6814800Y7543800D03*
G04 #@! TO.P,U2,4*
G04 #@! TO.N,GND*
X6814800Y8813800D03*
G04 #@! TO.P,U2,5*
G04 #@! TO.N,Net-(J3-Pad4)*
X14114800Y8813800D03*
G04 #@! TO.P,U2,6*
G04 #@! TO.N,Net-(J3-Pad1)*
X14114800Y7543800D03*
G04 #@! TO.P,U2,7*
G04 #@! TO.N,Net-(J3-Pad3)*
X14114800Y6273800D03*
G04 #@! TO.P,U2,8*
G04 #@! TO.N,Net-(C1-Pad2)*
X14114800Y5003800D03*
G04 #@! TD*
D15*
G04 #@! TO.P,J3,1*
G04 #@! TO.N,Net-(J3-Pad1)*
X23622000Y12090400D03*
D16*
G04 #@! TO.P,J3,2*
G04 #@! TO.N,Net-(C1-Pad2)*
X26162000Y12090400D03*
G04 #@! TO.P,J3,3*
G04 #@! TO.N,Net-(J3-Pad3)*
X23622000Y9550400D03*
G04 #@! TO.P,J3,4*
G04 #@! TO.N,Net-(J3-Pad4)*
X26162000Y9550400D03*
G04 #@! TO.P,J3,5*
G04 #@! TO.N,Net-(J3-Pad5)*
X23622000Y7010400D03*
G04 #@! TO.P,J3,6*
G04 #@! TO.N,GND*
X26162000Y7010400D03*
G04 #@! TD*
D17*
G04 #@! TO.N,Net-(C1-Pad2)*
X16967200Y15290800D03*
X30937200Y15290800D03*
G04 #@! TO.N,GND*
X4419600Y16764000D03*
G04 #@! TO.N,Net-(U1-Pad11)*
X4318000Y12903200D03*
G04 #@! TO.N,Net-(U1-Pad12)*
X4817252Y9694052D03*
G04 #@! TD*
D18*
G04 #@! TO.N,Net-(C1-Pad2)*
X12714799Y11038399D02*
X16967200Y15290800D01*
X12714799Y5053801D02*
X12714799Y11038399D01*
X14114800Y5003800D02*
X12764800Y5003800D01*
X12764800Y5003800D02*
X12714799Y5053801D01*
X30937200Y12042410D02*
X30886400Y11991610D01*
X30937200Y15290800D02*
X30937200Y12042410D01*
G04 #@! TO.N,GND*
X6704500Y8924100D02*
X6814800Y8813800D01*
X6704500Y16751300D02*
X6704500Y8924100D01*
X6704500Y16751300D02*
X4432300Y16751300D01*
X4432300Y16751300D02*
X4419600Y16764000D01*
X30457000Y7010400D02*
X30886400Y7439800D01*
X26162000Y7010400D02*
X30457000Y7010400D01*
G04 #@! TO.N,Net-(D1-Pad2)*
X30886400Y8804800D02*
X30886400Y11171590D01*
X30886400Y8409800D02*
X30886400Y8804800D01*
G04 #@! TO.N,Net-(J3-Pad1)*
X14114800Y7543800D02*
X16078200Y7543800D01*
X20624800Y12090400D02*
X23622000Y12090400D01*
X16078200Y7543800D02*
X20624800Y12090400D01*
G04 #@! TO.N,Net-(J3-Pad3)*
X14114800Y6273800D02*
X17551400Y6273800D01*
X20828000Y9550400D02*
X23622000Y9550400D01*
X17551400Y6273800D02*
X20828000Y9550400D01*
G04 #@! TO.N,Net-(J3-Pad4)*
X15464800Y8813800D02*
X14114800Y8813800D01*
X26162000Y9550400D02*
X27838400Y9550400D01*
X20671800Y14020800D02*
X15464800Y8813800D01*
X27838400Y9550400D02*
X28295600Y10007600D01*
X28295600Y10007600D02*
X28295600Y13208000D01*
X28295600Y13208000D02*
X27482800Y14020800D01*
X27482800Y14020800D02*
X20671800Y14020800D01*
G04 #@! TO.N,Net-(J3-Pad5)*
X14504500Y15501300D02*
X10261600Y11258400D01*
X14504500Y16751300D02*
X14504500Y15501300D01*
X10261600Y7100600D02*
X8164800Y5003800D01*
X10261600Y11258400D02*
X10261600Y7100600D01*
X22419919Y7010400D02*
X19016319Y3606800D01*
X23622000Y7010400D02*
X22419919Y7010400D01*
X9561800Y3606800D02*
X8164800Y5003800D01*
X8164800Y5003800D02*
X6814800Y5003800D01*
X19016319Y3606800D02*
X9561800Y3606800D01*
G04 #@! TO.N,Net-(U1-Pad11)*
X5464800Y6273800D02*
X6814800Y6273800D01*
X3767251Y7971349D02*
X5464800Y6273800D01*
X3767251Y12352451D02*
X3767251Y7971349D01*
X4318000Y12903200D02*
X3767251Y12352451D01*
G04 #@! TO.N,Net-(U1-Pad12)*
X5464800Y7543800D02*
X4673600Y8335000D01*
X6814800Y7543800D02*
X5464800Y7543800D01*
X4673600Y8335000D02*
X4673600Y9550400D01*
X4673600Y9550400D02*
X4817252Y9694052D01*
G04 #@! TD*
M02*
