M48
;DRILL file {KiCad 4.0.7} date 03/21/18 12:07:50
;FORMAT={-:-/ absolute / metric / decimal}
FMAT,2
METRIC,TZ
T1C0.700
T2C0.800
T3C1.000
%
G90
G05
M71
T1
X12.7Y12.7
X12.7Y10.16
X12.7Y7.62
X12.7Y5.08
X17.78Y12.7
X17.78Y10.16
X17.78Y7.62
X17.78Y5.08
T2
X7.62Y8.89
X9.62Y8.89
X20.32Y12.7
X20.32Y10.16
X20.32Y7.62
X20.32Y5.08
X27.94Y12.7
X27.94Y10.16
X27.94Y7.62
X27.94Y5.08
T3
X3.81Y13.97
X3.81Y11.43
X3.81Y8.89
X3.81Y6.35
X3.81Y3.81
X31.75Y12.7
X31.75Y5.08
T0
M30
